<svg width="93" height="93" fill="none" xmlns="http://www.w3.org/2000/svg"><path d="M83.036 8.319H9.964A9.975 9.975 0 000 18.283v56.434a9.975 9.975 0 009.964 9.964h73.072A9.975 9.975 0 0093 74.717V18.283a9.975 9.975 0 00-9.964-9.964zM9.964 11.64h73.072a6.65 6.65 0 016.643 6.643v6.628H31.46a10.65 10.65 0 00-18.309 0h-9.83v-6.628a6.65 6.65 0 016.642-6.643zm13.78 30.934a1.66 1.66 0 01-2.875 0l-4.925-8.53a7.347 7.347 0 1112.724 0l-4.923 8.53zM83.037 81.36H9.964a6.65 6.65 0 01-6.643-6.643V28.232h8.545a10.542 10.542 0 001.2 7.473l4.926 8.53a4.905 4.905 0 002.65 2.172v3.414a4.987 4.987 0 004.982 4.983h8.957c0 .983.002 5.291 0 6.357a3.611 3.611 0 003.607 3.607h16.628a3.611 3.611 0 003.607-3.607v-6.357H70.58a1.662 1.662 0 011.661 1.66v3.522a7.466 7.466 0 103.321 0v-3.522a4.987 4.987 0 00-4.982-4.982H58.423v-6.357a3.611 3.611 0 00-3.607-3.607H38.188a3.612 3.612 0 00-3.607 3.607v6.357h-8.957a1.662 1.662 0 01-1.66-1.66V46.41a4.906 4.906 0 002.658-2.177l4.924-8.529a10.544 10.544 0 001.202-7.473h56.93v46.485a6.65 6.65 0 01-6.642 6.643zM46.503 50.768a1.658 1.658 0 001.661-1.661v-4.268h6.653a.292.292 0 01.285.286V61.16a.286.286 0 01-.285.285h-8.314V57.91a3.325 3.325 0 00-3.321-3.321h-5.28v-9.463a.292.292 0 01.286-.286h6.655v4.268a1.662 1.662 0 001.66 1.66zm-8.315 10.678a.286.286 0 01-.285-.285v-3.252h5.279v3.537h-4.994zm35.714 1.661a4.152 4.152 0 010 8.304 4.153 4.153 0 010-8.304z" fill="#A78438"/><path d="M49.822 19.936h6.643a1.661 1.661 0 000-3.322h-6.643a1.661 1.661 0 000 3.322zm13.285 0h6.643a1.661 1.661 0 000-3.322h-6.643a1.661 1.661 0 000 3.322zm13.286 0h6.643a1.661 1.661 0 000-3.322h-6.643a1.661 1.661 0 000 3.322zM22.307 27.78a1.66 1.66 0 000 3.322 1.66 1.66 0 000-3.322zm-9.021 40.31h13.286a1.661 1.661 0 000-3.322H13.286a1.661 1.661 0 000 3.321zm19.928 3.32H13.286a1.661 1.661 0 000 3.322h19.928a1.66 1.66 0 000-3.321zm46.501-36.535H66.429a1.661 1.661 0 000 3.321h13.286a1.66 1.66 0 000-3.321zm0 6.643H63.106a1.661 1.661 0 000 3.321h16.608a1.661 1.661 0 000-3.321z" fill="#A78438"/></svg>