<svg width="96" height="96" fill="none" xmlns="http://www.w3.org/2000/svg"><g clip-path="url(#clip0_7_273)" fill="#A78438"><path d="M93.895 43.423c-.655-.868-1.333-1.767-1.441-2.464-.117-.742.258-1.833.621-2.886.528-1.527 1.123-3.258.588-4.908-.544-1.681-2.063-2.742-3.402-3.678-.9-.628-1.828-1.278-2.157-1.92-.336-.657-.317-1.803-.299-2.91.027-1.623.057-3.46-.97-4.873-1.032-1.42-2.796-1.958-4.351-2.432-1.055-.321-2.147-.655-2.661-1.17-.516-.516-.85-1.608-1.17-2.662-.475-1.556-1.013-3.32-2.434-4.352-1.411-1.027-3.25-.999-4.871-.97-1.108.02-2.255.037-2.91-.299-.642-.327-1.292-1.257-1.92-2.157-.935-1.34-1.996-2.856-3.677-3.402-1.651-.535-3.386.06-4.914.585-1.053.363-2.146.737-2.886.623-.697-.11-1.596-.788-2.466-1.442C51.267 1.119 49.782 0 48 0s-3.267 1.119-4.577 2.106c-.868.655-1.767 1.332-2.464 1.442-.74.118-1.832-.26-2.886-.623-1.529-.526-3.26-1.122-4.908-.588-1.681.546-2.742 2.062-3.678 3.402-.628.899-1.278 1.829-1.92 2.155-.657.336-1.805.316-2.91.299-1.623-.031-3.46-.059-4.873.97-1.42 1.032-1.958 2.796-2.432 4.352-.321 1.056-.655 2.146-1.17 2.662-.516.517-1.608.85-2.664 1.172-1.556.474-3.318 1.012-4.352 2.431-1.027 1.412-.997 3.251-.97 4.874.018 1.108.036 2.253-.298 2.912-.327.64-1.257 1.29-2.156 1.918-1.34.936-2.856 1.996-3.404 3.678-.535 1.651.062 3.383.588 4.911.363 1.054.74 2.144.623 2.886-.11.697-.786 1.596-1.442 2.464C1.12 44.733 0 46.218 0 48s1.119 3.267 2.106 4.577c.655.868 1.332 1.768 1.442 2.465l2.963-.466c-.224-1.438-1.132-2.642-2.01-3.806C3.764 49.791 3 48.779 3 48c0-.779.764-1.791 1.502-2.77.877-1.164 1.783-2.367 2.01-3.806.232-1.479-.267-2.928-.75-4.329-.392-1.136-.797-2.312-.57-3.006.235-.724 1.268-1.446 2.268-2.145 1.2-.838 2.442-1.706 3.109-3.014.675-1.322.651-2.848.625-4.324-.019-1.209-.039-2.457.398-3.059.442-.607 1.641-.973 2.802-1.327 1.407-.43 2.864-.874 3.909-1.92 1.046-1.046 1.49-2.5 1.918-3.908.355-1.159.719-2.359 1.328-2.801.602-.438 1.851-.419 3.059-.398 1.476.024 3 .05 4.324-.625 1.308-.668 2.175-1.909 3.015-3.11.698-.999 1.42-2.031 2.145-2.267.693-.228 1.869.18 3.005.57 1.402.484 2.85.981 4.328.75 1.438-.224 2.642-1.132 3.806-2.01C46.209 3.764 47.221 3 48 3c.779 0 1.791.764 2.77 1.502 1.164.877 2.367 1.783 3.806 2.01 1.476.228 2.928-.267 4.329-.75 1.137-.392 2.31-.798 3.008-.57.723.235 1.446 1.267 2.145 2.266.838 1.2 1.706 2.442 3.013 3.11 1.323.675 2.855.654 4.325.625 1.209-.018 2.458-.04 3.06.398.607.442.971 1.64 1.327 2.802.429 1.406.873 2.863 1.918 3.909 1.045 1.045 2.501 1.489 3.908 1.918 1.158.354 2.358.72 2.8 1.328.438.601.417 1.849.398 3.058-.024 1.476-.048 3.002.627 4.324.668 1.308 1.908 2.175 3.108 3.014.999.699 2.031 1.42 2.268 2.146.225.695-.178 1.87-.57 3.005-.483 1.401-.981 2.85-.75 4.329.227 1.437 1.134 2.642 2.01 3.804.737.981 1.5 1.993 1.5 2.772 0 .779-.763 1.791-1.501 2.772-.876 1.163-1.782 2.366-2.01 3.804l2.965.466c.108-.697.786-1.596 1.442-2.465C94.88 51.267 96 49.782 96 48s-1.119-3.267-2.105-4.577zM81.606 75.781c-1.407.43-2.863.873-3.907 1.919-1.046 1.044-1.49 2.5-1.92 3.907-.353 1.16-.719 2.359-1.328 2.801-.6.436-1.857.415-3.057.397-1.476-.024-3-.048-4.326.627-1.306.668-2.174 1.909-3.012 3.108-.699 1-1.42 2.031-2.146 2.268-.696.228-1.87-.177-3.006-.57-1.402-.481-2.852-.972-4.33-.75-1.438.227-2.641 1.135-3.803 2.01C49.79 92.238 48.779 93 48 93c-.779 0-1.791-.763-2.772-1.501-1.163-.876-2.367-1.782-3.804-2.01-1.474-.223-2.928.268-4.329.75-1.136.391-2.309.797-3.006.57-.724-.236-1.447-1.27-2.145-2.269-.84-1.201-1.707-2.442-3.014-3.109-1.322-.675-2.85-.651-4.322-.626-1.21.015-2.459.041-3.06-.399-.608-.442-.974-1.64-1.328-2.8-.43-1.407-.874-2.863-1.92-3.907-1.046-1.046-2.5-1.49-3.909-1.92-1.16-.353-2.36-.719-2.8-1.328l-2.426 1.767c1.032 1.417 2.796 1.956 4.35 2.43 1.056.323 2.148.656 2.664 1.172.516.516.849 1.606 1.172 2.662.474 1.555 1.012 3.318 2.431 4.35 1.412 1.03 3.25.996 4.875.97 1.105-.012 2.253-.036 2.91.299.64.327 1.29 1.257 1.918 2.157.937 1.34 1.997 2.856 3.678 3.404 1.649.53 3.382-.06 4.91-.589 1.054-.361 2.146-.748 2.886-.62.697.108 1.596.785 2.464 1.441C44.733 94.881 46.218 96 48 96s3.267-1.119 4.577-2.105c.868-.655 1.768-1.333 2.465-1.441.733-.129 1.832.258 2.886.621 1.53.528 3.263 1.125 4.909.588 1.681-.544 2.742-2.064 3.677-3.403.629-.899 1.28-1.829 1.919-2.156.657-.338 1.8-.32 2.91-.299 1.612.026 3.459.057 4.873-.97 1.418-1.032 1.957-2.794 2.43-4.35.323-1.055.656-2.148 1.172-2.662.516-.516 1.606-.85 2.661-1.17 1.555-.475 3.32-1.015 4.352-2.434l-2.426-1.763c-.44.605-1.64.97-2.799 1.325zM12 69v-3a1.5 1.5 0 00-1.5-1.5h-3v3H9V69a1.501 1.501 0 01-3 0v-9a1.501 1.501 0 013 0v1.5h3V60c0-2.481-2.019-4.5-4.5-4.5A4.505 4.505 0 003 60v9c0 2.481 2.019 4.5 4.5 4.5S12 71.481 12 69zm1.5-13.5V69c0 2.481 2.019 4.5 4.5 4.5s4.5-2.019 4.5-4.5V55.5h-3V69c0 .828-.674 1.5-1.5 1.5s-1.5-.672-1.5-1.5V55.5h-3zM24 60v13.5h3v-3h3v3h3V60c0-2.481-2.019-4.5-4.5-4.5A4.505 4.505 0 0024 60zm6 0v7.5h-3V60c0-.828.674-1.5 1.5-1.5s1.5.672 1.5 1.5zm15 0v13.5h3v-3h3v3h3V60c0-2.481-2.019-4.5-4.5-4.5A4.505 4.505 0 0045 60zm4.5-1.5A1.5 1.5 0 0151 60v7.5h-3V60c0-.828.673-1.5 1.5-1.5zm-15-1.5v16.5h3v-4.724l3.328 4.162c.285.355.716.562 1.172.562h1.5v-3h-.78l-3.651-4.564A5.257 5.257 0 0043.5 60.75a5.256 5.256 0 00-5.25-5.25H36a1.5 1.5 0 00-1.5 1.5zm3 1.5h.75c1.24 0 2.25 1.01 2.25 2.25S39.49 63 38.25 63h-.75v-4.5zm24 5.712l-3.106-7.769a1.515 1.515 0 00-1.677-.916A1.5 1.5 0 0055.5 57v16.5h3v-8.712l3.106 7.769a1.502 1.502 0 001.677.916A1.5 1.5 0 0064.5 72V55.5h-3v8.712zM72 58.5h3v-3h-9v3h3v15h3v-15zm12 0v-3h-6c-.83 0-1.5.67-1.5 1.5v15c0 .83.67 1.5 1.5 1.5h6v-3h-4.5V66H84v-3h-4.5v-4.5H84zm1.5-1.5v15c0 .83.67 1.5 1.5 1.5h6v-3h-4.5V66H93v-3h-4.5v-4.5H93v-3h-6c-.83 0-1.5.67-1.5 1.5z"/><path d="M85.5 48c0-20.677-16.823-37.5-37.5-37.5S10.5 27.323 10.5 48c0 1.51.102 3.087.302 4.686l2.976-.372A34.951 34.951 0 0113.5 48c0-19.023 15.477-34.5 34.5-34.5 19.025 0 34.5 15.477 34.5 34.5 0 1.386-.093 2.838-.279 4.314l2.976.372c.203-1.599.303-3.175.303-4.686zM70.9 77.686l-1.834-2.373C62.977 80.014 55.695 82.5 48 82.5c-7.694 0-14.977-2.486-21.064-7.186L25.1 77.687C31.719 82.798 39.636 85.5 48 85.5s16.282-2.701 22.9-7.814z"/><path d="M33 31.5h-3v3h1.5v15h3V33a1.5 1.5 0 00-1.5-1.5zm8.25 0A5.256 5.256 0 0036 36.75v7.5a5.256 5.256 0 005.25 5.25 5.256 5.256 0 005.25-5.25v-7.5a5.256 5.256 0 00-5.25-5.25zm2.25 12.75c0 1.24-1.01 2.25-2.25 2.25S39 45.49 39 44.25v-7.5c0-1.24 1.01-2.25 2.25-2.25s2.25 1.01 2.25 2.25v7.5zm9.75-12.75A5.256 5.256 0 0048 36.75v7.5a5.256 5.256 0 005.25 5.25 5.256 5.256 0 005.25-5.25v-7.5a5.256 5.256 0 00-5.25-5.25zm2.25 12.75c0 1.24-1.01 2.25-2.25 2.25S51 45.49 51 44.25v-7.5c0-1.24 1.01-2.25 2.25-2.25s2.25 1.01 2.25 2.25v7.5zm7.656 3.08l6-12 2.684 1.34-6 12-2.684-1.34zM64.5 37.5h-3v3h3v-3zm9 6h-3v3h3v-3z"/></g><defs><clipPath id="clip0_7_273"><path fill="#fff" d="M0 0h96v96H0z"/></clipPath></defs></svg>