<svg width="96" height="96" fill="none" xmlns="http://www.w3.org/2000/svg"><g clip-path="url(#clip0_7_286)" fill="#A78438"><path d="M71.628 52.02a1.407 1.407 0 001.853-.721l7.012-15.95a1.406 1.406 0 00-1.288-1.973h-8.774a1.406 1.406 0 100 2.813h6.62l-6.144 13.978c-.313.71.01 1.54.721 1.853zM53.357 35.771c-.093-1.112-.75-2.015-1.673-2.301-.438-.136-1.569-.311-2.621.98-.91 1.116-5.424 9.272-6.32 10.896a1.407 1.407 0 001.231 2.085h6.561c-.008 1.166-.017 2.288-.026 3.29a1.406 1.406 0 001.395 1.418h.012c.77 0 1.399-.622 1.406-1.394l.026-3.314h.643a1.406 1.406 0 100-2.812h-.624c.024-3.925.038-8.27-.01-8.848zm-2.803 8.848h-4.191c1.53-2.744 3.253-5.777 4.211-7.358.008 1.588-.003 4.423-.02 7.358z"/><path d="M41.996 39.642c.01-.046.019-.092.025-.139l.079-.617c.007-.059.011-.118.011-.178a5.494 5.494 0 00-5.487-5.488 5.496 5.496 0 00-5.385 4.426 1.406 1.406 0 002.76.542 2.678 2.678 0 012.625-2.155 2.678 2.678 0 012.674 2.595l-.057.444c-.208.84-.7 1.82-1.463 2.91-2.53 3.615-4.042 5.594-4.853 6.657-.995 1.302-1.33 1.741-1.083 2.546.143.463.495.819.966.976.19.063.411.137 3.466.137 1.208 0 2.859-.012 5.125-.04a1.406 1.406 0 00-.017-2.813h-.018a456.93 456.93 0 01-5.547.037c.898-1.189 2.27-3.038 4.265-5.889.99-1.413 1.634-2.743 1.914-3.95zm16.569 12.653c.559 0 1.087-.336 1.307-.887l6.406-16.106a1.406 1.406 0 10-2.613-1.04L57.258 50.37a1.406 1.406 0 001.307 1.926z"/><path d="M85.42 14.6a1.406 1.406 0 00-2.115 1.854c6.674 7.611 10.176 17.393 9.863 27.544A39.79 39.79 0 0181.488 71a39.803 39.803 0 01-11.14 7.863 6.064 6.064 0 00-1.173-1.151l-1.782-1.34a36.147 36.147 0 0011.635-7.834c14.216-14.216 14.216-37.347 0-51.563-13.69-13.69-35.695-14.3-50.097-1.389a1.406 1.406 0 101.877 2.094c13.29-11.914 33.598-11.35 46.231 1.284 13.12 13.12 13.12 34.466 0 47.586a33.337 33.337 0 01-12.288 7.833l-6.184-4.651a4.226 4.226 0 00-5.568.437l-5.002 5.17a.47.47 0 01-.584.071 84.012 84.012 0 01-26.82-26.82.47.47 0 01.072-.585l5.169-5.002a4.225 4.225 0 00.437-5.567l-4.652-6.185a33.382 33.382 0 015.159-9.277 1.406 1.406 0 10-2.21-1.74 36.187 36.187 0 00-4.937 8.375l-1.336-1.776a6.095 6.095 0 00-1.156-1.178 39.803 39.803 0 017.864-11.141A39.817 39.817 0 0151.67 2.847c10.011-.394 19.72 2.94 27.339 9.384a1.406 1.406 0 001.816-2.147C72.668 3.184 62.276-.384 51.559.036a42.623 42.623 0 00-28.545 12.49 42.602 42.602 0 00-8.436 11.969 6.085 6.085 0 00-5.48 1.67L2.035 33.23C.929 34.334.242 35.77.1 37.273c-.437 4.61.635 9.858 3.186 15.595a1.406 1.406 0 102.57-1.142C3.504 46.436 2.509 41.662 2.9 37.539c.08-.853.48-1.677 1.123-2.32l7.065-7.066a3.284 3.284 0 014.955.366l7.98 10.608a1.408 1.408 0 01-.146 1.856l-5.169 5.002a3.298 3.298 0 00-.504 4.091A86.837 86.837 0 0045.927 77.8a3.299 3.299 0 004.09-.504l5.003-5.17a1.409 1.409 0 011.856-.145l10.613 7.984a3.28 3.28 0 01.36 4.951l-7.064 7.065a3.94 3.94 0 01-2.438 1.134c-16.171 1.426-36.433-18.62-36.636-18.822-.074-.074-7.474-7.52-12.974-16.973a1.406 1.406 0 00-2.431 1.415C11.988 68.5 19.41 75.968 19.723 76.282c.215.215 5.359 5.332 12.693 10.343C41.533 92.853 49.672 96 56.649 96c.659 0 1.308-.028 1.945-.084a6.758 6.758 0 004.18-1.947l7.064-7.065a6.089 6.089 0 001.67-5.478 42.605 42.605 0 0011.97-8.437 42.59 42.59 0 0012.501-28.905C96.315 33.22 92.564 22.748 85.42 14.6z"/></g><defs><clipPath id="clip0_7_286"><path fill="#fff" d="M0 0h96v96H0z"/></clipPath></defs></svg>