<svg width="264" height="84" fill="none" xmlns="http://www.w3.org/2000/svg"><path d="M26.662 15.971c.1.011.195.03.292.054l.045.011.146.037.104.026a139.613 139.613 0 01.447.112c.441.11.882.222 1.322.338l.057.015.153.04.043.012c.067.018.13.037.194.065a27.757 27.757 0 01.02.199c.032.31.033.62.035.93a293.049 293.049 0 01.004.527c.005 1.114.15 2.196.65 3.206l.02.041a4.783 4.783 0 00.556.852c.22.28.483.542.774.75l.07.052c.157.113.316.218.483.312l.044.024c.68.376 1.42.577 2.188.685l.062.009c.571.076 1.164.067 1.737.034l.038-.002c.246-.016.492-.048.736-.08l.086-.012c.267-.035.533-.073.799-.11 1.19-.17 2.383-.312 3.584-.375l.037-.002c.15-.008.298-.013.448-.016h.035c1.466-.023 2.928.148 4.9.418l.112.016.349.05a10.298 10.298 0 001.705.126h.036c.357 0 .71-.004 1.064-.056l.036-.005c1.024-.146 1.998-.476 2.819-1.12l.05-.039c.464-.37.833-.83 1.126-1.345l.02-.036c.552-.976.74-2.125.745-3.233a85.66 85.66 0 01.005-.616c.005-.817.005-.817.043-1.184.22-.072.442-.13.666-.188l.112-.028.296-.075.293-.075.567-.143.266-.068.195-.049.09-.023.123-.03.036-.01a.614.614 0 01.16-.02 4.411 4.411 0 01-.048.323l-.01.05-.03.162-.022.118-.06.323-.059.311-.119.632-.118.63-.007.04-.038.198-.257 1.373-.06.315-.006.039-.239 1.27-.01.06-.1.527-.108.58-.53 2.828-.007.036-.232 1.24-.193 1.033-.006.035-.656 3.497-.088.467-.008.044-.033.173a384.89 384.89 0 01-.214 1.136l-.01.053-.01.047a14.08 14.08 0 01-.007.042l-.003.03.017.018.029-.035.04-.048a22.46 22.46 0 01.124-.153 88.57 88.57 0 00.421-.517c.102-.123.202-.247.303-.372l.34-.417.266-.327a114.174 114.174 0 01.493-.605l.19-.234.303-.372.34-.417.153-.188.19-.234.303-.372.34-.417.153-.188.19-.234.303-.372c.113-.14.226-.279.34-.417l.266-.327.34-.417.153-.189.19-.233.303-.372.34-.417a54.98 54.98 0 00.343-.422l.303-.372c.113-.14.226-.279.34-.417.08-.097.158-.194.236-.291l.114-.14.056-.07.142-.173c.099-.122.197-.244.293-.367.06-.076.121-.15.186-.22.04.036.062.066.081.117l.016.04.017.046.02.05.042.11.126.324.014.037c.097.248.196.495.295.742l.024.06a1233.336 1233.336 0 00.358.889l.024.057c.119.297.236.594.353.892a92.913 92.913 0 00.595 1.49l.124.307.07.17.04.105a24.877 24.877 0 00.037.09l.016.038c.019.053.034.108.05.162l.048-.003c.553-.041 1.107-.076 1.66-.11l.403-.026.789-.049.689-.043.046-.003.187-.012 1.743-.108 1.548-.097a31.375 31.375 0 00.15-.01l.247-.015.05-.003 1.296-.08a1041.715 1041.715 0 00.231-.015l.645-.04.828-.052.438-.027.327-.02.132-.009.18-.01.052-.004.048-.003.042-.003c.035-.002.07-.002.106-.002a.919.919 0 01-.046.168l-.018.048-.02.051-.02.055-.067.178-.048.125c-.112.296-.225.593-.339.889-.094.245-.188.49-.28.736a280.062 280.062 0 01-.657 1.718l-.023.06a477.329 477.329 0 00-.661 1.735l-.02.05-.3.785-.023.06a477.329 477.329 0 00-.642 1.685l-.019.05-.019.05-.3.785-.023.06a534.28 534.28 0 00-.68 1.784 371.643 371.643 0 00-.236.617c-.04.102-.078.205-.117.307-.067.177-.135.353-.204.53l-.049.122-.044.11-.025.065-.022.055c-.015.045-.015.045 0 .084a.738.738 0 00.087.098l.038.038.04.039c.146.143.146.143.21.217.082.096.173.183.263.272.099.097.197.195.287.3.074.083.153.159.232.236.099.098.197.195.287.301.074.082.153.158.232.235.099.098.197.196.288.302.07.079.147.152.222.226.184.182.184.182.25.259.082.095.172.181.26.269.1.098.198.195.288.3.074.083.153.159.232.236.099.098.197.195.287.301.073.082.153.158.232.235.278.275.278.275.354.39-.334.15-.669.3-1.004.446-.251.11-.502.22-.752.332-.266.118-.531.236-.798.353l-.612.27-.656.29c-.252.11-.503.221-.754.333-.266.118-.532.236-.798.352-.217.096-.434.191-.65.288-.224.1-.449.198-.673.297-.208.09-.415.182-.621.274l-.657.29-.753.333c-.266.118-.532.236-.799.352l-.611.27a62.64 62.64 0 01-.657.29c-.251.11-.503.222-.754.334-.265.118-.531.236-.798.352l-.612.27c-.218.098-.437.194-.656.29-.252.11-.503.222-.754.333-.265.119-.532.236-.798.353l-.612.27c-.524.233-1.05.463-1.574.692.082.205.17.407.26.609l.115.257.023.053.226.51c.105.242.211.483.318.723l.02.047.145.327.165.375.021.046a272.287 272.287 0 01.618 1.405 277.022 277.022 0 01.64 1.453 246.392 246.392 0 01.64 1.451l.02.046.214.485.092.207.065.146.04.09.017.04c.08.182.08.182.08.243a169.85 169.85 0 01-1.4-.226l-.288-.047-.498-.082-.726-.12-.34-.056-.035-.005c-.174-.03-.348-.058-.523-.087l-.035-.005-.14-.023-1.215-.2a15.599 15.599 0 01-.068-.011l-.732-.121-.196-.032-.13-.022-.834-.137-.616-.101-.06-.01c-.455-.075-.91-.15-1.365-.223a86.692 86.692 0 01-2.551-.446 119.55 119.55 0 00-2.717-.48l-.053-.01-.95-.158-1.513-.254-.05-.009-.591-.1-.455-.077-.13-.023-.42-.07-.162-.028-.04-.007a100.665 100.665 0 01-1.089-.188 18.34 18.34 0 00-.248-.044c-.23-.039-.444.001-.672.04l-.086.014-.235.04-.252.043-.492.083-.572.096-1.295.22-.39.065-1.39.236-.046.008-1.016.172-.46.078c-.784.132-.784.132-1.566.276a36.99 36.99 0 00-.048.01l-.196.038c-1.006.196-2.017.362-3.028.528l-.06.01a1147.976 1147.976 0 01-2.617.429c-.13.02-.26.042-.39.064l-.098.015-.668.11-2.161.355-.188.032-1.156.19-.45.075-.312.052-.19.031-.087.015c-.174.029-.348.055-.523.077.042-.142.103-.274.163-.408l.1-.22.02-.047c.073-.162.145-.325.216-.488l.078-.178.02-.045.224-.509a275.973 275.973 0 00.64-1.45l.02-.047.166-.375.144-.327.021-.047.318-.722a298.222 298.222 0 01.62-1.41l.32-.724.02-.046.211-.477.088-.199.041-.093c.075-.168.148-.336.221-.504l.021-.047.019-.044.017-.04c.014-.03.014-.03.011-.066-.481-.218-.481-.218-.965-.431l-.033-.014-.034-.015-.068-.03a7.029 7.029 0 00-.035-.015l-.47-.207-.048-.021-.24-.106-.422-.187a163.035 163.035 0 00-.325-.144l-2.418-1.068-.047-.02-.093-.042-.232-.102-.42-.186-.233-.103-.047-.02c-.24-.107-.48-.212-.72-.317l-.75-.333-.75-.33c-.217-.096-.434-.191-.65-.288l-.618-.273c-.268-.117-.536-.236-.803-.355l-.749-.33-.65-.287-.628-.278a123.45 123.45 0 01-.666-.294 109.02 109.02 0 00-.657-.29c-.268-.117-.535-.235-.803-.354a99.85 99.85 0 00-.748-.331c-.217-.095-.434-.19-.65-.287-.214-.096-.429-.19-.644-.284-.24-.106-.481-.212-.72-.322.027-.067.07-.108.12-.159l.027-.025a18.7 18.7 0 01.214-.211c.057-.056.11-.114.16-.175.082-.091.171-.175.258-.261.12-.118.12-.118.233-.242.09-.104.189-.198.286-.294.09-.09.18-.18.262-.276.078-.087.164-.168.247-.25.116-.115.116-.115.226-.235.089-.104.188-.199.286-.295.12-.117.12-.117.233-.242.089-.104.189-.198.286-.294.12-.118.12-.118.233-.242.09-.104.189-.198.286-.294.09-.09.18-.18.262-.276.071-.08.15-.155.226-.23l.102-.101.046-.045c.05-.051.05-.051.09-.11-.004-.075-.038-.147-.064-.217a254.856 254.856 0 00-1.006-2.64l-.02-.05-.019-.05-.413-1.082-.162-.424a635.219 635.219 0 01-.753-1.976l-.02-.05-.018-.05-.3-.785-.024-.06a491.062 491.062 0 01-.642-1.685l-.019-.05-.019-.05-.3-.784-.023-.061a489.84 489.84 0 01-.664-1.743l-.202-.526-.088-.228-.042-.11-.058-.15-.018-.046-.016-.041-.014-.036c-.01-.03-.01-.03-.01-.065.723.042 1.444.086 2.166.131l.38.024.66.041a3650.287 3650.287 0 001.447.09l.045.003 1.06.067c.016 0 .031.002.047.003l1.081.067.047.003.237.015.047.003.094.006 1.556.097.22.014.043.003.693.043.695.044a9108.46 9108.46 0 00.72.045l.124.008.17.01.048.003c.103.006.204.008.307.007l.265-.662.02-.051.799-2.002a711.118 711.118 0 01.733-1.837l.116-.29.098-.245.098-.244.036-.092.05-.125.015-.038c.035-.085.035-.085.054-.123h.034c.03.035.058.07.086.107.065.084.13.166.2.247.072.085.142.172.21.26.064.081.13.162.197.242.074.09.147.18.219.272.068.088.139.173.21.258.067.077.129.156.191.236.054.069.11.136.167.203.074.086.144.174.214.264.054.07.11.136.166.203.066.076.129.154.19.234.071.09.144.178.218.266.06.069.116.14.173.21l.145.179a48.574 48.574 0 01.347.426l.332.408a111.858 111.858 0 00.493.606l.161.197.333.408a111.858 111.858 0 00.493.606l.16.197.333.409.273.335.332.409.31.38.183.225.161.197.332.409.31.38.184.225.16.197.333.409a97.519 97.519 0 00.47.578l.03.036.029.034.025.031c.02.026.038.053.056.08a3.803 3.803 0 00-.048-.327l-.009-.05-.031-.167-.023-.12a304.02 304.02 0 00-.246-1.316l-.11-.588-.008-.04-.03-.157a4169.755 4169.755 0 00-1.102-5.879l-.007-.037-.21-1.126-.229-1.22a2952.27 2952.27 0 01-.895-4.771l-.021-.114-.01-.056-.074-.392-.089-.475a211.246 211.246 0 00-.088-.472l-.016-.082-.02-.112-.013-.064c-.008-.048-.008-.048-.008-.083z" fill="#BC9E59"/><path d="M26.662 15.971c.1.011.195.03.292.054l.045.011.146.037.104.026a139.613 139.613 0 01.447.112c.441.11.882.222 1.322.338l.057.015.153.04.043.012c.067.018.13.037.194.065a27.757 27.757 0 01.02.199c.032.31.033.62.035.93a293.049 293.049 0 01.004.527c.005 1.114.15 2.196.65 3.206l.02.041a4.783 4.783 0 00.556.852c.22.28.483.542.774.75l.07.052c.157.113.316.218.483.312l.044.024c.68.376 1.42.577 2.188.685l.062.009c.571.076 1.164.067 1.737.034l.038-.002c.246-.016.492-.048.736-.08l.086-.012c.267-.035.533-.073.799-.11 1.19-.17 2.383-.312 3.584-.375l.037-.002c.15-.008.298-.013.448-.016h.035c1.466-.023 2.928.148 4.9.418l.112.016.349.05c.478.07.96.12 1.444.127l.068.002.175.002.18.003.35.005c-.027.171-.062.34-.099.508l-.02.092-.042.2a178.8 178.8 0 00-.072.333l-.107.5-.164.762-.08.374-.009.038-.201.938-.01.044-.31 1.442-.205.953-.024.113-.644 3.01a477.71 477.71 0 01-.446 2.075l-.086.4-.05.233-.022.1-.029.132-.008.038c-.018.082-.018.082-.037.12h.138v.018a4.802 4.802 0 01-.427-.013l-.119-.01-.063-.004a39.84 39.84 0 00-1.337-.075 62.14 62.14 0 00-.473-.018l-.074-.002c-.563-.02-1.125-.02-1.688-.02h-.112c-.738 0-1.475.003-2.212.038l-.077.004c-2.485.108-2.485.108-5.851 1.135l-.082.073c-.28.244-.52.538-.746.831l-.084.106c-.125.159-.243.32-.355.488l-.12.17a6.575 6.575 0 00-.248.368l-.058.09-.034.053-.027.039h-.017c.004-.158.02-.307.053-.461.038-.188.08-.4-.019-.578-.074-.076-.139-.088-.242-.09-.619-.007-1.264.034-1.782.402l-.037.026a1.2 1.2 0 00-.373.532c-.008.072-.01.145-.01.218v.046c-.001.12.016.202.095.296.406.343 1.089.303 1.588.318v.035a7.364 7.364 0 00-.041.011c-1.528.418-1.528.418-2.866 1.234l-.044.038c-.238.22-.282.474-.31.784l-.004.036c-.025.275-.04.55-.055.826l-.008.148a94.12 94.12 0 00-.035.674 95.106 95.106 0 00-.088 2.341 99.863 99.863 0 00-.03 1.154 23.656 23.656 0 00-.012.43c-.016.192-.016.192.052.362a.529.529 0 00.136.059l.07.037c.35.172.683.217 1.072.24v5.19c.282.129.282.129.569.234l.053.017c.093.03.093.03.188.05.054.01.1.025.152.044.109.037.217.06.33.08l.061.01a12 12 0 00.63.092l.061.007a50.041 50.041 0 003.646.287c.272.015.543.028.816.03.402.003.693.014 1.025.258.073.051.15.093.228.136l.088.05a219.828 219.828 0 00.8.455c.14.078.279.158.417.239.168.098.337.193.507.287.162.09.323.181.484.274l.287.164.032.018c.144.083.29.165.436.246.14.078.279.158.417.24.167.097.336.192.505.286.143.079.284.159.425.24l.042.025.036.02c.035.02.035.02.084.035a14.46 14.46 0 00-.492-.622l-.024-.03-.048-.062-.12-.151-.047-.06-.88-1.121-.048-.06-.118-.151a36.856 36.856 0 00-.252-.318l-.172-.217-.029-.036c-.02-.027-.02-.027-.02-.044h2.285l.017 2.733.121-.553.06-.271c.057-.26.113-.52.166-.78.04-.2.084-.398.13-.597.033-.145.064-.29.091-.435.019-.095.019-.095.038-.114a1.15 1.15 0 01.076 0h.05l.053.002h.055l.173.005.118.003.288.007c-.13.298-.274.587-.42.877l-.102.204-.192.384-.22.438-.45.9.05-.059.028-.033.134-.161.03-.037c.073-.091.145-.184.217-.278.069-.09.139-.178.209-.267l.119-.151.047-.061.024-.03 1.023-1.302.023-.029.047-.06a1.36 1.36 0 00.113-.157c.112-.175.112-.175.218-.2.082-.01.163-.008.245-.006h.093c.084 0 .167.002.25.003.088.002.174.002.261.002.143 0 .286.002.428.003.203.003.405.003.608.002h.093a27581.415 27581.415 0 00.826 0 1.23 1.23 0 01-.146.097l-.046.026a9.294 9.294 0 01-.158.089l-.058.032c-.09.05-.179.102-.268.153-.166.095-.332.19-.5.283-.19.106-.381.215-.571.324l-.238.136-.031.018c-.145.083-.29.165-.436.246-.14.078-.28.158-.418.24-.167.097-.336.192-.506.286-.134.074-.268.15-.4.226l-.33.188-.05.028-.202.114a122.02 122.02 0 00-.452.255l-.1.056-.047.026-.043.024-.038.021c-.036.023-.036.023-.066.074a1.72 1.72 0 01-.155.031l-.05.009-.168.027-.122.02-.27.046-.44.073-.158.026-.04.007-.293.049a599.453 599.453 0 00-1.52.256l-.677.114-.963.164-.164.027a554.752 554.752 0 01-1.76.296l-.057.01c-.43.072-.859.147-1.287.23l-.06.01-.184.036c-1.062.203-2.127.384-3.194.56l-.06.01a1163.624 1163.624 0 01-2.752.45l-.049.008-.097.016-.049.008-.048.008-.097.015-.669.11-2.161.355-.188.032-1.156.19-.45.075-.312.052-.19.031-.087.015c-.174.029-.348.055-.523.077.042-.142.103-.274.163-.408l.1-.22.02-.047c.073-.162.145-.325.216-.488l.078-.178.02-.045.224-.509a275.973 275.973 0 00.64-1.45l.02-.047.166-.375.144-.327.021-.047.318-.722a298.222 298.222 0 01.62-1.41l.32-.724.02-.046.211-.477.088-.199.041-.093c.075-.168.148-.336.221-.504l.021-.047.019-.044.017-.04c.014-.03.014-.03.011-.066-.481-.218-.481-.218-.965-.431l-.033-.014-.034-.015-.068-.03a7.029 7.029 0 00-.035-.015l-.47-.207-.048-.021-.24-.106-.422-.187a163.035 163.035 0 00-.325-.144l-2.418-1.068-.047-.02-.093-.042-.232-.102-.42-.186-.233-.103-.047-.02c-.24-.107-.48-.212-.72-.317l-.75-.333-.75-.33c-.217-.096-.434-.191-.65-.288l-.618-.273c-.268-.117-.536-.236-.803-.355l-.749-.33-.65-.287-.628-.278a123.45 123.45 0 01-.666-.294 109.02 109.02 0 00-.657-.29c-.268-.117-.535-.235-.803-.354a99.85 99.85 0 00-.748-.331c-.217-.095-.434-.19-.65-.287-.214-.096-.429-.19-.644-.284-.24-.106-.481-.212-.72-.322.027-.067.07-.108.12-.159l.027-.025a18.7 18.7 0 01.214-.211c.057-.056.11-.114.16-.175.082-.091.171-.175.258-.261.12-.118.12-.118.233-.242.09-.104.189-.198.286-.294.09-.09.18-.18.262-.276.078-.087.164-.168.247-.25.116-.115.116-.115.226-.235.089-.104.188-.199.286-.295.12-.117.12-.117.233-.242.089-.104.189-.198.286-.294.12-.118.12-.118.233-.242.09-.104.189-.198.286-.294.09-.09.18-.18.262-.276.071-.08.15-.155.226-.23l.102-.101.046-.045c.05-.051.05-.051.09-.11-.004-.075-.038-.147-.064-.217a254.856 254.856 0 00-1.006-2.64l-.02-.05-.019-.05-.413-1.082-.162-.424a635.219 635.219 0 01-.753-1.976l-.02-.05-.018-.05-.3-.785-.024-.06a491.062 491.062 0 01-.642-1.685l-.019-.05-.019-.05-.3-.784-.023-.061a489.84 489.84 0 01-.664-1.743l-.202-.526-.088-.228-.042-.11-.058-.15-.018-.046-.016-.041-.014-.036c-.01-.03-.01-.03-.01-.065.723.042 1.444.086 2.166.131l.38.024.66.041a3650.287 3650.287 0 001.447.09l.045.003 1.06.067c.016 0 .031.002.047.003l1.081.067.047.003.237.015.047.003.094.006 1.556.097.22.014.043.003.693.043.695.044a9108.46 9108.46 0 00.72.045l.124.008.17.01.048.003c.103.006.204.008.307.007l.265-.662.02-.051.799-2.002a711.118 711.118 0 01.733-1.837l.116-.29.098-.245.098-.244.036-.092.05-.125.015-.038c.035-.085.035-.085.054-.123h.034c.03.035.058.07.086.107.065.084.13.166.2.247.072.085.142.172.21.26.064.081.13.162.197.242.074.09.147.18.219.272.068.088.139.173.21.258.067.077.129.156.191.236.054.069.11.136.167.203.074.086.144.174.214.264.054.07.11.136.166.203.066.076.129.154.19.234.071.09.144.178.218.266.06.069.116.14.173.21l.145.179a48.574 48.574 0 01.347.426l.332.408a111.858 111.858 0 00.493.606l.161.197.333.408a111.858 111.858 0 00.493.606l.16.197.333.409.273.335.332.409.31.38.183.225.161.197.332.409.31.38.184.225.16.197.333.409a97.519 97.519 0 00.47.578l.03.036.029.034.025.031c.02.026.038.053.056.08a3.803 3.803 0 00-.048-.327l-.009-.05-.031-.167-.023-.12a304.02 304.02 0 00-.246-1.316l-.11-.588-.008-.04-.03-.157a4169.755 4169.755 0 00-1.102-5.879l-.007-.037-.21-1.126-.229-1.22a2952.27 2952.27 0 01-.895-4.771l-.021-.114-.01-.056-.074-.392-.089-.475a211.246 211.246 0 00-.088-.472l-.016-.082-.02-.112-.013-.064c-.008-.048-.008-.048-.008-.083z" fill="#A78438"/><path d="M44.897 36.627l.153.007a31.175 31.175 0 01.68.033c.953.055 1.906.14 2.849.285l.123.02c.161.024.32.052.48.087l.061.014.127.028.176.038c.498.106.907.257 1.287.598l.044.039a4.298 4.298 0 01.524.536c.131.148.253.302.372.46l.085.111c.224.29.428.591.63.896l.025.038.047.07a.704.704 0 00.072.1 44.464 44.464 0 00-.03-.255 2.029 2.029 0 00-.04-.241 1.136 1.136 0 01-.024-.258l-.002-.047c0-.111.02-.189.096-.272.086-.063.172-.06.275-.059h.051c.618.012 1.315.062 1.785.508.2.21.325.428.33.721-.005.125-.016.225-.105.318-.127.115-.272.16-.433.207l-.058.018c-.358.095-.733.089-1.101.086.015.04.015.04.067.051l.066.017.076.02.04.011c.923.244 2.04.554 2.727 1.25l.04.04c.225.239.24.549.264.86l.006.082a31.497 31.497 0 01.056.887c.042.774.071 1.548.1 2.323l.004.136c.028.755.036 1.51.032 2.264l-.116.067-.033.019c-.372.213-.741.278-1.166.278v5.294c-.319.16-.319.16-.458.205l-.042.014a9.961 9.961 0 01-.166.056l-.042.015-.038.014c-.033.008-.033.008-.085-.01a8.37 8.37 0 01.034-.023c.228-.17.332-.41.376-.685l.023-.174.005-.04c.045-.342.033-.689.03-1.033l-.05.032a4.036 4.036 0 01-.931.434c-.477.167-.98.261-1.477.347l-.064.011c-1.624.28-3.274.38-5.117.452l-.305.012c-.444.017-.888.03-1.332.037h-.038c-.944.014-1.889.01-2.833.01h-.61c-2.413 0-2.413 0-3.334-.02l-.056-.001a54.678 54.678 0 01-.665-.019l-.143-.005a61.166 61.166 0 01-3.375-.2l-.097-.008c-.939-.084-1.895-.188-2.811-.412a9.375 9.375 0 00-.157-.036c-.573-.13-1.142-.306-1.624-.651-.036.993-.036.993.348 1.859l.067.061.07.07a1.996 1.996 0 01-.403-.114c-.15-.055-.282-.124-.428-.198V49.14l-.398-.035a2.929 2.929 0 01-.242-.052l-.052-.012a2.193 2.193 0 01-.363-.143l-.048-.023-.045-.022a.494.494 0 01-.167-.111c-.013-.053-.01-.105-.01-.16v-.05l.003-.165v-.118a38.815 38.815 0 01.008-.456c.007-.329.016-.658.026-.987l.006-.193c.028-.949.068-1.897.12-2.845l.008-.13a143.492 143.492 0 01.015-.282c.058-1.055.058-1.055.39-1.363.722-.646 1.771-.934 2.687-1.192l.053-.016.052-.014.046-.013c.04-.01.04-.01.091-.01v-.034h-.035c-.35.005-.69-.006-1.034-.076l-.051-.01c-.192-.042-.415-.112-.533-.28-.048-.095-.046-.182-.047-.286l-.001-.045c-.002-.276.167-.494.352-.687.468-.418 1.148-.467 1.747-.473h.057c.124 0 .22.006.312.096.117.193.066.429.02.637a2.44 2.44 0 00-.043.38 23.431 23.431 0 01.16-.238l.055-.08c.116-.173.234-.344.356-.513l.033-.045a10.186 10.186 0 01.78-.958l.047-.053c.55-.61 1.137-.85 1.93-1.007l.143-.029c.209-.043.418-.08.628-.111l.05-.008c1.137-.171 2.289-.247 3.437-.295l.183-.008a48.915 48.915 0 014.36.003z" fill="#9A7423"/><path d="M44.897 36.627l.153.007c.209.008.418.018.627.03l.053.003a29.88 29.88 0 012.973.304c.16.025.32.053.478.088l.062.014.127.028.176.038c.498.106.907.257 1.287.598l.044.039a4.298 4.298 0 01.524.536c.131.148.253.302.372.46l.085.111a15 15 0 01.63.896l.025.038.047.07a.704.704 0 00.072.1l-.024-.199-.006-.056a2.029 2.029 0 00-.04-.241 1.136 1.136 0 01-.024-.258l-.002-.047c0-.111.02-.189.096-.272.086-.063.172-.06.275-.059h.051c.618.012 1.315.062 1.785.508.2.21.325.428.33.721-.005.125-.016.225-.105.318-.127.115-.272.16-.433.207l-.058.018c-.358.095-.733.089-1.101.086.015.04.015.04.067.051l.066.017.076.02.04.011c.923.244 2.04.554 2.727 1.25l.04.04c.225.239.24.549.264.86l.006.082a31.006 31.006 0 01.056.887c.043.79.072 1.58.101 2.37l.002.047a74.942 74.942 0 01.045 1.677 7.367 7.367 0 01.004.201c0 .063-.002.101-.046.149a17.091 17.091 0 01-.15.098 8.123 8.123 0 01-.155.083c-.276.14-.555.208-.865.21l-.06.002c-.16 0-.16 0-.222-.05a9.293 9.293 0 01-.078-.088.682.682 0 00-.483-.17h-.137a1.024 1.024 0 00-.133.02 2.53 2.53 0 01-.28.04l-.055.005-.114.01-.167.017-.359.033-.061.006c-.523.048-1.047.082-1.57.117l-.5.034-.037.003-.075.005-.312.021-.192.013c-.086.006-.171.012-.257.016l-.127.008-.06.003c-.126.008-.194.027-.284.118a.25.25 0 00-.026.14v.053c.007.058.027.09.058.138v.035c.069.022.138.02.21.02h.043a28.336 28.336 0 00.224 0c.61.003 1.218-.047 1.825-.092l.212-.015c.414-.03.827-.063 1.24-.098 1.085-.092 1.085-.092 1.319.082.112.12.13.22.129.383a12.649 12.649 0 000 .19 4.14 4.14 0 000 .193c-.001.378-.038.743-.315 1.028-.473.436-1.201.459-1.808.524l-.186.02c-.388.043-.777.084-1.166.124a146.77 146.77 0 00-1.341.144c-.46.039-.46.039-.893.19l-.034.018a1.4 1.4 0 00-.52.508l-.022.034a1.176 1.176 0 00-.11.242h-.018l-.004-2.983v-.044l-.001-.96v-.517a1534.36 1534.36 0 00-.005-3.076v-.264a324.618 324.618 0 00-.002-1.4 82.706 82.706 0 000-.727 17.64 17.64 0 00-.002-.347c.002-.122.042-.194.118-.288l.022-.03a.934.934 0 01.175-.165l.032-.025c.199-.152.409-.28.63-.398l.123-.068a8.672 8.672 0 011.96-.768.845.845 0 00-.133-.234l-.072-.106a14.823 14.823 0 00-.908-1.215 5.716 5.716 0 00-.347-.387 1.912 1.912 0 00-1.017-.607l-.06-.016c-.721-.18-1.46-.283-2.198-.355l-.127-.012a32.593 32.593 0 00-2.019-.14c-.041 0-.083-.003-.124-.004a59.59 59.59 0 00-2.369-.042h-.062c-.806 0-1.61.017-2.416.056l-.042.002a28.158 28.158 0 00-2.801.25c-.444.063-.885.14-1.32.25l-.065.017c-.316.084-.545.189-.785.413a3.065 3.065 0 01-.112.098c-.057.05-.106.103-.154.16l-.115.127a3.94 3.94 0 00-.206.247 7.128 7.128 0 01-.162.201 11.27 11.27 0 00-.415.536l-.029.038c-.178.24-.343.49-.508.74l.034.007c.143.027.279.07.416.115l.049.016c.806.266 1.829.623 2.425 1.264l.03.028c.14.155.108.367.106.563a24298.804 24298.804 0 010 .411v.42a184.215 184.215 0 01-.003 1.403v.264a1016.084 1016.084 0 01-.005 3.079v.517l-.001.957v.044l-.005 2.937c-.034-.05-.06-.1-.088-.154-.18-.337-.446-.59-.812-.71-.23-.059-.468-.081-.703-.109l-.065-.008a64.748 64.748 0 00-1.236-.132l-.152-.015-.037-.004a97.962 97.962 0 01-1.313-.141l-.113-.013c-1.29-.145-1.29-.145-1.663-.592-.171-.24-.223-.513-.224-.8v-.183l-.002-.188v-.177c0-.13.014-.235.11-.331.156-.147.325-.169.53-.164.126.005.251.016.377.027l.287.024.06.005c.332.027.664.051.996.076l.236.018a78.089 78.089 0 001.353.092c.336.02.672.026 1.008.026h.045a.35.35 0 00.212-.059.36.36 0 00.052-.26.267.267 0 00-.113-.149.728.728 0 00-.233-.041l-.052-.004a24.888 24.888 0 00-.295-.02c-.332-.024-.664-.045-.995-.066a71.308 71.308 0 01-2.218-.168 7.786 7.786 0 01-.57-.07 1.653 1.653 0 00-.292-.025h-.044a.626.626 0 00-.48.237c-.037.047-.037.047-.09.064a2.058 2.058 0 01-1.243-.29 1.517 1.517 0 00-.073-.04.363.363 0 01-.102-.085c-.018-.073-.013-.143-.01-.217l.002-.065.005-.135a37.255 37.255 0 01.015-.57l.002-.072.014-.491.003-.118c.021-.727.047-1.453.084-2.18l.002-.054.036-.674.008-.13.01-.207.005-.075c.058-1.055.058-1.055.39-1.363.722-.646 1.771-.934 2.687-1.192l.053-.016.052-.014.046-.013c.04-.01.04-.01.091-.01v-.034h-.035a4.8 4.8 0 01-1.085-.086c-.192-.042-.415-.112-.533-.28-.049-.095-.046-.182-.047-.286l-.001-.045c-.002-.276.167-.494.352-.687.468-.418 1.148-.467 1.747-.473h.057c.124 0 .22.006.312.096.117.193.066.429.02.637a2.428 2.428 0 00-.043.38 23.431 23.431 0 01.16-.238l.055-.08c.116-.173.234-.344.356-.513l.033-.045c.138-.192.282-.378.434-.56l.026-.031a10.836 10.836 0 01.367-.42c.55-.61 1.137-.85 1.93-1.007l.143-.029c.209-.043.418-.08.628-.111l.05-.008c1.137-.171 2.289-.247 3.437-.295l.183-.008a48.915 48.915 0 014.36.003z" fill="#ECECEC"/><path d="M42.014 2.734c1.738-.052 3.555.387 9.433 2.624a12.448 12.448 0 011.26.78c.211.144.415.3.617.456l.036.027c.143.11.281.226.418.344l.095.082c.187.158.187.158.27.245a4.878 4.878 0 01.341.322l.079.078c.083.083.164.167.241.257.036.041.073.08.11.12.07.078.136.156.201.237l.095.115a8.456 8.456 0 01.85 1.236 16.985 16.985 0 01.177.318c.204.376.37.767.513 1.17l.02.053c.171.482.293.982.378 1.486l.009.052c.102.613-.062 1.198-.416 1.705-.697.975-1.938 1.446-3.079 1.64a.53.53 0 01-.349-.044L53.23 16l-.046-.022c-1.322-.616-2.715-1.086-10.05-2.082h-.04a25.372 25.372 0 00-.565 0h-.043c-1.837.021-3.669.196-6.722.727l-.057.011c-1.51.3-3.052.669-4.822 1.408a1.265 1.265 0 01-.372-.045l-.062-.014a9.951 9.951 0 01-.622-.166c-.015-.005-.03-.01-.047-.014-.598-.183-1.206-.457-1.683-.869l-.041-.035a5.752 5.752 0 01-.132-.12l-.05-.047a2.34 2.34 0 01-.606-.95l-.014-.042a2.283 2.283 0 01-.099-.726v-.04c.01-1.59 1.031-3.224 1.998-4.424l.026-.034c.173-.214.349-.426.536-.628l.107-.12a2.91 2.91 0 01.162-.17c.031-.032.06-.064.089-.098a3.61 3.61 0 01.397-.393c.036-.03.068-.064.101-.097.055-.055.112-.107.171-.158l.12-.108c.073-.066.149-.13.225-.191.042-.033.082-.067.123-.101a9.818 9.818 0 01.574-.447c1.326-1.002 2.846-1.739 5.514-2.6l.11-.03c1.498-.402 3.058-.59 4.605-.64zm2.674.988l-.039.021c-.112.062-.218.13-.322.204l-.06.041a5.15 5.15 0 00-.372.287l-.03.026-.195.165c.047.05.094.087.154.123.46.288.826.693 1.074 1.174l.019.036c.356.696.414 1.535.184 2.28-.265.814-.827 1.44-1.58 1.835a3.255 3.255 0 01-.976.296l-.035.005a3.176 3.176 0 01-2.326-.621 4.282 4.282 0 01-.41-.37c-.064-.065-.064-.065-.084-.104-.064.021-.08.046-.12.1l-.042.052-.023.027c-.038.048-.078.094-.117.141-.06.07-.118.14-.176.21a5.173 5.173 0 01-.192.222 3.61 3.61 0 00-.114.136 5.08 5.08 0 01-.24.271c-.047.05-.093.102-.138.154-.05.057-.1.112-.152.167a7.9 7.9 0 00-.165.186c-.025.028-.05.054-.077.08-.04.032-.04.032-.035.07l.031-.003.045-.006.05-.006.113-.014.278-.035a26.205 26.205 0 012.247-.197c.391-.018.782-.019 1.174-.019h.05c.535 0 1.067.006 1.6.038l.115.007c1.417.084 2.831.258 4.21.599l.042.01a13.774 13.774 0 012.94 1.075 8.795 8.795 0 011.984 1.354c.092.083.092.083.192.157a.149.149 0 01.063.122v.085l.001.047v.261c.002.093.002.187.001.28l.002.286v.562l.158-.016.044-.005c.115-.012.229-.028.343-.05l.056-.011c.798-.163 1.606-.472 2.203-1.043l.042-.039c.32-.305.572-.757.598-1.206-.048-1.582-.916-3.271-1.929-4.448a5.491 5.491 0 01-.117-.143c-.182-.222-.389-.424-.592-.627l-.032-.032a5.53 5.53 0 00-.34-.322 6.528 6.528 0 00-.363-.311l-.061-.049c-1.153-.931-2.468-1.66-4.318-2.425l-.034-.013c-.71-.273-3.664-1.38-4.207-1.077zm-4.686 1.401l-.042.039a2.731 2.731 0 00-.808 1.784c-.006.277-.011.553.054.824l.01.044a2.968 2.968 0 001.305 1.808c.71.416 1.528.568 2.332.359.387-.108.74-.269 1.059-.515l.047-.036c.3-.234.542-.517.731-.846l.018-.03a2.835 2.835 0 00.267-2.13c-.154-.56-.482-1.11-.942-1.474l-.028-.022a3.18 3.18 0 00-.526-.341l-.034-.018c-1.14-.596-2.536-.322-3.443.554z" fill="#8E661C"/><path d="M41.871 23.705c1.466-.023 2.928.148 4.9.418l.112.016.349.05a11.168 11.168 0 001.687.131l.18.003.35.005c-.027.171-.062.34-.099.508l-.02.092-.042.2-.072.333-.107.5-.164.762-.08.374-.009.038-.201.938-.01.044-.31 1.442-.205.953-.024.113-.644 3.01a477.71 477.71 0 01-.446 2.075l-.086.4-.05.233-.022.1-.029.132-.008.038c-.018.082-.018.082-.037.12h.138v.018a4.802 4.802 0 01-.427-.013l-.119-.01-.063-.004a39.84 39.84 0 00-1.225-.07l-.112-.005a62.113 62.113 0 00-.473-.018l-.074-.002c-.563-.02-1.125-.02-1.688-.02h-.112c-.738 0-1.475.003-2.212.038l-.077.004c-1.21.05-1.21.05-2.413.173a1.103 1.103 0 01-.305 0l-.043-.004-.008-.04a844.54 844.54 0 00-.763-3.55l-.264-1.225-.034-.157-.708-3.284-.007-.034-.164-.763-.061-.282-.015-.07-.214-.99-.15-.7-.1-.465-.07-.317-.039-.184-.043-.2-.013-.059a36.514 36.514 0 01-.021-.1c-.007-.037-.007-.037-.007-.072h.034c.59-.003.59-.003 1.177-.027l.037-.002c.247-.017.492-.046.736-.08l.086-.01c.267-.036.533-.074.799-.111 1.19-.17 2.383-.312 3.584-.375l.037-.002c.161-.009.322-.014.483-.016z" fill="#AF8D44"/><path d="M43.228 15.788h.055c1.738.038 3.48.21 5.18.583.13.029.256.055.388.064.087.008.172.028.257.048l.062.014.192.045c.018.005.037.01.056.013.334.08.66.188.986.294l.034.012a60.693 60.693 0 01.287.094c.1.033.196.068.293.108a4.067 4.067 0 00.262.095l.042.015c.503.177.997.378 1.483.598l.058.026.176.08.054.025.05.022.044.02c.033.017.033.017.05.035a2.64 2.64 0 01.003.148v.376l.001.177c.004 1.069-.128 2.202-.868 3.036l-.036.04c-.039.045-.08.09-.12.133l-.028.029a3.836 3.836 0 01-.855.663l-.035.02c-.57.332-1.232.508-1.88.607l-.051.008c-.352.05-.705.063-1.06.062h-.063a7.397 7.397 0 01-.994-.057l-.034-.005c-.374-.05-.74-.131-1.108-.214a15.713 15.713 0 00-3.518-.41h-.15c-.508.001-1.014.012-1.521.054l-.165.013c-1.156.09-2.304.244-3.451.406-.863.121-1.744.21-2.614.104l-.056-.007c-1.061-.132-2.129-.53-2.81-1.392-.464-.6-.72-1.296-.84-2.04l-.009-.05a6.795 6.795 0 01-.022-.162l-.01-.066c-.039-.303-.029-.609-.027-.913v-.231l.002-.45c.426-.189.426-.189.644-.267l.032-.011c1.487-.539 3.028-.914 8.579-1.727l.109-.007c.437-.029.875-.038 1.313-.049l.094-.002a33.208 33.208 0 011.54-.007z" fill="#8E661C"/><path d="M43.722 41.578l.046.004a29.643 29.643 0 012.543.342c.088.015.088.015.127.035l.102.016.061.01.062.008c.105.016.21.035.313.06.113.026.226.049.34.071l.124.025.192.038c.415.081.415.081.577.12l.061.014c.089.03.159.082.221.151l.03.032c.098.152.087.318.086.491a26.701 26.701 0 000 .335v.27a227.092 227.092 0 01-.001 1.125l-.002 1.595-.003 3.597H36.749l-.004-3.596-.002-1.137v-.67l-.001-.45v-.518l-.001-.265a38.272 38.272 0 010-.326c-.002-.183.004-.358.133-.501l.028-.032a.719.719 0 01.329-.137l.045-.01.149-.03.106-.023a59.622 59.622 0 011.818-.342l.343-.058a19.09 19.09 0 012.196-.261l.049-.003a12.66 12.66 0 011.785.02z" fill="#EBEAE8"/><path d="M43.035 3.36l.05.006c1.372.151 1.372.151 1.727.27-.026.076-.086.092-.154.127-.355.19-.666.441-.971.703a.61.61 0 00.136.105c.197.124.37.271.539.431l.033.03c.105.1.192.218.278.333l.022.03c.465.628.63 1.443.536 2.21a3.139 3.139 0 01-1.22 2.029 3.29 3.29 0 01-1.466.593l-.035.006a3.176 3.176 0 01-2.595-.854l-.029-.028a17.005 17.005 0 01-.125-.121 2.313 2.313 0 01-.07-.075V9.12a2.905 2.905 0 00-.187.201l-.027.032a9.35 9.35 0 00-.158.19c-.08.098-.163.194-.246.29l-.139.16c-.085.1-.172.199-.26.296a9.11 9.11 0 01-.28.312l-.135.15-.057.065c-.01.01-.019.022-.029.034l-.03.033-.024.029a.26.26 0 01-.108.042l-.043.009c-.065.013-.13.025-.196.036l-.089.017-.047.008c-1.336.243-2.65.597-6.303 2.503-.051.04-.051.04-.111.072a.351.351 0 00-.148.14c-.012.07-.009.137-.006.207a89.366 89.366 0 01.013.819l.001.086.003.222.006.431a3.552 3.552 0 01-.474-.076 7.503 7.503 0 01-.633-.166c-.015-.005-.03-.01-.047-.014-.576-.176-1.14-.435-1.597-.834l-.043-.035c-.334-.284-.583-.713-.628-1.151a2.414 2.414 0 01.04-.693c.099-.505.273-.995.493-1.46l.05-.109c.116-.247.244-.486.382-.721l.05-.085c.27-.466.587-.908.93-1.322l.094-.118a8.76 8.76 0 01.548-.62 15.854 15.854 0 01.404-.42c.067-.066.136-.13.207-.191.055-.048.108-.099.16-.149.09-.084.18-.164.276-.24.045-.036.089-.074.132-.112.135-.118.275-.226.418-.334l.092-.07a13.21 13.21 0 012.31-1.425c.042-.02.083-.042.123-.062 1.508-.769 3.184-1.237 7.524-1.777l.056-.003c.363-.016.716.004 1.077.044zm-3.033 1.763l-.042.039a2.731 2.731 0 00-.808 1.784c-.006.277-.011.553.054.824l.01.044a2.968 2.968 0 001.305 1.808c.71.416 1.528.568 2.332.359.387-.108.74-.269 1.059-.515l.047-.036c.3-.234.542-.517.731-.846l.018-.03a2.835 2.835 0 00.267-2.13c-.154-.56-.482-1.11-.942-1.474l-.028-.022a3.18 3.18 0 00-.526-.341l-.034-.018c-1.14-.596-2.536-.322-3.443.554z" fill="#C2A663"/><path d="M42.095 60.056c.068.028.11.072.161.124l.026.025c.058.06.112.12.166.183.038.043.078.082.119.122.031.032.06.065.09.099.041.048.085.094.13.14.057.055.11.113.16.174l.091.094c.042.041.082.083.12.128.042.049.085.095.131.14.057.056.109.114.16.174.03.033.06.063.09.094.043.041.082.084.121.129.043.05.087.096.134.142a.636.636 0 01.135.153c-.007.057-.028.087-.068.128l-.03.032-.034.035a312156470617.342 312156470617.342 0 00-.099.103 3.91 3.91 0 00-.121.136l-.106.12-.139.155c-.085.098-.172.194-.259.29l-.041.046a9.18 9.18 0 00-.038.041l-.034.038-.028.032c-.031.05-.025.072-.013.13l.011.055.013.06.012.061.043.205.016.079.045.214.049.232.095.45.078.37.01.054.024.108c.22 1.053.443 2.106.665 3.16l.01.044.028.134.028.133.019.089.288 1.369.03.14.205.978.087.41.01.046.276 1.311.07.33a41.345 41.345 0 00.27 1.268l.043.201.012.06a.49.49 0 01-.046.371 11.479 11.479 0 01-.08.161l-.045.093c-.263.535-.531 1.067-.798 1.6a930.961 930.961 0 00-.373.744c-.17.338-.17.338-.335.679-.12.254-.247.505-.373.756l-.106.212-.269.537-.291.582-.126.25-.078.157-.036.072a45.963 45.963 0 00-.066.13c-.03.06-.058.12-.086.182l-.018.04a1.548 1.548 0 01-.083.172l-.052.018-.443-.886-.206-.412-.18-.36-.095-.19c-.224-.447-.224-.447-.328-.666-.122-.256-.25-.508-.376-.76l-.107-.215a1372.03 1372.03 0 00-.565-1.129l-.106-.212a40.319 40.319 0 01-.389-.789 7.813 7.813 0 00-.22-.432 10.114 10.114 0 01-.161-.307l-.025-.046a.336.336 0 01-.04-.239l.011-.06c.02-.105.041-.21.064-.314l.015-.073.042-.201.046-.217a499.3 499.3 0 01.195-.922l.186-.884.241-1.14.019-.09.074-.352.121-.576.383-1.817.04-.187.175-.834a742.373 742.373 0 01.4-1.896l.075-.347.01-.05.041-.193a280.66 280.66 0 01.194-.908l.042-.2a39.639 39.639 0 00.06-.28l.013-.058.01-.05c.008-.067.006-.128-.036-.184l-.03-.026a1.55 1.55 0 01-.123-.127 7.322 7.322 0 00-.16-.178 9.189 9.189 0 01-.184-.206 8.932 8.932 0 00-.127-.14 9.586 9.586 0 01-.186-.208c-.061-.07-.124-.139-.187-.208a.341.341 0 01.095-.15l.036-.035a3.73 3.73 0 00.274-.284c.04-.045.08-.086.123-.127.054-.053.106-.106.155-.164.06-.07.127-.136.193-.201.058-.058.112-.117.165-.18.049-.054.1-.104.153-.155.045-.045.089-.09.13-.14.057-.066.119-.127.18-.189a2.87 2.87 0 00.164-.176c.047-.054.098-.104.15-.154z" fill="#B4934C"/><path d="M36.749 50.264h11.852c0 2.495 0 2.495-.208 2.906 2.028-.005 2.028-.005 4.029-.303.057-.012.114-.02.172-.028.494-.07.983-.176 1.465-.303l.045-.012c.175-.047.35-.096.524-.15.073-.023.143-.041.219-.052-.247.205-.619.293-.917.398l-.085.03c-.352.125-.72.21-1.084.288l-.041.01a6.42 6.42 0 01-.432.079 2.058 2.058 0 00-.129.025c-.077.018-.154.03-.233.042l-.042.007a54.962 54.962 0 01-.182.027c-.226.034-.451.065-.677.092l-.18.022c-.435.055-.872.09-1.31.122l-.04.003-.038.003-.031.002c-.329.023-.658.033-.987.044h-.037c-.823.025-1.646.034-2.47.045l-.195.002a244.93 244.93 0 01-3.364.027h-.116a89.87 89.87 0 01-1.722-.016 79.457 79.457 0 00-.707-.01l-.05-.001-.245-.003-.525-.005h-.052c-1.638-.018-3.273-.049-5.088-.292a14.065 14.065 0 01-1.67-.322l-.163-.04c-.522-.129-1.045-.295-1.515-.561.035-.018.035-.018.087-.003l.073.025a11.373 11.373 0 001.253.322c.153.032.305.061.459.088a18.172 18.172 0 001.978.282 16.797 16.797 0 00.611.05c.66.047 1.315.056 1.976.049l-.022-.043-.029-.056-.028-.056c-.346-.723-.129-2.411-.129-2.734z" fill="#ECECEB"/><path d="M30.157 52.634c.058.028.111.061.166.096.368.23.784.361 1.2.475l.05.013c1.19.323 2.446.44 3.67.54l.057.005c.983.08 1.968.128 2.953.162l.14.004a57.027 57.027 0 00.75.021c1.105.024 2.21.019 3.316.018h.61c2.023.006 2.023.006 4.045-.042l.23-.01.357-.013.331-.012a38.944 38.944 0 002.864-.2c.903-.083 1.816-.2 2.696-.423l.123-.03c.468-.113.948-.268 1.352-.533.042-.027.081-.05.126-.071.007.777.007.777-.035 1.09l-.005.043c-.035.297-.112.599-.357.795-.335.222-.79.238-1.178.287l-.049.006c-1.572.197-3.16.286-5.44.37l-.051.002c-.666.022-.666.022-.966.02a11.828 11.828 0 00-.346.004 77.317 77.317 0 00-.48.01c-.194.003-.387.002-.58 0a45.982 45.982 0 00-.372-.002c-.088 0-.176 0-.264-.003a10.506 10.506 0 00-.344-.003c-.163-.009-.163-.009-.308.051a.96.96 0 00-.14.187c-.034.054-.075.104-.115.153l-.048.061-1.451 1.847-.047.06-.122.155c-.087.111-.175.222-.261.334l-.018-.034c.017-.042.017-.042.044-.096l.03-.06.035-.069.035-.07.098-.194.102-.203a278.387 278.387 0 01.539-1.075l.121-.24.076-.152.035-.07c.093-.184.181-.37.27-.557l-.796-.017-.08.381c-.055.266-.11.531-.172.796-.036.159-.07.318-.102.478a33.342 33.342 0 01-.252 1.148h-.017v-2.803l-2.267.017.225.277.113.147c.083.11.169.218.256.325.072.088.142.178.212.268.068.09.138.179.208.267l.071.091.22.277c.082.102.163.206.243.31.083.111.17.22.257.326.072.088.142.178.21.268l.234.299a2.788 2.788 0 00-.017.034l-.03-.018c-.223-.13-.447-.259-.673-.384-.152-.084-.303-.17-.454-.256a40.254 40.254 0 00-.43-.243c-.14-.078-.28-.158-.418-.24a22.716 22.716 0 00-.506-.287 33.452 33.452 0 01-.772-.438 20.505 20.505 0 00-1.438-.816l-.06-.031a1.033 1.033 0 01-.133-.09c-.294-.214-.633-.191-.982-.197l-.265-.008a23.276 23.276 0 01-1.212-.054l-.133-.009-.258-.017a80.377 80.377 0 00-.312-.02c-.992-.065-1.995-.134-2.974-.31l-.053-.01c-.185-.036-.357-.086-.506-.205l-.032-.024c-.154-.133-.242-.37-.28-.564l-.01-.047a3.428 3.428 0 01-.024-.178l-.005-.04c-.04-.349-.034-.7-.03-1.05z" fill="#ECECEC"/><path d="M42.014 2.734c1.738-.052 3.555.387 9.433 2.624a12.448 12.448 0 011.26.78c.211.144.415.3.617.456l.036.027c.143.11.281.226.418.344l.095.082c.187.158.187.158.27.245a4.878 4.878 0 01.341.322l.079.078c.083.083.164.167.241.257.036.041.073.08.11.12.07.078.136.156.201.237l.095.115a8.456 8.456 0 01.85 1.236 16.985 16.985 0 01.177.318c.204.376.37.767.513 1.17l.02.053c.171.482.293.982.378 1.486l.009.052c.102.613-.062 1.198-.416 1.705-.697.975-1.938 1.446-3.079 1.64a.556.556 0 01-.37-.053l-.04-.019a8.214 8.214 0 01-.074-.034c-.066-.031-.133-.06-.2-.09v-.346l.088-.005c.945-.06 1.952-.328 2.715-.912l.05-.038c.438-.346.756-.813.83-1.377.088-1.527-.968-3.372-1.926-4.486a5.491 5.491 0 01-.118-.143c-.18-.22-.383-.418-.582-.618a8.772 8.772 0 00-.728-.657l-.06-.048c-1.153-.932-2.468-1.66-4.318-2.426a24.92 24.92 0 00-3.918-1.144l-.04-.009a.748.748 0 00-.16-.006v-.035l-.039-.005a12.19 12.19 0 01-.381-.06c-.376-.063-.75-.121-1.129-.166l-.053-.006c-.356-.043-.71-.085-1.07-.07-.027 0-.055 0-.083.002a21.225 21.225 0 00-4.2.547l-.043.01a16.295 16.295 0 00-3.4 1.207c-.182.084-.36.176-.536.271l-.056.03c-.6.325-1.179.688-1.726 1.095l-.057.042c-.329.244-.65.502-.951.78a10.802 10.802 0 00-.629.588l-.034.033a3.879 3.879 0 00-.188.205c-.03.035-.063.067-.096.1a3.35 3.35 0 00-.238.261 9.076 9.076 0 00-.408.503c-.898 1.137-1.908 2.738-1.807 4.245.045.357.21.676.446.942.01.014.022.027.034.041.737.873 2.13 1.157 3.201 1.309v.294l-.097.041-.093.04c-.022.008-.043.018-.065.027l-.093.039-.056.024a1.554 1.554 0 00-.08.037 1.265 1.265 0 01-.372-.045l-.062-.014a9.951 9.951 0 01-.622-.166c-.015-.005-.03-.01-.047-.014-.598-.183-1.206-.457-1.683-.869l-.041-.035a5.752 5.752 0 01-.132-.12l-.05-.047a2.34 2.34 0 01-.606-.95l-.014-.042a2.283 2.283 0 01-.099-.726v-.04c.01-1.59 1.031-3.224 1.998-4.424l.026-.034c.173-.214.349-.426.536-.628l.107-.12a2.91 2.91 0 01.162-.17c.031-.032.06-.064.089-.098a3.61 3.61 0 01.397-.393c.036-.03.068-.064.101-.097.055-.055.112-.107.171-.158l.12-.108c.073-.066.149-.13.225-.191.042-.033.082-.067.123-.101a9.818 9.818 0 01.574-.447c1.326-1.002 2.846-1.739 5.514-2.6l.11-.03c1.498-.402 3.058-.59 4.605-.64z" fill="#805E18"/><path d="M30.918 18.982h.018l.014.066c.2.878.586 1.678 1.357 2.188a4.17 4.17 0 001.139.49c.399.106.815.17 1.227.197l.041.003c.596.04 1.198.022 1.793-.02l.039-.003a24.168 24.168 0 002.11-.263l.25-.04.129-.02a28.318 28.318 0 011.641-.21l.058-.006a17.4 17.4 0 011.808-.072 9.93 9.93 0 011.563.102l.076.012a37.583 37.583 0 01.335.05l.11.017.045.007c.15.024.298.058.447.09 1.107.244 2.202.43 3.338.429h.043c.446 0 .888-.009 1.33-.076l.04-.006a6.12 6.12 0 00.929-.201l.045-.014c.681-.21 1.364-.553 1.806-1.128l.04-.05c.319-.41.478-.907.531-1.42h.017c-.02.927-.23 1.899-.865 2.612l-.035.04c-.039.045-.08.09-.12.133l-.028.029a3.835 3.835 0 01-.855.663l-.035.02c-.57.332-1.232.508-1.88.607l-.051.008c-.352.05-.705.063-1.06.062h-.063a7.396 7.396 0 01-1.028-.062c-.374-.05-.74-.131-1.108-.214a15.707 15.707 0 00-3.518-.41h-.15a18.845 18.845 0 00-1.686.067c-1.156.09-2.304.244-3.451.406-.863.121-1.744.21-2.614.104l-.056-.007c-1.061-.132-2.13-.53-2.81-1.392-.59-.765-.946-1.818-.906-2.788z" fill="#A8832D"/><path d="M33.721 40.678h17.994a.496.496 0 01-.157.068l-.065.018a.275.275 0 01-.034.01c-.872.253-1.812.618-2.498 1.228l-.043.038c-.042.039-.042.039-.075.087a.346.346 0 01-.121.108.8.8 0 01-.186-.036 8.868 8.868 0 01-.126-.033l-.068-.017a23.323 23.323 0 00-2.198-.467l-.06-.01c-.778-.129-.778-.129-1.559-.226a20.65 20.65 0 00-1.184-.11l-.056-.004a7.809 7.809 0 00-.36-.014l-.083-.001a10.96 10.96 0 00-1.515.075 37.25 37.25 0 01-.35.038 31.09 31.09 0 00-2.38.323c-.278.044-.553.098-.83.154l-.054.01a12.59 12.59 0 00-.547.122l-.041.01a4.325 4.325 0 00-.317.094c-.083.026-.083.026-.132.013a1.312 1.312 0 01-.108-.093c-.783-.715-1.839-1.096-2.847-1.367v-.018z" fill="#ECECEB"/><path d="M44.517 14.466l.056.004c1.335.079 2.658.246 3.967.518l.052.011c.181.038.362.078.542.12l.048.011.043.01.039.01c.029.008.029.008.046.026.007.168-.012.336-.026.504l-.007.09-.019.219a6.559 6.559 0 01-.404-.082l-.048-.01a27.15 27.15 0 00-4.79-.618l-.058-.002a28.13 28.13 0 00-1.198-.018h-.05c-.552 0-1.102.006-1.653.038l-.06.003c-1.951.109-3.897.37-5.805.793l-.052.011a27.883 27.883 0 00-2.672.73 13.19 13.19 0 00-1.439.557.625.625 0 01-.128.034c-.01-.271-.02-.542-.017-.813.168-.088.337-.164.514-.232l.04-.015c1.557-.601 3.19-1.001 9.639-1.896l.146-.008a28.424 28.424 0 013.294.005z" fill="#8D651B"/><path d="M55.59 42.997a4.824 4.824 0 01.078.865c0 .19-.022.368-.06.554l-.011.053c-.066.295-.24.544-.492.708-.656.403-1.74.312-2.487.358l-.248.016-.074.004-.129.009a17.46 17.46 0 01-1.12.036c-.295.005-.507-.008-.733-.215l-.031-.029c-.47-.48-.494-1.4-.493-2.023.002-.126.002-.126.022-.146.04-.003.08-.004.12-.005l.038-.002.13-.004.092-.002.202-.006.553-.017.059-.002 1.267-.045.525-.02.06-.002 1.4-.05.265-.01.313-.01.115-.005c.213-.007.426-.012.64-.01z" fill="#9A7524"/><path d="M29.76 42.997c.54.013 1.082.03 1.624.047l.176.006c.627.02 1.254.042 1.881.066.419.016.837.03 1.256.043.19.005.38.011.57.02l.046.001c.082.004.161.011.242.024a6.24 6.24 0 01-.052 1.004l-.01.084c-.061.441-.212.917-.578 1.196a.71.71 0 01-.395.109h-.217a31.664 31.664 0 01-2.781-.153l-.057-.005c-.203-.02-.406-.04-.609-.064l-.054-.006a1.214 1.214 0 01-.807-.413c-.255-.338-.298-.732-.293-1.144v-.092c.002-.202.01-.402.04-.602l.017-.121z" fill="#9A7424"/><path d="M48.774 16.421c.724.127 1.416.352 2.11.588 0 .692-.65 1.58-1.072 2.094l-.023.028a5.47 5.47 0 01-.86.854l-.049.04a6.24 6.24 0 01-.833.549l-.04.022a6.248 6.248 0 01-1.58.608l-.127.032a6.186 6.186 0 01-.854.138 4.005 4.005 0 01-.425.015h-.243a72.802 72.802 0 00-.37 0h-.247a1.358 1.358 0 01-.18-.02v-.017l.039-.005c.965-.141 1.8-.618 2.54-1.24l.026-.023a6.131 6.131 0 00.974-.988c.236-.279.44-.586.608-.91l.018-.033c.197-.376.33-.765.438-1.176.026-.097.053-.194.082-.29.024-.088.046-.177.068-.266z" fill="#A8832D"/><path d="M56.871 48.654a20.525 20.525 0 01-.295 3.753 8.24 8.24 0 01-.234 1.014l-.014.048a1.058 1.058 0 01-.2.378l-.036.044-.034.04-.027.034c-.097.118-.215.21-.334.303l-.03.023c-.072.056-.072.056-.111.056l-.017-5.33c.131-.01.262-.022.398-.034.305-.055.577-.14.845-.298.054-.03.054-.03.089-.03zm-28.392.087c.052.02.102.042.151.069.394.216.747.285 1.198.312l-.017 5.242a1.874 1.874 0 01-.356-.27 1.623 1.623 0 01-.49-.823 5.916 5.916 0 01-.111-.441l-.008-.036c-.071-.34-.125-.682-.177-1.025l-.006-.038a17.302 17.302 0 01-.145-1.256l-.01-.11a11.92 11.92 0 01-.032-1.038 66.335 66.335 0 00.003-.586z" fill="#ECECEC"/><path d="M42.545 58.88c.162.03.322.071.481.112l.093.024c.083.02.166.042.249.064l.157.04c.522.134 1.044.268 1.566.404.496.129.992.257 1.489.384l.442.114.054.014c.427.11.855.22 1.282.332v.034a170.821 170.821 0 01-1.28.33c-.134.034-.269.069-.404.102l-.867.222-.135.035-.044.012-.088.023a80.37 80.37 0 00-.414.108l-.073.019-.1.026-.056.015a.27.27 0 01-.137-.01c-.029-.02-.029-.02-.053-.049l-.029-.03-.03-.035-.065-.071a.38.38 0 00-.033-.037c-.05-.056-.102-.111-.154-.166l-.06-.065-.03-.033-.576-.616-.03-.033-.06-.065-.153-.163c-.095-.101-.19-.203-.283-.305a37.5 37.5 0 00-.266-.284 70.492 70.492 0 01-.264-.283l-.028-.03a5.333 5.333 0 00-.078-.08c-.023-.025-.023-.025-.023-.06zm-.83 0a.408.408 0 01-.108.143c-.061.06-.119.122-.175.187-.038.043-.079.083-.12.123a2 2 0 00-.09.1 2.62 2.62 0 01-.152.16 2.093 2.093 0 00-.09.1 2.622 2.622 0 01-.152.16 2.15 2.15 0 00-.091.1 2.62 2.62 0 01-.151.159 2.05 2.05 0 00-.091.1 2.62 2.62 0 01-.152.16 2 2 0 00-.09.1 2.62 2.62 0 01-.152.16 2.093 2.093 0 00-.09.1 2.622 2.622 0 01-.152.159c-.043.043-.081.089-.121.135a2.41 2.41 0 01-.123.125.942.942 0 00-.1.13c-.06.039-.142.01-.208-.004a6.2 6.2 0 01-.169-.043l-.154-.04-.11-.027-.297-.076-.308-.08a750.935 750.935 0 01-1.169-.298l-.429-.11-.153-.039-.24-.06-.087-.023-.118-.03-.067-.017a2.1 2.1 0 01-.105-.032v-.034l.062-.016.794-.204.065-.016 1.706-.44 1.145-.297.064-.016.627-.16.29-.075.055-.014.55-.143.043-.012a60.635 60.635 0 00.258-.07l.057-.014c.046-.011.046-.011.098-.011z" fill="#B3924A"/><path d="M43.816 5.14c.518.433.84 1.013.944 1.679l.007.044c.087.688-.134 1.362-.546 1.907a2.69 2.69 0 01-1.77 1c-.718.069-1.444-.099-2.012-.554a6.915 6.915 0 01-.142-.123c-.469-.41-.8-1.025-.849-1.651-.01-.289-.02-.584.052-.865l.01-.04a2.65 2.65 0 011.184-1.604c.98-.576 2.23-.512 3.122.207zm-3.347.416l-.035.031c-.371.349-.62.893-.642 1.401-.015.597.125 1.151.521 1.613l.023.027c.382.445.944.757 1.534.803.643.033 1.274-.118 1.763-.556a8.9 8.9 0 00.054-.05l.027-.024a2.257 2.257 0 00.72-1.589 2.238 2.238 0 00-.557-1.518l-.037-.044c-.411-.477-1.006-.72-1.621-.767-.658-.039-1.278.228-1.75.673z" fill="#B8923A"/><path d="M42.147 5.487a.581.581 0 01.13.176l.033.063a29.448 29.448 0 01.103.194l.03.057c.037.052.058.067.12.08a1.015 1.015 0 00.17-.076c.03-.014.06-.03.089-.045-.01.173-.045.339-.079.508a46.607 46.607 0 00-.041.204.856.856 0 00-.018.205c.08-.007.11-.035.162-.097.047-.054.093-.108.145-.158.037-.037.072-.074.105-.115l.037-.045h.035l.013.049.018.063.018.062.02.051c.063.021.095.013.16 0l.063-.012.066-.013.067-.013.163-.031a3.53 3.53 0 01-.089.365l-.014.05-.035.121a.44.44 0 00.142.108l.038.018.027.013a1.66 1.66 0 01-.225.193l-.079.06-.039.03-.156.12a5.702 5.702 0 01-.26.189.185.185 0 00-.071.1c.003.037.003.037.014.074.018.067.029.134.038.203a8.654 8.654 0 01-.55-.081c-.122-.023-.122-.023-.246-.023-.039.03-.039.03-.036.074a19.524 19.524 0 01.009.104l.005.06a23.24 23.24 0 01.022.246l.01.115.025.266h-.26l.007-.067.024-.245a37.718 37.718 0 01.025-.26l.005-.047a.646.646 0 00-.01-.229 9.405 9.405 0 00-.016-.017c-.16.002-.319.034-.476.061l-.138.024-.06.01c-.053.009-.053.009-.122.009.01-.083.026-.16.048-.24.005-.049-.003-.067-.03-.106-.043-.037-.043-.037-.093-.072l-.056-.041-.03-.022a6.581 6.581 0 01-.14-.107l-.057-.043-.057-.044c-.121-.093-.242-.186-.364-.277a.417.417 0 01.16-.103c.036-.017.036-.017.048-.07-.011-.05-.011-.05-.03-.106l-.019-.062a15.638 15.638 0 01-.06-.194l-.019-.057c-.01-.048-.01-.048.007-.1l.042.009.188.037.066.014.064.013.058.011c.049.007.049.007.08-.02a.364.364 0 00.05-.128l.013-.052.01-.04c.069.027.11.076.159.13l.025.028.12.137.04.047.037.043c.035.038.035.038.103.03-.009-.172-.044-.338-.079-.507l-.033-.166-.008-.038a.856.856 0 01-.018-.206l.053.028.071.035.035.019c.07.033.07.033.144.03.057-.034.075-.07.106-.128l.017-.031a8.994 8.994 0 00.104-.195l.047-.088a.875.875 0 01.08-.12z" fill="#B8923A"/><path d="M36.94 55.195c.2-.002.4.003.6.009l.171.005.427.012a56.93 56.93 0 00.537.016 13.098 13.098 0 00.782.007c.038 0 .075 0 .113-.002.303-.008.303-.008.388.067.046.05.08.104.113.162l.052.065.042.054.048.062.024.03.12.153.047.06.024.03 1.736 2.21a2.788 2.788 0 00-.017.035l-.03-.018c-.223-.13-.447-.259-.673-.384-.152-.084-.303-.17-.454-.256a40.254 40.254 0 00-.43-.243c-.14-.078-.28-.158-.418-.24a22.716 22.716 0 00-.506-.287 33.452 33.452 0 01-.772-.438 35.618 35.618 0 01-1.925-1.092v-.017z" fill="#F9E8BA"/><path d="M46.4 55.246h.094a27581.415 27581.415 0 00.826 0 1.219 1.219 0 01-.146.097l-.046.026-.05.028-.108.06-.058.033c-.09.05-.179.102-.268.153-.166.095-.332.19-.5.283-.19.106-.381.215-.571.324l-.238.136-.031.018c-.145.083-.29.165-.436.246-.14.078-.28.158-.418.24-.167.097-.336.192-.506.286-.134.074-.268.15-.4.226l-.33.188-.05.028-.25.141c-.24.135-.478.272-.715.411l-.017-.051.036-.036a2.22 2.22 0 00.157-.18l.03-.038c.074-.092.147-.185.219-.28.068-.089.139-.178.208-.266l.096-.122.071-.09.095-.121c.072-.093.145-.185.219-.277.082-.102.163-.206.243-.31.084-.111.17-.22.258-.327.072-.088.142-.178.211-.268.067-.087.134-.175.204-.26.032-.04.032-.04.065-.097.116-.18.116-.18.223-.205.081-.01.162-.008.244-.006h.093c.084 0 .167.002.25.003.088.002.174.002.261.002.143 0 .286.002.428.003.203.003.405.003.608.002z" fill="#9B7525"/><path d="M43.514 4.397l.034.016c.448.22.83.552 1.125.952l.022.03c.465.628.63 1.442.536 2.21a3.139 3.139 0 01-1.22 2.029 3.29 3.29 0 01-1.466.593l-.035.006a3.176 3.176 0 01-2.595-.854l-.025-.023a2.837 2.837 0 01-.598-.807l-.016-.032a3.06 3.06 0 01-.174-2.286l.01-.035a2.85 2.85 0 01.51-.929c.252-.325.563-.577.916-.784l.032-.019a3.098 3.098 0 01.92-.336c.669-.156 1.416-.029 2.024.269zm-3.512.726l-.042.039a2.73 2.73 0 00-.808 1.784c-.006.277-.011.553.054.824l.01.044a2.969 2.969 0 001.305 1.808c.71.416 1.528.568 2.332.359.387-.108.74-.269 1.059-.515l.047-.036c.3-.234.542-.517.731-.846l.018-.03a2.835 2.835 0 00.267-2.13c-.154-.56-.482-1.11-.942-1.474l-.028-.022a3.177 3.177 0 00-.56-.36c-1.14-.595-2.536-.32-3.443.555z" fill="#B79239"/><path d="M42.705 37.216h.789c.254 0 .507.003.76.017a6.544 6.544 0 00.298.009c1 .023 2 .09 2.993.2l.052.007c.407.045.81.103 1.212.177l.053.01c1.117.206 1.117.206 1.417.447l.03.025c.172.138.332.29.476.459l.107.12c.076.084.147.172.217.261l.044.055a14.62 14.62 0 01.63.856c.127.18.25.36.364.547.038.063.078.124.119.185.02.035.02.035.02.07l-.087.017a13.204 13.204 0 00-1.1-1.51 5.644 5.644 0 00-.326-.38 4.543 4.543 0 01-.11-.122 2.046 2.046 0 00-1.021-.659l-.105-.03c-.62-.188-1.283-.267-1.924-.338a31.202 31.202 0 00-2.623-.2l-.046-.001a37.133 37.133 0 00-1.511-.032h-.12a296.948 296.948 0 00-.762-.001 43.52 43.52 0 00-4.109.164 21.553 21.553 0 00-1.56.192c-.447.072-.9.149-1.327.305l-.081.024c-.374.126-.73.51-.97.811a2.927 2.927 0 01-.115.13 4.795 4.795 0 00-.243.298l-.084.108a17.425 17.425 0 00-.58.784 5.63 5.63 0 00-.148.22l-.028.043a5.447 5.447 0 00-.052.082c-.058.09-.058.09-.116.113-.04 0-.04 0-.074-.018a.967.967 0 01.119-.22 8.418 8.418 0 01.106-.16l.025-.04a16.294 16.294 0 011.089-1.478c.298-.368.655-.774 1.126-.903l.048-.013a9.783 9.783 0 01.998-.226c1.238-.215 2.491-.31 3.746-.363l.037-.002a55.124 55.124 0 01.6-.022 52.435 52.435 0 011.747-.018z" fill="#9C7728"/><path d="M30.036 43.326c.494.01.987.026 1.48.044l.657.023.068.002 1.086.036.073.003.709.023.262.008.178.005c.226.008.452.017.677.029.007.263-.015.517-.051.778l-.006.04a1.945 1.945 0 01-.271.756l-.02.031a.474.474 0 01-.222.16 1.38 1.38 0 01-.231.01h-.068c-.06 0-.121 0-.182-.002h-.113c-.53-.003-1.058-.03-1.587-.078v-.553c.453-.005.904.003 1.357.022a19.931 19.931 0 00.685.018h.109a.265.265 0 00.133-.058c.069-.1.09-.23.115-.348l.011-.053c.025-.12.045-.241.058-.364.007-.048.007-.048.024-.1h-.058c-.224.002-.448-.005-.672-.014l-.115-.004-.243-.01a444.51 444.51 0 00-.636-.024l-.063-.002c-.334-.013-.669-.024-1.003-.034-.41-.012-.822-.026-1.233-.041l-.138-.005-.218-.008-.08-.003a12.528 12.528 0 01-.49-.028l.018-.26zm25.278-.001l.017.26c-.201.016-.402.024-.604.032l-.108.004-.294.01-.185.007c-.669.025-1.338.047-2.007.07l-.204.006c-.515.017-1.03.032-1.546.044l.007.035c.016.077.03.154.043.232.038.33.038.33.174.622.081.043.157.037.247.035l.064-.001c.263-.004.525-.016.787-.026.39-.014.779-.018 1.17-.014v.553a4818.35 4818.35 0 00-.42.029 18.641 18.641 0 01-1.335.05l-.21.001-.064.002a.427.427 0 01-.325-.117c-.342-.36-.402-1.032-.398-1.505v-.156a1072.432 1072.432 0 012.436-.087l.035-.002a882.832 882.832 0 011.04-.033l.062-.002a83.736 83.736 0 001.016-.038c.201-.008.401-.012.602-.01z" fill="#ECEBEA"/><path d="M43.756 43.118h.45v6.384h-.45v-6.384zm-.64 0h.45v6.384h-.45v-6.384zm-.64 0h.45v6.384h-.45v-6.384z" fill="#9B7626"/><path d="M45.054 43.118h.432v6.384h-.432v-6.384zm-.64 0h.432v6.384h-.432v-6.384zm-2.578 0h.432v6.384h-.432v-6.384zm-.64 0h.432v6.384h-.432v-6.384zm-.641 0h.433v6.384h-.433v-6.384z" fill="#9A7423"/><path d="M48.341 5.348c.868.25 1.716.702 2.496 1.15l.139.078c.336.19.66.397.982.61l.036.024c.17.113.336.23.5.353a.603.603 0 01-.09.164c-.01.014-.02.029-.032.043l-.033.045-.033.044a31.6 31.6 0 01-.141.188c-.087-.028-.151-.079-.223-.133-.615-.452-1.288-.833-1.966-1.184a11.73 11.73 0 00-1.808-.81 3.01 3.01 0 01.106-.374l.02-.058.047-.14z" fill="#8E651C"/><path d="M39.932 43.118h.416v6.384h-.416v-6.384zm-.622 0h.415v6.384h-.415v-6.384z" fill="#9A7423"/><path d="M47.407 43.118h.38v6.384h-.38v-6.384zm-.588 0h.38v6.384h-.38v-6.384z" fill="#9A7525"/><path d="M46.248 43.118h.38v6.384h-.38v-6.384zm-8.098 0h.381v6.384h-.38v-6.384z" fill="#9A7423"/><path d="M37.58 43.118h.38v6.384h-.38v-6.384z" fill="#9A7525"/><path d="M38.739 43.118h.363v6.384h-.363v-6.384zm6.955 0h.346v6.384h-.346v-6.384z" fill="#9A7423"/><path d="M50.833 15.608c.824.265 1.63.581 2.405.969v.796a.594.594 0 01-.19-.055l-.052-.024c-.018-.01-.036-.018-.055-.027-.682-.32-1.392-.59-2.11-.817-.033-.011-.033-.011-.05-.029-.007-.168.011-.336.026-.504l.007-.09.019-.219z" fill="#8D651C"/><path d="M47.978 43.153c.13.043.205.092.271.214.053.11.052.212.051.332v1.35a396.462 396.462 0 01-.002 1.664v1.366l-.001.402v.205a23.513 23.513 0 010 .287c-.002.16-.024.279-.134.399-.051.046-.114.096-.185.096v-6.316zm-10.606 0v6.315c-.119-.04-.119-.04-.175-.097l-.034-.032c-.103-.136-.112-.265-.111-.432v-.467a108.595 108.595 0 010-.731v-.143a440.155 440.155 0 010-1.653v-1.029a119.247 119.247 0 000-.727 34.578 34.578 0 000-.39v-.1a.695.695 0 01.108-.39c.055-.053.132-.124.212-.124z" fill="#9A7423"/><path d="M43.03 55.246c.473-.003.945.006 1.418.018a2.934 2.934 0 01-.212.29 7.21 7.21 0 00-.205.257 26.146 26.146 0 01-.346.443l-.072.091-.094.12a29.22 29.22 0 01-.22.277 13.75 13.75 0 00-.242.311c-.084.11-.17.219-.258.326a9.25 9.25 0 00-.211.269l-.141.18-.213.273a5.577 5.577 0 00-.018-.034c.017-.042.017-.042.044-.096l.03-.06.035-.069.035-.07.098-.194.102-.203.193-.386.346-.689.121-.24c.13-.259.258-.517.38-.779l-.57-.017v-.018z" fill="#F0DEAD"/><path d="M42.838 55.245l.043.001.05.001.053.002h.055l.173.005.118.003.288.007c-.13.3-.277.592-.423.884l-.104.207-.195.39-.223.444-.457.912H42.2c.01-.101.024-.2.045-.3l.008-.04.027-.129.019-.091c.042-.203.087-.406.133-.609.04-.176.077-.352.113-.529.041-.203.086-.405.132-.607.033-.145.064-.29.091-.435.022-.114.022-.114.07-.116z" fill="#9C7626"/><path d="M39.898 55.264h.83c.2.378.2.378.265.509l.023.046c.024.05.049.098.074.147l.052.105.11.22.138.276.108.217.051.102c.1.198.197.397.292.597.067.141.137.28.209.418l.026.05c.01.023.01.023.022.045l.014.036a.28.28 0 01-.017.035 13.74 13.74 0 01-.337-.424 13.58 13.58 0 00-.257-.325 7.82 7.82 0 01-.168-.213c-.061-.08-.123-.158-.186-.236a12.299 12.299 0 01-.219-.28c-.083-.11-.17-.219-.257-.326a10.31 10.31 0 01-.212-.269 23.74 23.74 0 00-.34-.433 27.912 27.912 0 01-.173-.217l-.029-.036c-.02-.027-.02-.027-.02-.044z" fill="#9B7625"/><path d="M41.576 55.246h1.229c-.04.21-.08.417-.127.624-.05.218-.097.437-.142.657a32.09 32.09 0 01-.147.685l-.017.077-.009.039a28.837 28.837 0 00-.077.353l-.023.11-.022.1-.012.058c-.013.049-.013.049-.047.118v-2.803h-.606v-.018z" fill="#FCEDC0"/><path d="M41.559 55.264h.605v2.785a.753.753 0 01-.064-.2l-.008-.04-.017-.083-.047-.225-.01-.046a32.65 32.65 0 00-.086-.405 70.964 70.964 0 01-.109-.5l-.04-.186a48.032 48.032 0 00-.108-.501l-.01-.043-.046-.202-.016-.073-.015-.062c-.014-.072-.021-.146-.03-.22z" fill="#9B7524"/><path d="M53.445 8.255c.093.064.173.135.252.217.034.034.07.066.106.098a3.913 3.913 0 01.241.23l.11.111.076.076.184.185a.462.462 0 01-.13.159l-.027.025a25.87 25.87 0 01-.258.231c-.057-.019-.067-.03-.103-.075a3.293 3.293 0 00-.38-.376c-.058-.053-.112-.109-.167-.165a3.062 3.062 0 00-.187-.173 1.44 1.44 0 01-.097-.093c.028-.072.08-.123.133-.178l.056-.06.027-.029a5.25 5.25 0 00.164-.183z" fill="#8E651C"/><path d="M32.165 39.103h.241a9.662 9.662 0 01-.126.398l-.05.15-.034.103-.084.25a.362.362 0 01-.046-.15l-.004-.046-.004-.049a2.913 2.913 0 01-.015-.361c-.432-.067-.81.071-1.159.321a2.32 2.32 0 00-.243.233 6.349 6.349 0 01-.051.052c.007-.199.12-.382.259-.52.268-.215.563-.314.9-.363a7.49 7.49 0 00.034-.005c.127-.017.254-.014.382-.013zm20.795.001c.557-.008 1.124.014 1.563.398.076.078.126.166.175.262a.603.603 0 01.079.257c-.077-.075-.077-.075-.11-.117-.159-.2-.384-.324-.616-.42l-.052-.02a1.246 1.246 0 00-.692-.066v.034c.002.129-.006.256-.018.384l-.005.06-.012.145c-.048-.048-.06-.105-.08-.168l-.014-.04a32.004 32.004 0 01-.042-.128l-.055-.168-.013-.04a5.138 5.138 0 00-.096-.267c-.011-.037-.011-.037-.011-.106z" fill="#9B7626"/><path d="M47.39 52.098h.398v1.072h-.398v-1.072zm-1.73 0h.397v1.072h-.398v-1.072zm-1.16 0h.398v1.072H44.5v-1.072zm-1.73 0h.398v1.072h-.398v-1.072zm-1.16 0h.399v1.072h-.398v-1.072zm-1.73 0h.398v1.072h-.397v-1.072zm-2.318 0h.398v1.072h-.398v-1.072z" fill="#9D782A"/><path d="M49.83 15.314c.111.02.219.047.328.079l.04.012a.586.586 0 01.133.047l-.02.323-.007.11-.01.157-.003.05-.003.046-.003.04c-.006.036-.006.036-.04.088l-.485-.139a327.206 327.206 0 01.039-.59l.003-.05.003-.045.003-.041c.004-.035.004-.035.021-.087z" fill="#8E651C"/><path d="M46.819 52.098h.38v1.072h-.38v-1.072z" fill="#9B7526"/><path d="M46.248 52.098h.38v1.072h-.38v-1.072zm-1.159 0h.38v1.072h-.38v-1.072zm-1.159 0h.38v1.072h-.38v-1.072z" fill="#9A7423"/><path d="M43.358 52.098h.38v1.072h-.38v-1.072z" fill="#9B7526"/><path d="M42.199 52.098h.38v1.072h-.38v-1.072zm-1.159 0h.38v1.072h-.38v-1.072z" fill="#9A7423"/><path d="M40.469 52.098h.38v1.072h-.38v-1.072z" fill="#9B7526"/><path d="M39.31 52.098h.38v1.072h-.38v-1.072zm-1.16 0h.381v1.072h-.38v-1.072zm.589 0h.363v1.072h-.363v-1.072z" fill="#9A7423"/><path d="M52.96 16.473c.114.01.164.047.278.104v.796a.676.676 0 01-.206-.062l-.05-.024-.038-.018c-.003-.266.002-.53.017-.796z" fill="#805E18"/><path d="M47.978 52.098h.277c.012.31-.004.706-.212.957-.048.046-.048.046-.065.046v-1.003zm-10.883 0h.277V53.1c-.236-.236-.278-.587-.28-.908l.003-.095z" fill="#9B7525"/><path d="M34.88 37.443v.035a2.4 2.4 0 01-.108.076 2.402 2.402 0 00-.291.24 3.564 3.564 0 01-.118.105c-.07.06-.133.126-.196.194l-.034.036c-.166.18-.323.367-.473.561l-.083.106c-.127.16-.245.324-.359.493a6.151 6.151 0 01-.165.231c-.025.033-.025.033-.041.068l-.052-.017c.267-.392.54-.783.853-1.14.045-.051.087-.103.129-.155.056-.07.115-.133.18-.195.03-.03.057-.062.085-.095.47-.543.47-.543.673-.543z" fill="#9E7A2D"/><path d="M50.227 37.322c.263.041.509.277.695.455.038.036.076.07.116.103.054.045.098.097.144.15.031.036.064.069.098.102.068.066.127.138.186.212.035.042.07.085.107.127.125.144.238.297.352.45.03.042.062.084.093.125.15.2.29.408.428.617l.134.202-.017.035a6.77 6.77 0 01-.237-.339 11.128 11.128 0 00-1.115-1.433c-.283-.32-.6-.596-.984-.789v-.017z" fill="#A48238"/><path d="M50.867 37.754c.127.057.227.169.312.277l-.018.035-.147-.146-.042-.042-.04-.04-.038-.037c-.027-.03-.027-.03-.027-.047z" fill="#9E792B"/><path d="M54.847 52.34l-.19.086v-.034l-.035-.018a8.089 8.089 0 01.13-.042c.043-.01.043-.01.095.008z" fill="#DBD4C3"/><path d="M106.381 49.222c-1.201 0-2.221-.207-3.061-.62-.827-.427-1.46-1.027-1.899-1.802-.439-.788-.685-1.731-.736-2.83a74.565 74.565 0 010-3.45c.051-1.084.297-2.02.736-2.808a4.456 4.456 0 011.918-1.802c.84-.426 1.854-.64 3.042-.64.879 0 1.667.117 2.364.35.698.232 1.292.555 1.783.968.491.4.872.872 1.143 1.415a4.07 4.07 0 01.427 1.763.318.318 0 01-.117.29.392.392 0 01-.29.117h-1.841a.586.586 0 01-.349-.097c-.09-.078-.155-.2-.194-.368-.206-.853-.562-1.434-1.065-1.744-.504-.31-1.131-.465-1.88-.465-.865 0-1.557.245-2.073.736-.517.478-.795 1.273-.834 2.383a46.486 46.486 0 000 3.256c.039 1.11.317 1.911.834 2.402.516.478 1.208.717 2.073.717.749 0 1.376-.155 1.88-.465.503-.323.859-.904 1.065-1.744.039-.18.104-.303.194-.368a.586.586 0 01.349-.097h1.841c.116 0 .213.04.29.117a.318.318 0 01.117.29 4.07 4.07 0 01-.427 1.764 4.484 4.484 0 01-1.143 1.433c-.491.4-1.085.717-1.783.95-.697.232-1.485.349-2.364.349zm7.03-.194a.442.442 0 01-.291-.116.396.396 0 01-.116-.291c0-.052.013-.11.039-.174l4.67-12.498a.685.685 0 01.213-.33.673.673 0 01.465-.155h2.112c.194 0 .342.052.445.155.104.09.181.2.233.33l4.67 12.498a.889.889 0 01.019.174.396.396 0 01-.116.29.373.373 0 01-.271.117h-1.686c-.181 0-.317-.039-.407-.116a.778.778 0 01-.155-.252l-.911-2.364h-5.755l-.91 2.364a.682.682 0 01-.175.252c-.077.077-.206.116-.387.116h-1.686zm3.836-4.96h4.399l-2.209-5.988-2.19 5.988zm10.897 4.96a.447.447 0 01-.329-.136.447.447 0 01-.136-.33V35.95a.47.47 0 01.136-.35c.09-.09.2-.135.329-.135h1.492c.181 0 .31.045.388.136.09.077.148.136.174.174l5.581 8.681V35.95c0-.142.038-.259.116-.35a.472.472 0 01.349-.135h1.627a.47.47 0 01.349.136.47.47 0 01.136.349v12.595a.47.47 0 01-.136.348.45.45 0 01-.329.136h-1.512c-.181 0-.31-.045-.387-.136a1.065 1.065 0 00-.175-.174l-5.561-8.487v8.332a.45.45 0 01-.135.33.474.474 0 01-.349.135h-1.628zm12.402 0a.442.442 0 01-.291-.116.396.396 0 01-.116-.291c0-.052.013-.11.039-.174l4.67-12.498a.685.685 0 01.213-.33.673.673 0 01.465-.155h2.112c.194 0 .342.052.445.155.104.09.181.2.233.33l4.67 12.498a.889.889 0 01.019.174.396.396 0 01-.116.29.373.373 0 01-.271.117h-1.686c-.181 0-.317-.039-.407-.116a.778.778 0 01-.155-.252l-.911-2.364h-5.755l-.91 2.364a.682.682 0 01-.175.252c-.077.077-.206.116-.387.116h-1.686zm3.836-4.96h4.399l-2.209-5.988-2.19 5.988zm10.897 4.96a.447.447 0 01-.329-.136.447.447 0 01-.136-.33V35.95a.47.47 0 01.136-.35c.09-.09.2-.135.329-.135h4.728c1.305 0 2.377.2 3.217.6.852.401 1.492.996 1.918 1.783.439.788.665 1.75.678 2.888.026.568.039 1.072.039 1.511 0 .44-.013.937-.039 1.492-.026 1.201-.245 2.196-.659 2.984-.413.775-1.04 1.356-1.879 1.744-.827.375-1.886.562-3.178.562h-4.825zm2.228-2.228h2.5c.723 0 1.311-.104 1.763-.31a1.94 1.94 0 00.989-.989c.219-.465.335-1.072.348-1.821.013-.388.02-.724.02-1.008a9.75 9.75 0 000-.872c0-.297-.007-.633-.02-1.007-.025-1.06-.29-1.841-.794-2.345-.504-.504-1.305-.755-2.403-.755h-2.403V46.8zm11.396 2.228a.447.447 0 01-.329-.136.45.45 0 01-.136-.33V35.93a.45.45 0 01.136-.33c.09-.09.2-.135.329-.135h1.822c.142 0 .252.045.329.136.091.09.136.2.136.33v12.633c0 .13-.045.239-.136.33a.409.409 0 01-.329.135h-1.822zm4.493 0a.438.438 0 01-.291-.116.392.392 0 01-.116-.291c0-.052.013-.11.038-.174l4.67-12.498a.7.7 0 01.213-.33.677.677 0 01.465-.155h2.112c.194 0 .343.052.446.155.103.09.181.2.233.33l4.669 12.498c.013.064.02.122.02.174a.393.393 0 01-.117.29.37.37 0 01-.271.117h-1.686c-.18 0-.316-.039-.406-.116a.76.76 0 01-.155-.252l-.911-2.364h-5.755l-.911 2.364a.69.69 0 01-.174.252c-.078.077-.207.116-.388.116h-1.685zm3.836-4.96h4.399l-2.209-5.988-2.19 5.988zm10.897 4.96a.451.451 0 01-.33-.136.45.45 0 01-.135-.33V35.95c0-.142.045-.259.135-.35a.451.451 0 01.33-.135h1.492c.181 0 .31.045.387.136.091.077.149.136.175.174l5.58 8.681V35.95a.52.52 0 01.116-.35.474.474 0 01.349-.135h1.628c.142 0 .258.045.349.136.09.09.135.206.135.349v12.595a.473.473 0 01-.135.348.451.451 0 01-.33.136h-1.511c-.181 0-.31-.045-.388-.136a1.031 1.031 0 00-.174-.174l-5.561-8.487v8.332c0 .13-.045.239-.136.33a.47.47 0 01-.349.135h-1.627zm18.128 0a.45.45 0 01-.33-.136.45.45 0 01-.135-.33V35.93a.45.45 0 01.135-.33.45.45 0 01.33-.135h1.802c.129 0 .239.045.329.136.09.09.136.2.136.33v10.792h6.142c.142 0 .258.045.349.136.09.09.136.206.136.349v1.356a.45.45 0 01-.136.33.474.474 0 01-.349.135h-8.409zm11.24 0a.45.45 0 01-.33-.136.45.45 0 01-.135-.33V35.93a.45.45 0 01.135-.33.45.45 0 01.33-.135h1.821c.142 0 .252.045.329.136.091.09.136.2.136.33v12.633c0 .13-.045.239-.136.33a.409.409 0 01-.329.135h-1.821zm5.809 0a.47.47 0 01-.348-.136.447.447 0 01-.136-.33V35.95a.47.47 0 01.136-.35.47.47 0 01.348-.135h1.531c.181 0 .317.052.407.155a.95.95 0 01.174.213l3.74 6.976 3.779-6.976a.944.944 0 01.174-.213c.09-.103.226-.155.407-.155h1.511a.47.47 0 01.349.136c.09.09.136.206.136.349v12.614a.45.45 0 01-.136.33.472.472 0 01-.349.135h-1.627a.472.472 0 01-.349-.136.486.486 0 01-.116-.33v-8.39l-2.713 5.174c-.065.117-.149.22-.252.31a.66.66 0 01-.407.117h-.794a.703.703 0 01-.427-.117 1.385 1.385 0 01-.232-.31l-2.713-5.173v8.39c0 .13-.045.239-.136.33-.09.09-.2.135-.329.135h-1.628zm20.434.194c-1.15 0-2.138-.188-2.965-.562a4.343 4.343 0 01-1.937-1.763c-.465-.801-.717-1.796-.756-2.984a70.382 70.382 0 010-3.314c.039-1.175.297-2.157.775-2.945a4.577 4.577 0 011.957-1.783c.84-.4 1.815-.6 2.926-.6 1.111 0 2.086.2 2.926.6.84.4 1.498.995 1.976 1.783.478.788.737 1.77.775 2.945a35.228 35.228 0 010 3.314c-.038 1.188-.29 2.183-.755 2.983a4.325 4.325 0 01-1.957 1.764c-.827.374-1.815.562-2.965.562zm0-2.229c.84 0 1.524-.245 2.054-.736.53-.504.814-1.318.853-2.441.025-.569.038-1.092.038-1.57 0-.49-.013-1.014-.038-1.57-.026-.749-.168-1.356-.427-1.82-.245-.479-.581-.821-1.007-1.028-.427-.22-.918-.33-1.473-.33a3.12 3.12 0 00-1.453.33c-.427.207-.769.55-1.027 1.027-.246.465-.381 1.072-.407 1.822a67.166 67.166 0 000 3.139c.039 1.123.323 1.937.852 2.441.53.49 1.208.736 2.035.736zm12.969 2.229c-1.201 0-2.209-.175-3.023-.523-.801-.362-1.414-.827-1.84-1.396-.414-.58-.633-1.188-.659-1.821a.395.395 0 01.407-.407h1.724c.168 0 .291.039.368.116a.873.873 0 01.233.252c.077.246.226.491.446.736.219.233.516.427.891.582.387.155.872.232 1.453.232.93 0 1.621-.155 2.073-.465.465-.31.698-.73.698-1.26 0-.374-.123-.67-.368-.89-.246-.233-.627-.44-1.143-.62-.504-.194-1.176-.395-2.016-.601-.968-.233-1.782-.51-2.441-.833-.646-.336-1.137-.756-1.473-1.26-.323-.504-.484-1.143-.484-1.918 0-.75.2-1.415.601-1.996.413-.581.994-1.04 1.743-1.376.763-.336 1.667-.504 2.713-.504.84 0 1.583.117 2.229.35.645.219 1.182.516 1.608.89.426.362.749.756.969 1.183.232.413.355.82.368 1.22 0 .104-.039.2-.116.29-.065.078-.162.117-.291.117h-1.802a.689.689 0 01-.31-.077.57.57 0 01-.252-.291c-.078-.4-.329-.743-.756-1.027-.426-.284-.975-.426-1.647-.426-.697 0-1.259.129-1.686.387-.426.259-.639.66-.639 1.202 0 .361.103.665.31.91.22.233.562.44 1.027.62.478.181 1.104.375 1.88.582 1.098.245 1.995.53 2.693.852.697.323 1.208.737 1.531 1.24.323.491.484 1.118.484 1.88 0 .853-.232 1.582-.697 2.19-.453.594-1.092 1.052-1.919 1.375-.826.323-1.789.485-2.887.485z" fill="#fff"/></svg>