<svg width="114" height="114" fill="none" xmlns="http://www.w3.org/2000/svg"><path d="M36.194 21.585a2.821 2.821 0 01.457.088 63.946 63.946 0 01.34.085c.125.03.25.062.375.094l.232.058c.599.15 1.198.301 1.795.459l.076.02.208.055.059.016c.09.024.177.05.263.088l.022.213.006.057c.042.42.044.842.047 1.264v.07c.003.214.004.429.005.643.007 1.514.205 2.983.883 4.353l.028.056a6.5 6.5 0 00.753 1.156c.3.382.656.737 1.051 1.02l.096.07a6.558 6.558 0 00.714.455c.925.51 1.93.784 2.971.93l.084.012c.775.103 1.58.091 2.359.047l.05-.003c.335-.022.668-.065 1-.11l.117-.014 1.084-.15c1.616-.23 3.235-.423 4.866-.51l.05-.002c.202-.011.405-.018.607-.021l.048-.001c1.991-.03 3.975.2 6.651.568l.153.022.474.068a14.08 14.08 0 001.945.17h.088a65.942 65.942 0 00.33 0c.485 0 .964-.005 1.444-.076l.05-.007c1.39-.197 2.712-.645 3.826-1.52l.068-.052a6.267 6.267 0 001.529-1.826l.028-.05c.749-1.325 1.003-2.884 1.01-4.389l.002-.217.005-.618c.006-1.11.006-1.11.059-1.608a13.569 13.569 0 011.056-.293l.401-.102.399-.101.769-.195a146.344 146.344 0 00.748-.19l.166-.042.05-.012a.832.832 0 01.216-.028 5.082 5.082 0 01-.064.44l-.013.066-.041.221-.03.16-.083.44-.079.421-.16.858-.161.854-.01.054-.05.27-.35 1.864-.08.428-.01.052-.324 1.725-.015.08-.135.717-.147.787-.72 3.839-.008.05-.315 1.682-.262 1.402-.009.048a4776.36 4776.36 0 01-1.02 5.44l-.045.235a486.715 486.715 0 01-.201 1.07l-.044.229-.046.243-.014.073-.012.064a205.7 205.7 0 01-.01.056l-.005.042.024.024.038-.048.054-.065.06-.073.11-.134a123.75 123.75 0 00.572-.702l.41-.505.462-.566.36-.444c.154-.189.307-.378.462-.566l.208-.256.258-.317.411-.505.461-.566.209-.256.258-.317.411-.505.461-.566.209-.256.258-.317.411-.505c.153-.19.307-.378.461-.567l.361-.443c.153-.19.307-.378.46-.566l.21-.256.258-.318a155.767 155.767 0 01.872-1.07l.208-.257.258-.317c.138-.167.275-.336.412-.505l.46-.566.322-.395.154-.19c.026-.03.051-.062.076-.093l.193-.237c.134-.164.267-.33.397-.497a5.57 5.57 0 01.253-.3c.055.05.084.09.11.16l.022.055.023.062a27.6 27.6 0 00.084.217l.17.44.02.05a106.441 106.441 0 00.433 1.088 1620.732 1620.732 0 00.487 1.206l.031.079c.162.402.321.806.48 1.21a123.22 123.22 0 00.505 1.273 689.306 689.306 0 00.471 1.167l.094.232.056.14.026.064.024.06.02.05c.027.073.047.147.068.221l.067-.005c.75-.055 1.502-.103 2.253-.15l.547-.033 1.07-.067.936-.059a21.5 21.5 0 00.063-.004l.253-.015 2.366-.148 2.102-.131.135-.008.067-.005.337-.02.067-.005a8309.884 8309.884 0 011.949-.121l.125-.008.875-.055 1.125-.07.594-.037.444-.028.18-.01a197.971 197.971 0 01.38-.025l.056-.003a3.47 3.47 0 01.145-.003 1.26 1.26 0 01-.063.228l-.024.065-.027.07-.028.074-.092.242-.064.17c-.152.402-.306.804-.46 1.206a2743.686 2743.686 0 01-.813 2.13l-.46 1.201-.031.083-.472 1.24-.399 1.047-.026.067-.026.069-.408 1.065-.031.082-.472 1.24-.4 1.047-.026.068-.026.068-.407 1.065-.031.082-.472 1.24c-.15.394-.3.788-.452 1.182l-.288.752c-.01.028-.02.056-.032.085l-.159.417c-.091.24-.183.48-.277.718l-.066.167-.06.15-.034.087-.03.075c-.02.062-.02.062 0 .114.036.05.075.09.118.133l.052.051.055.053c.198.194.198.194.285.296.111.13.234.248.356.368.135.133.268.265.39.409.1.11.209.214.315.319.134.133.267.265.39.409.1.11.208.214.314.319.135.133.268.265.392.41.095.106.199.206.301.306.25.247.25.247.34.352.11.129.233.246.353.365.135.133.268.265.391.409.099.11.207.214.314.319.134.133.267.265.39.409.1.11.208.214.314.319.378.372.378.372.482.528-.454.204-.908.407-1.364.607-.341.149-.681.3-1.02.45l-1.084.479c-.277.121-.554.244-.83.367-.297.132-.594.263-.892.393-.341.15-.682.3-1.023.452-.36.161-.721.32-1.083.479-.295.129-.589.26-.882.39-.305.135-.61.27-.915.403l-.842.373-.891.393c-.342.15-.683.3-1.024.452-.36.16-.721.32-1.083.479-.277.121-.554.243-.83.367-.297.132-.594.263-.892.393-.341.15-.682.3-1.023.452l-1.083.479a77.44 77.44 0 00-.831.367l-.891.393c-.342.15-.683.3-1.023.452l-1.084.479c-.277.121-.554.244-.83.367-.712.316-1.425.628-2.138.94.112.277.23.552.353.825a217.815 217.815 0 01.926 2.096l.028.063.196.444.225.508.028.064.431.98.408.926.461 1.047.408.926.435.987a390.83 390.83 0 00.46 1.046l.291.658.125.28.088.2.053.12.025.056c.109.246.109.246.109.33-.634-.1-1.268-.203-1.9-.307l-.392-.065-.677-.11a741.864 741.864 0 01-1.494-.246l-.71-.118-.047-.008-.192-.031a9427.908 9427.908 0 00-2.734-.45l-.266-.044-.177-.029-1.132-.186-.836-.138-.081-.013c-.618-.102-1.235-.203-1.853-.302a117.691 117.691 0 01-3.464-.607 162.604 162.604 0 00-3.688-.651l-.071-.012-1.291-.216c-.685-.114-1.369-.229-2.053-.345l-.068-.011-.803-.137-.618-.105-.177-.03-.568-.096-.22-.037-.055-.01a153.32 153.32 0 01-.742-.128l-.409-.07a60.668 60.668 0 01-.528-.093l-.136-.024c-.313-.053-.603.001-.912.054l-.117.02-.319.054a408.072 408.072 0 01-1.01.17l-.777.132-1.758.297-.528.09c-.63.106-1.259.212-1.888.32-.02.002-.04.006-.062.01a2209.15 2209.15 0 00-2.005.34c-1.064.178-1.064.178-2.125.374l-.066.013-.265.052a139.036 139.036 0 01-4.191.731 1868.569 1868.569 0 01-3.554.582l-.53.087-.131.021-.907.149c-.979.16-1.957.32-2.935.482l-.254.042-1.57.26-.612.101-.422.07-.258.043-.118.02c-.237.038-.473.074-.71.104.057-.192.139-.372.221-.553l.135-.3.028-.062c.1-.22.197-.442.293-.663l.107-.242.026-.062.305-.69.434-.986.433-.984c.01-.02.019-.042.028-.063l.225-.508.197-.445.027-.063c.145-.326.288-.653.432-.98l.436-.99.407-.923.433-.984.027-.063.287-.647.12-.27.055-.127a80.009 80.009 0 00.328-.748l.026-.06.023-.053c.019-.042.019-.042.016-.09-.654-.296-.654-.296-1.311-.585l-.045-.02-.045-.02-.093-.04a11.644 11.644 0 01-.047-.02l-.639-.282-.065-.029-.326-.144-.572-.253-.316-.14-.126-.055-3.282-1.45-.063-.028-.127-.056-.315-.14-.57-.251-.317-.14c-.02-.01-.042-.019-.063-.028l-.977-.43-1.02-.451c-.338-.151-.677-.3-1.017-.45a84.886 84.886 0 01-.883-.39l-.839-.37c-.363-.16-.727-.32-1.09-.482-.338-.15-.677-.3-1.016-.448l-.883-.39c-.284-.127-.568-.252-.852-.377-.302-.132-.604-.265-.904-.399-.297-.132-.594-.263-.892-.393-.363-.16-.727-.32-1.09-.482l-1.016-.449-.882-.39c-.291-.13-.582-.258-.874-.385a55.46 55.46 0 01-.977-.438c.037-.09.094-.146.163-.214l.035-.035a28.445 28.445 0 01.256-.252l.036-.035a3.96 3.96 0 00.217-.237c.11-.123.232-.238.35-.354.163-.16.163-.16.317-.329.12-.141.256-.269.388-.4.123-.12.243-.242.355-.373.106-.12.223-.23.336-.341.157-.155.157-.155.306-.318.12-.141.256-.27.389-.4.162-.16.162-.16.316-.329.12-.14.256-.269.388-.4.163-.159.163-.159.317-.328.12-.141.256-.269.388-.4.122-.12.243-.242.355-.373.097-.11.204-.21.308-.313l.138-.137.061-.06c.069-.07.069-.07.124-.15-.007-.102-.052-.2-.088-.295l-.02-.054a63.337 63.337 0 00-.067-.176l-.048-.126c-.136-.361-.274-.721-.412-1.082l-.387-1.014a376.393 376.393 0 00-.458-1.2l-.026-.068-.56-1.468-.22-.575c-.2-.521-.398-1.042-.596-1.563l-.427-1.12-.026-.068-.026-.068-.408-1.065-.031-.082-.472-1.24a357.599 357.599 0 00-.451-1.183 649.1 649.1 0 01-.408-1.065l-.031-.082-.445-1.167-.431-1.132-.026-.068-.274-.713-.12-.31-.056-.148a86.1 86.1 0 01-.08-.205l-.023-.062-.022-.056-.019-.05c-.013-.04-.013-.04-.013-.087.98.057 1.96.116 2.94.178l.516.032.895.056 1.416.089.549.034.061.004a3364.788 3364.788 0 011.502.094l1.468.092.064.004.32.02.065.004.128.008 2.112.132.298.018.06.004.94.06.943.058.56.035.418.026.169.011.23.014.066.005c.139.008.277.01.416.009l.36-.898.028-.07c.362-.906.723-1.811 1.083-2.717a902.052 902.052 0 011.153-2.888l.133-.332.133-.332.05-.124.068-.171.02-.051c.046-.115.046-.115.072-.168h.047c.04.048.079.096.116.146.088.114.178.226.272.336.098.115.193.232.285.352.087.111.177.22.267.329.1.122.2.245.298.37.092.119.188.234.286.349.09.104.174.212.258.32.074.094.15.186.227.276.1.117.195.237.29.359.073.093.149.185.226.275.089.104.175.21.259.317.095.123.194.243.295.362.08.093.158.189.234.286l.197.242.213.261.258.317.452.555.42.516.249.305c.072.09.145.18.218.268l.451.555.421.516.249.306c.072.09.145.178.218.267l.451.555.371.455.451.555c.14.172.28.345.421.516l.248.306.219.267.45.555.422.516.248.306.219.268.45.554a124.825 124.825 0 00.64.784l.04.05a14.578 14.578 0 01.073.088c.027.035.052.072.077.11a5.115 5.115 0 00-.065-.445l-.013-.069-.043-.226-.03-.163-.075-.4-.088-.472-.172-.914-.15-.798-.01-.054-.04-.215a5474.58 5474.58 0 00-.894-4.765 2931.003 2931.003 0 01-.612-3.264l-.286-1.529-.31-1.657-.008-.049c-.19-1.015-.38-2.031-.572-3.047l-.635-3.38-.028-.155-.015-.076-.1-.532-.12-.645-.063-.333-.057-.308a44.208 44.208 0 00-.021-.112l-.029-.152-.016-.085c-.011-.066-.011-.066-.011-.113z" fill="#BC9E59"/><path d="M36.194 21.585a2.821 2.821 0 01.457.088 63.946 63.946 0 01.34.085c.125.03.25.062.375.094l.232.058c.599.15 1.198.301 1.795.459l.076.02.208.055.059.016c.09.024.177.05.263.088l.022.213.006.057c.042.42.044.842.047 1.264v.07c.003.214.004.429.005.643.007 1.514.205 2.983.883 4.353l.028.056a6.5 6.5 0 00.753 1.156c.3.382.656.737 1.051 1.02l.096.07a6.558 6.558 0 00.714.455c.925.51 1.93.784 2.971.93l.084.012c.775.103 1.58.091 2.359.047l.05-.003c.335-.022.668-.065 1-.11l.117-.014 1.084-.15c1.616-.23 3.235-.423 4.866-.51l.05-.002c.202-.011.405-.018.607-.021l.048-.001c1.991-.03 3.975.2 6.651.568l.153.022.474.068a15.155 15.155 0 002.052.174l.238.003.243.004.476.007a11.624 11.624 0 01-.16.814l-.058.272-.098.453-.146.678-.222 1.034-.108.508-.012.052-.273 1.273-.013.06-.42 1.957-.28 1.294-.032.154a1831.05 1831.05 0 00-.875 4.085c-.2.94-.402 1.879-.605 2.817-.04.18-.078.361-.117.542l-.069.317-.03.137-.038.178-.01.051c-.025.112-.025.112-.051.165h.188v.023a6.536 6.536 0 01-.58-.018l-.162-.012-.085-.006a53.749 53.749 0 00-1.664-.095l-.152-.007-.642-.024-.1-.004c-.764-.027-1.528-.026-2.291-.026h-.153c-1.001 0-2.002.004-3.002.051l-.105.005c-3.373.148-3.373.148-7.943 1.541a4.974 4.974 0 01-.11.1c-.382.33-.706.73-1.015 1.128l-.113.144c-.17.215-.33.434-.482.662a6.648 6.648 0 01-.163.23c-.12.162-.227.331-.336.5l-.079.122-.047.073-.036.052h-.023c.006-.214.028-.416.072-.626.051-.254.108-.543-.025-.783-.101-.104-.19-.12-.329-.123-.84-.01-1.716.046-2.42.545l-.05.035c-.21.165-.428.466-.505.722a2.63 2.63 0 00-.014.297l-.002.063c0 .161.023.274.13.401.551.466 1.479.412 2.156.432v.047l-.056.016c-2.074.566-2.074.566-3.89 1.675l-.06.052c-.323.297-.383.642-.421 1.063l-.005.049a29.98 29.98 0 00-.075 1.121l-.01.201-.036.683-.011.233a129.724 129.724 0 00-.12 3.178 130.658 130.658 0 00-.042 1.566 30.42 30.42 0 00-.015.582c-.023.262-.023.262.07.493a.72.72 0 00.185.08l.096.05c.473.234.925.295 1.454.326v7.046c.382.174.382.174.772.317l.072.024c.126.041.126.041.256.068.072.013.136.033.206.058.147.05.294.082.448.11l.083.014a16.378 16.378 0 00.938.134c1.566.192 3.142.294 4.717.377l.232.013c.37.02.738.038 1.108.04.545.004.94.02 1.392.35.098.07.203.126.309.184l.119.069.452.259.042.024c.197.113.394.224.592.334.19.106.379.214.567.325.227.133.457.262.687.39.22.121.44.246.658.371l.39.224.042.024.592.334c.19.106.379.214.567.324.226.133.456.262.686.39a27.363 27.363 0 01.633.359l.05.028c.046.026.046.026.113.047l-.058-.072a20.56 20.56 0 01-.424-.534c-.061-.08-.123-.16-.186-.239l-.032-.04-.066-.084-.161-.206-.065-.082-1.195-1.52-.065-.083-.16-.205a52.446 52.446 0 00-.342-.43l-.235-.296-.038-.049c-.026-.036-.026-.036-.026-.06h3.1l.024 3.712.164-.752.081-.368c.078-.352.154-.704.226-1.058.055-.271.114-.541.176-.81.045-.197.087-.394.124-.591.025-.13.025-.13.05-.156h.105l.067.001.072.002.075.002a92.515 92.515 0 01.394.01l.392.009c-.175.404-.372.797-.57 1.19l-.138.277-.262.522-.298.594-.611 1.222.068-.08.038-.044c.062-.072.121-.146.181-.22l.04-.05c.101-.124.2-.25.296-.377.093-.121.188-.242.283-.362l.162-.206.065-.082.032-.041 1.389-1.768.03-.039.065-.081c.056-.069.107-.138.153-.213.152-.238.152-.238.296-.272.111-.015.222-.011.333-.007h.127l.34.003c.117.002.235.002.353.003.194 0 .387.002.581.004a55.297 55.297 0 00.951.003h1.122a1.665 1.665 0 01-.26.166l-.069.038-.147.083-.078.044-.365.208c-.225.129-.45.257-.677.383a78.155 78.155 0 00-1.1.626l-.041.024-.592.334c-.19.106-.38.214-.567.324a30.56 30.56 0 01-.687.39c-.183.1-.364.203-.544.306l-.448.255-.068.039-.274.154a224.877 224.877 0 00-.614.346l-.135.076-.064.036c-.02.01-.039.022-.058.033l-.052.029c-.049.03-.049.03-.089.1a3 3 0 01-.21.042l-.068.011-.228.038-.166.028a154.88 154.88 0 01-.965.16l-.213.036-.055.009-.397.066-1.913.322-.15.025-.92.156-1.307.222a1025.711 1025.711 0 01-2.612.439l-.077.013c-.584.098-1.167.2-1.748.311l-.081.016-.25.048a167.328 167.328 0 01-4.416.773 1845.153 1845.153 0 01-3.737.611l-.066.011-.133.022-.066.01-.066.011a1811.434 1811.434 0 00-3.973.653l-.254.042-1.57.26-.612.101-.422.07-.258.043-.118.02c-.237.038-.473.074-.71.104.057-.192.139-.372.221-.553l.135-.3.028-.062c.1-.22.197-.442.293-.663l.107-.242.026-.062.305-.69.434-.986.433-.984c.01-.02.019-.042.028-.063l.225-.508.197-.445.027-.063c.145-.326.288-.653.432-.98l.436-.99.407-.923.433-.984.027-.063.287-.647.12-.27.055-.127a80.009 80.009 0 00.328-.748l.026-.06.023-.053c.019-.042.019-.042.016-.09-.654-.296-.654-.296-1.311-.585l-.045-.02-.045-.02-.093-.04a11.644 11.644 0 01-.047-.02l-.639-.282-.065-.029-.326-.144-.572-.253-.316-.14-.126-.055-3.282-1.45-.063-.028-.127-.056-.315-.14-.57-.251-.317-.14c-.02-.01-.042-.019-.063-.028l-.977-.43-1.02-.451c-.338-.151-.677-.3-1.017-.45a84.886 84.886 0 01-.883-.39l-.839-.37c-.363-.16-.727-.32-1.09-.482-.338-.15-.677-.3-1.016-.448l-.883-.39c-.284-.127-.568-.252-.852-.377-.302-.132-.604-.265-.904-.399-.297-.132-.594-.263-.892-.393-.363-.16-.727-.32-1.09-.482l-1.016-.449-.882-.39c-.291-.13-.582-.258-.874-.385a55.46 55.46 0 01-.977-.438c.037-.09.094-.146.163-.214l.035-.035a28.445 28.445 0 01.256-.252l.036-.035a3.96 3.96 0 00.217-.237c.11-.123.232-.238.35-.354.163-.16.163-.16.317-.329.12-.141.256-.269.388-.4.123-.12.243-.242.355-.373.106-.12.223-.23.336-.341.157-.155.157-.155.306-.318.12-.141.256-.27.389-.4.162-.16.162-.16.316-.329.12-.14.256-.269.388-.4.163-.159.163-.159.317-.328.12-.141.256-.269.388-.4.122-.12.243-.242.355-.373.097-.11.204-.21.308-.313l.138-.137.061-.06c.069-.07.069-.07.124-.15-.007-.102-.052-.2-.088-.295l-.02-.054a63.337 63.337 0 00-.067-.176l-.048-.126c-.136-.361-.274-.721-.412-1.082l-.387-1.014a376.393 376.393 0 00-.458-1.2l-.026-.068-.56-1.468-.22-.575c-.2-.521-.398-1.042-.596-1.563l-.427-1.12-.026-.068-.026-.068-.408-1.065-.031-.082-.472-1.24a357.599 357.599 0 00-.451-1.183 649.1 649.1 0 01-.408-1.065l-.031-.082-.445-1.167-.431-1.132-.026-.068-.274-.713-.12-.31-.056-.148a86.1 86.1 0 01-.08-.205l-.023-.062-.022-.056-.019-.05c-.013-.04-.013-.04-.013-.087.98.057 1.96.116 2.94.178l.516.032.895.056 1.416.089.549.034.061.004a3364.788 3364.788 0 011.502.094l1.468.092.064.004.32.02.065.004.128.008 2.112.132.298.018.06.004.94.06.943.058.56.035.418.026.169.011.23.014.066.005c.139.008.277.01.416.009l.36-.898.028-.07c.362-.906.723-1.811 1.083-2.717a902.052 902.052 0 011.153-2.888l.133-.332.133-.332.05-.124.068-.171.02-.051c.046-.115.046-.115.072-.168h.047c.04.048.079.096.116.146.088.114.178.226.272.336.098.115.193.232.285.352.087.111.177.22.267.329.1.122.2.245.298.37.092.119.188.234.286.349.09.104.174.212.258.32.074.094.15.186.227.276.1.117.195.237.29.359.073.093.149.185.226.275.089.104.175.21.259.317.095.123.194.243.295.362.08.093.158.189.234.286l.197.242.213.261.258.317.452.555.42.516.249.305c.072.09.145.18.218.268l.451.555.421.516.249.306c.072.09.145.178.218.267l.451.555.371.455.451.555c.14.172.28.345.421.516l.248.306.219.267.45.555.422.516.248.306.219.268.45.554a124.825 124.825 0 00.64.784l.04.05a14.578 14.578 0 01.073.088c.027.035.052.072.077.11a5.115 5.115 0 00-.065-.445l-.013-.069-.043-.226-.03-.163-.075-.4-.088-.472-.172-.914-.15-.798-.01-.054-.04-.215a5474.58 5474.58 0 00-.894-4.765 2931.003 2931.003 0 01-.612-3.264l-.286-1.529-.31-1.657-.008-.049c-.19-1.015-.38-2.031-.572-3.047l-.635-3.38-.028-.155-.015-.076-.1-.532-.12-.645-.063-.333-.057-.308a44.208 44.208 0 00-.021-.112l-.029-.152-.016-.085c-.011-.066-.011-.066-.011-.113z" fill="#A78438"/><path d="M60.948 49.626l.208.008c.284.01.567.025.85.042l.074.004a40.76 40.76 0 013.867.387l.167.025c.218.034.435.072.65.12l.084.018.172.038.24.051c.675.145 1.23.35 1.746.813l.06.052c.212.186.417.385.6.6l.111.128c.179.202.344.41.506.625l.115.151c.304.393.581.802.856 1.216l.033.051.064.096a.83.83 0 00.097.134 78.75 78.75 0 00-.04-.345 2.743 2.743 0 00-.055-.327 1.547 1.547 0 01-.032-.351l-.002-.064a.484.484 0 01.13-.369c.116-.086.233-.081.372-.08l.07.001c.84.016 1.785.084 2.423.69.27.284.442.58.448.978-.006.17-.021.306-.143.43-.171.158-.368.22-.587.283l-.079.024c-.486.129-.996.12-1.495.117.02.054.02.054.09.07.046.01.046.01.091.023l.103.027.055.014c1.252.332 2.768.752 3.701 1.698l.055.055c.305.322.326.743.358 1.165l.009.112c.027.348.049.697.067 1.046l.009.158c.057 1.05.096 2.102.134 3.153l.007.186c.038 1.024.049 2.048.042 3.073l-.157.09-.044.026c-.505.29-1.007.378-1.584.378v7.187c-.432.216-.432.216-.62.277l-.058.02-.112.037a4.489 4.489 0 00-.17.06l-.051.018c-.045.01-.045.01-.116-.013l.046-.032c.309-.23.45-.555.51-.93.012-.078.022-.157.031-.236l.008-.055c.06-.464.044-.934.04-1.401l-.067.043a5.474 5.474 0 01-1.202.568l-.063.022c-.647.226-1.33.354-2.004.47l-.087.016c-2.205.379-4.446.516-6.947.613l-.414.016c-.603.024-1.206.041-1.809.05h-.05c-1.283.02-2.565.014-3.847.013h-.829c-3.275.002-3.275.002-4.525-.026l-.076-.002a73.493 73.493 0 01-.903-.025l-.194-.007a82.981 82.981 0 01-4.713-.283c-1.274-.113-2.572-.255-3.816-.559l-.213-.05c-.778-.176-1.55-.414-2.205-.882-.049 1.347-.049 1.347.473 2.523l.091.084c.032.03.063.062.094.093a2.7 2.7 0 01-.484-.132l-.062-.021c-.205-.075-.382-.17-.581-.27V66.61l-.54-.047a4.008 4.008 0 01-.4-.088 2.984 2.984 0 01-.493-.194 22.975 22.975 0 00-.126-.06l-.055-.026a.671.671 0 01-.171-.125c-.018-.072-.015-.143-.013-.217v-.068c0-.075.002-.15.003-.224l.001-.161.009-.528.001-.09c.01-.447.022-.894.035-1.34l.008-.262c.038-1.288.092-2.575.164-3.863l.01-.176.015-.281.006-.102c.078-1.431.078-1.431.528-1.85.981-.877 2.406-1.268 3.648-1.619l.073-.02.07-.02.062-.018c.054-.012.054-.012.124-.012v-.047h-.047c-.476.007-.937-.008-1.405-.103l-.069-.014c-.26-.057-.563-.152-.723-.381-.066-.128-.063-.247-.063-.388l-.002-.06c-.002-.376.227-.671.477-.933.636-.568 1.559-.634 2.372-.642l.078-.001c.168 0 .297.01.423.132.16.26.09.581.028.863a3.29 3.29 0 00-.059.517l.046-.068.172-.255.074-.11c.158-.234.318-.466.483-.695l.044-.061c.189-.26.384-.514.59-.76l.035-.043c.142-.17.286-.335.435-.498l.064-.072c.747-.828 1.543-1.154 2.62-1.367l.194-.04c.283-.057.567-.107.852-.15.034-.006.034-.006.07-.01 1.542-.233 3.106-.336 4.663-.4l.25-.012a66.453 66.453 0 015.918.005z" fill="#9A7423"/><path d="M60.948 49.626l.208.008c.284.01.567.025.85.042l.074.004a40.76 40.76 0 013.867.387l.167.025a9.941 9.941 0 01.734.138l.172.038.24.051c.675.145 1.23.35 1.746.813l.06.052c.212.186.417.385.6.6l.111.128c.178.202.344.41.506.625l.115.151c.304.393.581.802.856 1.216l.033.051.064.096c.044.07.044.07.097.134-.01-.09-.02-.179-.032-.268l-.009-.077a2.763 2.763 0 00-.054-.327 1.547 1.547 0 01-.032-.351l-.003-.064a.484.484 0 01.13-.369c.117-.086.234-.081.373-.08l.07.001c.84.016 1.785.084 2.423.69.27.284.442.58.448.978-.006.17-.021.306-.143.43-.171.158-.368.22-.587.283l-.079.024c-.486.129-.996.12-1.495.117.02.054.02.054.09.07.046.01.046.01.091.023l.103.027.055.014c1.252.332 2.768.752 3.701 1.698l.055.055c.305.322.326.743.358 1.165l.009.112c.027.348.049.697.067 1.046l.009.158c.058 1.072.098 2.145.136 3.218l.003.063a102.502 102.502 0 01.058 2.12l.003.156a9.963 9.963 0 01.006.274c0 .085-.003.137-.062.201a1.354 1.354 0 01-.148.099l-.056.035c-.05.028-.102.055-.153.082l-.058.03c-.374.19-.754.283-1.174.286l-.08.002c-.218.001-.218.001-.303-.069l-.105-.118c-.193-.172-.407-.23-.657-.23h-.186a1.222 1.222 0 00-.18.027 3.427 3.427 0 01-.455.06 73.712 73.712 0 01-.382.037l-.486.045-.084.008c-.71.066-1.42.111-2.132.16l-.677.046-.05.003-.102.007-.424.029c-.087.005-.174.012-.26.018a25.442 25.442 0 01-.522.032l-.08.004c-.172.01-.264.036-.387.16a.34.34 0 00-.035.19l-.001.072c.01.078.037.122.08.187v.047c.093.03.187.028.284.028h.059a52.292 52.292 0 00.305.001c.826.003 1.653-.065 2.477-.126l.287-.02c.562-.041 1.123-.085 1.683-.133 1.474-.125 1.474-.125 1.79.11.153.164.178.3.176.521v.083l-.001.175v.262c0 .513-.05 1.009-.427 1.396-.641.592-1.63.622-2.454.71l-.252.028c-.527.058-1.055.113-1.582.168-.536.055-1.071.112-1.606.172l-.216.024c-.625.053-.625.053-1.212.258l-.046.024c-.304.164-.523.402-.705.69a1.596 1.596 0 00-.18.374h-.024l-.006-4.049v-.06l-.002-1.302v-.703l-.003-2.06-.003-2.116v-.359a498.545 498.545 0 00-.002-1.899l-.001-.566a54.042 54.042 0 010-.593 5.981 5.981 0 010-.232l-.002-.067c.003-.166.057-.264.16-.392l.03-.04a1.26 1.26 0 01.237-.224l.043-.034c.27-.206.555-.38.855-.54l.168-.092a11.72 11.72 0 012.66-1.043 1.15 1.15 0 00-.15-.273l-.03-.045a28.106 28.106 0 00-.098-.144l-.068-.1a20.19 20.19 0 00-1.165-1.549 7.854 7.854 0 00-.47-.526c-.032-.032-.062-.065-.092-.097-.36-.377-.787-.6-1.29-.727l-.081-.021c-.978-.244-1.981-.385-2.983-.482l-.173-.017a44.358 44.358 0 00-2.74-.188l-.169-.007a80.938 80.938 0 00-3.216-.057h-.083a67.71 67.71 0 00-3.281.076l-.057.003c-1.221.058-2.44.144-3.65.319l-.153.021a16.57 16.57 0 00-1.79.34l-.089.022c-.43.113-.74.256-1.066.56-.05.047-.1.09-.152.134a1.966 1.966 0 00-.21.217c-.05.058-.103.115-.156.172-.098.108-.189.22-.278.335a9.626 9.626 0 01-.22.273c-.197.236-.382.48-.564.728l-.039.052c-.242.326-.466.665-.69 1.005l.046.008a4.513 4.513 0 01.631.178c1.095.36 2.483.846 3.293 1.716l.04.038c.191.21.146.498.144.764v.559l-.001.569-.001.957-.002.948v.359l-.003 2.12-.004 2.06v.063a1440034.812 1440034.812 0 01-.002 1.937v.06c-.001 1.33-.004 2.658-.007 3.987a2.082 2.082 0 01-.119-.21c-.245-.457-.605-.8-1.102-.964-.312-.079-.635-.109-.954-.147l-.089-.01a84.945 84.945 0 00-1.678-.18l-.205-.021a134.822 134.822 0 01-1.833-.197l-.154-.017c-1.75-.197-1.75-.197-2.257-.804-.233-.325-.302-.695-.304-1.086v-.247l-.002-.256v-.163l-.002-.077c.001-.177.02-.32.151-.45.212-.2.441-.23.719-.222.17.006.34.022.511.036l.39.033.082.006c.45.037.901.07 1.352.104l.32.024c.561.042 1.123.083 1.685.116l.152.01c.456.027.912.034 1.369.034h.06a.474.474 0 00.288-.08.489.489 0 00.07-.352.363.363 0 00-.153-.203.983.983 0 00-.316-.056l-.07-.005-.234-.016-.168-.012c-.45-.032-.9-.06-1.35-.088a96.603 96.603 0 01-2.935-.222l-.076-.007c-.26-.024-.516-.053-.773-.096a2.243 2.243 0 00-.456-.033.85.85 0 00-.586.245 2.136 2.136 0 00-.066.078c-.05.063-.05.063-.121.086a2.794 2.794 0 01-1.69-.393 1.829 1.829 0 00-.098-.055.496.496 0 01-.138-.115c-.025-.1-.019-.194-.013-.295a33.51 33.51 0 01.016-.53c.003-.172.008-.345.013-.517l.003-.096.019-.667.004-.16c.029-.987.063-1.973.113-2.958l.004-.074c.015-.305.032-.61.049-.916l.01-.176.015-.281.006-.102c.078-1.431.078-1.431.528-1.85.981-.877 2.406-1.268 3.648-1.619l.073-.02a610.356 610.356 0 00.132-.038c.054-.012.054-.012.124-.012v-.047h-.047c-.476.007-.937-.008-1.405-.103l-.069-.014c-.26-.057-.563-.152-.723-.381-.066-.128-.063-.247-.063-.388l-.002-.06c-.002-.376.227-.671.477-.933.636-.568 1.559-.634 2.372-.642l.078-.001c.168 0 .297.01.423.132.16.26.09.581.028.863a3.21 3.21 0 00-.059.517l.046-.068.172-.255.074-.11c.158-.234.318-.466.483-.695l.044-.061c.189-.26.384-.514.59-.76l.035-.043c.142-.17.286-.335.435-.498l.064-.072c.747-.828 1.543-1.154 2.62-1.367l.194-.04c.283-.057.567-.107.852-.15.034-.006.034-.006.07-.01 1.542-.233 3.105-.336 4.663-.4l.25-.012a66.453 66.453 0 015.918.005z" fill="#ECECEC"/><path d="M57.035 3.615c2.36-.071 4.826.525 12.805 3.562l.215.12a16.885 16.885 0 011.496.938 18.572 18.572 0 01.885.657c.195.15.383.306.568.467l.13.11a3.4 3.4 0 01.366.333c.038.039.079.074.12.11.12.103.231.214.343.326.035.036.07.072.107.107.113.113.223.227.327.349.048.056.099.11.149.164a6.9 6.9 0 01.274.32l.128.157c.42.508.801 1.057 1.128 1.63l.027.048c.07.124.14.25.207.375l.032.057a11.004 11.004 0 01.723 1.66c.234.653.4 1.333.514 2.017l.012.07c.139.833-.084 1.627-.565 2.316-.946 1.324-2.63 1.963-4.18 2.225a.72.72 0 01-.473-.059l-.113-.052c-.032-.014-.032-.014-.063-.03-1.796-.836-3.686-1.474-13.643-2.826h-.055a34.467 34.467 0 00-.767 0l-.058.001c-2.493.028-4.98.265-9.126.986l-.076.015c-2.051.407-4.144.908-6.547 1.91a1.692 1.692 0 01-.505-.06l-.084-.018a13.59 13.59 0 01-.844-.227l-.063-.019c-.813-.248-1.638-.62-2.286-1.178l-.056-.049a8.089 8.089 0 01-.179-.163l-.067-.063a3.176 3.176 0 01-.824-1.29l-.019-.056a3.1 3.1 0 01-.133-.986v-.054c.014-2.159 1.4-4.377 2.711-6.006l.037-.046c.234-.291.472-.579.727-.853l.145-.164c.07-.08.144-.155.22-.23a2.18 2.18 0 00.12-.133c.165-.19.348-.37.54-.533.048-.042.093-.086.137-.132.075-.075.152-.146.232-.215a8.398 8.398 0 01.469-.406 7.04 7.04 0 00.166-.136c.207-.173.418-.339.635-.499l.144-.108c1.8-1.36 3.864-2.36 7.486-3.53l.15-.041c2.033-.545 4.15-.801 6.25-.868zm3.63 1.34l-.054.03a4.675 4.675 0 00-.436.276l-.082.057a7.021 7.021 0 00-.506.39l-.04.034a69.2 69.2 0 00-.265.224.914.914 0 00.21.167c.625.39 1.12.941 1.458 1.594l.025.049c.484.945.563 2.083.25 3.095-.36 1.105-1.123 1.954-2.144 2.49a4.419 4.419 0 01-1.326.403l-.048.007a4.312 4.312 0 01-3.157-.844 5.814 5.814 0 01-.556-.503c-.088-.087-.088-.087-.114-.14-.087.029-.108.063-.165.135l-.056.07-.03.038c-.052.065-.106.128-.16.191-.08.095-.16.19-.238.287a6.98 6.98 0 01-.262.3c-.053.06-.103.122-.153.184a6.918 6.918 0 01-.327.369 7.536 7.536 0 00-.186.209 17.619 17.619 0 00-.431.479 1.95 1.95 0 01-.105.107c-.053.044-.053.044-.048.097l.043-.005.06-.008.07-.008.152-.02.378-.047c.972-.123 1.947-.22 2.926-.262l.124-.005a34.565 34.565 0 011.663-.025c.724 0 1.447.007 2.17.051l.157.01c1.924.114 3.843.35 5.715.812l.056.014a18.693 18.693 0 013.993 1.459c.972.49 1.889 1.103 2.692 1.839.125.112.125.112.26.212.062.052.08.086.087.166v.179a69.895 69.895 0 00.001.353c.002.128.002.255.002.382l.001.388c.001.254.002.509.001.763l.214-.022.06-.006a5.19 5.19 0 00.465-.07l.077-.014c1.083-.221 2.18-.64 2.99-1.415l.057-.053c.436-.414.776-1.028.812-1.638-.065-2.147-1.243-4.44-2.619-6.037a7.246 7.246 0 01-.159-.195c-.247-.302-.527-.575-.803-.851a7.541 7.541 0 00-.506-.48 8.85 8.85 0 00-.575-.489c-1.564-1.265-3.35-2.252-5.86-3.292l-.047-.018c-.965-.37-4.975-1.873-5.711-1.462zm-6.362 1.903l-.056.053c-.633.606-1.065 1.545-1.098 2.421-.008.376-.015.752.073 1.12l.014.06a4.03 4.03 0 001.771 2.453c.964.565 2.075.771 3.167.487a4.09 4.09 0 001.437-.698l.064-.049a3.93 3.93 0 00.993-1.15l.023-.04c.505-.87.616-1.922.364-2.89-.21-.762-.656-1.507-1.28-2.002l-.038-.03a4.315 4.315 0 00-.76-.487c-1.548-.81-3.442-.437-4.674.752z" fill="#8E661C"/><path d="M56.84 32.083c1.99-.03 3.975.2 6.651.568a92.816 92.816 0 00.627.09c.65.094 1.304.163 1.96.172l.092.002c.08 0 .159.002.238.003a201.339 201.339 0 01.719.011c-.036.232-.084.46-.133.69-.01.041-.018.083-.027.124a263.499 263.499 0 01-.156.724l-.146.68-.222 1.032-.109.508-.01.053-.274 1.273-.013.06-.42 1.957-.28 1.294-.032.153a1984.1 1984.1 0 00-.875 4.086 731.164 731.164 0 01-.722 3.359l-.069.317-.03.137-.038.178-.01.051c-.025.112-.025.112-.051.165h.188v.023a6.499 6.499 0 01-.742-.03l-.085-.006a53.749 53.749 0 00-1.664-.095l-.152-.007-.642-.025c-.034 0-.067-.002-.1-.003a62.527 62.527 0 00-2.291-.026h-.153c-1.002 0-2.002.003-3.003.051l-.104.005c-1.642.069-1.642.069-3.275.235a1.496 1.496 0 01-.34.007l-.075-.007-.058-.005-.011-.055c-.234-1.098-.47-2.196-.706-3.294l-.127-.584-.202-.94-.36-1.664-.045-.212-.961-4.459-.01-.046-.223-1.036-.083-.382-.02-.097-.29-1.343-.204-.95-.137-.631-.093-.43-.053-.25-.059-.27-.017-.081-.016-.073-.014-.064c-.01-.05-.01-.05-.01-.097h.047c.8-.005.8-.005 1.599-.037l.05-.003c.334-.022.667-.063 1-.107l.116-.016c.361-.048.723-.099 1.084-.15 1.616-.229 3.235-.423 4.866-.509l.05-.003c.218-.011.436-.018.655-.021z" fill="#AF8D44"/><path d="M58.683 21.335l.074.002c2.36.05 4.725.285 7.033.79.176.04.346.074.526.086.118.011.233.04.349.066l.084.02a44.907 44.907 0 01.337.079c.453.108.895.254 1.338.399a23.236 23.236 0 01.356.117l.08.026c.134.045.266.093.397.146a5.546 5.546 0 00.356.13l.058.02c.683.24 1.353.513 2.012.811l.08.036.237.108.075.034.067.031.06.028c.045.022.045.022.069.045l.003.153v.049a28.587 28.587 0 010 .273v.238l.001.24c.006 1.45-.173 2.989-1.179 4.12l-.047.056a6.774 6.774 0 01-.201.22 5.208 5.208 0 01-1.161.899l-.048.029c-.774.45-1.673.688-2.552.822l-.07.011a9.934 9.934 0 01-1.439.085h-.085a10.013 10.013 0 01-1.349-.078l-.046-.006a17.284 17.284 0 01-1.504-.292c-1.577-.357-3.158-.558-4.776-.555h-.203a25.515 25.515 0 00-2.29.09c-1.568.123-3.127.331-4.685.551-1.17.165-2.367.286-3.548.142l-.076-.01c-1.44-.18-2.89-.72-3.815-1.89-.629-.815-.977-1.76-1.141-2.77l-.01-.066a9.556 9.556 0 01-.031-.22l-.013-.09c-.053-.41-.04-.827-.037-1.24v-.313l.003-.612c.578-.255.578-.255.873-.361l.044-.016c2.02-.73 4.111-1.241 11.646-2.344l.148-.01c.593-.038 1.188-.05 1.782-.065l.128-.004a45.089 45.089 0 012.09-.01z" fill="#8E661C"/><path d="M59.352 56.346l.063.006c1.14.098 2.273.26 3.4.455l.052.009c.12.02.12.02.173.047l.138.022.084.013.083.012c.143.022.284.047.425.08.153.036.307.067.462.097l.168.034.26.051c.564.11.564.11.784.163l.083.02a.69.69 0 01.3.205l.04.043c.134.206.119.432.117.667v.82a279.077 279.077 0 01-.001 1.529l-.003 2.164-.004 4.884H49.887l-.006-4.882-.002-1.543v-.911a309.78 309.78 0 00-.003-1.313 71.88 71.88 0 000-.685v-.118c-.002-.248.006-.485.181-.68l.037-.043c.131-.108.283-.153.447-.186a10.396 10.396 0 01.264-.055l.144-.03c.42-.088.84-.169 1.262-.25l.047-.008a41.92 41.92 0 011.158-.207c.156-.025.311-.051.466-.078a25.901 25.901 0 012.98-.355l.068-.004c.804-.046 1.62-.041 2.422.027z" fill="#EBEAE8"/><path d="M58.42 4.466l.07.007c1.86.205 1.86.205 2.342.365-.034.104-.116.126-.208.174-.482.258-.905.599-1.318.954.055.06.114.1.185.142.267.168.502.369.73.586l.046.041c.143.135.26.295.377.452l.03.04c.631.853.855 1.959.727 3a4.26 4.26 0 01-1.657 2.754 4.465 4.465 0 01-2.036.813 4.311 4.311 0 01-3.158-.843 4.567 4.567 0 01-.365-.315l-.04-.038a25.13 25.13 0 01-.127-.125l-.041-.04a3.103 3.103 0 01-.097-.102v-.047c-.09.087-.172.178-.253.273l-.037.044c-.072.085-.143.17-.214.257-.108.133-.22.263-.334.393a13.47 13.47 0 00-.188.219c-.116.135-.234.269-.354.4l-.133.15c-.08.093-.164.183-.247.274a8.475 8.475 0 00-.183.205l-.077.087-.039.046-.04.045a8.66 8.66 0 01-.035.04.353.353 0 01-.146.056l-.058.012a12.56 12.56 0 01-.265.05l-.121.022a15.67 15.67 0 00-.064.012c-1.814.33-3.599.81-8.557 3.397-.07.054-.07.054-.151.098a.477.477 0 00-.2.191c-.017.094-.012.186-.009.28a29.873 29.873 0 00.006.276 117.072 117.072 0 00.01.777l.002.058.001.117.005.302.008.586a4.812 4.812 0 01-.554-.085l-.09-.02a9.969 9.969 0 01-.86-.224l-.063-.02c-.782-.239-1.547-.59-2.168-1.131l-.058-.049c-.454-.385-.792-.966-.853-1.562a3.278 3.278 0 01.054-.94 8.458 8.458 0 01.67-1.982l.068-.148c.156-.336.331-.66.519-.98l.066-.115a13.4 13.4 0 011.264-1.795 11.869 11.869 0 01.745-.867l.126-.135a21.505 21.505 0 01.548-.568 4.96 4.96 0 01.282-.26c.074-.066.145-.134.217-.202.121-.114.244-.223.374-.326.06-.05.12-.1.18-.153a10.3 10.3 0 01.567-.452l.125-.097a17.93 17.93 0 013.136-1.934c.056-.027.112-.056.167-.084 2.046-1.043 4.322-1.679 10.213-2.412l.076-.004c.493-.021.972.005 1.462.06zm-4.117 2.392l-.056.053c-.633.606-1.065 1.545-1.098 2.421-.008.376-.015.752.073 1.12l.014.06a4.03 4.03 0 001.771 2.453c.964.565 2.076.771 3.167.487a4.09 4.09 0 001.437-.698l.064-.049a3.932 3.932 0 001.017-1.19c.505-.87.615-1.922.363-2.89-.21-.762-.656-1.507-1.28-2.002l-.038-.03a4.315 4.315 0 00-.713-.463l-.047-.024c-1.548-.81-3.442-.437-4.674.752z" fill="#C2A663"/><path d="M57.145 81.43c.092.038.15.098.218.168l.035.035a4.9 4.9 0 01.226.248c.05.058.106.111.16.166.043.043.083.088.123.134.056.066.115.128.177.19.077.075.148.154.218.236.04.044.08.086.123.127.057.056.11.114.163.175.056.066.115.128.177.19.077.075.148.154.218.236.04.044.08.086.123.127a2.8 2.8 0 01.163.175c.058.068.118.131.182.194.14.14.14.14.183.207-.009.078-.038.118-.092.173l-.042.045-.045.046-.09.095-.044.046c-.057.06-.111.122-.165.185l-.144.161c-.063.07-.126.14-.188.212-.115.132-.233.262-.352.392l-.056.063-.051.056-.046.052-.039.043c-.041.068-.033.098-.017.176l.015.076.018.081.016.083a32.613 32.613 0 00.08.385l.062.291.066.314.128.613.106.502.015.072.03.146a5733.247 5733.247 0 00.917 4.35l.038.181.039.182.025.12.392 1.859.04.19.28 1.328.116.557.013.062c.125.593.25 1.186.377 1.78l.095.447.013.062.065.31.14.654.093.442.054.253c.02.091.04.182.058.274l.018.08a.67.67 0 01-.063.505l-.024.05-.084.169-.062.125c-.357.726-.721 1.449-1.084 2.172l-.372.743-.134.268c-.23.459-.23.459-.454.921-.163.345-.335.685-.506 1.026l-.144.288-.366.729-.395.79-.17.34-.107.213-.049.097-.067.135-.022.043c-.04.081-.079.163-.116.245l-.026.056a1.882 1.882 0 01-.112.233l-.07.024-.602-1.203-.28-.559-.244-.488a51.244 51.244 0 00-.13-.257c-.304-.608-.304-.608-.445-.906-.164-.347-.337-.689-.51-1.032l-.145-.291-.369-.737-.398-.795-.144-.288a57.053 57.053 0 01-.527-1.071 10.36 10.36 0 00-.227-.449 14.89 14.89 0 01-.072-.139l-.11-.208a10.315 10.315 0 01-.108-.208l-.035-.062a.455.455 0 01-.053-.324l.014-.082c.027-.142.056-.284.086-.426l.021-.1.058-.273c.02-.098.04-.196.062-.293l.107-.509.157-.744a2316.786 2316.786 0 01.58-2.748l.025-.12.101-.48.165-.78.52-2.468.053-.253a21667.602 21667.602 0 00.382-1.814l.013-.062.387-1.83.1-.472.015-.066.056-.263a381.265 381.265 0 01.262-1.233l.058-.27.053-.249.028-.132.017-.08.015-.068c.01-.09.007-.174-.05-.249l-.04-.036a2.087 2.087 0 01-.167-.172 9.767 9.767 0 00-.218-.242 12.44 12.44 0 01-.25-.279c-.056-.064-.114-.127-.172-.19-.086-.093-.17-.187-.252-.282a23.067 23.067 0 00-.254-.282.464.464 0 01.129-.205l.048-.047.051-.05c.112-.108.22-.218.322-.336.053-.06.11-.116.167-.173.073-.071.144-.143.21-.221.082-.097.172-.185.262-.274a3.86 3.86 0 00.225-.243c.065-.074.136-.142.206-.211.062-.062.12-.124.177-.19.077-.09.161-.173.246-.256.077-.077.15-.157.22-.24.065-.073.134-.14.204-.208z" fill="#B4934C"/><path d="M49.887 68.137h16.089c0 3.387 0 3.387-.282 3.946 2.753-.008 2.753-.008 5.47-.412.076-.017.154-.027.233-.038a17.275 17.275 0 002.05-.428c.238-.063.475-.13.71-.204.1-.03.195-.055.298-.07-.335.278-.84.398-1.245.54l-.114.042a12.1 12.1 0 01-1.473.39l-.055.012a7.723 7.723 0 01-.587.109c-.059.01-.116.021-.174.034-.105.024-.21.042-.317.057l-.057.01a5.826 5.826 0 00-.184.027l-.064.01a29.274 29.274 0 01-1.162.154 34.37 34.37 0 01-1.779.166l-.055.004-.05.004a33.852 33.852 0 01-1.382.061l-.051.002c-1.117.033-2.234.046-3.352.06l-.265.003c-1.522.02-3.044.037-4.567.036h-.158c-.78 0-1.558-.007-2.337-.022a106 106 0 00-.96-.014h-.068l-.333-.004-.712-.007h-.07c-2.224-.024-4.444-.067-6.907-.397a19.089 19.089 0 01-2.267-.437l-.222-.054c-.709-.175-1.42-.4-2.056-.762.047-.023.047-.023.117-.003l.1.034c.538.176 1.091.31 1.645.426l.055.011c.207.043.415.083.623.119.084.014.168.03.251.047.783.16 1.582.247 2.376.33l.059.005c.254.026.508.047.763.065l.066.004c.895.063 1.785.075 2.682.066l-.03-.058-.039-.077-.038-.076c-.47-.981-.175-3.272-.175-3.711z" fill="#ECECEB"/><path d="M40.938 71.355c.08.038.151.082.225.13.5.313 1.065.49 1.631.645l.066.018c1.616.438 3.321.596 4.984.733l.076.007a83.46 83.46 0 004.199.225 75.452 75.452 0 001.017.028c1.5.033 3.002.026 4.503.025h.829c2.745.008 2.745.008 5.49-.058l.311-.012a394.553 394.553 0 00.936-.035 52.861 52.861 0 003.55-.24l.336-.031c1.226-.114 2.466-.272 3.661-.575l.167-.04c.636-.154 1.286-.364 1.835-.724.057-.037.11-.067.17-.096.01 1.055.01 1.055-.046 1.48l-.007.058c-.048.402-.152.813-.485 1.079-.455.302-1.072.323-1.599.389l-.066.008c-2.135.269-4.29.389-7.385.503a67.3 67.3 0 01-.07.002c-.904.03-.904.03-1.31.028-.133-.001-.265 0-.397.003l-.074.002-.414.008-.188.004-.05.001a26.91 26.91 0 01-.788.001 60.507 60.507 0 00-.504-.003c-.12 0-.239-.001-.358-.003a13.829 13.829 0 00-.34-.003l-.127-.002c-.22-.012-.22-.012-.419.07a1.31 1.31 0 00-.189.253c-.046.074-.102.14-.156.208l-.065.082-1.97 2.508-.065.082-.164.21c-.12.15-.238.302-.355.454l-.024-.047c.023-.057.023-.057.06-.13l.04-.083.047-.092.048-.096.133-.263.138-.276.263-.524.47-.934c.054-.11.109-.218.164-.327l.103-.206.047-.094c.126-.25.246-.503.366-.757l-1.08-.023-.107.518a59.5 59.5 0 01-.234 1.08c-.05.215-.095.432-.14.649-.058.287-.119.574-.183.86l-.012.053a74.9 74.9 0 01-.146.645h-.024v-3.805l-3.077.023.306.376a14.769 14.769 0 00.501.64c.098.12.193.242.287.365.093.122.188.242.283.363l.096.123.298.375c.112.14.222.28.33.422.114.15.23.297.35.442.097.12.192.241.286.364.104.136.21.27.317.405l-.024.047a47.229 47.229 0 01-4.067-2.31l-.39-.223-.042-.024a60.265 60.265 0 00-.592-.334c-.19-.106-.379-.215-.566-.325a27.64 27.64 0 00-.68-.385l-.072-.04-.08-.042a1.401 1.401 0 01-.181-.123c-.4-.29-.86-.259-1.334-.267l-.36-.01-.434-.014a31.333 31.333 0 01-1.21-.06l-.182-.012a134.182 134.182 0 01-.774-.051c-1.346-.087-2.708-.181-4.037-.421l-.072-.013c-.25-.05-.484-.117-.687-.278l-.043-.032c-.209-.18-.329-.502-.38-.767a4.453 4.453 0 01-.047-.305l-.006-.054c-.055-.474-.045-.95-.04-1.425z" fill="#ECECEC"/><path d="M57.035 3.615c2.36-.071 4.826.525 12.805 3.562l.215.12a16.885 16.885 0 011.496.938 18.572 18.572 0 01.885.657c.195.15.383.306.568.467l.13.11a3.4 3.4 0 01.366.333c.038.039.079.074.12.11.12.103.231.214.343.326.035.036.07.072.107.107.113.113.223.227.327.349.048.056.099.11.149.164a6.9 6.9 0 01.274.32l.128.157c.42.508.801 1.057 1.128 1.63l.027.048c.07.124.14.25.207.375l.032.057a11.004 11.004 0 01.723 1.66c.234.653.4 1.333.514 2.017l.012.07c.139.833-.084 1.627-.565 2.316-.946 1.324-2.63 1.963-4.18 2.225a.754.754 0 01-.502-.072 16.35 16.35 0 00-.154-.072l-.272-.122v-.47l.12-.006c1.283-.082 2.65-.445 3.685-1.238l.067-.051c.596-.47 1.027-1.105 1.128-1.87.12-2.073-1.314-4.578-2.615-6.09a7.246 7.246 0 01-.16-.194c-.243-.297-.52-.567-.79-.84l-.042-.041a7.445 7.445 0 00-.453-.426 8.85 8.85 0 00-.575-.489c-1.564-1.265-3.35-2.253-5.86-3.293l-.047-.018a33.833 33.833 0 00-5.272-1.535l-.056-.012a1.017 1.017 0 00-.216-.009v-.047l-.053-.007a16.484 16.484 0 01-.518-.08 31.038 31.038 0 00-1.532-.227l-.072-.008c-.483-.058-.965-.115-1.452-.096l-.113.004c-1.921.066-3.831.296-5.702.743l-.058.014a22.12 22.12 0 00-4.615 1.637c-.248.115-.489.24-.729.37l-.076.04c-.815.44-1.6.933-2.343 1.486l-.077.056A15.78 15.78 0 0042.2 9.83a14.661 14.661 0 00-.9.843 6.13 6.13 0 00-.255.278 2.22 2.22 0 01-.13.135 4.31 4.31 0 00-.258.282l-.064.073c-.153.176-.3.355-.442.54l-.112.143c-1.22 1.543-2.591 3.716-2.454 5.763.061.484.284.917.605 1.279l.046.055c1.002 1.185 2.893 1.57 4.347 1.777v.399l-.132.056-.127.053-.088.037-.126.053-.077.033a2.038 2.038 0 00-.108.05c-.176.01-.334-.02-.505-.06l-.084-.02a13.59 13.59 0 01-.844-.226l-.063-.019c-.813-.248-1.638-.62-2.286-1.178l-.056-.049a8.089 8.089 0 01-.179-.163l-.067-.063a3.176 3.176 0 01-.824-1.29l-.019-.056a3.1 3.1 0 01-.133-.986v-.054c.014-2.159 1.4-4.377 2.711-6.006l.037-.046c.234-.291.472-.579.727-.853l.145-.164c.07-.08.144-.155.22-.23a2.18 2.18 0 00.12-.133c.165-.19.348-.37.54-.533.048-.042.093-.086.137-.132.075-.075.152-.146.232-.215a8.398 8.398 0 01.469-.406 7.04 7.04 0 00.166-.136c.207-.173.418-.339.635-.499l.144-.108c1.8-1.36 3.864-2.36 7.486-3.53l.15-.041c2.033-.545 4.15-.801 6.25-.868z" fill="#805E18"/><path d="M41.972 25.672h.023l.02.09c.27 1.19.795 2.277 1.841 2.97a5.67 5.67 0 001.193.557l.08.028c.075.024.15.045.225.066l.049.013a8.771 8.771 0 001.666.268l.056.005c.808.055 1.626.028 2.433-.028l.053-.004c.961-.066 1.913-.208 2.864-.357l.34-.053.175-.028a37.81 37.81 0 012.229-.286l.078-.008a23.657 23.657 0 012.26-.096h.195c.71-.003 1.418.028 2.122.138l.102.015a34.644 34.644 0 01.456.07l.148.022.061.009c.204.032.405.079.607.123 1.503.33 2.99.583 4.531.581h.059c.606 0 1.205-.012 1.806-.102l.053-.008a8.323 8.323 0 001.262-.274l.061-.02c.925-.284 1.85-.749 2.452-1.53l.053-.068c.434-.558.65-1.232.722-1.929h.023c-.028 1.26-.314 2.579-1.174 3.547l-.047.055c-.054.061-.109.12-.164.18l-.038.04a5.208 5.208 0 01-1.16.899l-.049.029c-.774.45-1.672.688-2.55.822l-.07.011a9.934 9.934 0 01-1.44.085h-.085a10.013 10.013 0 01-1.35-.078l-.046-.006a17.284 17.284 0 01-1.503-.292c-1.577-.357-3.158-.558-4.776-.555h-.204c-.69.001-1.377.015-2.065.072l-.223.018c-1.57.123-3.128.331-4.686.551-1.17.165-2.367.286-3.548.142l-.076-.01c-1.44-.18-2.89-.72-3.816-1.89-.8-1.038-1.283-2.467-1.228-3.784z" fill="#A8832D"/><path d="M45.777 55.125h24.427a.675.675 0 01-.214.091 47.36 47.36 0 01-.134.039c-1.183.343-2.46.838-3.391 1.666l-.059.052c-.056.053-.056.053-.101.118a.47.47 0 01-.165.148 1.098 1.098 0 01-.195-.036l-.057-.014a12.128 12.128 0 01-.263-.068 31.665 31.665 0 00-2.984-.634l-.082-.014c-1.055-.175-1.055-.175-2.116-.306l-.238-.027a28.438 28.438 0 00-1.37-.123l-.076-.005a10.69 10.69 0 00-.487-.018l-.114-.003a15.06 15.06 0 00-2.056.103c-.158.018-.316.034-.474.05a42.16 42.16 0 00-3.231.44 25.78 25.78 0 00-1.2.223 17.29 17.29 0 00-.8.178c-.145.037-.288.08-.43.128-.113.036-.113.036-.178.017-.052-.04-.1-.082-.147-.126-1.063-.97-2.497-1.487-3.865-1.856v-.023z" fill="#ECECEB"/><path d="M60.433 19.541l.076.005a37.23 37.23 0 016.191.882l.065.015.059.014.052.012c.04.012.04.012.063.035.01.23-.016.457-.035.685l-.01.122-.026.297a8.96 8.96 0 01-.484-.096l-.064-.014-.065-.015a36.846 36.846 0 00-6.503-.838l-.078-.003a37.532 37.532 0 00-1.627-.024h-.068c-.749 0-1.496.009-2.243.05l-.082.005a49.03 49.03 0 00-7.952 1.092 37.8 37.8 0 00-3.627.99c-.62.203-1.23.428-1.824.699l-.068.03-.06.028a.839.839 0 01-.175.046 22.957 22.957 0 01-.023-1.104 6.78 6.78 0 01.699-.314l.053-.02c2.114-.817 4.33-1.36 13.085-2.575l.199-.01a38.57 38.57 0 014.472.006z" fill="#8D651B"/><path d="M75.465 58.272a6.547 6.547 0 01.105 1.174 3.55 3.55 0 01-.097.825c-.088.4-.326.739-.667.96-.89.548-2.364.424-3.377.486l-.337.022-.1.006-.174.012a23.703 23.703 0 01-1.522.048c-.4.007-.688-.01-.995-.292l-.042-.038c-.638-.653-.67-1.9-.668-2.747.002-.17.002-.17.03-.198.054-.004.107-.006.162-.007l.052-.002.176-.005.126-.004.273-.008.751-.023.08-.003a281.778 281.778 0 002.433-.087l.08-.003 1.9-.069.362-.012.425-.015.155-.005c.29-.01.579-.017.869-.015z" fill="#9A7524"/><path d="M40.398 58.272c.736.017 1.47.04 2.206.065l.239.007c.851.028 1.703.057 2.554.09.568.022 1.136.041 1.704.058.258.008.516.016.774.027l.063.002c.11.005.219.015.329.033.009.46-.007.905-.07 1.362l-.016.115c-.082.598-.286 1.245-.783 1.623a.963.963 0 01-.537.148h-.231l-.064-.001a42.97 42.97 0 01-3.775-.207l-.077-.007a34.72 34.72 0 01-.826-.086l-.074-.009c-.432-.051-.806-.224-1.095-.56-.346-.46-.405-.994-.398-1.553v-.125a5.88 5.88 0 01.054-.817l.023-.165z" fill="#9A7424"/><path d="M66.21 22.195c.983.172 1.924.478 2.866.799 0 .94-.882 2.143-1.456 2.842l-.03.038c-.35.426-.734.82-1.168 1.16l-.066.053a8.442 8.442 0 01-1.186.776 8.483 8.483 0 01-2.145.825l-.173.043c-.363.09-.732.14-1.104.182l-.054.006c-.193.02-.385.02-.578.02h-.613a80.52 80.52 0 01-.324 0h-.23a2 2 0 01-.244-.026v-.024l.052-.007c1.31-.191 2.444-.839 3.447-1.684l.037-.03c.433-.362.85-.752 1.202-1.195l.12-.146c.32-.379.597-.797.826-1.236l.023-.045c.269-.51.449-1.039.596-1.596.035-.132.072-.264.11-.395.034-.12.063-.24.093-.36z" fill="#A8832D"/><path d="M77.203 65.953c.01 1.695-.095 3.347-.388 5.02l-.012.074c-.081.464-.18.926-.318 1.376l-.019.065a1.437 1.437 0 01-.272.514l-.049.06-.046.054-.037.046c-.131.16-.291.284-.453.41l-.041.033c-.098.075-.098.075-.15.075l-.024-7.234.54-.047a3.388 3.388 0 001.148-.405c.074-.041.074-.041.12-.041zm-38.543.117c.071.028.139.056.206.094.535.292 1.013.386 1.626.422l-.023 7.117a2.544 2.544 0 01-.438-.324l-.045-.044c-.326-.314-.517-.608-.645-1.041l-.022-.075a8.067 8.067 0 01-.15-.599l-.01-.049a25.17 25.17 0 01-.24-1.39l-.008-.052a23.567 23.567 0 01-.21-1.856c-.038-.47-.047-.936-.044-1.407v-.271l.003-.525z" fill="#ECECEC"/><path d="M57.755 79.834c.22.04.437.096.654.152l.125.032.338.087.214.054c.709.182 1.417.365 2.125.549l2.021.522.601.154.073.019 1.741.45v.047a237.426 237.426 0 01-2.286.587 159.713 159.713 0 00-1.36.349l-.06.015-.12.031-.347.091-.215.056-.1.026-.135.035-.077.02a.365.365 0 01-.185-.012c-.038-.03-.038-.03-.072-.067l-.039-.042-.04-.046-.088-.097-.046-.05a15.92 15.92 0 00-.208-.226l-.083-.088-.04-.044-.782-.837-.04-.044-.083-.088-.207-.222a83.599 83.599 0 01-.385-.414c-.119-.13-.24-.258-.36-.386l-.358-.384-.039-.041-.034-.037a1.61 1.61 0 00-.072-.07c-.03-.035-.03-.035-.03-.082zm-1.127 0a.556.556 0 01-.145.193 3.924 3.924 0 00-.238.255 2.858 2.858 0 01-.163.167 2.73 2.73 0 00-.123.136 3.622 3.622 0 01-.206.217 2.624 2.624 0 00-.123.135 3.53 3.53 0 01-.206.217c-.043.044-.083.09-.123.136a3.53 3.53 0 01-.206.216c-.043.044-.083.09-.123.136a3.56 3.56 0 01-.205.217 2.252 2.252 0 00-.124.135 3.592 3.592 0 01-.205.217c-.043.044-.084.09-.123.136a3.594 3.594 0 01-.206.216c-.058.059-.11.121-.164.184-.053.059-.11.114-.166.17a1.268 1.268 0 00-.138.177c-.08.052-.192.013-.282-.007a8.503 8.503 0 01-.165-.041l-.064-.016-.209-.054-.149-.038-.403-.103-.419-.107a1384.122 1384.122 0 01-1.586-.406l-.582-.148-.209-.054-.325-.083-.118-.03-.16-.04c-.03-.009-.06-.016-.091-.024a2.35 2.35 0 01-.143-.043v-.047l.085-.021 1.076-.277.089-.022 2.317-.598 1.554-.402.087-.022.85-.218.394-.101.075-.02c.25-.063.498-.127.746-.194l.058-.015a77.593 77.593 0 00.352-.094l.076-.021c.063-.014.063-.014.133-.014z" fill="#B3924A"/><path d="M59.481 6.881a3.656 3.656 0 011.28 2.279l.01.06c.118.933-.18 1.849-.74 2.59a3.653 3.653 0 01-2.404 1.355c-.974.095-1.959-.133-2.731-.75a10.4 10.4 0 01-.123-.108l-.07-.06c-.636-.558-1.085-1.392-1.152-2.242-.015-.391-.026-.792.07-1.174l.014-.055A3.595 3.595 0 0155.242 6.6c1.33-.781 3.027-.695 4.24.281zm-4.544.564l-.047.043a2.9 2.9 0 00-.872 1.902c-.02.81.17 1.563.708 2.19l.03.036c.519.604 1.282 1.028 2.083 1.09.872.045 1.73-.16 2.393-.754l.074-.068.036-.033a3.064 3.064 0 00.974-2.104l.002-.053a3.038 3.038 0 00-.754-2.06l-.051-.061c-.558-.648-1.365-.976-2.2-1.04-.893-.053-1.735.308-2.376.912z" fill="#B8923A"/><path d="M57.215 7.352c.08.072.126.145.176.24l.046.085a22.004 22.004 0 01.14.263l.04.078c.05.07.078.09.162.109.066-.024.122-.048.183-.08l.05-.024.12-.06c-.013.233-.061.459-.108.688l-.046.226-.01.05a1.164 1.164 0 00-.025.28c.11-.01.15-.048.22-.132.064-.074.127-.146.197-.214.051-.05.098-.102.143-.157l.051-.06h.047l.018.065.025.086.023.085.028.069c.085.028.128.017.216 0l.086-.016.09-.018.09-.017.223-.043a4.804 4.804 0 01-.14.564l-.048.164a.59.59 0 00.193.147c.017.008.034.015.05.024l.038.017c-.093.1-.196.18-.305.262l-.107.082-.054.04-.212.163a7.81 7.81 0 01-.352.256.25.25 0 00-.097.136c.004.05.004.05.02.101.023.091.038.182.05.275a11.73 11.73 0 01-.745-.11c-.166-.03-.166-.03-.335-.03-.053.041-.053.041-.049.1l.006.066.006.075.008.081.007.082.022.253.014.155.033.362h-.352l.009-.091.032-.333.014-.144.02-.208.007-.064a.88.88 0 00-.012-.311l-.023-.024c-.218.003-.433.046-.646.084l-.187.032-.083.015c-.07.01-.07.01-.165.01a2.32 2.32 0 01.066-.326c.006-.065-.005-.09-.042-.144-.057-.049-.057-.049-.125-.097l-.077-.056-.04-.029c-.065-.047-.128-.096-.191-.145l-.077-.059a52.434 52.434 0 00-.57-.436.567.567 0 01.217-.14c.049-.023.049-.023.064-.095-.014-.067-.014-.067-.04-.143l-.026-.085a37.391 37.391 0 01-.082-.263l-.025-.078c-.015-.065-.015-.065.009-.135l.057.012.256.05.09.02.085.016.08.016c.066.01.066.01.109-.027a.492.492 0 00.067-.174l.018-.07.013-.055c.094.037.15.103.216.177l.034.037c.055.061.11.123.163.186l.055.064.05.059c.047.052.047.052.14.041a4.56 4.56 0 00-.108-.688l-.045-.226-.01-.052a1.159 1.159 0 01-.025-.279l.073.038a53.567 53.567 0 00.143.072c.094.046.094.046.195.042.078-.046.102-.095.145-.174l.022-.042a13.184 13.184 0 00.141-.264l.064-.12a1.19 1.19 0 01.11-.162z" fill="#B8923A"/><path d="M50.145 74.83c.272-.002.544.005.815.013a181.04 181.04 0 00.813.024l.081.002.082.003.243.007.323.01c.246.007.491.013.737.01h.325l.152-.004c.413-.011.413-.011.528.091.061.067.107.141.153.22.023.03.046.06.07.088l.057.074.066.083.032.042.162.207.065.082.032.04 2.358 3.001-.024.047a216.904 216.904 0 00-4.457-2.534l-.042-.023a60.265 60.265 0 00-.592-.335 24.32 24.32 0 01-.566-.324 30.072 30.072 0 00-.686-.389 47.118 47.118 0 01-.727-.41v-.024z" fill="#F9E8BA"/><path d="M62.99 74.9h1.248a1.672 1.672 0 01-.261.167l-.068.038-.147.083-.078.043-.365.208c-.225.13-.45.257-.677.384a79.046 79.046 0 00-1.1.625l-.042.024c-.196.113-.394.224-.592.334-.19.106-.378.215-.566.325a30.56 30.56 0 01-.687.39c-.183.1-.364.203-.544.306l-.448.255-.069.039-.339.19c-.325.184-.648.37-.97.56l-.023-.071.05-.048a2.985 2.985 0 00.253-.296c.101-.125.2-.252.297-.38.093-.121.188-.242.283-.362l.13-.165.097-.123.128-.164.298-.375c.112-.14.222-.28.33-.423.114-.15.23-.296.35-.442.098-.12.193-.242.286-.365.09-.118.182-.236.277-.351.043-.056.043-.056.088-.132.158-.246.158-.246.303-.28.11-.014.22-.01.332-.007h.126c.114 0 .227.002.34.004a66.187 66.187 0 01.935.007c.275.003.55.004.825.003z" fill="#9B7525"/><path d="M59.07 5.872l.047.023a4.217 4.217 0 011.527 1.292l.03.04c.631.852.855 1.958.727 3a4.26 4.26 0 01-1.657 2.754 4.464 4.464 0 01-1.989.806l-.048.007a4.311 4.311 0 01-3.157-.843 4.643 4.643 0 01-.365-.315l-.034-.031a3.852 3.852 0 01-.834-1.14c-.487-.957-.553-2.083-.236-3.103l.015-.047c.138-.431.364-.843.643-1.198l.047-.063a4.31 4.31 0 011.245-1.065l.044-.025c.373-.218.78-.349 1.2-.444l.05-.012c.906-.213 1.92-.04 2.746.364zm-4.767.986l-.056.053c-.633.606-1.065 1.545-1.098 2.421-.008.377-.015.752.073 1.12l.014.06a4.03 4.03 0 001.771 2.453c.964.565 2.076.771 3.167.488a4.088 4.088 0 001.437-.7l.064-.048a3.932 3.932 0 001.016-1.19c.505-.87.616-1.922.364-2.89-.21-.761-.656-1.507-1.28-2.001l-.038-.031a4.32 4.32 0 00-.713-.463l-.047-.024c-1.548-.809-3.442-.436-4.674.752z" fill="#B79239"/><path d="M57.973 50.424h1.07c.345 0 .688.005 1.033.024a8.675 8.675 0 00.404.012c1.357.03 2.714.123 4.063.273l.07.007c.553.062 1.1.14 1.646.24l.071.014c1.517.28 1.517.28 1.924.608l.042.033c.233.188.45.395.645.623.047.055.096.109.145.163.104.114.2.233.296.355l.059.075c.251.316.491.64.723.972l.133.189c.171.244.338.49.493.744.052.084.106.167.161.25.028.048.028.048.028.095l-.118.024-.04-.066c-.427-.699-.934-1.35-1.453-1.984a7.553 7.553 0 00-.443-.516c-.05-.054-.1-.11-.148-.166-.38-.434-.832-.745-1.388-.895a4.995 4.995 0 01-.141-.041c-.842-.255-1.743-.362-2.613-.458a42.413 42.413 0 00-3.56-.27c-.021-.002-.042-.002-.064-.003a50.646 50.646 0 00-2.05-.044h-.162a546.881 546.881 0 00-1.035-.001c-1.838-.004-3.673.049-5.505.216l-.073.007c-.692.062-1.379.14-2.064.251l-.054.01c-.607.097-1.223.201-1.801.413l-.11.032c-.509.172-.991.693-1.318 1.102a3.82 3.82 0 01-.155.177c-.117.13-.224.266-.33.404a23.557 23.557 0 00-.861 1.152l-.042.059a9.137 9.137 0 00-.2.297l-.038.06a7.272 7.272 0 00-.07.112c-.08.122-.08.122-.158.153-.054-.001-.054-.001-.1-.025a1.31 1.31 0 01.16-.298l.035-.053.11-.166.034-.052a22.087 22.087 0 011.478-2.007c.405-.5.89-1.052 1.53-1.226l.063-.018a13.66 13.66 0 011.263-.29l.093-.016c1.68-.292 3.381-.42 5.085-.493l.05-.003c.254-.01.508-.02.761-.028l.055-.002a71 71 0 012.37-.025z" fill="#9C7728"/><path d="M40.774 58.718c.67.015 1.34.037 2.01.06l.89.032.094.003a557.65 557.65 0 002.535.083l.356.011.241.008c.307.01.614.023.92.038a6.362 6.362 0 01-.078 1.111 2.641 2.641 0 01-.368 1.026l-.028.043a.641.641 0 01-.3.216 1.874 1.874 0 01-.314.014h-.092c-.083 0-.165 0-.247-.002l-.154-.001c-.72-.004-1.436-.04-2.153-.105v-.752c.614-.006 1.227.005 1.841.03.282.012.564.02.846.023l.084.002h.148a.358.358 0 00.181-.078c.093-.137.123-.313.156-.473l.015-.071a5.54 5.54 0 00.079-.495c.008-.065.008-.065.032-.136l-.079.001a20.127 20.127 0 01-1.068-.025l-.33-.013a829.496 829.496 0 00-.949-.036c-.454-.017-.907-.032-1.361-.045a233.93 233.93 0 01-1.674-.057l-.188-.007-.295-.01a16.795 16.795 0 01-.774-.042l.024-.353zm34.316 0l.023.352c-.273.022-.546.034-.82.044l-.147.005-.399.014-.251.01c-.908.033-1.816.064-2.725.093l-.277.01c-.7.022-1.399.043-2.099.06l.01.046c.02.105.042.21.058.316.052.447.052.447.237.845.11.058.212.049.335.046h.087c.356-.006.712-.022 1.068-.036a33.61 33.61 0 011.587-.02v.752l-.424.029-.144.01a25.216 25.216 0 01-1.814.067l-.284.002-.087.002c-.185 0-.301-.033-.44-.157-.465-.489-.547-1.402-.542-2.045v-.21l1.089-.041.084-.003a433.686 433.686 0 013.161-.108l.433-.014.084-.003a106.835 106.835 0 001.38-.051c.272-.012.543-.017.816-.015z" fill="#ECEBEA"/><path d="M59.4 58.437h.61v8.666h-.61v-8.666zm-.87 0h.611v8.666h-.61v-8.666zm-.869 0h.611v8.666h-.61v-8.666z" fill="#9B7626"/><path d="M61.161 58.437h.587v8.666h-.587v-8.666zm-.869 0h.587v8.666h-.587v-8.666zm-3.5 0h.588v8.666h-.588v-8.666zm-.869 0h.588v8.666h-.588v-8.666zm-.869 0h.588v8.666h-.588v-8.666z" fill="#9A7423"/><path d="M65.624 7.164c1.178.34 2.33.952 3.388 1.56l.188.106c.457.257.897.54 1.334.83l.049.032c.23.153.456.313.678.478a.817.817 0 01-.121.223l-.044.059-.045.06-.045.06-.121.162-.07.094c-.118-.038-.206-.108-.303-.18-.835-.614-1.75-1.132-2.669-1.608-.076-.04-.153-.08-.229-.122a15.93 15.93 0 00-2.225-.98c.035-.173.086-.338.144-.506l.026-.078.065-.19z" fill="#8E651C"/><path d="M54.209 58.437h.563v8.666h-.563v-8.666zm-.846 0h.564v8.666h-.564v-8.666z" fill="#9A7423"/><path d="M64.355 58.437h.517v8.666h-.517v-8.666zm-.798 0h.516v8.666h-.516v-8.666z" fill="#9A7525"/><path d="M62.782 58.437h.517v8.666h-.517v-8.666zm-10.992 0h.516v8.666h-.516v-8.666z" fill="#9A7423"/><path d="M51.014 58.437h.517v8.666h-.517v-8.666z" fill="#9A7525"/><path d="M52.588 58.437h.493v8.666h-.493v-8.666zm9.442 0h.47v8.666h-.47v-8.666z" fill="#9A7423"/><path d="M69.006 21.092c1.12.36 2.212.789 3.265 1.315v1.08a.805.805 0 01-.259-.074l-.069-.033-.075-.036c-.926-.436-1.89-.8-2.865-1.11-.044-.015-.044-.015-.068-.038-.009-.229.016-.457.036-.684l.01-.123.025-.297z" fill="#8D651C"/><path d="M65.13 58.484c.177.058.279.126.369.29.071.15.07.289.069.452v1.833l-.002 1.146a458.186 458.186 0 00-.001 2.325v.641l-.001.546v.278l-.001.255v.135c-.002.216-.032.378-.181.541-.07.064-.155.13-.252.13v-8.572zm-14.397 0v8.572c-.161-.053-.161-.053-.238-.13l-.046-.044c-.14-.185-.153-.36-.151-.586v-.636a166.836 166.836 0 010-.993v-.193a695.348 695.348 0 010-2.244v-1.397a164.799 164.799 0 000-.987 50.968 50.968 0 000-.53v-.134a.943.943 0 01.147-.53c.074-.073.18-.17.288-.17z" fill="#9A7423"/><path d="M58.413 74.901c.642-.004 1.284.008 1.926.024a3.931 3.931 0 01-.288.393c-.095.115-.188.23-.279.35a35.767 35.767 0 01-.47.601 132.865 132.865 0 00-.225.287c-.098.126-.197.251-.297.376-.112.14-.222.28-.33.422-.114.15-.231.297-.35.442-.098.12-.193.242-.287.365a20.77 20.77 0 01-.191.246l-.29.37-.023-.047c.023-.057.023-.057.06-.13l.04-.083.047-.092.048-.096.133-.263.138-.276.263-.524a1018.028 1018.028 0 00.634-1.261c.176-.35.35-.701.516-1.057l-.775-.023V74.9z" fill="#F0DEAD"/><path d="M58.152 74.899l.06.001.067.002.072.002.075.001.235.006.16.004.39.01c-.176.407-.375.803-.574 1.2l-.14.28-.265.53-.302.602-.62 1.24h-.024a3.79 3.79 0 01.06-.407l.012-.055a49.6 49.6 0 01.036-.176l.026-.123c.057-.277.118-.552.18-.827.056-.238.105-.478.154-.718.056-.276.116-.55.18-.824.044-.196.086-.393.123-.59.03-.155.03-.155.095-.158z" fill="#9C7626"/><path d="M54.162 74.925h1.127c.27.512.27.512.359.69l.031.063.1.2.072.143.148.297.188.376.147.294.07.138c.134.27.267.54.396.812a18.446 18.446 0 00.318.636l.031.06.02.049c-.009.015-.016.03-.024.046-.156-.189-.31-.38-.458-.575-.113-.15-.23-.296-.349-.44a10.932 10.932 0 01-.228-.29 15.645 15.645 0 00-.253-.321 18.37 18.37 0 01-.296-.38c-.114-.15-.23-.297-.35-.442-.098-.12-.193-.242-.287-.365a32.263 32.263 0 00-.463-.588l-.235-.295-.038-.049c-.026-.036-.026-.036-.026-.06z" fill="#9B7625"/><path d="M56.44 74.901h1.668c-.054.284-.108.565-.172.846-.068.297-.132.594-.192.892-.064.311-.13.621-.2.93l-.024.105-.011.052c-.028.125-.056.25-.082.375l-.023.105-.032.15-.029.136c-.005.025-.01.051-.017.077-.017.067-.017.067-.064.16v-3.804h-.822V74.9z" fill="#FCEDC0"/><path d="M56.417 74.925h.822v3.781a1.021 1.021 0 01-.087-.272l-.011-.053a38.298 38.298 0 01-.024-.114l-.063-.306-.013-.062a44.66 44.66 0 00-.118-.55l-.134-.617-.014-.062-.053-.252a60.462 60.462 0 00-.148-.68l-.014-.059a63.962 63.962 0 00-.084-.372l-.02-.085c-.018-.098-.028-.198-.04-.297z" fill="#9B7524"/><path d="M72.552 11.11c.126.087.235.184.342.295.047.046.094.089.144.132a5.247 5.247 0 01.327.313 71.026 71.026 0 01.253.254l.25.25a.627.627 0 01-.176.216l-.038.034-.077.069a16.842 16.842 0 00-.273.245c-.077-.025-.09-.04-.14-.101a4.477 4.477 0 00-.515-.512c-.079-.07-.153-.147-.227-.223a4.153 4.153 0 00-.254-.235 1.98 1.98 0 01-.132-.127c.039-.097.11-.166.18-.24l.077-.082.037-.04c.058-.063.115-.127.17-.192a.93.93 0 01.052-.056z" fill="#8E651C"/><path d="M43.664 52.986h.096l.232.002a12.98 12.98 0 01-.15.473l-.021.066-.069.203a75.93 75.93 0 01-.046.14l-.114.339a.493.493 0 01-.061-.203l-.006-.063-.006-.066-.006-.064a3.965 3.965 0 01-.015-.426c-.586-.091-1.098.096-1.572.436-.12.096-.225.204-.33.315a9.372 9.372 0 01-.07.07c.01-.269.164-.517.352-.704.364-.292.764-.427 1.221-.493l.047-.007c.172-.023.345-.02.518-.018zm28.231.002c.756-.01 1.525.019 2.12.54.104.105.172.225.239.355l.024.048c.05.101.072.19.083.301-.106-.102-.106-.102-.15-.158-.215-.27-.52-.44-.837-.57l-.07-.029a1.692 1.692 0 00-.94-.088l.001.045c.002.176-.009.348-.024.523l-.007.081c-.005.066-.01.131-.017.196-.065-.065-.082-.141-.11-.227l-.017-.055a58.97 58.97 0 01-.15-.457 6.807 6.807 0 00-.13-.361c-.015-.05-.015-.05-.015-.144z" fill="#9B7626"/><path d="M64.332 70.626h.54v1.457h-.54v-1.457zm-2.349 0h.54v1.457h-.54v-1.457zm-1.573 0h.54v1.457h-.54v-1.457zm-2.35 0h.54v1.457h-.54v-1.457zm-1.573 0h.54v1.457h-.54v-1.457zm-2.349 0h.54v1.457h-.54v-1.457zm-3.147 0h.54v1.457h-.54v-1.457z" fill="#9D782A"/><path d="M67.644 20.692a4.013 4.013 0 01.5.123.79.79 0 01.18.065 105.907 105.907 0 01-.05.8l-.004.068-.004.063-.004.055c-.008.048-.008.048-.055.118l-.657-.188.028-.437.01-.15.014-.213.005-.068.004-.062.004-.055c.005-.048.005-.048.029-.119z" fill="#8E651C"/><path d="M63.557 70.626h.516v1.457h-.516v-1.457z" fill="#9B7526"/><path d="M62.782 70.626h.517v1.457h-.517v-1.457zm-1.574 0h.517v1.457h-.517v-1.457zm-1.574 0h.517v1.457h-.517v-1.457z" fill="#9A7423"/><path d="M58.86 70.626h.516v1.457h-.517v-1.457z" fill="#9B7526"/><path d="M57.286 70.626h.516v1.457h-.516v-1.457zm-1.574 0h.517v1.457h-.517v-1.457z" fill="#9A7423"/><path d="M54.937 70.626h.517v1.457h-.517v-1.457z" fill="#9B7526"/><path d="M53.363 70.626h.517v1.457h-.517v-1.457zm-1.573 0h.516v1.457h-.516v-1.457zm.798 0h.493v1.457h-.493v-1.457z" fill="#9A7423"/><path d="M71.895 22.266c.153.012.222.064.376.141v1.08a.913.913 0 01-.28-.083l-.068-.033-.052-.024c-.003-.361.004-.72.024-1.08z" fill="#805E18"/><path d="M65.13 70.626h.376c.017.42-.004.959-.287 1.3-.065.063-.065.063-.089.063v-1.363zm-14.773 0h.376v1.363c-.32-.32-.378-.797-.379-1.233l.003-.13z" fill="#9B7525"/><path d="M47.35 50.733v.047a3.84 3.84 0 01-.146.104c-.143.099-.27.205-.396.325a4.398 4.398 0 01-.16.143 3.43 3.43 0 00-.266.263l-.046.05a11.27 11.27 0 00-.642.76l-.113.145c-.172.217-.332.439-.487.668a8.568 8.568 0 01-.224.315c-.034.044-.034.044-.056.092l-.07-.023c.361-.533.733-1.064 1.158-1.549a5.87 5.87 0 00.174-.21c.077-.094.157-.18.244-.264.041-.042.079-.084.116-.13.639-.736.639-.736.914-.736z" fill="#9E7A2D"/><path d="M68.184 50.568c.356.057.69.377.943.618.051.049.103.095.158.14.073.061.133.131.195.204.043.048.087.093.133.138.092.09.172.187.252.287a10.189 10.189 0 01.623.785l.127.17c.204.271.394.552.58.837l.183.274-.023.047a9.356 9.356 0 01-.322-.46 15.092 15.092 0 00-1.514-1.946c-.384-.434-.814-.809-1.335-1.07v-.024z" fill="#A48238"/><path d="M69.053 51.156c.172.076.308.228.422.375l-.023.047-.2-.198-.057-.057a27.448 27.448 0 01-.055-.054l-.05-.05c-.037-.04-.037-.04-.037-.063z" fill="#9E792B"/><path d="M74.455 70.956l-.258.117v-.047l-.047-.024.113-.036.063-.02c.058-.014.058-.014.129.01z" fill="#DBD4C3"/></svg>