<svg width="245" height="195" fill="none" xmlns="http://www.w3.org/2000/svg"><path d="M100.706 22.657c.142.015.277.041.416.076l.064.016.208.053.148.037.394.098.243.061c.629.158 1.258.316 1.884.482l.081.021.218.058.062.017c.094.025.185.053.276.092l.023.224.006.06c.044.44.047.884.05 1.326v.073l.005.676c.006 1.588.215 3.13.927 4.569l.029.06c.209.42.47.804.759 1.173l.032.04a5.455 5.455 0 001.204 1.143 6.92 6.92 0 00.749.478c.971.536 2.025.823 3.119.977l.088.012c.813.108 1.658.095 2.475.05l.053-.004c.352-.023.701-.068 1.05-.115l.123-.016c.379-.05.758-.104 1.138-.158 1.696-.24 3.395-.443 5.107-.534l.053-.002a17.598 17.598 0 01.688-.023c2.089-.032 4.172.21 6.981.596a61.97 61.97 0 01.658.095c.675.098 1.358.175 2.041.177l.093.001h.346c.509 0 1.012-.006 1.516-.08l.053-.007c1.459-.207 2.846-.678 4.015-1.595l.072-.056c.661-.526 1.188-1.183 1.605-1.916l.029-.052c.786-1.39 1.053-3.028 1.061-4.607l.002-.229.004-.648c.007-1.165.007-1.165.063-1.688.312-.103.629-.186.948-.267l.16-.04.421-.108.419-.106.807-.204.379-.096.278-.07.128-.033.175-.044.052-.014a.87.87 0 01.227-.029 5.507 5.507 0 01-.068.462l-.013.07-.044.232-.031.168-.086.46-.083.443-.169.9-.169.897-.01.057-.054.284-.366 1.956-.085.449-.01.055-.34 1.81-.015.085-.141.752-.155.826a5493.385 5493.385 0 00-.765 4.081l-.33 1.766-.275 1.473a.982.982 0 01-.01.05c-.31 1.66-.622 3.322-.934 4.983a152.688 152.688 0 00-.137.728l-.046.246-.132.698-.08.425-.045.24-.049.256-.014.076-.013.067-.011.06-.005.043.025.025.041-.05.056-.069.062-.075.116-.142.371-.456.229-.28.432-.53c.161-.2.322-.397.484-.595l.379-.466.483-.594.219-.269.271-.333c.145-.176.288-.353.432-.53a152.82 152.82 0 01.702-.862l.272-.333.431-.53c.161-.199.322-.397.484-.594l.219-.27.271-.332.431-.53.485-.595.378-.465c.161-.199.322-.397.484-.594l.219-.27.271-.332c.145-.176.288-.353.432-.53l.483-.594.219-.269.271-.333c.145-.176.288-.353.432-.53a160.908 160.908 0 01.821-1.009l.162-.2.08-.098.202-.248c.141-.172.28-.346.417-.522a5.49 5.49 0 01.266-.314.395.395 0 01.115.167l.023.058.024.065.028.07.06.158a75.608 75.608 0 00.2.514c.138.353.279.705.42 1.057l.035.085a6219.491 6219.491 0 00.51 1.267l.033.082c.17.423.337.846.503 1.27.163.418.329.835.496 1.25l.035.087a6397.97 6397.97 0 00.494 1.225l.099.243.059.148.027.067.025.062a1 1 0 01.022.054c.027.076.049.153.071.231l.07-.005c.788-.058 1.576-.108 2.365-.157l.574-.036 1.124-.07.982-.062c.022 0 .043-.002.066-.004l.266-.016 2.483-.155 2.206-.138.142-.009.071-.004.353-.022.071-.005a18338.179 18338.179 0 012.045-.127l.132-.008.918-.057 1.18-.074.625-.04.465-.028.189-.012.255-.016.075-.005c.023 0 .046-.002.069-.004l.059-.003c.051-.003.101-.003.152-.003-.015.083-.036.16-.066.239l-.025.068-.028.073-.03.078a693.018 693.018 0 01-.647 1.698l-.4 1.05-.453 1.187-.482 1.26-.033.087-.496 1.302a229.197 229.197 0 01-.446 1.17l-.027.071-.428 1.118-.033.086-.495 1.302c-.14.367-.279.733-.42 1.099a7.787 7.787 0 00-.027.071l-.027.072a474.99 474.99 0 00-.956 2.505 3294.513 3294.513 0 01-.776 2.031l-.034.088-.167.438c-.096.252-.192.504-.291.754l-.069.175a4.28 4.28 0 01-.063.157l-.036.092-.031.079c-.021.065-.021.065 0 .12.038.051.078.095.124.14l.054.053.057.056c.209.203.209.203.3.31.117.136.246.26.374.386.141.14.281.278.41.43.104.116.218.224.329.334.142.14.281.278.41.43.105.116.218.225.33.335.141.14.281.278.411.43.1.112.209.216.316.322.263.259.263.259.357.369.116.135.244.258.371.383.141.139.28.278.409.429.105.116.219.225.33.335.141.14.281.278.41.429.104.117.218.225.33.335.396.391.396.391.505.555a151.9 151.9 0 01-1.431.636c-.358.157-.715.315-1.071.473-.379.169-.758.336-1.137.503-.292.127-.582.256-.873.385-.311.139-.623.276-.935.413l-1.074.474c-.378.169-.757.336-1.137.503-.309.135-.618.272-.926.41l-.96.422-.884.391c-.312.139-.624.276-.936.413-.358.157-.716.316-1.074.475-.378.168-.757.336-1.137.502l-.872.385c-.311.139-.623.276-.935.413-.359.157-.717.316-1.074.475-.379.168-.758.336-1.138.502l-.872.385c-.311.14-.623.277-.935.413-.359.157-.716.316-1.074.475-.379.169-.758.336-1.137.502l-.872.385c-.747.333-1.495.66-2.244.987.118.291.243.58.371.867a53.854 53.854 0 01.197.441l.321.729.453 1.029.03.066.206.467.236.533.029.067c.152.342.302.685.453 1.028l.428.973.484 1.098a2647.09 2647.09 0 011.339 3.04l.029.067.306.69.13.295a18.936 18.936 0 01.149.336l.025.058c.115.258.115.258.115.346-.666-.105-1.331-.212-1.995-.322l-.411-.067-.71-.117-1.035-.17-.485-.08-.049-.009-.745-.122-.05-.008a52.296 52.296 0 01-.2-.034l-1.731-.284-.096-.016-1.043-.172-.28-.046-.185-.03-1.189-.196-.878-.145-.085-.014c-.648-.106-1.296-.213-1.945-.317a123.141 123.141 0 01-3.635-.636 171.122 171.122 0 00-3.872-.684l-.075-.013-1.355-.226c-.718-.12-1.436-.24-2.154-.362l-.072-.012-.842-.143-.649-.11-.186-.032-.597-.101-.231-.04a38.788 38.788 0 00-1.962-.34c-.329-.056-.633.001-.958.057l-.122.02-.335.057-.359.06-.701.119-.816.138-1.845.312-.554.094-1.982.335-.065.012a2434.557 2434.557 0 00-2.104.357c-1.118.187-1.118.187-2.231.393l-.069.013-.279.055c-1.433.28-2.873.516-4.314.753l-.086.014a1707.37 1707.37 0 01-3.73.61l-.556.092-.138.022-.952.156c-1.027.168-2.054.337-3.08.507l-.268.044-1.647.273-.642.106-.444.073-.27.045-.124.02c-.248.042-.497.079-.746.11.06-.2.146-.39.233-.58l.141-.314.03-.066c.104-.232.206-.464.308-.696l.111-.255c.01-.02.019-.042.028-.064l.32-.724.456-1.036c.15-.344.302-.688.454-1.032l.03-.067.236-.533.206-.466.03-.067.452-1.028.458-1.04.427-.969c.15-.344.302-.688.454-1.032l.03-.066.3-.68.125-.283.06-.133.314-.718.03-.068.026-.062.024-.056c.02-.045.02-.045.017-.094-.686-.31-.686-.31-1.376-.615l-.047-.02-.047-.021-.098-.043-.05-.021-.67-.296-.068-.03-.342-.151-.601-.266-.331-.146-.133-.059-3.445-1.522-.066-.03-.133-.058-.331-.146-.598-.264c-.11-.05-.222-.099-.333-.148l-.066-.029-1.025-.451c-.358-.157-.715-.315-1.071-.474-.356-.158-.711-.315-1.067-.47-.31-.136-.619-.273-.927-.41-.293-.131-.587-.26-.88-.39-.383-.166-.764-.335-1.145-.505a203.02 203.02 0 00-1.067-.471c-.31-.136-.618-.272-.926-.41-.298-.132-.597-.264-.895-.394a174.12 174.12 0 01-.95-.42c-.31-.138-.623-.276-.935-.412l-1.144-.506a190.88 190.88 0 00-1.067-.471c-.31-.136-.618-.272-.926-.41-.305-.136-.611-.27-.917-.404-.343-.15-.686-.302-1.026-.46.039-.094.1-.153.172-.225l.037-.036a41.664 41.664 0 01.268-.264l.037-.037c.08-.08.156-.163.229-.249.116-.13.243-.25.367-.372.17-.168.17-.168.332-.345.127-.148.269-.282.408-.419.129-.127.255-.255.373-.393.11-.124.233-.24.352-.357.165-.163.165-.163.32-.334.128-.148.27-.283.41-.42.17-.168.17-.168.331-.345.127-.148.27-.282.408-.42.17-.167.17-.167.332-.344.127-.148.269-.283.407-.42a6 6 0 00.373-.392c.102-.114.214-.22.323-.328l.145-.144.065-.064c.072-.072.072-.072.13-.156-.007-.108-.055-.21-.093-.31l-.021-.056a101.37 101.37 0 00-.07-.186l-.05-.132c-.143-.379-.288-.757-.433-1.136l-.406-1.065-.453-1.188-.028-.07-.027-.072a1137.684 1137.684 0 01-1.445-3.785 282.45 282.45 0 00-.448-1.176l-.027-.071-.028-.072-.427-1.117-.033-.087-.496-1.302-.419-1.098-.027-.072-.028-.071-.427-1.118-.033-.086-.466-1.225c-.15-.396-.302-.792-.454-1.188a373.822 373.822 0 00-.44-1.145l-.06-.156a94.802 94.802 0 01-.082-.215l-.025-.065-.023-.06-.02-.05c-.014-.043-.014-.043-.014-.092a675.42 675.42 0 014.567.279l1.487.093.576.036.064.004 1.51.094.067.005 1.541.096.067.004.337.021.067.004.134.009 2.217.139.313.02.062.003.988.062.99.062a1157.299 1157.299 0 011.444.09l.07.005c.146.009.29.011.437.01l.377-.944.03-.073c.38-.95.759-1.9 1.137-2.852a933.22 933.22 0 011.045-2.617l.165-.414.14-.349.14-.348c.016-.044.034-.087.051-.13l.072-.18.021-.053c.049-.121.049-.121.076-.176h.05c.042.05.082.1.121.152.093.12.187.238.285.353.104.12.203.244.3.37.091.116.185.23.28.345.106.128.21.257.312.388.097.125.198.246.3.367.094.11.183.222.272.336.077.099.156.195.237.29.106.123.206.248.305.376.077.098.157.194.238.29.093.108.183.219.271.332.1.13.204.255.31.38.084.098.166.198.246.3l.207.254.223.274.271.333.474.582a153.458 153.458 0 00.702.863l.23.28.473.583.442.542.261.32.229.282c.158.193.316.387.473.582l.39.478.473.582a133.988 133.988 0 00.703.862l.229.281.474.582.441.543c.088.106.174.213.261.32l.229.281.474.582a109.727 109.727 0 00.671.824l.043.051.04.05.035.043c.029.037.055.076.081.114a5.635 5.635 0 00-.068-.466l-.014-.072-.044-.237-.032-.172-.079-.419-.093-.496-.179-.959-.157-.838-.011-.056-.042-.226a4272.23 4272.23 0 00-.939-5.002 3851.56 3851.56 0 01-.642-3.426l-.3-1.605-.325-1.74-.01-.05a117786.887 117786.887 0 01-1.266-6.748l-.03-.161-.015-.08-.105-.559-.127-.677-.065-.35-.061-.322-.022-.118-.03-.16-.017-.09c-.011-.069-.011-.069-.011-.118z" fill="#BC9E59"/><path d="M100.706 22.657c.142.015.277.041.416.076l.064.016.208.053.148.037.394.098.243.061c.629.158 1.258.316 1.884.482l.081.021.218.058.062.017c.094.025.185.053.276.092l.023.224.006.06c.044.44.047.884.05 1.326v.073l.005.676c.006 1.588.215 3.13.927 4.569l.029.06c.209.42.47.804.759 1.173l.032.04a5.455 5.455 0 001.204 1.143 6.92 6.92 0 00.749.478c.971.536 2.025.823 3.119.977l.088.012c.813.108 1.658.095 2.475.05l.053-.004c.352-.023.701-.068 1.05-.115l.123-.016c.379-.05.758-.104 1.138-.158 1.696-.24 3.395-.443 5.107-.534l.053-.002a17.598 17.598 0 01.688-.023c2.089-.032 4.172.21 6.981.596a61.97 61.97 0 01.658.095 15.902 15.902 0 002.154.182l.249.004a979.468 979.468 0 00.755.012 11.879 11.879 0 01-.167.854l-.062.285-.102.475-.153.712-.233 1.085-.114.533a651.497 651.497 0 00-.299 1.392l-.014.062-.441 2.055-.293 1.358-.034.16c-.308 1.43-.614 2.86-.918 4.29-.21.986-.422 1.971-.636 2.957l-.123.569-.071.332-.032.144a12.49 12.49 0 01-.051.24c-.026.118-.026.118-.053.173h.197v.025a6.904 6.904 0 01-.61-.02l-.168-.011-.09-.007a56.62 56.62 0 00-1.747-.1l-.159-.007a79.876 79.876 0 00-.78-.03 67.375 67.375 0 00-2.404-.027h-.16a66.36 66.36 0 00-3.152.054l-.11.005c-3.541.155-3.541.155-8.337 1.617l-.117.105c-.4.347-.74.766-1.064 1.184l-.119.151a10.71 10.71 0 00-.506.695 6.312 6.312 0 01-.172.242c-.124.17-.237.348-.352.525l-.082.128-.05.076-.038.055h-.024c.006-.225.03-.437.075-.657.055-.267.114-.57-.026-.822-.106-.109-.198-.126-.345-.129-.882-.01-1.801.048-2.54.572a5.404 5.404 0 01-.052.037c-.221.172-.45.49-.531.758a2.702 2.702 0 00-.014.312l-.002.065c-.001.17.024.288.136.422.579.489 1.552.431 2.263.453v.049c-.019.005-.039.01-.059.017-2.176.594-2.176.594-4.083 1.758l-.063.054c-.339.313-.402.675-.442 1.116l-.005.052a30.869 30.869 0 00-.09 1.388l-.037.717-.012.244c-.05.985-.087 1.97-.115 2.956l-.011.38c-.012.385-.023.77-.031 1.157l-.013.486a33.515 33.515 0 00-.015.612c-.024.275-.024.275.073.517a.77.77 0 00.194.084l.1.053c.498.245.972.309 1.527.342v7.396c.401.183.401.183.811.333l.075.025c.132.043.132.043.269.071a1.3 1.3 0 01.216.061c.155.053.309.086.47.115l.087.015c.298.053.597.094.897.13l.088.011c1.644.202 3.298.309 4.952.396l.243.013c.388.02.774.04 1.163.042.572.004.987.02 1.461.367.103.074.213.133.324.194l.125.072.475.272.044.025c.206.118.414.235.621.351.2.111.398.225.595.34.239.14.48.276.722.41.231.128.461.258.69.39l.409.234.045.026c.206.118.413.235.621.35.2.112.398.225.595.34.238.14.478.276.72.41.203.111.405.226.606.342l.059.035.052.03a.401.401 0 00.119.048l-.061-.075a22.24 22.24 0 01-.445-.56c-.064-.085-.13-.168-.195-.25a1.876 1.876 0 00-.034-.044l-.069-.087a32.063 32.063 0 00-.17-.216l-.067-.087-1.255-1.596-.068-.086-.168-.215a69.737 69.737 0 00-.605-.762l-.04-.052c-.028-.038-.028-.038-.028-.062h3.255l.024 3.895.173-.789.085-.386c.082-.37.161-.74.236-1.11.058-.285.121-.569.186-.852.047-.206.091-.412.13-.62.026-.136.026-.136.053-.163a1.65 1.65 0 01.109 0l.071.001.076.002.078.002.247.006.167.004.411.01c-.184.424-.391.837-.598 1.25l-.145.29-.275.548-.312.624-.643 1.282a61.668 61.668 0 00.112-.13c.065-.076.128-.153.19-.23l.043-.053c.105-.13.208-.262.31-.396.098-.128.198-.254.297-.38l.17-.216.068-.087a1.87 1.87 0 01.034-.043l1.458-1.855.032-.041.068-.085c.058-.073.111-.145.16-.224.16-.25.16-.25.311-.285.116-.016.232-.012.349-.008h.133c.119 0 .238.001.357.004a68.914 68.914 0 01.981.007c.288.003.577.004.866.003h.132l.193-.001a118.447 118.447 0 01.705 0l.28.001a1.78 1.78 0 01-.274.174l-.071.04-.155.087-.082.046-.382.218c-.237.136-.473.27-.711.403-.273.152-.544.307-.815.462l-.339.194a112.169 112.169 0 01-3.023 1.715l-.072.04-.287.163-.355.2-.289.163-.142.08-.067.037-.062.035-.054.03c-.051.031-.051.031-.093.104a2.545 2.545 0 01-.221.045l-.071.012-.24.04-.174.029-.384.064-.629.104-.224.038a823.551 823.551 0 00-2.481.417l-.159.026-.965.164-1.372.232a630.084 630.084 0 01-2.742.46c-.026.006-.053.01-.081.015-.612.103-1.224.21-1.834.327l-.086.016-.261.05c-1.513.29-3.031.548-4.551.798l-.085.014a1821.649 1821.649 0 01-3.782.619l-.14.023-.07.011-.139.023-.07.011-.069.012-.138.022-.952.156c-1.027.168-2.054.337-3.08.507l-.268.044-1.647.273-.642.106-.444.073-.27.045-.124.02c-.248.042-.497.079-.746.11.06-.2.146-.39.233-.58l.141-.314.03-.066c.104-.232.206-.464.308-.696l.111-.255c.01-.02.019-.042.028-.064l.32-.724.456-1.036a363.184 363.184 0 01.484-1.099l.236-.533.206-.466.03-.067.452-1.028.458-1.04.427-.969a413.752 413.752 0 01.483-1.098l.301-.68.125-.283.06-.133.314-.718.03-.068.026-.062.024-.056c.02-.045.02-.045.017-.094-.686-.31-.686-.31-1.376-.615l-.047-.02a8.339 8.339 0 00-.047-.021l-.098-.043-.05-.021-.67-.296-.068-.03-.342-.151-.601-.266-.331-.146-.133-.059-3.445-1.522-.066-.03-.133-.058-.331-.146-.598-.264c-.11-.05-.222-.099-.333-.148l-.066-.029-1.025-.451c-.358-.157-.715-.315-1.071-.474-.356-.158-.711-.315-1.067-.47-.31-.136-.619-.273-.927-.41-.293-.131-.587-.26-.88-.39-.383-.166-.764-.335-1.145-.505a203.02 203.02 0 00-1.067-.471c-.31-.136-.618-.272-.926-.41-.298-.132-.597-.264-.895-.394a174.12 174.12 0 01-.95-.42c-.31-.138-.623-.276-.935-.412l-1.144-.506a190.88 190.88 0 00-1.067-.471c-.31-.136-.618-.272-.926-.41-.305-.136-.611-.27-.917-.404-.343-.15-.686-.302-1.026-.46.039-.094.1-.153.172-.225l.037-.036a41.664 41.664 0 01.268-.264l.037-.037c.08-.08.156-.163.229-.249.116-.13.243-.25.367-.372.17-.168.17-.168.332-.345.127-.148.269-.282.408-.419.129-.127.255-.255.373-.393.11-.124.233-.24.352-.357.165-.163.165-.163.32-.334.128-.148.27-.283.41-.42.17-.168.17-.168.331-.345.127-.148.27-.282.408-.42.17-.167.17-.167.332-.344.127-.148.269-.283.407-.42a6 6 0 00.373-.392c.102-.114.214-.22.323-.328l.145-.144.065-.064c.072-.072.072-.072.13-.156-.007-.108-.055-.21-.093-.31l-.021-.056a101.37 101.37 0 00-.07-.186l-.05-.132c-.143-.379-.288-.757-.433-1.136l-.406-1.065-.453-1.188-.028-.07-.027-.072a1137.684 1137.684 0 01-1.445-3.785 282.45 282.45 0 00-.448-1.176l-.027-.071-.028-.072-.427-1.117-.033-.087-.496-1.302-.419-1.098-.027-.072-.028-.071-.427-1.118-.033-.086-.466-1.225c-.15-.396-.302-.792-.454-1.188a373.822 373.822 0 00-.44-1.145l-.06-.156a94.802 94.802 0 01-.082-.215l-.025-.065-.023-.06-.02-.05c-.014-.043-.014-.043-.014-.092a675.42 675.42 0 013.628.22l.939.059 1.487.093.576.036.064.004 1.51.094.067.005 1.541.096.067.004.337.021.067.004.134.009 2.217.139.313.02.062.003.988.062.99.062a1157.299 1157.299 0 011.444.09l.07.005c.146.009.29.011.437.01l.377-.944.03-.073c.38-.95.759-1.9 1.137-2.852a993.843 993.843 0 011.045-2.617l.165-.414.14-.349.14-.348c.016-.044.034-.087.051-.13l.072-.18.021-.053c.049-.121.049-.121.076-.176h.05c.042.05.082.1.121.152.093.12.187.238.285.353.104.12.203.244.3.37.091.116.185.23.28.345.106.128.21.257.312.388.097.125.198.246.3.367.094.11.183.222.272.336.077.099.156.195.237.29.106.123.206.248.305.376.077.098.157.194.238.29.093.108.183.219.271.332.1.13.204.255.31.38.084.098.166.198.246.3l.207.254.223.274.271.333.474.582a153.458 153.458 0 00.702.863l.23.28.473.583.442.542.261.32.229.282c.158.193.316.387.473.582l.39.478.473.582a133.988 133.988 0 00.703.862l.229.281.474.582.441.543c.088.106.174.213.261.32l.229.281.474.582a109.727 109.727 0 00.671.824l.043.051.04.05.035.043c.029.037.055.076.081.114a5.635 5.635 0 00-.068-.466l-.014-.072-.044-.237-.032-.172-.079-.419-.093-.496-.179-.959-.157-.838-.011-.056-.042-.226a4272.23 4272.23 0 00-.939-5.002 3851.56 3851.56 0 01-.642-3.426l-.3-1.605-.325-1.74-.01-.05a117786.887 117786.887 0 01-1.266-6.748l-.03-.161-.015-.08-.105-.559-.127-.677-.065-.35-.061-.322-.022-.118-.03-.16-.017-.09c-.011-.069-.011-.069-.011-.118z" fill="#A78438"/><path d="M126.69 52.091l.218.009a45.217 45.217 0 01.969.048c1.358.078 2.715.199 4.059.406l.176.027c.229.035.456.075.683.125l.088.02.18.04.252.053c.709.152 1.292.367 1.833.853l.063.055c.222.196.438.404.629.63l.118.134c.187.212.361.43.53.657l.121.158c.319.412.61.842.898 1.276l.035.054.067.1c.047.075.047.075.103.141l-.034-.282a2.42 2.42 0 00-.01-.08 2.854 2.854 0 00-.057-.343 1.568 1.568 0 01-.033-.369l-.003-.066a.508.508 0 01.137-.388c.122-.09.245-.086.391-.083h.073c.881.016 1.874.087 2.543.724.284.298.464.609.47 1.026-.005.179-.022.322-.149.453-.18.165-.387.23-.616.296l-.083.025c-.511.135-1.046.127-1.569.123.021.057.021.057.095.073l.095.024.107.029.058.015c1.315.348 2.906.789 3.885 1.782l.058.057c.32.34.342.78.375 1.224l.01.117a50.334 50.334 0 01.08 1.264c.059 1.103.1 2.206.14 3.31l.008.194c.04 1.076.051 2.15.044 3.227l-.164.095-.047.026c-.53.304-1.057.397-1.662.397v7.544c-.454.227-.454.227-.652.291a7.07 7.07 0 00-.06.02l-.118.04a4.157 4.157 0 00-.179.062l-.053.02c-.048.01-.048.01-.122-.014l.048-.034c.325-.241.473-.583.536-.975.012-.083.022-.166.032-.248l.008-.059c.064-.486.046-.98.042-1.47l-.069.045a5.754 5.754 0 01-1.329.62c-.679.237-1.395.371-2.103.494l-.091.016c-2.315.397-4.667.54-7.293.643l-.434.017c-.633.025-1.266.043-1.899.052l-.053.001c-1.346.02-2.692.014-4.037.014h-.87c-3.438.001-3.438.001-4.751-.028l-.079-.002a78.93 78.93 0 01-1.151-.034 87.13 87.13 0 01-4.81-.285l-.138-.012c-1.338-.119-2.7-.268-4.006-.587-.074-.018-.149-.034-.223-.051-.817-.186-1.627-.436-2.314-.928-.052 1.415-.052 1.415.496 2.65l.096.087.098.099a2.842 2.842 0 01-.508-.139l-.065-.023c-.215-.078-.401-.178-.61-.282v-7.372l-.567-.049a4.14 4.14 0 01-.345-.074l-.074-.018a3.123 3.123 0 01-.518-.204c-.022-.01-.045-.02-.068-.032l-.065-.031a.699.699 0 01-.237-.159c-.018-.076-.015-.15-.013-.228v-.07c0-.079.001-.157.003-.236l.001-.169c.002-.185.005-.37.009-.554l.002-.094c.009-.47.022-.939.036-1.408l.009-.274a152.387 152.387 0 01.182-4.24l.016-.295.006-.106c.083-1.503.083-1.503.554-1.942 1.03-.921 2.526-1.332 3.83-1.7l.076-.022a24.242 24.242 0 01.139-.039c.056-.013.056-.013.13-.013v-.05l-.05.002c-.499.006-.983-.01-1.474-.11l-.072-.014c-.274-.06-.591-.159-.76-.4-.068-.134-.065-.259-.066-.406l-.002-.065c-.002-.393.239-.703.501-.979.668-.595 1.636-.665 2.49-.673l.082-.001c.176 0 .312.01.444.138.168.274.094.61.029.906a3.52 3.52 0 00-.062.543l.049-.072.18-.268.078-.114c.165-.246.333-.49.507-.73l.046-.064a14.334 14.334 0 01.656-.843c.149-.178.301-.352.457-.523l.067-.075c.784-.87 1.62-1.211 2.751-1.435l.203-.041c.297-.061.594-.114.894-.16l.073-.01c1.619-.244 3.26-.352 4.896-.42l.261-.011a69.737 69.737 0 016.213.004z" fill="#9A7423"/><path d="M126.69 52.091l.218.009a45.596 45.596 0 01.969.048c1.358.078 2.715.199 4.059.406l.176.027c.229.035.456.075.683.125l.088.02.18.04.252.053c.709.152 1.292.367 1.833.853l.063.055c.222.196.438.404.629.63l.117.134c.187.212.361.43.531.657l.121.158a21.337 21.337 0 01.933 1.33l.067.1c.047.075.047.075.103.141a27.419 27.419 0 01-.034-.282l-.01-.08a2.854 2.854 0 00-.057-.343 1.568 1.568 0 01-.033-.369l-.003-.066a.508.508 0 01.137-.388c.122-.09.245-.086.391-.083h.073c.881.016 1.874.087 2.543.724.284.298.464.609.47 1.026-.006.179-.022.322-.149.453-.18.165-.387.23-.616.296l-.083.025c-.511.135-1.046.127-1.569.123.021.057.021.057.095.073l.095.024.107.029.058.015c1.315.348 2.906.789 3.885 1.782l.058.057c.32.34.342.78.375 1.224l.01.117a50.334 50.334 0 01.08 1.264 200.4 200.4 0 01.143 3.378l.002.066c.018.498.034.997.045 1.495l.007.28a33.857 33.857 0 01.013.615l.003.222.003.065c-.001.09-.003.144-.065.211a1.464 1.464 0 01-.156.103l-.058.037a7.952 7.952 0 01-.222.118c-.393.2-.791.297-1.232.3l-.085.002c-.228.002-.228.002-.318-.072l-.11-.124c-.202-.18-.427-.24-.689-.24l-.067-.002h-.128a1.478 1.478 0 00-.189.029 3.58 3.58 0 01-.478.063 44.35 44.35 0 01-.4.038l-.511.048-.088.008c-.745.07-1.491.117-2.238.168l-.71.048-.054.004-.106.007-.446.03-.272.02-.368.022-.181.01-.083.005c-.181.011-.277.038-.406.169a.356.356 0 00-.037.198l-.001.076a.423.423 0 00.084.197v.05c.097.031.196.028.298.028h.062a28.82 28.82 0 00.32.001c.867.003 1.735-.068 2.6-.132l.302-.022c.589-.042 1.178-.088 1.767-.138 1.546-.132 1.546-.132 1.879.115.16.172.186.316.183.547l.001.087-.001.183a12.66 12.66 0 000 .276c-.001.538-.053 1.058-.448 1.464-.674.622-1.712.654-2.576.747l-.265.028c-.554.061-1.107.12-1.661.177a200.273 200.273 0 00-1.912.205c-.656.056-.656.056-1.272.272l-.049.025c-.318.171-.548.422-.74.723l-.031.05c-.069.11-.116.22-.158.343h-.025a3009.86 3009.86 0 01-.006-4.25v-.063l-.002-1.367v-.737l-.003-2.162c-.002-.74-.003-1.481-.003-2.222v-.376l-.002-.994-.001-1-.001-.593v-.444l-.001-.18.001-.243-.001-.07c.002-.175.059-.277.167-.412l.031-.041c.073-.093.156-.165.249-.236l.046-.035c.284-.217.583-.4.897-.568l.176-.096c.867-.472 1.836-.85 2.792-1.095a1.207 1.207 0 00-.156-.286l-.032-.048-.103-.151a21.43 21.43 0 00-1.294-1.73 7.877 7.877 0 00-.495-.553 23.856 23.856 0 01-.096-.102c-.377-.395-.825-.63-1.353-.763l-.086-.022c-1.027-.255-2.079-.404-3.131-.505l-.181-.019a46.574 46.574 0 00-2.877-.197l-.177-.008a84.99 84.99 0 00-3.375-.06h-.088c-1.149 0-2.296.026-3.444.08l-.059.003c-1.282.061-2.562.151-3.833.335l-.159.023a17.64 17.64 0 00-1.88.356l-.093.024c-.45.118-.777.268-1.119.588a4.577 4.577 0 01-.159.14 2.05 2.05 0 00-.22.227 5.372 5.372 0 01-.164.181 5.81 5.81 0 00-.293.352 9.273 9.273 0 01-.231.287c-.206.248-.4.504-.592.764l-.04.054a23.54 23.54 0 00-.724 1.055l.048.009c.203.04.397.099.593.164l.069.022c1.149.38 2.606.89 3.457 1.802l.043.04c.2.22.153.523.15.801l.001.185-.001.402-.001.597-.001 1.005-.002.995v.063l-.001.314c0 .742-.001 1.484-.003 2.225l-.003 2.162v.067l-.001.67-.001 1.363v.063l-.008 4.186a2.276 2.276 0 01-.124-.22c-.258-.48-.636-.84-1.158-1.013-.328-.083-.666-.115-1.001-.154l-.093-.011c-.587-.07-1.174-.13-1.762-.19l-.215-.02-.054-.006c-.624-.063-1.247-.13-1.87-.201l-.161-.019c-1.838-.207-1.838-.207-2.37-.843-.244-.341-.317-.73-.319-1.14v-.084l-.001-.176-.001-.268-.001-.172-.001-.08c.001-.186.021-.336.159-.473.221-.21.462-.24.754-.233.179.007.358.023.536.038l.41.034.086.008c.473.038.946.073 1.419.108l.336.025a110.95 110.95 0 001.929.132c.478.03.956.037 1.436.037h.063a.497.497 0 00.302-.084.51.51 0 00.074-.37.379.379 0 00-.161-.213 1.032 1.032 0 00-.331-.059 18.405 18.405 0 01-.074-.005l-.246-.017-.175-.013a171.4 171.4 0 00-1.418-.092 101.489 101.489 0 01-3.08-.233l-.081-.007a11.25 11.25 0 01-.811-.1 2.352 2.352 0 00-.479-.035.892.892 0 00-.614.256 1.704 1.704 0 00-.069.082c-.054.066-.054.066-.128.09a2.932 2.932 0 01-1.773-.412 2.116 2.116 0 00-.104-.058.514.514 0 01-.145-.12c-.026-.105-.019-.204-.013-.31l.002-.093.007-.192c.004-.09.006-.18.008-.271.003-.181.008-.362.013-.543l.003-.1.02-.7.005-.17a146.16 146.16 0 01.184-4.328l.016-.295.006-.106c.083-1.503.083-1.503.554-1.942 1.03-.921 2.526-1.332 3.83-1.7l.076-.022a24.242 24.242 0 01.139-.039c.056-.013.056-.013.13-.013v-.05l-.05.002c-.499.006-.983-.01-1.474-.11l-.072-.014c-.274-.06-.591-.159-.76-.4-.068-.134-.065-.259-.066-.406l-.002-.065c-.002-.393.239-.703.501-.979.668-.595 1.636-.665 2.49-.673l.082-.001c.176 0 .312.01.444.138.168.274.094.61.029.906a3.52 3.52 0 00-.062.543l.048-.072.181-.268.078-.114c.165-.246.333-.49.507-.73l.046-.064a14.334 14.334 0 01.656-.843c.149-.178.3-.352.457-.523l.067-.075c.784-.87 1.62-1.211 2.751-1.435l.203-.041c.297-.061.594-.114.894-.16l.073-.01c1.619-.244 3.26-.352 4.895-.42l.262-.011a69.737 69.737 0 016.213.004z" fill="#ECECEC"/><path d="M122.582 3.795c2.477-.075 5.066.55 13.441 3.739l.226.124a17.814 17.814 0 011.57.986c.301.206.59.427.879.65l.051.04c.204.157.401.32.595.49l.136.116c.266.225.266.225.385.349.04.04.082.077.126.114.126.11.243.226.36.344l.112.112c.119.119.235.238.344.366.05.059.103.116.156.173.099.11.195.22.287.336l.135.164c.441.534.841 1.11 1.183 1.71l.029.051a27.795 27.795 0 01.251.454c.291.535.527 1.092.731 1.665l.028.077c.245.686.419 1.399.539 2.118l.013.073c.146.875-.087 1.707-.593 2.43-.993 1.39-2.76 2.061-4.387 2.336a.756.756 0 01-.497-.061 13.654 13.654 0 00-.119-.055l-.066-.03c-1.885-.879-3.868-1.549-14.321-2.968a51.415 51.415 0 00-.862 0l-.061.001c-2.617.03-5.228.279-9.579 1.035l-.081.016c-2.152.427-4.349.953-6.872 2.006-.185.01-.35-.022-.53-.064l-.088-.02a14.278 14.278 0 01-.952-.257c-.853-.26-1.72-.65-2.399-1.237l-.059-.051a8.038 8.038 0 01-.188-.171l-.07-.066a3.331 3.331 0 01-.865-1.355l-.02-.058a3.27 3.27 0 01-.14-1.036v-.056c.015-2.266 1.469-4.595 2.846-6.305l.038-.048c.247-.306.496-.607.763-.896.052-.056.103-.113.153-.171.073-.085.151-.163.231-.241.044-.045.085-.092.126-.14.173-.2.365-.388.567-.56.05-.044.097-.09.144-.138.078-.08.159-.153.243-.226.058-.05.114-.101.171-.153a8.47 8.47 0 01.321-.272l.175-.144c.217-.181.438-.356.666-.523l.151-.114c1.89-1.428 4.057-2.477 7.858-3.706l.158-.042c2.133-.573 4.356-.842 6.561-.911zm3.81 1.407l-.056.03c-.159.088-.31.185-.458.29l-.086.06a7.429 7.429 0 00-.574.445l-.277.235a.967.967 0 00.22.176 4.27 4.27 0 011.556 1.724c.509.992.591 2.187.263 3.248-.377 1.16-1.178 2.052-2.25 2.616a4.65 4.65 0 01-1.392.421l-.05.008a4.525 4.525 0 01-3.314-.886 6.046 6.046 0 01-.584-.528c-.092-.092-.092-.092-.12-.147-.091.03-.113.066-.172.142l-.06.074-.031.04-.168.2c-.085.1-.168.2-.25.3a7.27 7.27 0 01-.274.316 5.336 5.336 0 00-.162.193c-.109.134-.225.26-.343.387a8.295 8.295 0 00-.196.22 11.9 11.9 0 01-.216.238c-.08.087-.158.175-.236.265a2.297 2.297 0 01-.109.112c-.057.046-.057.046-.051.102l.045-.006.064-.008.072-.009.16-.02.397-.05a37.287 37.287 0 013.072-.274l.129-.006a36.18 36.18 0 011.673-.026h.073c.76 0 1.519.008 2.278.053l.165.01c2.019.12 4.033.368 5.999.853l.059.015c1.421.351 2.798.832 4.107 1.49l.084.04a12.554 12.554 0 012.826 1.932c.131.118.131.118.273.223.064.054.083.09.091.173v.122l.001.067v.219l.001.152v.4l.002.407c.001.267.002.534.001.8l.225-.022.063-.007c.164-.017.326-.04.488-.072l.08-.016c1.137-.232 2.289-.672 3.138-1.485l.061-.055c.457-.435.815-1.08.852-1.72-.068-2.253-1.304-4.66-2.749-6.337a8.427 8.427 0 01-.167-.204c-.259-.317-.553-.604-.843-.894a8.173 8.173 0 00-.531-.504l-.119-.107a8.919 8.919 0 00-.399-.336l-.085-.07c-1.643-1.327-3.517-2.364-6.152-3.456l-.049-.019c-1.013-.389-5.222-1.966-5.995-1.534zm-6.678 1.997l-.059.055c-.664.636-1.117 1.622-1.152 2.542-.008.395-.016.789.077 1.175l.015.062c.26 1.06.929 2 1.859 2.576 1.011.593 2.178.81 3.323.511a4.292 4.292 0 001.576-.784 4.115 4.115 0 001.067-1.249c.53-.914.646-2.018.381-3.034-.22-.8-.687-1.581-1.343-2.1l-.04-.033a4.555 4.555 0 00-.797-.511c-1.626-.85-3.614-.458-4.907.79z" fill="#8E661C"/><path d="M122.378 33.677c2.089-.032 4.172.21 6.981.597l.16.022.498.072c.681.099 1.369.171 2.058.18l.096.002.249.004a189 189 0 01.755.011 11.867 11.867 0 01-.167.855l-.062.285-.102.475-.153.713-.233 1.084-.115.533-.011.055-.287 1.337-.014.062-.442 2.055-.292 1.359-.034.16c-.308 1.43-.614 2.859-.919 4.289-.209.986-.421 1.972-.635 2.957l-.123.569-.072.332-.031.145-.04.187-.011.053c-.026.118-.026.118-.054.173h.198v.024a6.854 6.854 0 01-.779-.031l-.089-.007a56.62 56.62 0 00-1.747-.1l-.159-.006c-.225-.01-.449-.019-.674-.026l-.106-.004c-.801-.028-1.603-.028-2.404-.028h-.16a66.36 66.36 0 00-3.152.054l-.11.005c-1.723.073-1.723.073-3.438.247a1.57 1.57 0 01-.356.008l-.079-.007-.061-.006a1021.812 1021.812 0 00-.886-4.129l-.212-.986a1088.059 1088.059 0 01-.425-1.97l-1.009-4.68-.011-.049-.234-1.087a58.597 58.597 0 00-.086-.4l-.022-.102-.304-1.41-.215-.997-.143-.663-.097-.451-.056-.262-.062-.285a15.08 15.08 0 01-.018-.084l-.017-.077-.014-.067c-.01-.052-.01-.052-.01-.102h.049c.839-.005.839-.005 1.678-.038l.052-.003c.351-.024.701-.066 1.049-.113l.123-.016c.379-.05.758-.105 1.138-.158 1.696-.24 3.395-.444 5.107-.534l.053-.003c.229-.012.458-.02.688-.023z" fill="#AF8D44"/><path d="M124.312 22.395l.077.002c2.478.053 4.961.299 7.383.83.184.04.363.077.552.09.124.011.245.041.366.069a13.94 13.94 0 01.362.085l.08.018c.476.113.94.267 1.405.42l.049.015.325.107.083.028c.141.047.28.097.418.153a5.668 5.668 0 00.373.135l.06.022c.717.253 1.421.538 2.113.852l.083.037.25.114.078.035.071.033.062.029c.048.023.048.023.072.048.003.053.004.107.004.16v.051l.001.169v.62c.007 1.522-.182 3.137-1.237 4.325l-.05.058a7.683 7.683 0 01-.172.189l-.039.041a5.47 5.47 0 01-1.219.945l-.05.03c-.813.472-1.756.723-2.678.864l-.074.01c-.502.072-1.004.091-1.51.09h-.09a10.535 10.535 0 01-1.416-.082l-.049-.007a18.152 18.152 0 01-1.578-.305c-1.655-.375-3.315-.587-5.013-.583h-.214a26.826 26.826 0 00-2.402.094c-1.647.13-3.283.348-4.919.579-1.229.173-2.485.3-3.724.148l-.08-.01c-1.512-.188-3.033-.755-4.005-1.984-.659-.855-1.024-1.846-1.197-2.907l-.011-.07c-.012-.077-.022-.154-.032-.23l-.014-.095c-.056-.431-.041-.868-.039-1.302l.001-.329.003-.642c.606-.267.606-.267.916-.379l.046-.016c2.12-.767 4.316-1.303 12.225-2.461l.155-.01c.623-.04 1.247-.054 1.871-.069l.134-.003a47.34 47.34 0 012.194-.011z" fill="#8E661C"/><path d="M125.015 59.145l.066.006a42.352 42.352 0 013.623.487c.126.022.126.022.181.05l.145.023.088.013.088.013c.15.023.298.049.446.084a14.107 14.107 0 00.661.137l.274.054c.591.116.591.116.822.17l.087.021a.745.745 0 01.316.216l.041.045c.14.216.124.454.123.7v.861l-.001.744-.001.86-.002 2.273-.005 5.126h-16.888a145770 145770 0 01-.006-5.125l-.003-1.62v-.956l-.001-.64-.001-.738-.001-.377v-.465c-.002-.26.007-.51.191-.714l.039-.045c.137-.114.297-.161.469-.196a12.64 12.64 0 01.276-.058 84.916 84.916 0 011.526-.302c.404-.077.809-.15 1.216-.217.163-.027.326-.053.488-.082a27.195 27.195 0 013.2-.377c.844-.048 1.7-.043 2.543.029z" fill="#EBEAE8"/><path d="M124.036 4.687l.073.008c1.953.215 1.953.215 2.459.383-.036.11-.122.132-.219.182-.506.272-.95.63-1.384 1.002a.83.83 0 00.195.15c.28.176.527.386.767.614l.047.043c.15.142.274.31.397.475l.031.042c.662.895.897 2.056.763 3.15a4.47 4.47 0 01-1.739 2.89 4.687 4.687 0 01-2.088.846l-.05.007a4.524 4.524 0 01-3.314-.885 4.683 4.683 0 01-.425-.37l-.134-.131-.043-.043a2.855 2.855 0 01-.102-.107v-.05a4.15 4.15 0 00-.265.287l-.039.047a11.85 11.85 0 00-.224.27c-.114.14-.232.276-.351.412l-.198.23a14.69 14.69 0 01-.372.42 15.42 15.42 0 01-.398.444 7.82 7.82 0 00-.193.216l-.08.09-.041.05-.042.046a3.058 3.058 0 00-.036.042.37.37 0 01-.154.06l-.06.013-.279.052-.128.023-.066.012c-1.904.347-3.778.85-8.982 3.567-.074.056-.074.056-.159.102a.5.5 0 00-.211.2c-.016.1-.012.196-.008.295l.001.091.005.198c.003.111.004.223.005.334l.006.482.001.061.002.123.004.316.009.615a5.036 5.036 0 01-.675-.109 10.712 10.712 0 01-.903-.236l-.066-.02c-.821-.251-1.625-.62-2.276-1.188l-.061-.05c-.476-.405-.831-1.016-.896-1.64a3.478 3.478 0 01.045-.923l.012-.064c.141-.72.39-1.419.703-2.081l.071-.155c.165-.353.349-.693.545-1.029l.07-.12a14.14 14.14 0 011.326-1.885c.046-.055.09-.111.134-.167.205-.257.423-.502.648-.742l.133-.143a22.855 22.855 0 01.575-.597c.096-.095.194-.185.296-.273.078-.068.153-.14.228-.212.127-.119.256-.233.392-.341a5.63 5.63 0 00.189-.16 10.4 10.4 0 01.595-.475l.132-.102a18.846 18.846 0 013.292-2.03l.175-.088c2.148-1.095 4.537-1.763 10.72-2.532l.08-.004a9.908 9.908 0 011.535.062zM119.714 7.2l-.059.055c-.664.636-1.117 1.622-1.152 2.541-.008.396-.016.79.077 1.176l.015.062c.26 1.06.929 2 1.859 2.576 1.011.593 2.178.81 3.323.511a4.294 4.294 0 001.509-.733l.067-.051a4.116 4.116 0 001.067-1.249c.53-.914.646-2.018.381-3.034-.22-.8-.687-1.581-1.343-2.1l-.04-.033a4.555 4.555 0 00-.797-.511c-1.626-.85-3.614-.458-4.907.79z" fill="#C2A663"/><path d="M122.697 85.476c.097.04.157.102.23.176l.036.037c.082.084.161.17.237.26.054.06.111.117.169.174.045.045.086.092.128.14.06.07.121.135.186.2.081.079.156.162.229.247.042.047.084.09.129.134.06.06.116.12.171.184.06.069.121.134.186.198.081.08.156.163.229.249.042.046.084.09.129.134.06.059.116.12.171.183.061.07.124.138.191.203.147.147.147.147.193.218-.01.081-.041.124-.097.182l-.044.046-.047.049-.096.1-.046.048a5.636 5.636 0 00-.172.194l-.152.17a35.139 35.139 0 01-.566.634l-.059.065-.054.06-.048.054-.041.045c-.044.071-.035.103-.018.184l.016.08.018.086.018.086c.019.098.04.195.06.292l.024.112.064.306.069.33.136.643.11.527.016.076.033.153a3532.73 3532.73 0 00.961 4.567l.041.19.04.19.026.126c.137.65.275 1.3.411 1.951l.043.2.293 1.393.123.585.013.065a1025.229 1025.229 0 00.495 2.338l.014.066.069.324.146.688.098.463.057.266.061.287.018.085a.698.698 0 01-.066.529l-.025.052-.088.178a5.32 5.32 0 01-.065.131c-.375.762-.757 1.521-1.138 2.281l-.39.78-.141.28c-.242.482-.242.482-.476.967-.172.362-.352.719-.532 1.077l-.151.303-.384.765-.415.829-.179.357-.111.224a4.904 4.904 0 00-.052.102l-.07.141-.023.045a6.715 6.715 0 00-.122.258l-.027.058-.051.113c-.02.045-.043.089-.067.132l-.074.025-.632-1.263-.293-.587-.257-.512-.135-.27c-.32-.638-.32-.638-.468-.951-.172-.364-.354-.723-.535-1.083l-.153-.306-.387-.773-.418-.835-.151-.302a58.483 58.483 0 01-.553-1.124 12.255 12.255 0 00-.238-.472l-.076-.145-.115-.219a9.024 9.024 0 01-.114-.218l-.036-.065a.478.478 0 01-.056-.341l.015-.085c.028-.15.058-.299.09-.447l.022-.105.06-.286.066-.309.112-.534.165-.781.266-1.259.343-1.626.026-.126.106-.502.173-.82.546-2.59.056-.266.25-1.188.151-.716.013-.066.407-1.92.105-.496.015-.07.059-.275.17-.8.105-.494.061-.284.056-.26a3.43 3.43 0 01.03-.14l.017-.082.015-.072c.011-.096.008-.183-.051-.262l-.043-.038a2.36 2.36 0 01-.176-.18 8.246 8.246 0 00-.228-.254 15.96 15.96 0 01-.262-.293c-.059-.068-.12-.134-.181-.2-.09-.098-.178-.196-.265-.296-.087-.1-.177-.198-.265-.296a.482.482 0 01.134-.215l.051-.05.053-.05c.118-.115.231-.23.338-.355.056-.063.115-.122.175-.18.077-.076.151-.152.221-.233.086-.102.18-.194.275-.287.083-.082.16-.167.236-.256.069-.077.143-.149.217-.221a3.86 3.86 0 00.186-.2c.08-.094.168-.181.257-.269.082-.08.158-.164.232-.251.068-.077.14-.148.213-.219z" fill="#B4934C"/><path d="M115.079 71.522h16.888c0 3.555 0 3.555-.296 4.141 2.89-.007 2.89-.007 5.741-.432.081-.017.163-.028.245-.04a18.153 18.153 0 002.152-.449c.25-.066.499-.137.747-.214a1.93 1.93 0 01.311-.073c-.351.292-.881.417-1.306.567-.04.015-.08.03-.12.043-.503.178-1.026.298-1.546.41l-.058.013a8.135 8.135 0 01-.616.114c-.062.01-.122.022-.183.036-.11.025-.22.043-.332.06l-.06.01-.193.028-.067.01c-.321.047-.642.093-.965.13l-.256.032c-.62.078-1.243.129-1.867.174l-.058.005-.053.004a8.675 8.675 0 01-.044.003c-.468.033-.938.047-1.407.061l-.052.002c-1.173.035-2.346.048-3.518.063l-.279.004a348.11 348.11 0 01-4.793.037h-.166c-.818 0-1.636-.007-2.454-.023a112.93 112.93 0 00-1.008-.014l-.07-.001a408.391 408.391 0 00-1.098-.011h-.074c-2.333-.026-4.664-.07-7.25-.417a20.12 20.12 0 01-2.38-.459l-.232-.057c-.744-.183-1.49-.42-2.158-.799.049-.025.049-.025.123-.003l.105.035a16.15 16.15 0 001.785.46c.217.044.434.086.653.124.088.015.176.031.264.05.822.167 1.66.258 2.493.345l.062.006c.267.028.534.05.801.068l.07.005c.939.066 1.874.078 2.815.069l-.031-.061-.041-.08-.04-.08c-.494-1.03-.184-3.436-.184-3.897z" fill="#ECECEB"/><path d="M105.686 74.9a2.3 2.3 0 01.236.137c.525.328 1.118.514 1.712.676l.069.02c1.696.459 3.486.625 5.231.769l.08.007a87.547 87.547 0 004.408.236c.328.012.657.02.985.028l.083.002c1.575.035 3.15.027 4.726.026h.87c2.882.008 2.882.008 5.763-.06a217.24 217.24 0 001.309-.05 55.487 55.487 0 003.727-.251l.352-.034c1.287-.119 2.589-.285 3.843-.603.058-.015.117-.03.175-.043.667-.161 1.35-.381 1.926-.76.06-.038.116-.07.179-.1.011 1.107.011 1.107-.049 1.553l-.007.06c-.05.424-.16.855-.509 1.134-.477.316-1.125.338-1.678.408l-.07.009c-2.241.282-4.504.408-7.752.527l-.073.003c-.949.032-.949.032-1.376.029-.138-.001-.277.001-.415.004l-.079.001-.434.01-.198.003-.051.001c-.276.005-.552.004-.828.001a71.758 71.758 0 00-.529-.003c-.125 0-.251-.001-.376-.004a15.217 15.217 0 00-.358-.002l-.132-.003c-.232-.012-.232-.012-.44.073-.079.08-.14.17-.198.267-.049.077-.107.147-.165.218l-.067.087-2.068 2.631-.068.086-.173.22-.373.477a3.816 3.816 0 01-.024-.05c.024-.059.024-.059.062-.135l.043-.087.049-.097.051-.1.138-.277.146-.29.276-.55.492-.98.173-.343.108-.217.05-.098c.133-.263.258-.528.384-.794l-1.134-.025-.112.544a55.8 55.8 0 01-.246 1.133c-.052.227-.1.454-.146.682a46.276 46.276 0 01-.359 1.635h-.024v-3.994l-3.23.024.32.395.161.21c.118.156.241.31.365.462.103.126.203.254.301.383.098.128.198.254.298.38l.101.13c.103.132.207.263.312.394.118.146.233.294.347.443.119.157.242.311.367.464.103.126.202.253.3.382.109.143.221.284.333.425l-.025.05-.044-.026a36.34 36.34 0 00-.958-.547 47.73 47.73 0 01-.647-.366 52.288 52.288 0 00-.613-.346 31.42 31.42 0 01-.595-.34 28.444 28.444 0 00-.721-.41 44.697 44.697 0 01-.691-.39l-.409-.235-.044-.025a68.12 68.12 0 00-.622-.35 32.474 32.474 0 01-.594-.341 30.633 30.633 0 00-.713-.404l-.077-.043-.083-.044a1.458 1.458 0 01-.191-.128c-.419-.305-.903-.272-1.4-.281l-.377-.011-.456-.014a33.364 33.364 0 01-1.461-.076l-.368-.024-.444-.03c-1.413-.09-2.843-.19-4.238-.442l-.075-.013c-.264-.051-.509-.123-.722-.292-.015-.01-.029-.022-.045-.034-.219-.189-.345-.526-.399-.804l-.013-.067a4.33 4.33 0 01-.036-.253l-.007-.057c-.057-.497-.047-.997-.042-1.497z" fill="#ECECEC"/><path d="M122.582 3.795c2.477-.075 5.066.55 13.441 3.739l.226.124a17.814 17.814 0 011.57.986c.301.206.59.427.879.65l.051.04c.204.157.401.32.595.49l.136.116c.266.225.266.225.385.349.04.04.082.077.126.114.126.11.243.226.36.344l.112.112c.119.119.235.238.344.366.05.059.103.116.156.173.099.11.195.22.287.336l.135.164c.441.534.841 1.11 1.183 1.71l.029.051a27.795 27.795 0 01.251.454c.291.535.527 1.092.731 1.665l.028.077c.245.686.419 1.399.539 2.118l.013.073c.146.875-.087 1.707-.593 2.43-.993 1.39-2.76 2.061-4.387 2.336a.79.79 0 01-.527-.075 3.595 3.595 0 01-.162-.075c-.095-.044-.19-.086-.285-.128v-.493l.124-.008c1.348-.085 2.782-.467 3.87-1.299l.07-.054c.626-.494 1.078-1.159 1.184-1.963.125-2.175-1.379-4.805-2.745-6.39a6.577 6.577 0 01-.167-.205c-.256-.313-.546-.596-.831-.881l-.044-.044a7.93 7.93 0 00-.475-.448l-.119-.108a8.852 8.852 0 00-.399-.336l-.085-.069c-1.643-1.328-3.517-2.365-6.152-3.456a35.546 35.546 0 00-5.583-1.63l-.058-.013a1.066 1.066 0 00-.227-.01V5.08l-.056-.008a17.343 17.343 0 01-.544-.084 32.543 32.543 0 00-1.683-.247c-.507-.06-1.014-.12-1.525-.1l-.118.003c-2.017.07-4.022.312-5.985.78-.02.006-.04.01-.061.015a23.214 23.214 0 00-4.844 1.719c-.26.12-.514.25-.766.387l-.08.043c-.855.462-1.679.98-2.459 1.56l-.08.059c-.469.348-.927.716-1.356 1.112l-.162.143c-.254.222-.496.457-.735.695l-.047.047a5.684 5.684 0 00-.269.291c-.044.05-.089.097-.137.143a4.866 4.866 0 00-.271.295l-.067.077c-.16.185-.314.373-.463.567l-.119.15c-1.28 1.62-2.719 3.901-2.575 6.05.064.507.298.962.635 1.342l.049.058c1.051 1.244 3.036 1.648 4.562 1.865v.419l-.139.058-.133.056-.092.04-.132.055-.081.034a2.748 2.748 0 00-.114.053c-.185.01-.35-.022-.53-.064l-.088-.02a14.278 14.278 0 01-.952-.257c-.853-.26-1.72-.65-2.399-1.237l-.059-.051a7.821 7.821 0 01-.188-.171l-.07-.066a3.331 3.331 0 01-.865-1.355l-.02-.058a3.27 3.27 0 01-.14-1.036v-.056c.015-2.266 1.469-4.595 2.846-6.305l.038-.048c.247-.306.496-.607.763-.896.052-.056.103-.113.153-.171.073-.085.151-.163.231-.241.044-.045.085-.092.126-.14.173-.2.365-.388.567-.56.05-.044.097-.09.144-.138.078-.08.159-.153.243-.226.058-.05.114-.101.171-.153a8.47 8.47 0 01.321-.272l.175-.144c.217-.181.438-.356.666-.523l.151-.114c1.89-1.428 4.057-2.477 7.858-3.706l.158-.042c2.133-.573 4.356-.842 6.561-.911z" fill="#805E18"/><path d="M106.771 26.947h.024l.021.094c.284 1.25.835 2.39 1.933 3.118a5.95 5.95 0 001.251.585l.085.029c.078.025.156.048.236.07l.051.013a9.199 9.199 0 001.749.282l.058.004c.849.058 1.707.03 2.555-.029l.056-.003c1.008-.07 2.007-.219 3.006-.376a170.81 170.81 0 01.54-.084 40.436 40.436 0 012.34-.301l.081-.008c.791-.077 1.579-.1 2.373-.101h.204c.747-.003 1.489.03 2.228.145l.107.015.21.033.268.04.156.024.064.01c.214.034.425.082.637.129 1.577.346 3.138.612 4.757.61h.061c.636 0 1.265-.013 1.896-.108l.056-.008a8.74 8.74 0 001.324-.288l.065-.02c.97-.299 1.942-.787 2.573-1.607l.056-.07c.455-.586.682-1.294.758-2.026h.024c-.03 1.323-.329 2.707-1.232 3.723l-.05.058a7.683 7.683 0 01-.172.189l-.039.041a5.47 5.47 0 01-1.219.945l-.05.03c-.813.472-1.756.723-2.678.864l-.074.01a10.403 10.403 0 01-1.6.09 10.518 10.518 0 01-1.416-.082l-.049-.007a18.19 18.19 0 01-1.578-.305c-1.655-.375-3.315-.587-5.013-.583h-.214a26.826 26.826 0 00-2.402.094c-1.647.13-3.283.348-4.919.579-1.229.173-2.485.3-3.724.148l-.08-.01c-1.512-.188-3.033-.755-4.005-1.984-.84-1.09-1.347-2.59-1.289-3.972z" fill="#A8832D"/><path d="M110.765 57.863h25.64a.71.71 0 01-.224.096l-.092.027-.049.014c-1.242.36-2.582.88-3.56 1.75l-.061.053c-.059.056-.059.056-.106.124a.506.506 0 01-.173.155 1.151 1.151 0 01-.206-.037l-.059-.015c-.06-.015-.12-.03-.179-.047l-.097-.024a33.276 33.276 0 00-3.133-.666l-.086-.014c-1.107-.184-1.107-.184-2.221-.322a29.464 29.464 0 00-1.687-.157l-.08-.006a11.094 11.094 0 00-.631-.021 15.797 15.797 0 00-2.158.107 49.47 49.47 0 01-.498.054 44.3 44.3 0 00-3.391.461 27.05 27.05 0 00-1.261.234 18.398 18.398 0 00-.838.187 6.046 6.046 0 00-.452.134c-.119.038-.119.038-.187.018a1.705 1.705 0 01-.154-.132c-1.116-1.019-2.621-1.56-4.057-1.948v-.025z" fill="#ECECEB"/><path d="M126.149 20.512l.08.005c1.902.113 3.786.352 5.652.74l.073.015c.259.054.517.11.774.17l.067.017.062.014.055.013c.041.013.041.013.066.037.01.24-.017.48-.037.718l-.011.129-.026.312a9.123 9.123 0 01-.508-.101l-.067-.015-.069-.015a38.69 38.69 0 00-6.826-.88l-.082-.003a39.501 39.501 0 00-1.707-.026h-.072c-.786 0-1.57.01-2.355.054l-.085.005a51.461 51.461 0 00-8.273 1.129l-.074.016a39.732 39.732 0 00-3.747 1.02c-.02.006-.04.012-.06.02a18.769 18.769 0 00-1.987.765l-.063.03a.897.897 0 01-.183.047 24.874 24.874 0 01-.025-1.158c.24-.125.482-.233.734-.33l.056-.022c2.218-.857 4.546-1.426 13.735-2.702l.208-.011a40.54 40.54 0 014.695.007z" fill="#8D651B"/><path d="M141.927 61.167c.069.394.109.778.11 1.177v.055c.002.27-.03.525-.085.79l-.016.076c-.093.42-.342.776-.7 1.008-.935.575-2.481.445-3.545.51a124.389 124.389 0 00-.641.042 24.819 24.819 0 01-1.597.05c-.42.008-.723-.01-1.045-.306l-.044-.04c-.67-.685-.704-1.994-.702-2.884.003-.178.003-.178.031-.207a4.89 4.89 0 01.171-.008c.018 0 .036 0 .055-.002l.184-.005.132-.004.287-.008.789-.025.083-.003a272.3 272.3 0 002.554-.091l.085-.004a829.94 829.94 0 012.374-.084l.445-.016.163-.006c.305-.01.608-.018.912-.015z" fill="#9A7524"/><path d="M105.119 61.167a250.898 250.898 0 012.566.076c.894.029 1.787.06 2.681.094.596.023 1.193.043 1.789.06.271.009.542.017.812.029l.066.002c.117.006.23.016.345.035.01.483-.007.95-.074 1.43l-.015.12c-.087.628-.301 1.307-.823 1.704-.175.11-.357.156-.563.155h-.243l-.066-.001a45.09 45.09 0 01-3.963-.217l-.082-.007a37.454 37.454 0 01-.867-.091l-.077-.009c-.454-.054-.847-.236-1.15-.588-.363-.482-.424-1.043-.418-1.63l.001-.131a6.16 6.16 0 01.056-.858l.025-.173z" fill="#9A7424"/><path d="M132.214 23.298c1.031.18 2.018.502 3.008.838 0 .986-.926 2.25-1.529 2.983l-.032.04c-.367.447-.77.86-1.225 1.218l-.07.056a8.861 8.861 0 01-1.245.814 8.89 8.89 0 01-2.252.866l-.181.045a8.78 8.78 0 01-1.216.197 5.699 5.699 0 01-.606.022h-.346a98.01 98.01 0 00-.528 0h-.351a2.057 2.057 0 01-.256-.028v-.025l.055-.008c1.375-.2 2.565-.88 3.618-1.767l.038-.032c.455-.38.893-.788 1.262-1.253.041-.052.084-.104.127-.154.335-.398.625-.836.866-1.297l.025-.048c.282-.536.47-1.09.625-1.675.037-.139.075-.277.116-.414.035-.126.066-.252.097-.378z" fill="#A8832D"/><path d="M143.752 69.229c.011 1.78-.1 3.514-.407 5.27l-.013.077c-.085.487-.188.973-.334 1.445l-.019.068a1.517 1.517 0 01-.337.602l-.049.058-.039.047a2.838 2.838 0 01-.476.432l-.042.033c-.103.08-.103.08-.158.08l-.025-7.594.568-.05a3.547 3.547 0 001.204-.425c.078-.043.078-.043.127-.043zm-40.458.123c.075.03.146.06.216.098.562.308 1.064.407 1.707.444l-.024 7.47a2.668 2.668 0 01-.459-.34l-.048-.045c-.343-.33-.543-.64-.677-1.094l-.023-.078a8.485 8.485 0 01-.157-.629l-.011-.051a25.776 25.776 0 01-.261-1.514 24.992 24.992 0 01-.22-1.948 17.344 17.344 0 01-.046-1.478l.001-.284.002-.55z" fill="#ECECEC"/><path d="M123.338 83.8c.232.042.458.1.686.16a1763638249720.481 1763638249720.481 0 00.711.181c.744.19 1.487.383 2.231.576a917.845 917.845 0 002.752.71l.076.02c.61.156 1.219.314 1.828.473v.049c-.589.154-1.177.306-1.767.456l-.056.014-.577.146a157.24 157.24 0 00-1.428.366l-.063.016c-.042.01-.084.022-.125.033l-.365.095-.225.059-.104.027a18.79 18.79 0 01-.143.037l-.08.021a.383.383 0 01-.195-.013c-.04-.03-.04-.03-.075-.07l-.041-.045a3.361 3.361 0 00-.043-.048l-.092-.102-.047-.053c-.072-.08-.146-.158-.22-.237l-.086-.092a3.39 3.39 0 00-.043-.046l-.82-.879-.043-.046-.086-.092-.218-.233a115.608 115.608 0 00-1.157-1.243l-.041-.043-.036-.038a1.51 1.51 0 00-.075-.075c-.033-.035-.033-.035-.033-.085zm-1.183 0a.59.59 0 01-.153.203 4.2 4.2 0 00-.25.267c-.054.062-.112.118-.17.176a2.562 2.562 0 00-.13.142c-.068.08-.141.154-.216.228a2.956 2.956 0 00-.129.142 3.57 3.57 0 01-.216.227 2.956 2.956 0 00-.129.143 3.86 3.86 0 01-.216.227 2.954 2.954 0 00-.129.143 3.86 3.86 0 01-.216.227 2.954 2.954 0 00-.129.142c-.069.08-.141.154-.216.228a3.023 3.023 0 00-.13.142c-.068.08-.14.154-.215.228-.061.061-.116.127-.173.192-.055.062-.114.12-.174.178-.055.057-.1.12-.144.187-.085.054-.202.013-.296-.007a9.21 9.21 0 01-.241-.06l-.219-.057a25.416 25.416 0 00-.157-.04l-.422-.108-.44-.113-.723-.185-.943-.24a68.2 68.2 0 00-.61-.156l-.219-.056-.341-.087-.125-.032-.168-.043a2.306 2.306 0 01-.245-.069v-.05l.089-.022 1.13-.29.093-.024c.811-.208 1.621-.417 2.432-.628l1.631-.421.091-.023.894-.23.412-.105.08-.02a90.192 90.192 0 001.118-.294l.094-.026.081-.022c.065-.015.065-.015.139-.015z" fill="#B3924A"/><path d="M125.15 7.223a3.84 3.84 0 011.344 2.392l.01.063c.124.98-.19 1.94-.777 2.718a3.834 3.834 0 01-2.524 1.423c-1.022.1-2.056-.14-2.866-.788a7.824 7.824 0 01-.13-.112l-.073-.063c-.667-.586-1.138-1.461-1.209-2.354-.015-.41-.028-.831.074-1.232l.014-.058a3.776 3.776 0 011.687-2.284c1.397-.82 3.177-.73 4.45.295zm-4.77.592l-.05.045a3.044 3.044 0 00-.915 1.996c-.022.85.179 1.64.743 2.298l.032.039c.544.635 1.346 1.08 2.187 1.145.915.046 1.814-.17 2.511-.792l.077-.071.039-.035a3.22 3.22 0 001.022-2.209l.003-.055a3.192 3.192 0 00-.792-2.164l-.054-.063c-.586-.68-1.433-1.024-2.31-1.092-.937-.055-1.82.324-2.493.958z" fill="#B8923A"/><path d="M122.771 7.717a.823.823 0 01.185.252l.048.09.074.14.072.135.043.082c.053.074.082.095.17.114.069-.024.128-.05.192-.083l.052-.025.126-.064c-.013.245-.064.482-.113.722l-.048.237-.011.054c-.02.1-.029.192-.026.293.116-.01.158-.05.232-.138.066-.078.133-.154.206-.225a1.8 1.8 0 00.15-.165l.053-.063h.05l.019.069.025.09.026.089.028.072c.09.03.135.018.227 0 .03-.005.06-.01.09-.017l.095-.018.095-.018.233-.045a5.167 5.167 0 01-.147.592l-.05.172a.616.616 0 00.203.154l.053.025.04.018c-.099.104-.206.19-.321.276a11.09 11.09 0 01-.113.085l-.056.043-.222.17a8.181 8.181 0 01-.37.27.265.265 0 00-.102.142.342.342 0 00.02.107c.026.095.041.19.054.288a12.53 12.53 0 01-.783-.116c-.174-.032-.174-.032-.351-.032-.055.044-.055.044-.051.105l.006.07.006.079.008.085.008.086.023.265.015.163.034.38h-.369l.009-.095.034-.35.015-.151.021-.218.007-.068a.918.918 0 00-.012-.326.448.448 0 01-.025-.025c-.228.003-.454.048-.678.088l-.197.034-.086.015c-.075.01-.075.01-.173.01a2.41 2.41 0 01.069-.342c.006-.068-.005-.094-.045-.15-.059-.052-.059-.052-.131-.102l-.08-.059a41.09 41.09 0 00-.923-.702.602.602 0 01.229-.147c.051-.025.051-.025.067-.1-.015-.07-.015-.07-.041-.15l-.028-.09-.029-.093a6.272 6.272 0 01-.057-.182l-.026-.082c-.016-.068-.016-.068.009-.142l.06.012c.089.019.178.036.268.054l.094.02.09.017.084.017c.069.01.069.01.114-.029a.512.512 0 00.071-.182l.019-.075.013-.056c.099.038.158.107.227.185l.035.04c.058.063.115.128.172.194l.058.068.051.06c.05.055.05.055.148.044-.013-.245-.064-.482-.113-.722l-.048-.237-.011-.054c-.02-.1-.029-.192-.026-.293l.077.04.101.05.05.025c.098.049.098.049.204.044.082-.048.107-.1.152-.183l.024-.044.073-.139.075-.138.067-.126a1.18 1.18 0 01.114-.17z" fill="#B8923A"/><path d="M115.35 78.548c.286-.003.57.004.856.013l.244.007.609.018.085.002.085.003.255.007.34.01c.258.009.515.015.773.012l.341-.001c.054 0 .107-.002.161-.003.432-.012.432-.012.553.095.065.07.113.149.161.231.024.032.048.063.074.093l.06.077.068.088.035.044.17.216.067.086a.973.973 0 01.034.043l2.475 3.15a1.53 1.53 0 01-.025.05c-.014-.01-.029-.018-.044-.026-.317-.187-.636-.37-.958-.548a46.67 46.67 0 01-.647-.365 50.887 50.887 0 00-.613-.347 31.977 31.977 0 01-.595-.34c-.238-.14-.479-.276-.721-.41a48.911 48.911 0 01-.691-.39l-.409-.234-.044-.026a65.821 65.821 0 00-.622-.35 31.904 31.904 0 01-.594-.34c-.238-.14-.479-.276-.72-.41-.256-.14-.51-.285-.763-.43v-.025z" fill="#F9E8BA"/><path d="M128.832 78.622h.326a118.447 118.447 0 01.705 0h.28a1.78 1.78 0 01-.274.175l-.071.04-.155.086-.082.046a68.35 68.35 0 01-1.093.62 107.4 107.4 0 00-.815.463l-.339.194-.045.026a56.77 56.77 0 01-.621.35c-.2.112-.398.225-.595.34-.238.14-.479.276-.721.41a39.84 39.84 0 00-.571.322c-.157.09-.313.179-.471.267l-.071.04a67.82 67.82 0 00-1.374.787 2.941 2.941 0 00-.025-.073l.053-.05a3.172 3.172 0 00.266-.311c.106-.131.209-.264.311-.398.098-.128.198-.255.298-.381l.136-.173.101-.13.135-.171c.104-.132.207-.264.312-.394.118-.147.233-.294.347-.444.119-.157.242-.311.367-.464.103-.126.203-.254.301-.383.095-.124.191-.248.29-.369.046-.058.046-.058.093-.139.165-.257.165-.257.317-.293.117-.015.232-.01.349-.007h.133c.119 0 .238.001.357.004a68.914 68.914 0 01.981.007c.288.004.577.004.865.003z" fill="#9B7525"/><path d="M124.719 6.163l.049.024a4.43 4.43 0 011.634 1.398c.662.895.897 2.056.763 3.15a4.47 4.47 0 01-1.739 2.89 4.687 4.687 0 01-2.088.847l-.05.007a4.524 4.524 0 01-3.314-.885 4.782 4.782 0 01-.419-.364 4.051 4.051 0 01-.852-1.15l-.023-.046c-.512-1.005-.581-2.186-.248-3.257l.015-.05c.145-.452.382-.884.675-1.257l.05-.066a4.53 4.53 0 011.306-1.118l.046-.027c.392-.228.82-.366 1.261-.466l.051-.012c.952-.223 2.017-.041 2.883.382zM119.714 7.2l-.059.055c-.664.636-1.117 1.622-1.152 2.541-.008.395-.016.79.077 1.176l.015.062c.26 1.06.929 2 1.859 2.576 1.011.592 2.178.81 3.323.511a4.292 4.292 0 001.509-.733l.067-.051a4.115 4.115 0 001.067-1.249c.53-.915.646-2.018.381-3.034-.22-.8-.687-1.582-1.343-2.1l-.04-.033a4.555 4.555 0 00-.797-.511c-1.626-.85-3.614-.458-4.907.79z" fill="#B79239"/><path d="M123.566 52.93h1.124c.362-.001.723.004 1.084.025a9.992 9.992 0 00.323.01l.101.002a49.04 49.04 0 014.265.286l.074.008c.58.065 1.154.147 1.728.252l.074.014c1.592.295 1.592.295 2.02.638l.043.035c.245.198.472.415.677.654.05.058.102.115.153.171.109.12.21.245.31.373l.062.078c.264.333.516.673.759 1.02l.14.2c.179.255.354.513.517.78.055.089.112.176.169.263.029.05.029.05.029.1l-.123.024-.042-.069c-.449-.733-.98-1.417-1.525-2.082a8.002 8.002 0 00-.465-.541 6.986 6.986 0 01-.156-.175c-.398-.456-.873-.782-1.456-.94-.05-.013-.1-.028-.149-.043-.883-.267-1.829-.38-2.743-.48a20.31 20.31 0 01-.221-.027 44.44 44.44 0 00-3.516-.258l-.066-.002a53.323 53.323 0 00-2.153-.046h-.17a602.002 602.002 0 00-1.086-.001c-1.929-.004-3.856.051-5.778.227l-.077.007a30.26 30.26 0 00-2.166.264l-.057.009c-.637.103-1.284.212-1.891.435l-.116.034c-.533.18-1.039.726-1.383 1.156a3.85 3.85 0 01-.162.186 7 7 0 00-.348.424l-.119.153a24.498 24.498 0 00-.827 1.117 9.796 9.796 0 00-.21.313c-.013.02-.027.04-.04.062l-.074.118c-.083.129-.083.129-.166.16-.056 0-.056 0-.105-.025.04-.116.102-.212.169-.313a131.6 131.6 0 01.151-.23l.036-.055a23.297 23.297 0 011.551-2.107c.426-.525.935-1.103 1.606-1.286l.067-.019a14.057 14.057 0 011.423-.322c1.764-.306 3.55-.441 5.338-.517l.053-.003c.266-.011.532-.021.799-.03l.056-.002c.83-.027 1.659-.026 2.489-.026z" fill="#9C7728"/><path d="M105.513 61.635c.704.016 1.407.038 2.11.063a1459.716 1459.716 0 002.579.088l.105.003 1.01.033.374.012.253.008c.322.01.644.023.965.04.01.375-.021.738-.073 1.11l-.008.056a2.764 2.764 0 01-.387 1.077l-.029.045a.673.673 0 01-.316.227c-.11.016-.218.016-.329.014h-.097c-.086 0-.172 0-.259-.002h-.161a26.404 26.404 0 01-2.261-.111v-.789a37.84 37.84 0 011.933.032 28.295 28.295 0 00.977.025h.082l.073.001a.38.38 0 00.19-.083c.098-.144.129-.328.163-.496l.016-.075a5.31 5.31 0 00.083-.52c.009-.067.009-.067.034-.141h-.083c-.319.002-.638-.008-.958-.02l-.164-.007-.345-.013-.906-.034-.091-.003a169.04 169.04 0 00-1.429-.048 214.5 214.5 0 01-1.756-.06l-.197-.007-.31-.011-.114-.005a17.63 17.63 0 01-.698-.039l.024-.37zm36.02.001l.025.37a20.461 20.461 0 01-1.015.05l-.419.015-.264.01a737.693 737.693 0 01-3.15.108c-.734.024-1.469.046-2.203.063a.933.933 0 00.01.049c.022.11.044.22.061.332.055.469.055.469.248.886.116.061.223.052.352.049l.092-.001c.373-.005.747-.022 1.12-.037a35.64 35.64 0 011.667-.02v.788l-.446.03-.151.01a26.468 26.468 0 01-1.903.071c-.1.002-.199.003-.299.003l-.091.002c-.195 0-.316-.035-.463-.165-.487-.513-.573-1.472-.568-2.146v-.065l.001-.156 1.142-.043.088-.003c.747-.028 1.493-.055 2.24-.08l.051-.001 1.028-.033.453-.014.089-.003c.319-.01.638-.021.957-.034l.087-.004.404-.016c.286-.012.571-.018.857-.016z" fill="#ECEBEA"/><path d="M125.064 61.34h.641v9.097h-.641v-9.098zm-.912 0h.641v9.097h-.641v-9.098zm-.912 0h.641v9.097h-.641v-9.098z" fill="#9B7626"/><path d="M126.913 61.34h.616v9.097h-.616v-9.098zm-.912 0h.616v9.097h-.616v-9.098zm-3.674 0h.617v9.097h-.617v-9.098zm-.912 0h.617v9.097h-.617v-9.098zm-.912 0h.616v9.097h-.616v-9.098z" fill="#9A7423"/><path d="M131.597 7.519c1.237.357 2.446 1 3.557 1.638l.197.111c.48.27.942.566 1.401.87l.051.034c.242.161.478.329.711.503a.841.841 0 01-.127.234l-.045.062-.048.063-.047.063-.127.17-.074.098c-.123-.04-.215-.113-.317-.19-.877-.644-1.836-1.187-2.802-1.687-.08-.042-.161-.084-.24-.127a16.754 16.754 0 00-2.336-1.028 4.1 4.1 0 01.179-.614l.067-.2z" fill="#8E651C"/><path d="M119.615 61.34h.592v9.097h-.592v-9.098zm-.887 0h.592v9.097h-.592v-9.098z" fill="#9A7423"/><path d="M130.266 61.34h.542v9.097h-.542v-9.098zm-.838 0h.542v9.097h-.542v-9.098z" fill="#9A7525"/><path d="M128.614 61.34h.543v9.097h-.543v-9.098zm-11.538 0h.542v9.097h-.542v-9.098z" fill="#9A7423"/><path d="M116.262 61.34h.543v9.097h-.543v-9.098z" fill="#9A7525"/><path d="M117.914 61.34h.518v9.097h-.518v-9.098zm9.911 0h.493v9.097h-.493v-9.098z" fill="#9A7423"/><path d="M135.148 22.14c1.175.377 2.322.828 3.427 1.38v1.134a.848.848 0 01-.272-.078l-.072-.035a24.295 24.295 0 00-3.087-1.202c-.046-.016-.046-.016-.07-.04-.01-.24.016-.48.037-.719l.01-.128.027-.312z" fill="#8D651C"/><path d="M131.08 61.39c.185.06.292.132.386.304.075.157.074.303.073.474v1.25l-.001.674-.001 1.204-.001 1.167-.001 1.272v.675l-.001.572v.293l-.001.267.001.142c-.002.227-.034.397-.191.568-.072.067-.162.137-.263.137V61.39zm-15.113 0v8.998c-.169-.056-.169-.056-.25-.137a5.15 5.15 0 01-.048-.047c-.146-.194-.16-.377-.159-.615v-.665a55.143 55.143 0 010-.575v-4.492l-.001-.467.001-.57v-.696a.987.987 0 01.155-.558c.078-.075.188-.177.302-.177z" fill="#9A7423"/><path d="M124.028 78.622a65.5 65.5 0 012.022.025 4.14 4.14 0 01-.302.413c-.099.12-.198.242-.293.366-.117.154-.237.307-.357.46l-.136.172-.102.13-.134.171c-.104.132-.207.264-.312.394-.118.147-.234.294-.347.444-.119.157-.242.311-.367.464-.103.125-.202.253-.301.382-.066.087-.134.173-.201.259l-.304.388-.024-.05c.023-.059.023-.059.062-.135l.043-.087.049-.097.051-.101.138-.276.146-.29a1408.38 1408.38 0 01.768-1.53l.173-.344c.185-.368.368-.736.542-1.109l-.814-.024v-.025z" fill="#F0DEAD"/><path d="M123.755 78.62l.062.002.071.001.076.002.078.002.247.006.167.004.411.01c-.185.428-.394.843-.603 1.26l-.147.294-.279.556-.317.633-.651 1.3h-.025a4.11 4.11 0 01.064-.427l.012-.057.038-.185.027-.13c.06-.29.124-.578.19-.867.057-.25.11-.502.161-.754.058-.289.122-.577.188-.865.047-.206.091-.412.13-.62.031-.162.031-.162.1-.165z" fill="#9C7626"/><path d="M119.566 78.647h1.184a27.516 27.516 0 01.514 1.001l.075.15.156.312.197.394.154.309.073.145c.142.283.281.567.416.852.095.2.195.398.297.595l.037.072.033.064.02.05-.025.05a20.865 20.865 0 01-.481-.604 16.12 16.12 0 00-.365-.463c-.082-.1-.162-.2-.24-.303a16.238 16.238 0 00-.265-.337 17.065 17.065 0 01-.311-.4 18.21 18.21 0 00-.368-.463 15.263 15.263 0 01-.301-.383 32.736 32.736 0 00-.486-.617c-.082-.103-.165-.206-.246-.31l-.041-.051c-.027-.038-.027-.038-.027-.063z" fill="#9B7625"/><path d="M121.958 78.622h1.75c-.057.298-.113.593-.18.888-.071.312-.139.623-.202.936a46.59 46.59 0 01-.235 1.087l-.012.055-.086.393-.023.11a8.822 8.822 0 00-.034.157l-.031.143-.017.081c-.018.07-.018.07-.068.169v-3.994h-.862v-.025z" fill="#FCEDC0"/><path d="M121.933 78.647h.863v3.97a1.036 1.036 0 01-.091-.286l-.012-.056a5.092 5.092 0 00-.025-.12c-.021-.107-.044-.214-.066-.32l-.014-.066a28.836 28.836 0 00-.124-.577l-.14-.648-.014-.065-.057-.265a85.36 85.36 0 00-.155-.713l-.014-.062-.065-.288-.024-.103-.02-.089c-.02-.103-.031-.208-.042-.312z" fill="#9B7524"/><path d="M138.87 11.661c.133.092.247.193.359.31.049.049.099.093.151.139.102.088.198.182.293.278l.051.05.157.158.108.109.262.263a.652.652 0 01-.185.226 20.019 20.019 0 01-.407.365c-.081-.026-.094-.042-.146-.106a4.706 4.706 0 00-.541-.537c-.083-.074-.16-.154-.239-.234a4.345 4.345 0 00-.266-.247 1.863 1.863 0 01-.139-.133c.041-.102.115-.174.189-.253l.081-.085.039-.042c.061-.066.12-.134.179-.202a.907.907 0 01.054-.059z" fill="#8E651C"/><path d="M108.547 55.619a1111.064 1111.064 0 01.344.001 13.67 13.67 0 01-.157.497l-.023.069-.071.214a8.368 8.368 0 00-.049.146l-.119.356a.5.5 0 01-.065-.213l-.006-.066a26.253 26.253 0 01-.006-.069l-.007-.067a4.454 4.454 0 01-.015-.448c-.616-.095-1.153.102-1.651.458-.125.1-.235.214-.346.331l-.074.074c.011-.283.173-.543.37-.74.382-.306.802-.448 1.282-.517a5.48 5.48 0 01.049-.008c.181-.024.362-.02.544-.018zm29.633.001c.793-.011 1.601.02 2.226.567.109.11.18.236.25.373l.026.05a.873.873 0 01.087.316c-.111-.107-.111-.107-.157-.165-.227-.285-.547-.464-.879-.599l-.074-.03a1.776 1.776 0 00-.986-.093l.001.048a5.581 5.581 0 01-.033.634l-.017.205c-.069-.068-.087-.148-.116-.238l-.019-.058-.059-.183-.079-.239-.019-.058a7.246 7.246 0 00-.136-.379c-.016-.053-.016-.053-.016-.151z" fill="#9B7626"/><path d="M130.241 74.135h.567v1.528h-.567v-1.528zm-2.465 0h.567v1.528h-.567v-1.528zm-1.652 0h.567v1.528h-.567v-1.528zm-2.465 0h.567v1.528h-.567v-1.528zm-1.652 0h.567v1.528h-.567v-1.528zm-2.465 0h.567v1.528h-.567v-1.528zm-3.304 0h.567v1.528h-.567v-1.528z" fill="#9D782A"/><path d="M133.718 21.72a4.237 4.237 0 01.524.13c.135.04.135.04.191.067l-.029.46a8.193 8.193 0 00-.01.156l-.014.225-.004.07-.005.066-.004.058c-.008.05-.008.05-.058.124l-.69-.197.03-.46.011-.156.014-.224.005-.071.004-.066.004-.058c.006-.05.006-.05.031-.124z" fill="#8E651C"/><path d="M129.428 74.135h.542v1.528h-.542v-1.528z" fill="#9B7526"/><path d="M128.614 74.135h.543v1.528h-.543v-1.528zm-1.652 0h.543v1.528h-.543v-1.528zm-1.651 0h.542v1.528h-.542v-1.528z" fill="#9A7423"/><path d="M124.497 74.135h.542v1.528h-.542v-1.528z" fill="#9B7526"/><path d="M122.845 74.135h.543v1.528h-.543v-1.528zm-1.652 0h.543v1.528h-.543v-1.528z" fill="#9A7423"/><path d="M120.38 74.135h.542v1.528h-.542v-1.528z" fill="#9B7526"/><path d="M118.728 74.135h.542v1.528h-.542v-1.528zm-1.652 0h.542v1.528h-.542v-1.528zm.838 0h.518v1.528h-.518v-1.528z" fill="#9A7423"/><path d="M138.18 23.372c.161.012.233.067.395.148v1.134a.953.953 0 01-.293-.088l-.072-.034-.055-.026c-.003-.38.004-.756.025-1.134z" fill="#805E18"/><path d="M131.08 74.135h.394c.018.441-.005 1.006-.302 1.363-.068.067-.068.067-.092.067v-1.43zm-15.508 0h.395v1.43c-.336-.336-.397-.836-.398-1.295l.003-.135z" fill="#9B7525"/><path d="M112.416 53.253v.05c-.05.038-.101.074-.154.11a3.484 3.484 0 00-.415.34c-.055.052-.11.101-.168.15a3.799 3.799 0 00-.328.328 11.96 11.96 0 00-.673.8l-.119.15c-.18.229-.349.462-.511.703a10.35 10.35 0 01-.235.33c-.036.046-.036.046-.059.096l-.074-.024c.38-.56.77-1.117 1.216-1.625.063-.072.123-.146.183-.221.08-.099.165-.19.256-.278a1.94 1.94 0 00.121-.135c.671-.774.671-.774.96-.774z" fill="#9E7A2D"/><path d="M134.285 53.08c.374.06.724.396.99.649.054.05.108.1.165.146.077.065.14.138.205.215.045.05.092.097.14.144.096.095.181.197.265.302a10.822 10.822 0 01.654.824l.133.177c.214.286.413.58.609.88l.192.287a.95.95 0 00-.025.05 9.545 9.545 0 01-.337-.483 15.886 15.886 0 00-1.589-2.043c-.404-.456-.856-.849-1.402-1.123v-.025z" fill="#A48238"/><path d="M135.197 53.696c.181.08.324.24.444.395a.876.876 0 00-.025.05l-.21-.209-.06-.06-.058-.057-.053-.053c-.038-.041-.038-.041-.038-.066z" fill="#9E792B"/><path d="M140.867 74.48l-.271.123v-.049a3.696 3.696 0 00-.049-.025l.118-.038.067-.022c.061-.013.061-.013.135.011z" fill="#DBD4C3"/><path d="M10.092 162.269c-1.798 0-3.325-.309-4.582-.928-1.237-.638-2.185-1.537-2.842-2.697-.657-1.179-1.025-2.59-1.102-4.234a112.525 112.525 0 010-5.162c.077-1.624.445-3.025 1.102-4.205a6.679 6.679 0 012.871-2.697c1.257-.638 2.774-.957 4.553-.957 1.315 0 2.494.174 3.538.522 1.044.348 1.933.832 2.668 1.45a6.424 6.424 0 011.711 2.117 6.1 6.1 0 01.638 2.639.474.474 0 01-.174.435.59.59 0 01-.435.174h-2.755a.875.875 0 01-.522-.145c-.135-.116-.232-.299-.29-.551-.31-1.276-.841-2.146-1.595-2.61-.754-.464-1.692-.696-2.813-.696-1.295 0-2.33.368-3.103 1.102-.773.716-1.189 1.905-1.247 3.567a68.22 68.22 0 000 4.872c.058 1.663.474 2.862 1.247 3.596.773.716 1.808 1.073 3.103 1.073 1.121 0 2.059-.232 2.813-.696.754-.483 1.286-1.353 1.595-2.61.058-.27.155-.454.29-.551a.882.882 0 01.522-.145h2.755a.59.59 0 01.435.174.474.474 0 01.174.435 6.102 6.102 0 01-.638 2.639 6.714 6.714 0 01-1.711 2.146c-.735.6-1.624 1.073-2.668 1.421-1.044.348-2.223.522-3.538.522zm10.52-.29a.658.658 0 01-.434-.174.59.59 0 01-.174-.435c0-.077.019-.164.058-.261l6.989-18.705c.058-.193.164-.357.319-.493.174-.154.406-.232.696-.232h3.16c.29 0 .513.078.668.232.154.136.27.3.348.493l6.989 18.705c.019.097.029.184.029.261a.59.59 0 01-.174.435.556.556 0 01-.406.174h-2.523c-.271 0-.474-.058-.61-.174a1.169 1.169 0 01-.231-.377l-1.363-3.538H25.34l-1.363 3.538a1.019 1.019 0 01-.261.377c-.116.116-.31.174-.58.174h-2.523zm5.743-7.424h6.583l-3.306-8.961-3.277 8.961zm16.308 7.424a.669.669 0 01-.493-.203.67.67 0 01-.203-.493v-18.879a.71.71 0 01.203-.522.673.673 0 01.493-.203h2.233c.27 0 .464.068.58.203.135.116.222.203.261.261l8.352 12.992v-12.731c0-.212.058-.386.174-.522a.708.708 0 01.522-.203h2.436c.213 0 .387.068.522.203a.71.71 0 01.203.522v18.85a.705.705 0 01-.203.522.668.668 0 01-.493.203h-2.262c-.27 0-.464-.067-.58-.203a1.613 1.613 0 00-.261-.261l-8.323-12.702v12.47a.67.67 0 01-.203.493.704.704 0 01-.522.203h-2.436zm18.561 0a.657.657 0 01-.435-.174.59.59 0 01-.174-.435.73.73 0 01.058-.261l6.989-18.705c.058-.193.164-.357.319-.493.174-.154.406-.232.696-.232h3.161c.29 0 .512.078.667.232.155.136.27.3.348.493l6.989 18.705a1.3 1.3 0 01.029.261.59.59 0 01-.174.435.557.557 0 01-.406.174h-2.523c-.27 0-.474-.058-.609-.174a1.167 1.167 0 01-.232-.377l-1.363-3.538h-8.613l-1.363 3.538a1.021 1.021 0 01-.261.377c-.116.116-.31.174-.58.174h-2.523zm5.742-7.424h6.583l-3.306-8.961-3.277 8.961zm16.308 7.424a.668.668 0 01-.493-.203.67.67 0 01-.203-.493v-18.879a.71.71 0 01.203-.522.672.672 0 01.493-.203h7.076c1.953 0 3.558.3 4.814.899 1.276.6 2.233 1.489 2.871 2.668.658 1.18.996 2.62 1.015 4.321.039.851.058 1.605.058 2.262 0 .658-.019 1.402-.058 2.233-.038 1.798-.367 3.287-.986 4.466-.618 1.16-1.556 2.03-2.813 2.61-1.237.561-2.822.841-4.756.841h-7.22zm3.335-3.335h3.741c1.083 0 1.963-.154 2.64-.464a2.903 2.903 0 001.478-1.479c.329-.696.503-1.604.522-2.726.02-.58.03-1.082.03-1.508.019-.444.019-.879 0-1.305 0-.444-.01-.947-.03-1.508-.038-1.585-.435-2.755-1.189-3.509s-1.952-1.131-3.596-1.131H86.61v13.63zm17.056 3.335a.669.669 0 01-.493-.203.67.67 0 01-.203-.493v-18.908c0-.193.068-.357.203-.493a.672.672 0 01.493-.203h2.726c.213 0 .377.068.493.203.135.136.203.3.203.493v18.908a.67.67 0 01-.203.493c-.116.136-.28.203-.493.203h-2.726zm6.723 0a.656.656 0 01-.435-.174.59.59 0 01-.174-.435c0-.077.019-.164.058-.261l6.989-18.705c.058-.193.164-.357.319-.493.174-.154.406-.232.696-.232h3.161c.29 0 .512.078.667.232.155.136.271.3.348.493l6.989 18.705c.019.097.029.184.029.261a.59.59 0 01-.174.435.556.556 0 01-.406.174h-2.523c-.271 0-.474-.058-.609-.174a1.174 1.174 0 01-.232-.377l-1.363-3.538h-8.613l-1.363 3.538a1.028 1.028 0 01-.261.377c-.116.116-.309.174-.58.174h-2.523zm5.742-7.424h6.583l-3.306-8.961-3.277 8.961zm16.308 7.424a.67.67 0 01-.493-.203.67.67 0 01-.203-.493v-18.879a.71.71 0 01.203-.522.674.674 0 01.493-.203h2.233c.271 0 .464.068.58.203.136.116.223.203.261.261l8.352 12.992v-12.731c0-.212.058-.386.174-.522a.71.71 0 01.522-.203h2.436c.213 0 .387.068.522.203.136.136.203.31.203.522v18.85a.703.703 0 01-.203.522.667.667 0 01-.493.203h-2.262c-.27 0-.464-.067-.58-.203a1.613 1.613 0 00-.261-.261l-8.323-12.702v12.47a.667.667 0 01-.203.493.703.703 0 01-.522.203h-2.436zm27.131 0a.67.67 0 01-.493-.203.67.67 0 01-.203-.493v-18.908c0-.193.068-.357.203-.493a.674.674 0 01.493-.203h2.697a.67.67 0 01.493.203.67.67 0 01.203.493v16.153h9.193c.213 0 .387.068.522.203.136.136.203.31.203.522v2.03a.667.667 0 01-.203.493.703.703 0 01-.522.203h-12.586zm16.823 0a.667.667 0 01-.493-.203.667.667 0 01-.203-.493v-18.908a.67.67 0 01.203-.493.67.67 0 01.493-.203h2.726c.212 0 .377.068.493.203.135.136.203.3.203.493v18.908a.67.67 0 01-.203.493c-.116.136-.281.203-.493.203h-2.726zm8.695 0a.703.703 0 01-.522-.203.667.667 0 01-.203-.493v-18.879c0-.212.067-.386.203-.522a.707.707 0 01.522-.203h2.291c.27 0 .473.078.609.232.135.136.222.242.261.319l5.597 10.44 5.655-10.44c.038-.077.125-.183.261-.319.135-.154.338-.232.609-.232h2.262a.71.71 0 01.522.203.71.71 0 01.203.522v18.879a.67.67 0 01-.203.493.706.706 0 01-.522.203h-2.436a.703.703 0 01-.522-.203.73.73 0 01-.174-.493v-12.557l-4.06 7.743a1.744 1.744 0 01-.377.464c-.155.116-.358.174-.609.174h-1.189c-.271 0-.484-.058-.638-.174a2.034 2.034 0 01-.348-.464l-4.06-7.743v12.557a.67.67 0 01-.203.493.67.67 0 01-.493.203h-2.436zm30.581.29c-1.72 0-3.199-.28-4.437-.841a6.495 6.495 0 01-2.9-2.639c-.696-1.198-1.073-2.687-1.131-4.466a107.892 107.892 0 010-4.959c.058-1.759.445-3.228 1.16-4.408a6.864 6.864 0 012.929-2.668c1.257-.599 2.717-.899 4.379-.899 1.663 0 3.123.3 4.379.899a6.819 6.819 0 012.958 2.668c.716 1.18 1.102 2.649 1.16 4.408a52.585 52.585 0 010 4.959c-.058 1.779-.435 3.268-1.131 4.466a6.463 6.463 0 01-2.929 2.639c-1.237.561-2.716.841-4.437.841zm0-3.335c1.257 0 2.282-.367 3.074-1.102.793-.754 1.218-1.972 1.276-3.654.039-.85.058-1.633.058-2.349 0-.734-.019-1.517-.058-2.349-.038-1.121-.251-2.03-.638-2.726-.367-.715-.87-1.227-1.508-1.537-.638-.328-1.372-.493-2.204-.493-.812 0-1.537.165-2.175.493-.638.31-1.15.822-1.537 1.537-.367.696-.57 1.605-.609 2.726-.019.832-.029 1.615-.029 2.349 0 .716.01 1.499.029 2.349.058 1.682.484 2.9 1.276 3.654.793.735 1.808 1.102 3.045 1.102zm19.411 3.335c-1.798 0-3.306-.261-4.524-.783-1.199-.541-2.117-1.237-2.755-2.088-.619-.87-.948-1.778-.986-2.726a.59.59 0 01.174-.435.59.59 0 01.435-.174h2.581c.251 0 .435.058.551.174.135.097.251.223.348.377.116.368.338.735.667 1.102.328.348.773.638 1.334.87.58.232 1.305.348 2.175.348 1.392 0 2.426-.232 3.103-.696.696-.464 1.044-1.092 1.044-1.885 0-.56-.184-1.005-.551-1.334-.368-.348-.938-.657-1.711-.928-.754-.29-1.76-.589-3.016-.899-1.45-.348-2.668-.763-3.654-1.247-.967-.502-1.702-1.131-2.204-1.885-.484-.754-.725-1.711-.725-2.871 0-1.121.299-2.117.899-2.987.618-.87 1.488-1.556 2.61-2.059 1.14-.502 2.494-.754 4.06-.754 1.256 0 2.368.174 3.335.522.966.329 1.769.774 2.407 1.334.638.542 1.121 1.131 1.45 1.769.348.619.531 1.228.551 1.827 0 .155-.058.3-.174.435-.097.116-.242.174-.435.174h-2.697c-.155 0-.31-.038-.464-.116-.155-.077-.281-.222-.377-.435-.116-.599-.493-1.111-1.131-1.537-.638-.425-1.46-.638-2.465-.638-1.044 0-1.885.194-2.523.58-.638.387-.957.986-.957 1.798 0 .542.154.996.464 1.363.328.348.841.658 1.537.928.715.271 1.653.561 2.813.87 1.643.368 2.987.793 4.031 1.276 1.044.484 1.807 1.102 2.291 1.856.483.735.725 1.673.725 2.813 0 1.276-.348 2.369-1.044 3.277-.677.89-1.634 1.576-2.871 2.059-1.238.484-2.678.725-4.321.725z" fill="#fff"/><path d="M5.112 191.159c-.816 0-1.518-.114-2.106-.342-.576-.228-1.038-.558-1.386-.99a3.78 3.78 0 01-.684-1.548c-.108-.6-.096-1.266.036-1.998.084-.492.186-1.02.306-1.584l.378-1.62c.24-.972.606-1.824 1.098-2.556a5.092 5.092 0 011.926-1.71c.792-.408 1.74-.612 2.844-.612.828 0 1.536.108 2.124.324.6.216 1.08.516 1.44.9.36.384.606.816.738 1.296.132.48.15.978.054 1.494a.497.497 0 01-.108.27.31.31 0 01-.252.108h-1.026a.513.513 0 01-.306-.09c-.072-.06-.108-.168-.108-.324.072-.9-.138-1.53-.63-1.89-.492-.372-1.158-.558-1.998-.558-.96 0-1.8.276-2.52.828-.708.54-1.212 1.41-1.512 2.61a39.637 39.637 0 00-.648 3.024c-.204 1.2-.096 2.076.324 2.628.432.54 1.128.81 2.088.81.84 0 1.584-.174 2.232-.522.648-.348 1.176-.99 1.584-1.926a.937.937 0 01.216-.324c.084-.06.18-.09.288-.09h1.026a.31.31 0 01.252.108c.06.072.072.162.036.27a5.708 5.708 0 01-.63 1.458c-.288.48-.66.912-1.116 1.296a5.243 5.243 0 01-1.656.918c-.648.228-1.416.342-2.304.342zm10.513 0c-.66 0-1.206-.114-1.638-.342a2.528 2.528 0 01-.99-.954 3.682 3.682 0 01-.432-1.386 6.908 6.908 0 01.054-1.638 16.425 16.425 0 01.234-1.08 8.751 8.751 0 01.576-1.602c.24-.516.54-.978.9-1.386.372-.42.816-.744 1.332-.972.528-.24 1.14-.36 1.836-.36.768 0 1.344.132 1.728.396.396.252.702.564.918.936l.144-.738a.502.502 0 01.504-.414h.81c.12 0 .21.042.27.126.072.072.096.168.072.288l-1.818 8.532a.538.538 0 01-.18.306.454.454 0 01-.306.108h-.828c-.12 0-.21-.036-.27-.108a.378.378 0 01-.054-.306l.162-.756c-.372.384-.78.708-1.224.972-.432.252-1.032.378-1.8.378zm.378-1.458c.6 0 1.116-.138 1.548-.414a3.455 3.455 0 001.08-1.044 4.35 4.35 0 00.576-1.314c.048-.192.096-.42.144-.684.06-.276.108-.51.144-.702.096-.42.102-.834.018-1.242a1.694 1.694 0 00-.558-1.008c-.288-.264-.726-.396-1.314-.396-.564 0-1.05.138-1.458.414a3.244 3.244 0 00-.99 1.062c-.252.432-.456.9-.612 1.404-.048.18-.09.354-.126.522a6.747 6.747 0 00-.09.522c-.072.504-.09.978-.054 1.422.036.432.186.786.45 1.062.264.264.678.396 1.242.396zm7.145 1.278a.39.39 0 01-.288-.108.378.378 0 01-.054-.306l1.818-8.532a.46.46 0 01.18-.288.48.48 0 01.324-.126h.846c.12 0 .21.042.27.126.06.072.078.168.054.288l-.18.792a4.324 4.324 0 011.35-.99c.528-.264 1.128-.396 1.8-.396.864 0 1.542.174 2.034.522.492.336.81.81.954 1.422.144.6.126 1.302-.054 2.106l-1.08 5.076a.538.538 0 01-.18.306.454.454 0 01-.306.108h-.9a.39.39 0 01-.288-.108.378.378 0 01-.054-.306l1.062-4.986c.192-.888.18-1.554-.036-1.998-.204-.456-.732-.684-1.584-.684-.828 0-1.536.24-2.124.72-.576.468-.954 1.122-1.134 1.962l-1.044 4.986a.538.538 0 01-.18.306.454.454 0 01-.306.108h-.9zm13.94.18c-.66 0-1.206-.114-1.638-.342a2.528 2.528 0 01-.99-.954 3.682 3.682 0 01-.432-1.386 6.908 6.908 0 01.054-1.638 16.425 16.425 0 01.234-1.08 8.751 8.751 0 01.576-1.602c.24-.516.54-.978.9-1.386.372-.42.816-.744 1.332-.972.528-.24 1.14-.36 1.836-.36.768 0 1.344.132 1.728.396.396.252.702.564.918.936l.144-.738a.502.502 0 01.504-.414h.81c.12 0 .21.042.27.126.072.072.096.168.072.288l-1.818 8.532a.538.538 0 01-.18.306.454.454 0 01-.306.108h-.828c-.12 0-.21-.036-.27-.108a.378.378 0 01-.054-.306l.162-.756c-.372.384-.78.708-1.224.972-.432.252-1.032.378-1.8.378zm.378-1.458c.6 0 1.116-.138 1.548-.414a3.455 3.455 0 001.08-1.044 4.35 4.35 0 00.576-1.314c.048-.192.096-.42.144-.684.06-.276.108-.51.144-.702.096-.42.102-.834.018-1.242a1.694 1.694 0 00-.558-1.008c-.288-.264-.726-.396-1.314-.396-.564 0-1.05.138-1.458.414a3.244 3.244 0 00-.99 1.062c-.252.432-.456.9-.612 1.404-.048.18-.09.354-.126.522a6.747 6.747 0 00-.09.522c-.072.504-.09.978-.054 1.422.036.432.186.786.45 1.062.264.264.678.396 1.242.396zm10.24 1.458c-.66 0-1.212-.114-1.656-.342a2.63 2.63 0 01-1.025-.954c-.24-.408-.39-.87-.45-1.386a6.294 6.294 0 01.035-1.638 16.425 16.425 0 01.234-1.08 7.99 7.99 0 01.594-1.602 5.86 5.86 0 01.936-1.386c.372-.42.816-.744 1.332-.972.528-.24 1.134-.36 1.819-.36.744 0 1.325.126 1.745.378.432.252.75.564.954.936l.9-4.14a.494.494 0 01.162-.288.48.48 0 01.325-.126h.864c.131 0 .227.042.288.126.06.072.078.168.053.288l-2.556 11.952a.585.585 0 01-.161.306.48.48 0 01-.324.108h-.81a.39.39 0 01-.289-.108.378.378 0 01-.053-.306l.162-.756a5.523 5.523 0 01-1.26.972c-.456.252-1.063.378-1.819.378zm.36-1.458c.6 0 1.128-.138 1.584-.414a3.392 3.392 0 001.099-1.044 4.13 4.13 0 00.593-1.314c.06-.192.114-.42.163-.684.06-.276.107-.51.143-.702.084-.42.078-.834-.018-1.242a1.743 1.743 0 00-.594-1.008c-.3-.264-.744-.396-1.331-.396-.564 0-1.056.138-1.477.414-.407.264-.75.618-1.026 1.062a6.19 6.19 0 00-.63 1.404c-.047.18-.09.354-.126.522a6.747 6.747 0 00-.09.522 5.71 5.71 0 00-.035 1.422c.06.432.221.786.486 1.062.276.264.695.396 1.26.396zm7.232 1.278a.39.39 0 01-.288-.108.378.378 0 01-.054-.306l1.818-8.532a.46.46 0 01.18-.288.48.48 0 01.324-.126h.864c.12 0 .204.042.252.126.06.072.078.168.054.288l-1.8 8.532a.538.538 0 01-.18.306.454.454 0 01-.306.108h-.864zm2.214-11.106c-.12 0-.21-.036-.27-.108a.434.434 0 01-.072-.306l.234-.972a.494.494 0 01.162-.288.48.48 0 01.324-.126h1.116c.132 0 .228.042.288.126.072.072.096.168.072.288l-.216.972a.538.538 0 01-.18.306.527.527 0 01-.324.108h-1.134zm5.187 11.286c-.66 0-1.206-.114-1.638-.342a2.528 2.528 0 01-.99-.954 3.682 3.682 0 01-.432-1.386 6.908 6.908 0 01.054-1.638 16.425 16.425 0 01.234-1.08 8.751 8.751 0 01.576-1.602c.24-.516.54-.978.9-1.386.372-.42.816-.744 1.332-.972.528-.24 1.14-.36 1.836-.36.768 0 1.344.132 1.728.396.396.252.702.564.918.936l.144-.738a.502.502 0 01.504-.414h.81c.12 0 .21.042.27.126.072.072.096.168.072.288l-1.818 8.532a.538.538 0 01-.18.306.454.454 0 01-.306.108h-.828c-.12 0-.21-.036-.27-.108a.378.378 0 01-.054-.306l.162-.756c-.372.384-.78.708-1.224.972-.432.252-1.032.378-1.8.378zm.378-1.458c.6 0 1.116-.138 1.548-.414a3.455 3.455 0 001.08-1.044 4.35 4.35 0 00.576-1.314c.048-.192.096-.42.144-.684.06-.276.108-.51.144-.702.096-.42.102-.834.018-1.242a1.694 1.694 0 00-.558-1.008c-.288-.264-.726-.396-1.314-.396-.564 0-1.05.138-1.458.414a3.244 3.244 0 00-.99 1.062c-.252.432-.456.9-.612 1.404-.048.18-.09.354-.126.522a6.747 6.747 0 00-.09.522c-.072.504-.09.978-.054 1.422.036.432.186.786.45 1.062.264.264.678.396 1.242.396zm7.145 1.278a.39.39 0 01-.288-.108.378.378 0 01-.054-.306l1.818-8.532a.46.46 0 01.18-.288.48.48 0 01.324-.126h.846c.12 0 .21.042.27.126.06.072.078.168.054.288l-.18.792a4.324 4.324 0 011.35-.99c.528-.264 1.128-.396 1.8-.396.864 0 1.542.174 2.034.522.492.336.81.81.954 1.422.144.6.126 1.302-.054 2.106l-1.08 5.076a.538.538 0 01-.18.306.454.454 0 01-.306.108h-.9a.39.39 0 01-.288-.108.378.378 0 01-.054-.306l1.062-4.986c.192-.888.18-1.554-.036-1.998-.204-.456-.732-.684-1.584-.684-.828 0-1.536.24-2.124.72-.576.468-.954 1.122-1.134 1.962l-1.044 4.986a.538.538 0 01-.18.306.454.454 0 01-.306.108h-.9zm19.862.18c-.708 0-1.35-.096-1.926-.288a3.436 3.436 0 01-1.422-.918c-.372-.408-.63-.924-.774-1.548-.132-.624-.126-1.356.018-2.196.096-.528.198-1.032.306-1.512.108-.492.228-1.002.36-1.53.396-1.668 1.092-2.91 2.088-3.726 1.008-.828 2.268-1.242 3.78-1.242.72 0 1.362.102 1.926.306.576.204 1.05.516 1.422.936.384.42.642.936.774 1.548s.126 1.338-.018 2.178a43.096 43.096 0 01-.306 1.53l-.342 1.512c-.408 1.692-1.116 2.94-2.124 3.744-.996.804-2.25 1.206-3.762 1.206zm.072-1.53c.948 0 1.782-.276 2.502-.828.72-.552 1.23-1.446 1.53-2.682.132-.54.24-1.02.324-1.44.096-.432.192-.912.288-1.44.228-1.236.132-2.13-.288-2.682-.408-.552-1.098-.828-2.07-.828-.96 0-1.794.276-2.502.828-.708.552-1.212 1.446-1.512 2.682a56.707 56.707 0 00-.342 1.44c-.096.42-.192.9-.288 1.44-.216 1.236-.126 2.13.27 2.682.408.552 1.104.828 2.088.828zm9.68 1.35c-.156 0-.27-.036-.343-.108a.689.689 0 01-.143-.342l-.792-8.46a.39.39 0 01.09-.306c.084-.096.204-.144.36-.144h.738c.132 0 .228.03.287.09.06.048.096.12.108.216l.594 6.786 3.528-6.714c.048-.084.114-.168.198-.252.084-.084.204-.126.36-.126h.666c.156 0 .258.042.306.126.06.084.096.168.108.252l.738 6.714 3.456-6.786a.627.627 0 01.144-.198c.072-.072.174-.108.306-.108h.9c.168 0 .264.054.288.162.036.096.024.21-.036.342l-4.32 8.406a1.36 1.36 0 01-.27.342.647.647 0 01-.396.108h-.738c-.156 0-.276-.036-.36-.108a.61.61 0 01-.162-.342l-.774-6.444-3.402 6.444c-.084.144-.18.258-.288.342a.732.732 0 01-.414.108h-.737zm12.415 0a.39.39 0 01-.288-.108.378.378 0 01-.054-.306l1.818-8.532a.46.46 0 01.18-.288.48.48 0 01.324-.126h.846c.12 0 .21.042.27.126.06.072.078.168.054.288l-.18.792a4.324 4.324 0 011.35-.99c.528-.264 1.128-.396 1.8-.396.864 0 1.542.174 2.034.522.492.336.81.81.954 1.422.144.6.126 1.302-.054 2.106l-1.08 5.076a.538.538 0 01-.18.306.454.454 0 01-.306.108h-.9a.39.39 0 01-.288-.108.378.378 0 01-.054-.306l1.062-4.986c.192-.888.18-1.554-.036-1.998-.204-.456-.732-.684-1.584-.684-.828 0-1.536.24-2.124.72-.576.468-.954 1.122-1.134 1.962l-1.044 4.986a.538.538 0 01-.18.306.454.454 0 01-.306.108h-.9zm14.426.18c-.816 0-1.494-.174-2.034-.522-.528-.348-.894-.84-1.098-1.476-.204-.648-.246-1.404-.126-2.268.024-.156.06-.354.108-.594.06-.252.114-.456.162-.612.24-.852.594-1.596 1.062-2.232a4.948 4.948 0 011.746-1.494 4.89 4.89 0 012.25-.522c.912 0 1.632.192 2.16.576.528.384.882.93 1.062 1.638.18.708.174 1.536-.018 2.484l-.072.306a.449.449 0 01-.198.306.527.527 0 01-.324.108h-6.21a.295.295 0 01-.018.072.2.2 0 01-.018.09c-.072.492-.06.954.036 1.386.096.42.294.762.594 1.026.312.264.72.396 1.224.396.432 0 .804-.066 1.116-.198.324-.132.588-.276.792-.432.204-.168.348-.294.432-.378.144-.156.246-.246.306-.27a.752.752 0 01.324-.054h.864a.31.31 0 01.252.108c.06.06.078.15.054.27-.048.18-.192.402-.432.666-.228.252-.54.504-.936.756a5.622 5.622 0 01-1.35.63 5.892 5.892 0 01-1.71.234zm-1.26-5.544h4.914l.018-.054c.144-.54.156-1.02.036-1.44a1.723 1.723 0 00-.648-.99c-.324-.252-.744-.378-1.26-.378s-.978.126-1.386.378c-.408.24-.756.57-1.044.99-.276.42-.48.9-.612 1.44l-.018.054zm10.883 5.544c-.66 0-1.212-.114-1.656-.342a2.63 2.63 0 01-1.026-.954c-.24-.408-.39-.87-.45-1.386a6.294 6.294 0 01.036-1.638 16.425 16.425 0 01.234-1.08 7.99 7.99 0 01.594-1.602 5.86 5.86 0 01.936-1.386c.372-.42.816-.744 1.332-.972.528-.24 1.134-.36 1.818-.36.744 0 1.326.126 1.746.378.432.252.75.564.954.936l.9-4.14a.494.494 0 01.162-.288.48.48 0 01.324-.126h.864c.132 0 .228.042.288.126.06.072.078.168.054.288l-2.556 11.952a.585.585 0 01-.162.306.48.48 0 01-.324.108h-.81a.39.39 0 01-.288-.108.378.378 0 01-.054-.306l.162-.756a5.523 5.523 0 01-1.26.972c-.456.252-1.062.378-1.818.378zm.36-1.458c.6 0 1.128-.138 1.584-.414a3.392 3.392 0 001.098-1.044 4.13 4.13 0 00.594-1.314c.06-.192.114-.42.162-.684.06-.276.108-.51.144-.702.084-.42.078-.834-.018-1.242a1.743 1.743 0 00-.594-1.008c-.3-.264-.744-.396-1.332-.396-.564 0-1.056.138-1.476.414-.408.264-.75.618-1.026 1.062a6.19 6.19 0 00-.63 1.404c-.048.18-.09.354-.126.522a6.747 6.747 0 00-.09.522 5.71 5.71 0 00-.036 1.422c.06.432.222.786.486 1.062.276.264.696.396 1.26.396zm15.35 1.458c-.828 0-1.524-.15-2.088-.45-.552-.3-.948-.714-1.188-1.242-.228-.54-.27-1.158-.126-1.854.12-.552.336-1.032.648-1.44.324-.42.714-.792 1.17-1.116.456-.324.942-.618 1.458-.882-.444-.6-.738-1.128-.882-1.584a2.845 2.845 0 01-.036-1.422c.12-.54.36-1.032.72-1.476.372-.444.84-.804 1.404-1.08a4.201 4.201 0 011.872-.414c.66 0 1.206.132 1.638.396.444.264.756.618.936 1.062.192.444.228.942.108 1.494a3.05 3.05 0 01-.666 1.386c-.336.396-.75.75-1.242 1.062-.48.312-.99.606-1.53.882l2.412 3.006c.264-.336.528-.726.792-1.17.276-.444.528-.966.756-1.566.084-.24.24-.36.468-.36h.792c.108 0 .186.036.234.108.06.072.078.162.054.27-.06.264-.156.546-.288.846a10.283 10.283 0 01-1.152 1.962c-.24.324-.51.648-.81.972l1.458 1.818c.084.084.114.174.09.27a.341.341 0 01-.144.252.435.435 0 01-.288.09h-1.008a.649.649 0 01-.288-.054.448.448 0 01-.162-.126l-.936-1.17a7.21 7.21 0 01-1.89 1.116 6.148 6.148 0 01-2.286.414zm.306-1.44c.48 0 .978-.096 1.494-.288a5.746 5.746 0 001.53-.9l-2.664-3.294a8.332 8.332 0 00-1.548.99c-.456.36-.744.81-.864 1.35-.096.456-.06.846.108 1.17.168.312.426.552.774.72.348.168.738.252 1.17.252zm1.116-6.282c.432-.216.834-.432 1.206-.648.372-.216.684-.456.936-.72.264-.264.432-.564.504-.9.096-.48.006-.864-.27-1.152-.276-.288-.66-.432-1.152-.432-.456 0-.894.144-1.314.432a1.815 1.815 0 00-.774 1.17c-.06.312-.036.63.072.954.12.324.384.756.792 1.296zm16.404 7.722c-.708 0-1.35-.096-1.926-.288a3.436 3.436 0 01-1.422-.918c-.372-.408-.63-.924-.774-1.548-.132-.624-.126-1.356.018-2.196.096-.528.198-1.032.306-1.512.108-.492.228-1.002.36-1.53.396-1.668 1.092-2.91 2.088-3.726 1.008-.828 2.268-1.242 3.78-1.242.72 0 1.362.102 1.926.306.576.204 1.05.516 1.422.936.384.42.642.936.774 1.548s.126 1.338-.018 2.178a43.096 43.096 0 01-.306 1.53l-.342 1.512c-.408 1.692-1.116 2.94-2.124 3.744-.996.804-2.25 1.206-3.762 1.206zm.072-1.53c.948 0 1.782-.276 2.502-.828.72-.552 1.23-1.446 1.53-2.682.132-.54.24-1.02.324-1.44.096-.432.192-.912.288-1.44.228-1.236.132-2.13-.288-2.682-.408-.552-1.098-.828-2.07-.828-.96 0-1.794.276-2.502.828-.708.552-1.212 1.446-1.512 2.682a56.707 56.707 0 00-.342 1.44c-.096.42-.192.9-.288 1.44-.216 1.236-.126 2.13.27 2.682.408.552 1.104.828 2.088.828zm6.943 4.77c-.12 0-.21-.042-.27-.126-.072-.072-.096-.168-.072-.288l2.556-11.952a.494.494 0 01.162-.288.48.48 0 01.324-.126h.828c.12 0 .21.042.27.126.06.072.078.168.054.288l-.162.792a5.8 5.8 0 011.26-.99c.456-.264 1.068-.396 1.836-.396.66 0 1.212.12 1.656.36.444.228.78.546 1.008.954.24.396.39.852.45 1.368.072.516.06 1.062-.036 1.638-.024.192-.06.372-.108.54-.036.168-.078.348-.126.54a8.574 8.574 0 01-.594 1.602c-.24.516-.552.984-.936 1.404a4.097 4.097 0 01-1.35.972c-.516.228-1.116.342-1.8.342-.732 0-1.314-.126-1.746-.378-.432-.264-.744-.588-.936-.972l-.9 4.176a.46.46 0 01-.18.288.439.439 0 01-.324.126h-.864zm4.77-4.698c.576 0 1.068-.132 1.476-.396.42-.276.762-.63 1.026-1.062.276-.444.486-.918.63-1.422.06-.18.108-.354.144-.522.036-.168.066-.342.09-.522.072-.504.078-.972.018-1.404-.048-.444-.21-.798-.486-1.062-.264-.276-.684-.414-1.26-.414-.6 0-1.128.138-1.584.414-.444.276-.81.63-1.098 1.062-.288.42-.486.852-.594 1.296-.048.192-.102.42-.162.684l-.126.702c-.072.42-.072.834 0 1.242.084.408.282.744.594 1.008s.756.396 1.332.396zm10.148 1.458c-.816 0-1.494-.174-2.034-.522-.528-.348-.894-.84-1.098-1.476-.204-.648-.246-1.404-.126-2.268.024-.156.06-.354.108-.594.06-.252.114-.456.162-.612.24-.852.594-1.596 1.062-2.232a4.948 4.948 0 011.746-1.494 4.89 4.89 0 012.25-.522c.912 0 1.632.192 2.16.576.528.384.882.93 1.062 1.638.18.708.174 1.536-.018 2.484l-.072.306a.449.449 0 01-.198.306.527.527 0 01-.324.108h-6.21a.295.295 0 01-.018.072.2.2 0 01-.018.09c-.072.492-.06.954.036 1.386.096.42.294.762.594 1.026.312.264.72.396 1.224.396.432 0 .804-.066 1.116-.198.324-.132.588-.276.792-.432.204-.168.348-.294.432-.378.144-.156.246-.246.306-.27a.752.752 0 01.324-.054h.864a.31.31 0 01.252.108c.06.06.078.15.054.27-.048.18-.192.402-.432.666-.228.252-.54.504-.936.756a5.622 5.622 0 01-1.35.63 5.892 5.892 0 01-1.71.234zm-1.26-5.544h4.914l.018-.054c.144-.54.156-1.02.036-1.44a1.723 1.723 0 00-.648-.99c-.324-.252-.744-.378-1.26-.378s-.978.126-1.386.378c-.408.24-.756.57-1.044.99-.276.42-.48.9-.612 1.44l-.018.054zm7.787 5.364a.39.39 0 01-.288-.108.378.378 0 01-.054-.306l1.818-8.514a.538.538 0 01.18-.306.48.48 0 01.324-.126h.828c.12 0 .21.042.27.126a.343.343 0 01.072.306l-.18.792a2.562 2.562 0 011.098-.918c.468-.204 1.008-.306 1.62-.306h.774c.12 0 .204.042.252.126.06.072.078.168.054.288l-.144.738a.46.46 0 01-.18.288.48.48 0 01-.324.108h-1.062c-.648 0-1.2.192-1.656.576-.456.372-.756.882-.9 1.53l-1.116 5.292a.538.538 0 01-.18.306.527.527 0 01-.324.108h-.882zm9.897.18c-.66 0-1.206-.114-1.638-.342a2.528 2.528 0 01-.99-.954 3.682 3.682 0 01-.432-1.386 6.908 6.908 0 01.054-1.638 16.425 16.425 0 01.234-1.08 8.751 8.751 0 01.576-1.602c.24-.516.54-.978.9-1.386.372-.42.816-.744 1.332-.972.528-.24 1.14-.36 1.836-.36.768 0 1.344.132 1.728.396.396.252.702.564.918.936l.144-.738a.502.502 0 01.504-.414h.81c.12 0 .21.042.27.126.072.072.096.168.072.288l-1.818 8.532a.538.538 0 01-.18.306.454.454 0 01-.306.108h-.828c-.12 0-.21-.036-.27-.108a.378.378 0 01-.054-.306l.162-.756c-.372.384-.78.708-1.224.972-.432.252-1.032.378-1.8.378zm.378-1.458c.6 0 1.116-.138 1.548-.414a3.455 3.455 0 001.08-1.044 4.35 4.35 0 00.576-1.314c.048-.192.096-.42.144-.684.06-.276.108-.51.144-.702.096-.42.102-.834.018-1.242a1.694 1.694 0 00-.558-1.008c-.288-.264-.726-.396-1.314-.396-.564 0-1.05.138-1.458.414a3.244 3.244 0 00-.99 1.062c-.252.432-.456.9-.612 1.404-.048.18-.09.354-.126.522a6.747 6.747 0 00-.09.522c-.072.504-.09.978-.054 1.422.036.432.186.786.45 1.062.264.264.678.396 1.242.396zm10.457 1.278c-.792 0-1.38-.126-1.764-.378a1.567 1.567 0 01-.684-1.098c-.06-.48-.024-1.044.108-1.692l1.008-4.752h-1.404c-.12 0-.21-.036-.27-.108a.378.378 0 01-.054-.306l.126-.612a.46.46 0 01.18-.288.48.48 0 01.324-.126h1.404l.648-3.006a.494.494 0 01.162-.288.48.48 0 01.324-.126h.846c.12 0 .21.042.27.126.06.072.078.168.054.288l-.648 3.006h2.25c.12 0 .21.042.27.126.06.072.078.168.054.288l-.144.612a.538.538 0 01-.18.306.454.454 0 01-.306.108h-2.232l-.99 4.626a9.58 9.58 0 00-.144.972c-.024.276.036.486.18.63.144.144.414.216.81.216h1.188c.12 0 .204.042.252.126.06.072.078.168.054.288l-.126.648a.538.538 0 01-.18.306.48.48 0 01-.324.108h-1.062zm7.106.18c-.816 0-1.494-.174-2.034-.522-.528-.348-.894-.84-1.098-1.476-.204-.648-.246-1.404-.126-2.268.024-.156.06-.354.108-.594.06-.252.114-.456.162-.612.24-.852.594-1.596 1.062-2.232a4.948 4.948 0 011.746-1.494 4.89 4.89 0 012.25-.522c.912 0 1.632.192 2.16.576.528.384.882.93 1.062 1.638.18.708.174 1.536-.018 2.484l-.072.306a.449.449 0 01-.198.306.527.527 0 01-.324.108h-6.21a.295.295 0 01-.018.072.2.2 0 01-.018.09c-.072.492-.06.954.036 1.386.096.42.294.762.594 1.026.312.264.72.396 1.224.396.432 0 .804-.066 1.116-.198.324-.132.588-.276.792-.432.204-.168.348-.294.432-.378.144-.156.246-.246.306-.27a.752.752 0 01.324-.054h.864a.31.31 0 01.252.108c.06.06.078.15.054.27-.048.18-.192.402-.432.666-.228.252-.54.504-.936.756a5.622 5.622 0 01-1.35.63 5.892 5.892 0 01-1.71.234zm-1.26-5.544h4.914l.018-.054c.144-.54.156-1.02.036-1.44a1.723 1.723 0 00-.648-.99c-.324-.252-.744-.378-1.26-.378s-.978.126-1.386.378c-.408.24-.756.57-1.044.99-.276.42-.48.9-.612 1.44l-.018.054zm10.883 5.544c-.66 0-1.212-.114-1.656-.342a2.63 2.63 0 01-1.026-.954c-.24-.408-.39-.87-.45-1.386a6.294 6.294 0 01.036-1.638 16.425 16.425 0 01.234-1.08 7.99 7.99 0 01.594-1.602 5.86 5.86 0 01.936-1.386c.372-.42.816-.744 1.332-.972.528-.24 1.134-.36 1.818-.36.744 0 1.326.126 1.746.378.432.252.75.564.954.936l.9-4.14a.494.494 0 01.162-.288.48.48 0 01.324-.126h.864c.132 0 .228.042.288.126.06.072.078.168.054.288l-2.556 11.952a.585.585 0 01-.162.306.48.48 0 01-.324.108h-.81a.39.39 0 01-.288-.108.378.378 0 01-.054-.306l.162-.756a5.523 5.523 0 01-1.26.972c-.456.252-1.062.378-1.818.378zm.36-1.458c.6 0 1.128-.138 1.584-.414a3.392 3.392 0 001.098-1.044 4.13 4.13 0 00.594-1.314c.06-.192.114-.42.162-.684.06-.276.108-.51.144-.702.084-.42.078-.834-.018-1.242a1.743 1.743 0 00-.594-1.008c-.3-.264-.744-.396-1.332-.396-.564 0-1.056.138-1.476.414-.408.264-.75.618-1.026 1.062a6.19 6.19 0 00-.63 1.404c-.048.18-.09.354-.126.522a6.747 6.747 0 00-.09.522 5.71 5.71 0 00-.036 1.422c.06.432.222.786.486 1.062.276.264.696.396 1.26.396z" fill="#A78438"/></svg>