<svg width="93" height="93" fill="none" xmlns="http://www.w3.org/2000/svg"><path d="M91.832 16.874l-18.6-7.44a1.86 1.86 0 00-1.384 0l-18.6 7.44A1.86 1.86 0 0052.08 18.6v19.225a20.568 20.568 0 009.936 17.55l9.568 5.74a1.86 1.86 0 001.912 0l8.344-5.006V76.94a3.054 3.054 0 01-3.05 3.05H6.77a3.054 3.054 0 01-3.05-3.05v-41.6H46.5a1.86 1.86 0 000-3.72H3.72v-4.39a3.054 3.054 0 013.05-3.05H46.5a1.86 1.86 0 000-3.72H6.77A6.774 6.774 0 000 27.23v49.7a6.774 6.774 0 006.77 6.77h72.02a6.774 6.774 0 006.77-6.77V53.567A20.568 20.568 0 0093 37.818V18.6a1.86 1.86 0 00-1.168-1.726zm-2.552 20.95a16.822 16.822 0 01-8.132 14.36l-8.608 5.167-8.608-5.167a16.823 16.823 0 01-8.132-14.36V19.858l16.74-6.696 16.74 6.696v17.968z" fill="#A78438"/><path d="M66.416 32.483a1.86 1.86 0 10-2.634 2.63l4.963 4.959a1.86 1.86 0 002.63 0l9.921-9.922a1.86 1.86 0 10-2.634-2.63l-8.604 8.609-3.642-3.646zM13.02 68.82a1.86 1.86 0 000 3.72H27.9a1.86 1.86 0 100-3.72H13.02z" fill="#A78438"/></svg>