<svg width="96" height="96" fill="none" xmlns="http://www.w3.org/2000/svg"><path d="M32.886 35.172c-15.39 0-27.89 12.522-27.89 27.916 0 15.393 12.5 27.915 27.89 27.915S60.795 78.48 60.795 63.088c0-15.394-12.52-27.916-27.91-27.916zm0 52.767c-13.687 0-24.827-11.143-24.827-24.851 0-13.709 11.14-24.833 24.827-24.833 13.686 0 24.846 11.143 24.846 24.852s-11.14 24.832-24.846 24.832zm1.531-7.045v3.408c0 .842-.689 1.531-1.531 1.531s-1.532-.689-1.532-1.531v-3.408c0-.843.69-1.532 1.532-1.532.842 0 1.531.69 1.531 1.532zM20.96 45.474a1.53 1.53 0 01.555-2.088 1.53 1.53 0 012.087.555l1.704 2.949a1.53 1.53 0 01-.556 2.087 1.59 1.59 0 01-.765.21c-.536 0-1.053-.268-1.321-.765l-1.704-2.949zm4.346 33.811l-1.704 2.949a1.525 1.525 0 01-1.32.766c-.269 0-.518-.058-.767-.21a1.53 1.53 0 01-.555-2.088l1.704-2.948a1.53 1.53 0 012.086-.556 1.53 1.53 0 01.556 2.087zm19.524 1.417a1.53 1.53 0 01-.555 2.087 1.59 1.59 0 01-.765.21c-.536 0-1.053-.267-1.321-.765l-1.704-2.949a1.53 1.53 0 01.555-2.087 1.53 1.53 0 012.087.556l1.703 2.948zM15.084 64.62h-3.407a1.536 1.536 0 01-1.532-1.531c0-.843.69-1.532 1.532-1.532h3.407c.842 0 1.531.69 1.531 1.532 0 .842-.689 1.531-1.531 1.531zm3.713 6.606a1.53 1.53 0 01-.555 2.087l-2.967 1.723a1.59 1.59 0 01-.765.21c-.536 0-1.053-.267-1.321-.765a1.53 1.53 0 01.555-2.087l2.948-1.704a1.525 1.525 0 012.105.536zm0-16.274a1.525 1.525 0 01-1.32.765c-.268 0-.517-.057-.766-.21l-2.967-1.704a1.53 1.53 0 01-.555-2.087 1.53 1.53 0 012.086-.555l2.948 1.704a1.52 1.52 0 01.574 2.087zm28.752-2.087l2.947-1.704a1.53 1.53 0 012.087.555 1.53 1.53 0 01-.555 2.087l-2.948 1.704a1.59 1.59 0 01-.766.21c-.536 0-1.053-.268-1.32-.766a1.53 1.53 0 01.555-2.086zm-16.194-7.582v-3.408c0-.843.689-1.532 1.53-1.532.843 0 1.532.69 1.532 1.532v3.408c0 .842-.689 1.531-1.531 1.531s-1.532-.689-1.532-1.531zm19.333 16.274h3.407c.842 0 1.531.69 1.531 1.532 0 .842-.689 1.531-1.53 1.531h-3.408a1.536 1.536 0 01-1.532-1.531c0-.843.69-1.532 1.532-1.532zm1.895 12.904a1.525 1.525 0 01-1.32.766c-.269 0-.518-.057-.767-.21l-2.947-1.704a1.53 1.53 0 01-.556-2.087 1.53 1.53 0 012.087-.555l2.948 1.704a1.53 1.53 0 01.555 2.087zM44.83 45.474l-1.703 2.949a1.525 1.525 0 01-1.321.766c-.268 0-.517-.058-.766-.211a1.53 1.53 0 01-.555-2.087l1.704-2.949a1.53 1.53 0 012.086-.555 1.53 1.53 0 01.555 2.087zm-2.45 19.338c.842 0 1.532-.69 1.532-1.532 0-.842-.69-1.532-1.532-1.532h-4.862a4.818 4.818 0 00-4.632-3.465c-.364 0-.708.038-1.053.115l-4.096-7.084a1.53 1.53 0 00-2.087-.556 1.53 1.53 0 00-.555 2.087l4.116 7.142a4.849 4.849 0 00-1.149 3.12 4.829 4.829 0 004.824 4.826 4.811 4.811 0 004.498-3.102h4.996v-.02zm-9.494.038a1.748 1.748 0 01-1.742-1.742 1.753 1.753 0 013.503 0c0 .957-.785 1.742-1.761 1.742zm61.311-51.771c-.23-.536-.765-.9-1.34-.92l-3.522-.133a19.53 19.53 0 00-1.033-1.436l.976-3.39c.172-.554 0-1.167-.44-1.57a22.324 22.324 0 00-3.159-2.373 22.693 22.693 0 00-3.541-1.78 1.55 1.55 0 00-1.608.305l-2.584 2.394a14.054 14.054 0 00-1.761-.287L74.5.805a1.569 1.569 0 00-1.416-.804c-2.66.134-5.245.747-7.676 1.8-.536.23-.9.765-.919 1.34l-.134 3.523c-.498.325-.976.67-1.436 1.034l-3.368-.996a1.511 1.511 0 00-1.57.44 21.452 21.452 0 00-2.374 3.179 22.72 22.72 0 00-1.78 3.542 1.51 1.51 0 00.306 1.589l2.393 2.585c-.115.574-.21 1.168-.287 1.761l-3.082 1.685a1.517 1.517 0 00-.785 1.417 22.066 22.066 0 001.8 7.677c.23.536.765.9 1.34.92l3.522.133c.325.498.67.977 1.033 1.456l-.976 3.37c-.172.554 0 1.167.44 1.57.977.88 2.049 1.684 3.159 2.373a21.146 21.146 0 003.541 1.781 1.55 1.55 0 001.608-.306l2.584-2.394c.574.115 1.168.211 1.761.288l1.685 3.082c.268.498.784.804 1.34.804h.076a21.832 21.832 0 007.695-1.8c.536-.23.9-.765.92-1.34l.133-3.523c.498-.325.976-.67 1.436-1.033l3.369.995c.574.172 1.167 0 1.57-.44.88-.958 1.665-2.03 2.373-3.16a21.144 21.144 0 001.78-3.542 1.51 1.51 0 00-.306-1.589l-2.412-2.604c.115-.574.21-1.167.287-1.761l3.082-1.685c.517-.287.823-.842.785-1.417a21.646 21.646 0 00-1.8-7.677zm-4.25 8.482a1.494 1.494 0 00-.784 1.244 15.56 15.56 0 01-.46 2.853c-.133.517 0 1.053.364 1.436l2.278 2.47a21.174 21.174 0 01-1.148 2.163c-.44.709-.919 1.379-1.436 2.01l-3.216-.938a1.51 1.51 0 00-1.435.326c-.709.632-1.513 1.187-2.355 1.685a1.53 1.53 0 00-.765 1.263l-.134 3.35c-1.551.595-3.14.958-4.786 1.13l-1.608-2.929a1.496 1.496 0 00-1.244-.785 15.562 15.562 0 01-2.852-.46 1.495 1.495 0 00-1.436.345l-2.47 2.279a19.95 19.95 0 01-2.181-1.168c-.69-.421-1.36-.9-1.991-1.417l.938-3.217a1.51 1.51 0 00-.326-1.436 14.672 14.672 0 01-1.684-2.335 1.534 1.534 0 00-1.264-.766l-3.35-.134a19.383 19.383 0 01-1.129-4.787l2.929-1.608c.46-.249.766-.728.785-1.245.057-.957.21-1.914.46-2.852.133-.517 0-1.053-.364-1.436l-2.278-2.47a21.4 21.4 0 011.148-2.164c.44-.689.919-1.378 1.436-2.01l3.216.938a1.51 1.51 0 001.435-.325c.709-.632 1.513-1.188 2.355-1.685.46-.268.746-.747.766-1.264l.133-3.35c1.55-.575 3.14-.958 4.786-1.13l1.608 2.93c.249.459.727.765 1.244.784.938.058 1.895.21 2.852.46a1.54 1.54 0 001.436-.364l2.47-2.26c.765.345 1.492.728 2.181 1.169.69.42 1.36.9 1.991 1.416l-.919 3.217a1.51 1.51 0 00.326 1.436c.65.727 1.206 1.512 1.684 2.336.268.46.747.746 1.264.766l3.35.134a19.58 19.58 0 011.129 4.786l-2.948 1.608zm-9.34-10.11a12.113 12.113 0 00-9.227-1.512 12.152 12.152 0 00-7.6 5.456c-3.54 5.725-1.78 13.269 3.944 16.83a12.106 12.106 0 006.413 1.838c4.096 0 8.097-2.049 10.413-5.782a12.12 12.12 0 001.512-9.229c-.746-3.197-2.68-5.897-5.455-7.6zm1.34 15.202c-2.661 4.29-8.308 5.63-12.596 2.968-4.288-2.661-5.608-8.31-2.967-12.598a9.058 9.058 0 015.685-4.097 8.904 8.904 0 012.106-.25c1.684 0 3.33.46 4.805 1.38 2.086 1.282 3.522 3.311 4.096 5.686a9.14 9.14 0 01-1.13 6.911zm-49.061 3.562C14.758 30.214 0 44.975 0 63.107 0 81.238 14.758 96 32.886 96c18.127 0 32.886-14.762 32.886-32.893 0-18.15-14.759-32.893-32.886-32.893zm0 62.704c-16.443 0-29.823-13.384-29.823-29.811 0-16.447 13.38-29.83 29.823-29.83 16.443 0 29.823 13.364 29.823 29.81 0 16.447-13.38 29.83-29.823 29.83zm59.359-41.146c.44.594.306 1.436-.287 1.877a1.34 1.34 0 01-.785.268c-.421 0-.823-.192-1.072-.556l-2.66-3.58v18.591c0 .747-.594 1.34-1.34 1.34H68.45c-.746 0-1.34-.593-1.34-1.34 0-.747.594-1.34 1.34-1.34h16.31V49.78l-2.642 3.58a1.345 1.345 0 01-1.876.288 1.345 1.345 0 01-.287-1.877l5.053-6.873c.25-.345.651-.556 1.072-.556.421 0 .823.211 1.072.537l5.092 6.892zM33.039 21.79a1.345 1.345 0 01.287-1.876 1.345 1.345 0 011.876.287l2.642 3.6V5.19c0-.747.593-1.34 1.34-1.34H53.75c.746 0 1.34.593 1.34 1.34 0 .746-.594 1.34-1.34 1.34H40.523v17.25l2.641-3.58a1.345 1.345 0 011.876-.287c.593.44.727 1.283.287 1.876l-5.053 6.874c-.25.344-.651.555-1.072.555a1.37 1.37 0 01-1.072-.536l-5.092-6.893z" fill="#A78438"/></svg>