<svg width="70" height="78" fill="none" xmlns="http://www.w3.org/2000/svg"><path d="M55.362 55.217l-7.217-2.406-2.59-5.181c2.334-2.376 3.954-5.52 4.5-8.798l.324-1.936h2.763a4.56 4.56 0 004.555-4.555v-9.566C57.697 10.217 47.48 0 34.922 0c-12.59 0-22.775 10.188-22.775 22.775v9.566a4.564 4.564 0 003.036 4.294v1.78a4.56 4.56 0 004.555 4.554h1.334a16.472 16.472 0 003.216 4.664l-2.59 5.178-7.216 2.406C6.09 58.015 0 66.848 0 76.22c0 .838.68 1.518 1.518 1.518h66.807c.839 0 1.519-.68 1.519-1.518 0-9.373-6.09-18.206-14.482-21.005zM54.66 32.34a1.52 1.52 0 01-1.518 1.518h-2.317c.386-2.99.643-6.171.746-9.304l.009-.261h3.08v8.047zm-37.958 1.518a1.52 1.52 0 01-1.519-1.518v-8.047h3.082c.005.158.01.317.017.477v.02a98.6 98.6 0 00.738 9.07h-2.318zm3.036 6.073a1.52 1.52 0 01-1.518-1.518v-1.518h1.245l.323 1.937c.062.368.137.735.225 1.1h-.275zm-1.515-18.675H15.24c.77-10.176 9.262-18.22 19.68-18.22 10.374 0 18.904 8.043 19.681 18.22h-2.98c-.11-8.386-6.939-15.184-15.341-15.184h-2.718c-8.402 0-15.231 6.798-15.34 15.184zM33.563 9.11h2.718c6.803 0 12.31 5.565 12.306 12.36 0 .479-.004.895-.012 1.273v.015l-1.9-.271a24.397 24.397 0 01-13.716-6.859 1.519 1.519 0 00-1.074-.445 13.737 13.737 0 00-10.561 4.997c.636-6.183 5.862-11.07 12.239-11.07zM23.161 39.932c-.76-2.528-1.63-9.968-1.822-14.736l2.043-2.724a10.687 10.687 0 017.903-4.235 27.463 27.463 0 0014.961 7.256l2.236.32a93.462 93.462 0 01-.892 9.28v.002c-.14.941-.25 1.547-.53 3.238-.804 4.823-4.403 9.184-9.153 10.372a12.35 12.35 0 01-5.97 0c-2.966-.741-5.686-2.794-7.441-5.736h3.095a4.562 4.562 0 004.294 3.037h3.037a4.554 4.554 0 004.555-4.555 4.56 4.56 0 00-4.555-4.555h-3.037a4.557 4.557 0 00-4.296 3.036H23.16zm8.596 11.846a15.33 15.33 0 005.648.127l-2.683 2.837-2.965-2.964zm.878 5.172l-4.816 5.093a57.86 57.86 0 01-3.4-7.883l1.809-3.617 6.407 6.407zm10.724-6.922l2.065 4.132a57.853 57.853 0 01-3.4 7.885L36.87 56.89l6.489-6.862zm-12.992-8.577c0-.839.68-1.519 1.518-1.519h3.037a1.519 1.519 0 010 3.037h-3.037a1.52 1.52 0 01-1.518-1.518zM3.097 74.702c.602-7.521 5.608-14.358 12.345-16.605l6.391-2.13a60.862 60.862 0 004.322 9.375l.008.015a60.868 60.868 0 004.157 6.347l1.867 2.998H3.097zm31.825-1.353l-2.06-3.306a1.556 1.556 0 00-.073-.108 57.907 57.907 0 01-3.421-5.11l5.415-5.727 5.705 5.706a57.816 57.816 0 01-3.433 5.13c-.074.1.031-.056-2.133 3.415zm2.734 1.353l1.868-2.998a60.852 60.852 0 004.185-6.397l.023-.04.002-.005a60.812 60.812 0 004.277-9.294l6.39 2.13c6.738 2.246 11.744 9.083 12.345 16.604h-29.09z" fill="#A78438"/></svg>