<svg width="96" height="96" fill="none" xmlns="http://www.w3.org/2000/svg"><g clip-path="url(#clip0_177_1989)"><path d="M76.8 38.4c10.588 0 19.2-8.612 19.2-19.2C96 8.613 87.388 0 76.8 0c-7.688 0-14.317 4.552-17.38 11.095l-5.142-1.898c.061-.394.122-.788.122-1.197 0-4.41-3.59-8-8-8s-8 3.59-8 8 3.59 8 8 8c2.866 0 5.365-1.528 6.777-3.798l5.133 1.894a19.084 19.084 0 00-.71 5.104c0 2.096.348 4.109.973 5.998l-17.597 7.458C37.754 26.565 31.359 22.4 24 22.4c-2.384 0-4.66.458-6.768 1.255l-4.426-9.301C14.734 12.89 16 10.6 16 8c0-4.41-3.59-8-8-8S0 3.59 0 8s3.59 8 8 8a7.87 7.87 0 001.923-.26l4.42 9.29C8.647 28.366 4.8 34.535 4.8 41.6c0 6.637 3.386 12.494 8.519 15.944l-2.927 5.26C9.63 62.565 8.838 62.4 8 62.4c-4.41 0-8 3.59-8 8s3.59 8 8 8 8-3.59 8-8c0-2.423-1.105-4.571-2.81-6.038l2.932-5.272A19.051 19.051 0 0024 60.8c4.39 0 8.429-1.498 11.667-3.987l6.298 6.928C38.77 67.17 36.8 71.754 36.8 76.8c0 .979.098 1.933.238 2.872l-7.41 1.758c-1.274-2.726-4.025-4.63-7.228-4.63-4.41 0-8 3.59-8 8s3.59 8 8 8 8-3.59 8-8c0-.088-.024-.171-.026-.26l7.396-1.753C40.29 90.45 47.504 96 56 96c10.588 0 19.2-8.612 19.2-19.2 0-3.283-.83-6.374-2.29-9.078l9.399-6.111A7.976 7.976 0 0088 64c4.41 0 8-3.59 8-8s-3.59-8-8-8-8 3.59-8 8c0 1.034.213 2.016.571 2.923l-9.42 6.125A19.306 19.306 0 0064 59.368l7.81-21.65a19.11 19.11 0 004.99.682zM46.4 12.8A4.806 4.806 0 0141.6 8c0-2.646 2.154-4.8 4.8-4.8s4.8 2.154 4.8 4.8-2.154 4.8-4.8 4.8zM3.2 8c0-2.646 2.154-4.8 4.8-4.8s4.8 2.154 4.8 4.8-2.154 4.8-4.8 4.8A4.806 4.806 0 013.2 8zM8 75.2a4.806 4.806 0 01-4.8-4.8c0-2.646 2.154-4.8 4.8-4.8s4.8 2.154 4.8 4.8-2.154 4.8-4.8 4.8zm14.4 14.4a4.806 4.806 0 01-4.8-4.8c0-2.646 2.154-4.8 4.8-4.8s4.8 2.154 4.8 4.8-2.154 4.8-4.8 4.8zM88 51.2c2.646 0 4.8 2.154 4.8 4.8s-2.154 4.8-4.8 4.8a4.806 4.806 0 01-4.8-4.8c0-2.646 2.154-4.8 4.8-4.8zM67.377 32.102c.714-3.7 3.977-6.502 7.823-6.502h3.2c3.846 0 7.109 2.802 7.823 6.502A15.897 15.897 0 0176.8 35.2c-3.525 0-6.776-1.16-9.423-3.098zM76.8 22.4a4.806 4.806 0 01-4.8-4.8c0-2.646 2.154-4.8 4.8-4.8s4.8 2.154 4.8 4.8-2.154 4.8-4.8 4.8zm0-19.2c8.823 0 16 7.177 16 16 0 4-1.487 7.655-3.923 10.463a11.334 11.334 0 00-6.371-6.472A7.96 7.96 0 0084.8 17.6c0-4.41-3.59-8-8-8s-8 3.59-8 8a7.96 7.96 0 002.294 5.59 11.334 11.334 0 00-6.37 6.473C62.286 26.855 60.8 23.2 60.8 19.2c0-8.823 7.177-16 16-16zM8 41.6c0-8.823 7.177-16 16-16s16 7.177 16 16c0 4.012-1.496 7.677-3.945 10.488a11.336 11.336 0 00-6.38-6.497A7.965 7.965 0 0031.968 40c0-4.41-3.59-8-8-8-4.411 0-8 3.59-8 8a7.96 7.96 0 002.294 5.59 11.331 11.331 0 00-6.363 6.447C9.477 49.232 8 45.589 8 41.6zM19.168 40c0-2.646 2.154-4.8 4.8-4.8s4.8 2.154 4.8 4.8-2.154 4.8-4.8 4.8a4.806 4.806 0 01-4.8-4.8zm-4.617 14.481C15.27 50.791 18.53 48 22.368 48h3.2c3.853 0 7.122 2.81 7.826 6.523A15.891 15.891 0 0124 57.6a15.888 15.888 0 01-9.45-3.119zm32 35.2c.72-3.69 3.979-6.481 7.817-6.481h3.2c3.853 0 7.122 2.81 7.826 6.523A15.892 15.892 0 0156 92.8a15.888 15.888 0 01-9.45-3.119zM55.968 80a4.806 4.806 0 01-4.8-4.8c0-2.646 2.154-4.8 4.8-4.8s4.8 2.154 4.8 4.8-2.154 4.8-4.8 4.8zM72 76.8c0 4.013-1.496 7.677-3.945 10.488a11.336 11.336 0 00-6.38-6.497 7.965 7.965 0 002.293-5.591c0-4.41-3.59-8-8-8-4.411 0-8 3.59-8 8a7.96 7.96 0 002.294 5.59 11.331 11.331 0 00-6.363 6.447C41.477 84.432 40 80.789 40 76.8c0-8.823 7.177-16 16-16s16 7.177 16 16zM60.99 58.281A19.135 19.135 0 0056 57.6c-4.39 0-8.429 1.498-11.667 3.987l-6.298-6.928C41.23 51.23 43.2 46.646 43.2 41.6c0-2.096-.348-4.109-.973-5.998l17.597-7.458a19.304 19.304 0 008.978 8.488l-7.811 21.65z" fill="#A78438"/></g><defs><clipPath id="clip0_177_1989"><path fill="#fff" d="M0 0h96v96H0z"/></clipPath></defs></svg>