<svg width="22" height="22" fill="none" xmlns="http://www.w3.org/2000/svg"><path fill-rule="evenodd" clip-rule="evenodd" d="M9.311.25c-.114 0-.202 0-.286.005a2.75 2.75 0 00-2.385 1.72c-.031.077-.059.16-.095.27l-.006.018-.026.077-.029.085c-.16.442-.691.811-1.253.825l-1.82.09c-.786.092-1.459.288-2.028.751a4 4 0 00-.542.542c-.463.57-.66 1.242-.752 2.03C0 7.422 0 8.376 0 9.562v.077c0 .284 0 .55.023.774.025.248.083.512.24.766a1.66 1.66 0 00.737.64c.003 1.616.024 3.248.169 4.646.085.82.215 1.59.422 2.245.203.645.503 1.256.979 1.678.823.732 1.86 1.055 3.153 1.21 1.27.151 2.898.151 4.976.151h.102c2.078 0 3.706 0 4.976-.152 1.293-.154 2.33-.477 3.153-1.209.476-.422.776-1.033.98-1.678.206-.656.336-1.425.421-2.245.145-1.398.166-3.03.169-4.646a1.66 1.66 0 00.736-.64c.158-.254.216-.518.241-.766.023-.224.023-.49.023-.774v-.078c0-1.185 0-2.14-.09-2.9-.092-.787-.288-1.46-.751-2.029a4 4 0 00-.542-.542c-.57-.463-1.242-.66-2.029-.752L16.27 3.25c-.562-.014-1.093-.383-1.253-.825l-.029-.085-.032-.097c-.036-.107-.063-.19-.095-.269A2.75 2.75 0 0012.191.25h-2.88zm-2.99 4.5h8.859c1.222 0 2.078.002 2.733.08.646.075.999.215 1.257.425.12.097.228.206.325.325.21.258.35.611.426 1.257.078.662.079 1.53.079 2.772 0 .326 0 .515-.015.654a.497.497 0 01-.023.125l-.024.033a.496.496 0 01-.114.058 6.68 6.68 0 01-.622.202L14 12.242V12c0-.69-.56-1.25-1.25-1.25h-4c-.69 0-1.25.56-1.25 1.25v.242l-5.202-1.56a6.965 6.965 0 01-.622-.203.494.494 0 01-.114-.058L7.5 12.242l-5.962-1.854a.5.5 0 01-.023-.125A7 7 0 011.5 9.61c0-1.243.001-2.11.079-2.772.076-.646.216-.999.426-1.257a2.3 2.3 0 01.325-.325c.258-.21.611-.35 1.257-.426.655-.077 1.511-.079 2.734-.079zm3.009-3c-.143 0-.183 0-.215.002a1.25 1.25 0 00-1.084.782 3.994 3.994 0 00-.07.203l-.029.085-.038.113c-.04.11-.087.214-.14.315h5.99a2.5 2.5 0 01-.178-.428l-.028-.085a4.034 4.034 0 00-.07-.203 1.25 1.25 0 00-1.085-.782 4.002 4.002 0 00-.215-.002H9.33zM2.502 12.31c.007 1.436.036 2.816.159 4.002.08.77.196 1.427.36 1.948.168.53.362.845.545 1.008.495.44 1.178.703 2.335.84 1.17.14 2.709.142 4.849.142s3.678 0 4.849-.14c1.157-.139 1.84-.403 2.335-.842.183-.163.377-.478.545-1.008.164-.52.28-1.178.36-1.948.123-1.186.152-2.567.159-4.003L14 13.81v.353c0 .51-.311.97-.786 1.16l-.7.28a4.75 4.75 0 01-3.528 0l-.7-.28a1.25 1.25 0 01-.786-1.16v-.354L2.502 12.31zM9 12.25v1.742l.543.217c.775.31 1.64.31 2.414 0l.543-.217V12.25H9z" fill="#7C7C7C"/></svg>