<svg width="26" height="26" fill="none" xmlns="http://www.w3.org/2000/svg"><g clip-path="url(#clip0_477_199)" fill="#7C7C7C"><path d="M10.833 12.278H13v1.444h-2.167v-1.444z"/><path d="M19.103 10.234a15.962 15.962 0 00-5.106-5.178 6.963 6.963 0 00-6.5-.506 6.211 6.211 0 00-3.482 4.622c-.057.34-.1.665-.144.982A2.889 2.889 0 001.444 13v4.427a1.444 1.444 0 001.445 1.445V13a1.444 1.444 0 011.444-1.444H17.86a5.257 5.257 0 015.251 5.25v.527h-1.444a3.272 3.272 0 10.238 1.445h1.206a1.445 1.445 0 001.444-1.445v-.527a6.702 6.702 0 00-5.452-6.572zM7.944 10.11h-2.94c0-.224.066-.455.11-.722a4.709 4.709 0 012.83-3.611v4.333zm1.445 0V5.474a5.9 5.9 0 013.87.838 13.723 13.723 0 014.002 3.8H9.389zm9.244 10.386a1.805 1.805 0 110-3.611 1.805 1.805 0 010 3.61z"/><path d="M10.234 17.333a3.272 3.272 0 10.238 1.445H14.3v-.18a4.332 4.332 0 01.145-1.265h-4.211zm-3.012 3.164a1.806 1.806 0 110-3.611 1.806 1.806 0 010 3.61z"/></g><defs><clipPath id="clip0_477_199"><path fill="#fff" d="M0 0h26v26H0z"/></clipPath></defs></svg>