<svg width="47" height="46" fill="none" xmlns="http://www.w3.org/2000/svg"><path d="M17.624 20.604c-2.977 0-5.386-2.357-5.386-5.27 0-2.914 2.409-5.271 5.386-5.271 2.976 0 5.385 2.357 5.385 5.27 0 2.914-2.409 5.271-5.385 5.271zm0-7.666c-1.352 0-2.448 1.073-2.448 2.395 0 1.323 1.096 2.396 2.448 2.396 1.35 0 2.448-1.073 2.448-2.396 0-1.322-1.097-2.396-2.448-2.396z" fill="#A78438"/><path d="M29.374 43.604h-11.75c-10.633 0-15.177-4.447-15.177-14.854v-11.5c0-10.408 4.544-14.854 15.177-14.854h7.834c.803 0 1.468.651 1.468 1.437s-.665 1.438-1.468 1.438h-7.834c-9.028 0-12.24 3.143-12.24 11.979v11.5c0 8.836 3.212 11.98 12.24 11.98h11.75c9.028 0 12.24-3.144 12.24-11.98v-9.583c0-.786.666-1.438 1.469-1.438s1.468.652 1.468 1.438v9.583c0 10.407-4.543 14.854-15.177 14.854z" fill="#A78438"/><path d="M35.25 16.77c-.803 0-1.469-.651-1.469-1.437v-11.5c0-.575.353-1.112.901-1.322a1.544 1.544 0 011.606.306l3.917 3.834a1.424 1.424 0 010 2.031 1.5 1.5 0 01-2.076 0l-1.41-1.38v8.031c0 .786-.666 1.438-1.469 1.438z" fill="#A78438"/><path d="M31.333 9.104c-.372 0-.744-.134-1.038-.422a1.424 1.424 0 010-2.031l3.917-3.834a1.5 1.5 0 012.076 0 1.424 1.424 0 010 2.032L32.37 8.682a1.469 1.469 0 01-1.038.422zM5.227 37.758c-.47 0-.94-.23-1.214-.632a1.424 1.424 0 01.392-1.993l9.654-6.345c2.115-1.38 5.033-1.226 6.953.365l.646.556c.979.824 2.644.824 3.603 0l8.147-6.843c2.076-1.744 5.346-1.744 7.441 0l3.193 2.683c.607.518.685 1.419.156 2.032-.529.594-1.468.67-2.076.153l-3.192-2.683c-.979-.824-2.624-.824-3.603 0l-8.147 6.843c-2.075 1.744-5.346 1.744-7.441 0l-.647-.556c-.9-.748-2.389-.825-3.387-.154L6.069 37.53c-.274.153-.567.23-.842.23z" fill="#A78438"/></svg>