<svg width="48" height="50" fill="none" xmlns="http://www.w3.org/2000/svg"><path d="M23.876 0c.844.756 1.336 1.523 1.864 2.519l.483.893c.25.465.499.932.745 1.4.24.453.485.904.73 1.355l.435.818c.529.735.827.953 1.712 1.143a14.667 14.667 0 001.943-.831c.172-.085.344-.17.522-.256a93.14 93.14 0 001.265-.637c-.131 2.453-.64 4.82-1.135 7.22-.162.789-.323 1.578-.482 2.368l-.113.538c-.2.992-.298 1.918-.26 2.928 1.169-.11 1.59-.508 2.332-1.385.673-.777 1.342-1.534 2.083-2.248a17.99 17.99 0 001.508-1.647l.544-.631h.497l.192.692c.085.294.17.59.259.893l.254.892.29.725c.9.297 1.36.178 2.288 0l.91-.17.952-.184.96-.182c.784-.148 1.568-.298 2.351-.45-.325 1.768-.764 3.48-1.274 5.204l-.21.714c-.167.573-.336 1.145-.505 1.718.638.678 1.203 1.147 2.051 1.54l.533.25.4.18c-.995 1.042-2.077 1.896-3.233 2.756l-1.137.852-.566.424a265.48 265.48 0 00-2.245 1.71 82.593 82.593 0 01-3.726 2.685c-.558.46-.812.743-1.03 1.426.036.53.036.53.201 1.062.258.954.413 1.9.544 2.879-2.65-.294-5.27-.692-7.896-1.153-1.761-.324-1.761-.324-3.544-.325-.56.442-.56.442-.516 1.05l.061.7.065.788.079.848.074.863c.076.883.156 1.765.237 2.647l.146 1.63c.113 1.263.231 2.526.351 3.789h-3.73l.095-.949c.116-1.165.23-2.33.343-3.495l.15-1.51c.073-.726.143-1.45.213-2.176l.07-.679c.107-1.135.158-2.14-.125-3.26l-.249-.246c-2.3.032-4.58.484-6.84.877a738.5 738.5 0 01-1.981.34l-.874.151c-.75.11-.75.11-1.745.11.15-1.172.378-2.282.694-3.42.068-.686-.049-.942-.446-1.507-.598-.516-.598-.516-1.32-1.016a642.262 642.262 0 01-1.24-.893 97.147 97.147 0 01-2.025-1.523 3781.234 3781.234 0 00-1.632-1.247A393.485 393.485 0 000 25.616c.679-.744 1.388-1.065 2.302-1.463.519-.25.519-.25.682-1-.155-.711-.155-.711-.42-1.501-.09-.294-.183-.589-.277-.892l-.297-.932a287.45 287.45 0 01-.575-1.825l-.262-.818c-.158-.682-.158-.682.09-1.421l.605.124c.901.184 1.804.36 2.706.537l.952.197.91.176c.278.055.556.11.841.168.698.1.698.1 1.156-.287.4-.58.542-1.143.711-1.824l.19-.742.137-.566c.993.385 1.595 1.074 2.285 1.847l.36.395a96.9 96.9 0 011.726 1.949l.587.673.52.612c.505.545.505.545 1.486.435-.132-2.453-.64-4.82-1.135-7.22-.163-.789-.323-1.578-.483-2.367l-.113-.54c-.2-.99-.297-1.917-.26-2.927l.773.394 1.015.499.508.262c.989.483.989.483 2.059.435.829-.48 1.082-.99 1.531-1.827l.24-.438c.252-.46.499-.924.745-1.388l.75-1.383c.228-.418.453-.838.677-1.258.348-.611.712-1.153 1.154-1.7z" fill="#B8923A"/></svg>