<svg width="23" height="19" fill="none" xmlns="http://www.w3.org/2000/svg"><path d="M3.375 4.676A4.46 4.46 0 015.625.809C6.996 0 8.719 0 10.125.809c1.371.808 2.25 2.285 2.25 3.867a4.548 4.548 0 01-2.25 3.902c-1.406.809-3.129.809-4.5 0a4.474 4.474 0 01-2.25-3.902zM0 17.156c0-3.48 2.777-6.293 6.258-6.293h3.199a6.287 6.287 0 016.293 6.293c0 .563-.492 1.02-1.055 1.02H1.02A1.02 1.02 0 010 17.156zm21.41 1.02h-4.85c.175-.317.316-.703.316-1.125v-.281c0-2.11-.984-4.043-2.46-5.31.07 0 .14-.034.245-.034h2.145c3.129 0 5.695 2.566 5.695 5.695 0 .598-.492 1.055-1.09 1.055zm-6.223-9a4.05 4.05 0 01-2.812-1.125A5.642 5.642 0 0013.5 4.676c0-.914-.246-1.828-.668-2.602.668-.457 1.477-.773 2.355-.773 2.145 0 3.938 1.793 3.938 3.937 0 2.18-1.793 3.938-3.938 3.938z" fill="#A78438"/></svg>