<svg width="14" height="18" fill="none" xmlns="http://www.w3.org/2000/svg"><path d="M5.063 1.969V4.5h3.375V1.969c0-.14-.141-.282-.282-.282H5.344a.277.277 0 00-.282.282zM11.25 4.5c1.23 0 2.25 1.02 2.25 2.25v7.875c0 1.266-1.02 2.25-2.25 2.25 0 .633-.527 1.125-1.125 1.125A1.11 1.11 0 019 16.875H4.5C4.5 17.508 3.973 18 3.375 18a1.11 1.11 0 01-1.125-1.125A2.221 2.221 0 010 14.625V6.75C0 5.52.984 4.5 2.25 4.5h1.125V1.969C3.375.914 4.254 0 5.344 0h2.812c1.055 0 1.969.914 1.969 1.969V4.5h1.125zM3.937 7.875a.578.578 0 00-.562.563c0 .316.246.562.563.562h5.624a.578.578 0 00.563-.563c0-.28-.281-.562-.563-.562H3.939zm0 4.5a.578.578 0 00-.562.563c0 .316.246.562.563.562h5.624a.578.578 0 00.563-.563c0-.28-.281-.562-.563-.562H3.939z" fill="#A78438"/></svg>