<svg width="171" height="54" fill="none" xmlns="http://www.w3.org/2000/svg"><g clip-path="url(#clip0_542_311)"><path d="M21.375 19.233v5.783h13.736c-.402 3.228-1.474 5.582-3.149 7.263-2.01 2.017-5.16 4.237-10.587 4.237-8.443 0-15.076-6.86-15.076-15.333 0-8.473 6.566-15.4 15.076-15.4 4.556 0 7.907 1.816 10.386 4.102l4.02-4.034C32.364 2.555 27.741 0 21.375 0 9.783 0 0 9.482 0 21.116s9.783 21.116 21.375 21.116c6.299 0 10.989-2.085 14.674-5.918 3.82-3.833 4.959-9.146 4.959-13.517 0-1.345-.067-2.555-.335-3.631H21.375v.067z" fill="#4285F4"/><path d="M58.228 14.525c-7.504 0-13.669 5.716-13.669 13.652 0 7.868 6.098 13.651 13.67 13.651 7.571 0 13.669-5.783 13.669-13.651-.067-7.936-6.165-13.652-13.67-13.652zm0 21.923c-4.087 0-7.638-3.43-7.638-8.271 0-4.91 3.551-8.272 7.638-8.272 4.088 0 7.64 3.363 7.64 8.272 0 4.842-3.552 8.271-7.64 8.271z" fill="#EA4335"/><path d="M125.034 17.552h-.201c-1.34-1.614-3.887-3.027-7.17-3.027-6.768 0-12.731 5.918-12.731 13.652 0 7.666 5.896 13.651 12.731 13.651 3.283 0 5.83-1.48 7.17-3.093h.201v1.883c0 5.178-2.815 8.002-7.237 8.002-3.618 0-5.897-2.623-6.835-4.842l-5.159 2.152c1.474 3.632 5.427 8.07 12.061 8.07 6.969 0 12.932-4.102 12.932-14.19V15.266h-5.628v2.287h-.134zm-6.835 18.896c-4.087 0-7.237-3.497-7.237-8.271 0-4.842 3.15-8.272 7.237-8.272s7.237 3.497 7.237 8.339c.067 4.707-3.15 8.204-7.237 8.204z" fill="#4285F4"/><path d="M88.65 14.525c-7.505 0-13.67 5.716-13.67 13.652 0 7.868 6.098 13.651 13.67 13.651 7.571 0 13.669-5.783 13.669-13.651-.067-7.936-6.165-13.652-13.67-13.652zm0 21.923c-4.088 0-7.64-3.43-7.64-8.271 0-4.91 3.552-8.272 7.64-8.272 4.087 0 7.638 3.363 7.638 8.272 0 4.842-3.551 8.271-7.639 8.271z" fill="#FBBC05"/><path d="M135.42.538h5.896v41.223h-5.896V.538z" fill="#34A853"/><path d="M159.408 36.448c-3.015 0-5.16-1.412-6.567-4.102L171 24.814l-.603-1.546c-1.139-3.026-4.556-8.675-11.592-8.675-6.969 0-12.798 5.514-12.798 13.651 0 7.666 5.762 13.651 13.468 13.651 6.232 0 9.85-3.833 11.324-6.052l-4.623-3.093c-1.609 2.152-3.753 3.698-6.768 3.698zm-.402-16.812c2.412 0 4.489 1.278 5.159 3.027l-12.262 5.11c-.067-5.783 4.021-8.137 7.103-8.137z" fill="#EA4335"/></g><defs><clipPath id="clip0_542_311"><path fill="#fff" d="M0 0h171v54H0z"/></clipPath></defs></svg>