<svg width="35" height="37" fill="none" xmlns="http://www.w3.org/2000/svg"><path opacity=".987" fill-rule="evenodd" clip-rule="evenodd" d="M15.473.91c1.858-.207 2.957-.207 4.953 0a16.836 16.836 0 019.354 4.664 256.238 256.238 0 00-5.09 4.945c-3.205-2.716-6.782-3.343-10.731-1.88-2.898 1.332-4.915 3.491-6.053 6.478a199.73 199.73 0 01-5.504-4.25.666.666 0 00-.41-.068C4.867 5.255 9.36 1.959 15.47.908" fill="#F44336"/><path opacity=".997" fill-rule="evenodd" clip-rule="evenodd" d="M1.987 10.798a.653.653 0 01.412.07 199.953 199.953 0 005.504 4.248 19.475 19.475 0 00-.55 3.55c.063 1.157.246 2.294.55 3.41l-5.778 4.6c-2.516-5.259-2.563-10.551-.138-15.878z" fill="#FFC107"/><path opacity=".999" fill-rule="evenodd" clip-rule="evenodd" d="M29.505 32.247a66.627 66.627 0 00-5.642-4.46c1.964-1.386 3.157-3.29 3.577-5.708h-9.627v-6.686a496.67 496.67 0 0116.648.141c1.053 5.714-.163 10.867-3.646 15.457-.415.44-.853.86-1.31 1.256z" fill="#448AFF"/><path opacity=".993" fill-rule="evenodd" clip-rule="evenodd" d="M7.903 22.079c2.102 5.222 5.954 7.66 11.557 7.313a10.097 10.097 0 004.403-1.604 67.633 67.633 0 015.642 4.459 16.964 16.964 0 01-10.319 4.315c-.87.07-1.744.07-2.614 0-6.522-.769-11.338-4.064-14.447-9.886l5.778-4.597z" fill="#43A047"/></svg>