<svg width="96" height="96" fill="none" xmlns="http://www.w3.org/2000/svg"><path d="M87 4.627H9a6.006 6.006 0 00-6 6v51a6.006 6.006 0 006 6h21.076a17.855 17.855 0 002.202 7.242l-7.584 7.583a1.51 1.51 0 00.392 2.404l3.796 1.89 1.89 3.796a1.508 1.508 0 002.404.391l8.115-8.116a17.988 17.988 0 0013.418 0l8.115 8.116a1.51 1.51 0 002.403-.391l1.891-3.795 3.796-1.891a1.51 1.51 0 00.392-2.404l-7.584-7.583a17.856 17.856 0 002.202-7.242H87a6.006 6.006 0 006-6v-51a6.007 6.007 0 00-6-6zM32.528 87.338l-1.185-2.38c-.244-.718-2.474-1.486-3.054-1.859l5.7-5.698a18.118 18.118 0 004.498 3.979l-5.959 5.958zM48 81.128a15.017 15.017 0 01-15-15c.824-19.9 29.179-19.894 30 0a15.017 15.017 0 01-15 15zm19.71 1.971l-2.379 1.185c-.716.243-1.486 2.473-1.86 3.054l-5.958-5.958a18.117 18.117 0 004.499-3.98l5.699 5.7zM90 61.627a3.004 3.004 0 01-3 3H65.924c-2.454-21.879-33.402-21.862-35.848 0H9a3.003 3.003 0 01-3-3v-51a3.003 3.003 0 013-3h78a3.003 3.003 0 013 3v51z" fill="#9A7423"/><path d="M48 54.128a12.014 12.014 0 00-12 12c.66 15.92 23.343 15.915 24 0a12.014 12.014 0 00-12-12zm0 21a9.01 9.01 0 01-9-9c.422-11.912 17.58-11.909 18 0a9.01 9.01 0 01-9 9z" fill="#9A7423"/><path d="M51.487 62.772l-4.714 4.32-2.26-2.07a1.5 1.5 0 00-2.026 2.211l3.272 3a1.501 1.501 0 002.027 0l5.728-5.25a1.5 1.5 0 00-2.027-2.212zM30 21.127a10.512 10.512 0 00-10.5-10.5c-13.91.529-13.907 20.474 0 21a10.512 10.512 0 0010.5-10.5zm-18 0a7.5 7.5 0 117.5 7.5 7.508 7.508 0 01-7.5-7.5zm27-1.5h30a4.5 4.5 0 000-9H39a4.5 4.5 0 000 9zm0-6h30a1.5 1.5 0 010 3H39a1.5 1.5 0 010-3zm43.5 9H39a4.5 4.5 0 000 9h43.5a4.5 4.5 0 000-9zm0 6H39a1.5 1.5 0 010-3h43.5a1.5 1.5 0 010 3zm-51 10.501h33a1.5 1.5 0 000-3h-33a1.5 1.5 0 000 3zm46.5 3H18a1.5 1.5 0 000 3h60a1.5 1.5 0 000-3z" fill="#9A7423"/></svg>