<svg width="85" height="85" fill="none" xmlns="http://www.w3.org/2000/svg"><path d="M79.03 37.058c-.325-9.271-4.08-17.941-10.672-24.534C61.448 5.612 52.264 1.807 42.5 1.807c-19.72 0-35.835 15.697-36.53 35.251-3.01 1.338-5.115 4.35-5.115 7.85v9.646c0 4.736 3.852 8.59 8.59 8.59a5.564 5.564 0 005.558-5.558v-15.71c0-2.879-2.207-5.225-5.014-5.504C11.024 19.336 25.206 5.792 42.5 5.792c8.702 0 16.885 3.392 23.044 9.55 5.655 5.655 8.964 13.026 9.462 21.03-2.803.282-5.007 2.628-5.007 5.503v15.71c0 2.901 2.242 5.263 5.082 5.508v3.97c0 4.47-3.638 8.107-8.108 8.107h-6.005a5.973 5.973 0 00-5.667-4.035h-6.19c-.888 0-1.74.189-2.521.553a6.04 6.04 0 00-3.506 5.474 5.97 5.97 0 001.766 4.26 5.981 5.981 0 004.262 1.769H55.3c2.566 0 4.828-1.66 5.671-4.037h6c6.67 0 12.093-5.424 12.093-12.09v-4.68c2.991-1.345 5.082-4.347 5.082-7.833v-9.645c0-3.498-2.107-6.51-5.115-7.848zm-68.014 4.817v15.71c0 .867-.705 1.573-1.573 1.573a4.612 4.612 0 01-4.606-4.606v-9.645a4.61 4.61 0 014.606-4.605c.868 0 1.573.706 1.573 1.573zM57.3 77.59a2.053 2.053 0 01-2 1.619h-6.19a2.029 2.029 0 01-1.446-.603 2.022 2.022 0 01-.597-1.441 2.048 2.048 0 012.044-2.043H55.3c.544 0 1.056.212 1.445.602.385.384.597.896.597 1.44a2 2 0 01-.042.426zm22.86-23.038a4.612 4.612 0 01-4.606 4.606 1.575 1.575 0 01-1.574-1.574V41.875c0-.867.706-1.574 1.574-1.574a4.612 4.612 0 014.606 4.606v9.645z" fill="#9A7423"/><path d="M55.4 55.239c4.655 0 8.442-3.788 8.442-8.442v-17.2c0-2.25-.88-4.37-2.476-5.966a8.384 8.384 0 00-5.966-2.476H29.6c-4.655 0-8.442 3.787-8.442 8.442v17.2c0 4.656 3.787 8.442 8.442 8.442h.158v4.457c0 1.7 1.013 3.209 2.58 3.845a4.161 4.161 0 001.553.304c1.085 0 2.142-.43 2.916-1.231l7.415-7.375H55.4zm-13.402-3.405l-8.025 7.98c-.036.038-.062.065-.138.032-.092-.037-.092-.097-.092-.15v-6.45a1.99 1.99 0 00-1.992-1.991h-2.15c-2.458 0-4.457-2-4.457-4.458v-17.2A4.461 4.461 0 0129.6 25.14h25.8c1.188 0 2.304.465 3.15 1.308a4.425 4.425 0 011.307 3.149v17.2c0 2.459-2 4.458-4.457 4.458H43.403c-.527 0-1.032.208-1.405.579z" fill="#9A7423"/><path d="M32.822 35.576c-1.62 0-2.94 1.32-2.94 2.94a2.946 2.946 0 002.94 2.939 2.945 2.945 0 002.942-2.94 2.944 2.944 0 00-2.942-2.939zm9.676 0c-1.62 0-2.94 1.32-2.94 2.94a2.945 2.945 0 002.94 2.939 2.944 2.944 0 002.942-2.94 2.944 2.944 0 00-2.942-2.939zm9.677 0c-1.62 0-2.94 1.32-2.94 2.94a2.945 2.945 0 002.94 2.939 2.945 2.945 0 002.941-2.94 2.945 2.945 0 00-2.941-2.939z" fill="#9A7423"/></svg>