<svg width="97" height="97" fill="none" xmlns="http://www.w3.org/2000/svg"><g clip-path="url(#clip0_166_1626)" fill="#9A7423"><path d="M74.069 16.026a1.557 1.557 0 00.343-.01 3.5 3.5 0 013.429 3.495 1.566 1.566 0 003.132 0 6.64 6.64 0 00-5.211-6.476V11.53a1.566 1.566 0 00-3.133 0v1.576a6.63 6.63 0 001.713 13.036 3.499 3.499 0 11-3.498 3.5 1.566 1.566 0 00-3.133 0c.004 3 2.02 5.625 4.918 6.405v1.716a1.566 1.566 0 003.133 0v-1.645a6.63 6.63 0 00-1.42-13.107 3.498 3.498 0 01-.273-6.984z"/><path d="M74.433 2.306c-9.635 0-17.858 6.287-20.938 14.705H14.624c-.861 0-1.56.776-1.566 1.637l-.37 54.94H1.607c-.865 0-1.608.626-1.608 1.493v6.972c.02 6.563 5.19 11.955 11.746 12.252v.034H60.1v-.045c.391.014.553.046.8.046h.034c6.786-.011 12.282-5.516 12.282-12.302v-35.25c.392.021.806.033 1.212.033 12.26 0 22.238-9.997 22.238-22.258S86.694 2.306 74.433 2.306zM12.342 91.207h-.01a9.212 9.212 0 01-9.2-9.17V76.72h45.419v5.294a12.286 12.286 0 003.626 8.706c.164.165.368.291.54.487H12.343zm57.743-9.17a9.17 9.17 0 01-9.151 9.17h-.03a9.237 9.237 0 01-9.221-9.191v-6.935a1.446 1.446 0 00-1.495-1.493H15.82l.36-53.445h36.446a23.535 23.535 0 00-.43 4.35 22.116 22.116 0 001.891 8.963H39.294a1.566 1.566 0 100 3.132h16.492a22.102 22.102 0 0014.3 9.808v35.64zm4.348-38.348c-10.55 0-19.104-8.553-19.103-19.104 0-10.55 8.552-19.103 19.103-19.103 10.55 0 19.103 8.553 19.103 19.104-.011 10.545-8.557 19.092-19.103 19.103z"/><path d="M29.24 43.879c-2.764 0-5.012 2.177-5.012 4.854 0 2.676 2.248 4.853 5.012 4.853 2.765 0 5.014-2.177 5.014-4.853 0-2.677-2.25-4.854-5.014-4.854zm0 6.575c-1.037 0-1.88-.772-1.88-1.721 0-.95.843-1.722 1.88-1.722s1.882.773 1.882 1.722-.845 1.721-1.882 1.721zm8.487-1.729c0 .865.701 1.566 1.567 1.566h20.88a1.566 1.566 0 000-3.132h-20.88c-.866 0-1.566.701-1.566 1.566zm-8.487-18.46c-2.764 0-5.012 2.178-5.012 4.854 0 2.677 2.248 4.854 5.012 4.854 2.765 0 5.014-2.177 5.014-4.854 0-2.676-2.25-4.854-5.014-4.854zm0 6.575c-1.037 0-1.88-.772-1.88-1.72 0-.95.843-1.723 1.88-1.723s1.882.772 1.882 1.722-.845 1.722-1.882 1.722zm0 20.652c-2.764 0-5.012 2.177-5.012 4.853 0 2.677 2.248 4.854 5.012 4.854 2.765 0 5.014-2.177 5.014-4.854 0-2.676-2.25-4.853-5.014-4.853zm0 6.575c-1.037 0-1.88-.772-1.88-1.722 0-.949.843-1.721 1.88-1.721s1.882.772 1.882 1.721c0 .95-.845 1.722-1.882 1.722zm30.934-3.204h-20.88a1.566 1.566 0 100 3.133h20.88a1.566 1.566 0 000-3.133z"/></g><defs><clipPath id="clip0_166_1626"><path fill="#fff" d="M0 0h96.666v96.666H0z"/></clipPath></defs></svg>