<svg width="96" height="96" fill="none" xmlns="http://www.w3.org/2000/svg"><path d="M88 54.5H72a5.506 5.506 0 00-5.5 5.5v28c0 3.033 2.467 5.5 5.5 5.5h16c3.033 0 5.5-2.467 5.5-5.5V60c0-3.033-2.467-5.5-5.5-5.5zm-16 3h16c1.379 0 2.5 1.121 2.5 2.5v18.5h-21V60c0-1.379 1.121-2.5 2.5-2.5zm16 33H72a2.502 2.502 0 01-2.5-2.5v-6.5h21V88c0 1.379-1.121 2.5-2.5 2.5z" fill="#9A7423"/><path d="M84 84.5h-8c-1.85 0-1.923 3 0 3h8c1.899 0 1.956-3 0-3zM61.033 64.273A26.442 26.442 0 0144 70.5c-14.612 0-26.5-11.889-26.5-26.5 0-12.646 9.112-23.566 21.395-25.981.808 2.034 2.786 3.481 5.105 3.481 2.316 0 4.292-1.442 5.102-3.472 3.275.64 6.368 1.843 9.186 3.653 1.574 1.01 3.27-1.466 1.622-2.523-3.22-2.068-6.756-3.427-10.508-4.124-.459-2.572-2.7-4.534-5.402-4.534-2.7 0-4.939 1.957-5.401 4.525C24.782 17.602 14.5 29.826 14.5 44c0 16.266 13.233 29.5 29.5 29.5 6.933 0 13.67-2.463 18.966-6.933 1.479-1.248-.438-3.553-1.933-2.294zM44 13.5c1.379 0 2.5 1.121 2.5 2.5s-1.121 2.5-2.5 2.5a2.502 2.502 0 01-2.5-2.5c0-1.379 1.121-2.5 2.5-2.5z" fill="#9A7423"/><path d="M61.32 78.383C55.937 81.115 50.11 82.5 44 82.5c-8.407 0-16.62-2.817-23.309-7.907a5.442 5.442 0 00.525-2.308c0-3.033-2.467-5.5-5.5-5.5-.827 0-1.604.197-2.308.525C8.318 60.62 5.5 52.407 5.5 44 5.5 22.771 22.771 5.5 44 5.5c8.28 0 16.174 2.596 22.83 7.508 1.445 1.066 3.4-1.217 1.781-2.414C61.435 5.299 52.926 2.5 44 2.5 21.117 2.5 2.5 21.117 2.5 44c0 9.122 3.074 18.03 8.628 25.264a5.462 5.462 0 00-.912 3.021c0 3.033 2.467 5.5 5.5 5.5a5.462 5.462 0 003.02-.911C25.97 82.426 34.878 85.5 44 85.5c6.586 0 12.87-1.494 18.68-4.441 1.645-.835.454-3.585-1.36-2.676zm-48.104-6.098c0-1.379 1.12-2.5 2.5-2.5 1.379 0 2.5 1.121 2.5 2.5 0 1.38-1.121 2.5-2.5 2.5a2.502 2.502 0 01-2.5-2.5z" fill="#9A7423"/><path d="M46.662 39.217A5.433 5.433 0 0044 38.5a5.506 5.506 0 00-5.5 5.5c0 3.033 2.467 5.5 5.5 5.5s5.5-2.467 5.5-5.5c0-.97-.274-1.87-.717-2.662l6.478-6.477A14.454 14.454 0 0158.5 44c0 7.996-6.504 14.5-14.5 14.5-6.16 0-11.535-3.89-13.587-9.582 1.82-.897 3.087-2.754 3.087-4.918s-1.266-4.02-3.087-4.918C32.465 33.39 37.84 29.5 44 29.5c1.946 0 3.857.385 5.682 1.144 1.775.738 2.96-2.018 1.154-2.769A17.712 17.712 0 0044 26.5a17.47 17.47 0 00-16.622 12.063C24.64 38.876 22.5 41.18 22.5 44c0 2.82 2.14 5.124 4.878 5.437A17.47 17.47 0 0044 61.5c9.65 0 17.5-7.85 17.5-17.5 0-4.158-1.456-8.102-4.113-11.266l6.36-6.36C68.097 31.253 70.5 37.444 70.5 44c0 1.962-.209 3.882-.623 5.705-.425 1.875 2.495 2.559 2.926.666.463-2.043.697-4.185.697-6.371 0-7.358-2.718-14.299-7.632-19.747l6.36-6.36C78.84 25.031 82.5 34.226 82.5 44c0 1.863-.142 3.81-.424 5.788-.26 1.835 2.69 2.403 2.969.423A44.06 44.06 0 0085.5 44c0-10.574-3.974-20.522-11.151-28.228l2.712-2.711a1.5 1.5 0 10-2.122-2.121L46.662 39.217zM25.5 44c0-1.379 1.121-2.5 2.5-2.5s2.5 1.121 2.5 2.5-1.121 2.5-2.5 2.5a2.502 2.502 0 01-2.5-2.5zM44 46.5a2.502 2.502 0 01-2.5-2.5c0-1.379 1.121-2.5 2.5-2.5s2.5 1.121 2.5 2.5-1.121 2.5-2.5 2.5z" fill="#9A7423"/></svg>