<svg width="31" height="31" fill="none" xmlns="http://www.w3.org/2000/svg"><path d="M15.419 0h-.07C6.872 0 0 6.874 0 15.353v.07c0 8.48 6.872 15.353 15.349 15.353h.07c8.476 0 15.348-6.873 15.348-15.353v-.07C30.767 6.873 23.895 0 15.42 0z" fill="#F9E9BB"/><path d="M20.144 6.261h-9.52c-2.63 0-4.77 2.14-4.77 4.772v8.712a4.776 4.776 0 004.77 4.771h9.52c2.63 0 4.77-2.14 4.77-4.771v-8.712a4.777 4.777 0 00-4.77-4.772zM7.537 11.033a3.091 3.091 0 013.087-3.088h9.52a3.091 3.091 0 013.087 3.088v8.712a3.091 3.091 0 01-3.087 3.088h-9.52a3.091 3.091 0 01-3.087-3.088v-8.712z" fill="#0A0E15"/><path d="M15.384 19.826a4.442 4.442 0 004.437-4.438 4.442 4.442 0 00-4.437-4.438 4.442 4.442 0 00-4.437 4.438 4.442 4.442 0 004.437 4.438zm0-7.192a2.757 2.757 0 012.754 2.755 2.757 2.757 0 01-2.754 2.755 2.757 2.757 0 01-2.754-2.755 2.757 2.757 0 012.754-2.755zm4.848-.967a1.197 1.197 0 000-2.392 1.196 1.196 0 000 2.392z" fill="#0A0E15"/></svg>