<svg width="31" height="31" fill="none" xmlns="http://www.w3.org/2000/svg"><path d="M15.417 0h-.07C6.87 0-.002 6.874-.002 15.353v.07c0 8.48 6.872 15.353 15.349 15.353h.07c8.477 0 15.348-6.873 15.348-15.353v-.07C30.765 6.873 23.894 0 15.417 0z" fill="#F9E9BB"/><path d="M7.335 10.23a1.829 1.829 0 01-.606-1.397c0-.554.202-1.04.606-1.418.406-.376.928-.565 1.567-.565.639 0 1.14.189 1.544.565.406.376.607.85.607 1.418s-.202 1.02-.607 1.396c-.405.377-.92.565-1.544.565-.625 0-1.161-.188-1.566-.565zm3.378 2.158v11.537H7.068V12.388h3.645zm12.132 1.14c.794.862 1.19 2.046 1.19 3.554v6.64h-3.46v-6.173c0-.76-.198-1.35-.591-1.771-.394-.42-.924-.632-1.588-.632s-1.194.21-1.588.632c-.393.42-.59 1.011-.59 1.771v6.172h-3.482V12.356h3.482v1.507c.352-.502.827-.9 1.425-1.191.597-.293 1.268-.438 2.015-.438 1.33 0 2.393.431 3.187 1.293z" fill="#0A0E15"/></svg>