<svg width="246" height="44" fill="none" xmlns="http://www.w3.org/2000/svg"><g clip-path="url(#clip0_494_625)"><mask id="a" style="mask-type:luminance" maskUnits="userSpaceOnUse" x="0" y="0" width="246" height="45"><path d="M246 .035H0v43.987h246V.035z" fill="#fff"/></mask><g mask="url(#a)"><path fill-rule="evenodd" clip-rule="evenodd" d="M4.593 34.687L.031 20.114a.9.9 0 01.25-.87l6.99-5.665a.514.514 0 01.732.08c0 .01.005.015.016.015l5.184 7.405a.89.89 0 01.016.902l-8.143 12.77c-.171.252-.374.22-.483-.064zm22.888 9.193l-14.807-.016a.817.817 0 01-.716-.506l-3.052-8.624a.56.56 0 01.327-.712l8.408-2.816a.813.813 0 01.825.269l9.217 11.962c.187.237.093.427-.202.443zm15.523-19.684L38.425 38.77a.816.816 0 01-.7.538l-8.86.348c-.311 0-.545-.237-.56-.554l.015-9.13a.834.834 0 01.499-.743l13.841-5.38c.265-.095.436.064.343.348zM29.707 2.836l11.973 9.018a.86.86 0 01.296.84l-2.429 8.844v.016a.528.528 0 01-.67.348l-8.392-2.832a.82.82 0 01-.529-.712l-.67-15.285c0-.3.188-.411.421-.237zM5.98 9.323L17.952.32a.794.794 0 01.872-.016l7.38 5.11a.576.576 0 01.124.776l-5.2 7.39a.831.831 0 01-.825.3L6.057 9.798c-.28-.08-.327-.301-.078-.475zm66.933 18.782h1.122l-.592 5.632a18.676 18.676 0 01-8.174 1.788c-7.006 0-11.132-5.3-11.132-11.186 0-7.437 5.122-12.089 11.412-12.089 3.8 0 6.057 1.029 7.38 1.883l.172 4.873h-1.075c-1.261-3.639-3.44-5.015-6.679-5.015-5.636 0-7.676 4.177-7.676 9.13 0 5.395 2.476 10.553 8.19 10.553 4.188 0 5.791-1.93 7.052-5.57zm10.666 7.484c-4.297 0-7.77-3.576-7.77-8.022 0-4.43 3.472-8.007 7.77-8.007 4.313 0 7.784 3.576 7.784 8.007 0 4.446-3.471 8.022-7.784 8.022zm4.795-7.31c0-3.766-1.977-6.915-5.356-6.915-2.802 0-4.22 2.326-4.22 5.506 0 3.766 1.978 6.915 5.357 6.915 2.818 0 4.22-2.342 4.22-5.506zm4.983 5.3l-.218-5.474h1.043c.871 3.037 2.787 5.743 6.103 5.743 3.099 0 5.185-1.503 5.185-4.019 0-2.215-1.681-3.164-4.017-4.13l-3.083-1.25c-2.694-1.107-5.013-2.389-5.013-6.06 0-3.18 3.052-6.123 7.411-6.123 2.538 0 5.107.76 6.29 1.93v4.81h-.825c-.732-3.037-2.383-5.095-5.652-5.095-2.616 0-4.562 1.472-4.562 3.798 0 1.93 1.292 2.816 3.457 3.687l3.3 1.36c3.114 1.282 5.372 2.564 5.372 6.33 0 4.161-3.737 6.487-8.299 6.487-2.709 0-5.075-.791-6.492-1.994zm20.738-13.971h4.095v1.82h-4.095v9.05c0 2.089.826 3.022 2.538 3.022a4.62 4.62 0 001.9-.364c.124.332.264.633.389.918a5.08 5.08 0 01-3.659 1.535c-2.149 0-4.11-1.14-4.11-4.146v-10h-2.336V20.43c1.76-.933 2.896-2.025 4.344-3.844h.934v3.022zm17.594 11.946c0 1.282.561 1.978 1.402 1.978.321-.01.638-.042.949-.095.094.3.296.775.374.997a3.707 3.707 0 01-2.663 1.139c-1.463 0-2.195-1.044-2.647-2.642-1.043 1.186-2.646 2.642-5.262 2.642-2.787 0-4.281-1.709-4.281-3.987 0-2.706 1.727-3.355 3.892-3.988l5.293-1.677v-.601c0-2.39-.934-4.257-3.347-4.257-1.573 0-2.273.665-2.273 2.152.031.475.088.944.171 1.409l-2.32.284a2.096 2.096 0 01-.607-1.566c0-2.405 2.46-3.798 5.62-3.798 3.457 0 5.699 1.488 5.699 5.602v6.408zm-2.943.11v-4.303l-4.78 1.598c-.996.316-1.479.902-1.479 2.01 0 1.66.903 2.515 2.46 2.515 1.651 0 2.632-.76 3.799-1.82zm11.491-7.626c1.323-2.42 2.631-4.478 4.686-4.478.686 0 .841.159 1.433.396v2.674h-1.246c-1.806 0-2.865.475-4.624 2.737v7.01c0 1.455.576 1.534 2.335 1.772v1.234h-7.613v-1.234c1.168-.174 2.335-.317 2.335-1.662v-9.762l-2.335-1.029V21l4.188-1.392h.981l-.14 4.43zm21.906-11.772c3.799 0 6.072 1.013 7.38 1.851l.171 4.874h-1.058c-1.277-3.64-3.441-5.016-6.68-5.016-5.636 0-7.691 4.193-7.691 9.145 0 5.396 2.631 10.602 8.19 10.602 2.553 0 3.83-.617 5.013-1.725v-4.019c0-1.962-1.759-2.263-3.519-2.373V24.45h8.797v1.155c-1.168.158-2.351.41-2.351 2.373v5.269a15.681 15.681 0 01-8.454 2.326c-7.007 0-11.179-5.332-11.179-11.218 0-7.437 5.184-12.09 11.381-12.09zm16.644 11.772c1.323-2.42 2.709-4.478 4.765-4.478.529 0 1.043.143 1.51.396v2.674h-1.402c-1.806 0-2.709.475-5.044 2.737v7.01c0 1.455 1.168 1.534 2.927 1.772v1.234h-7.629v-1.234c1.168-.174 1.759-.317 1.759-1.662v-9.762l-1.759-1.029V21l4.017-1.392h.996l-.14 4.43zm14.028 11.535c-4.312 0-7.785-3.576-7.785-8.006 0-4.447 3.473-8.023 7.785-8.023 4.298 0 7.77 3.576 7.77 8.023 0 4.43-3.472 8.006-7.77 8.006zm4.78-7.31c0-3.766-1.977-6.915-5.356-6.915-2.818 0-4.219 2.342-4.219 5.507 0 3.765 1.977 6.914 5.356 6.914 2.818 0 4.219-2.342 4.219-5.506zm16.099 4.351c-1.199 1.519-2.974 2.911-5.2 2.911-2.756 0-4.655-1.329-4.655-4.73v-7.928c0-1.06-.467-1.345-1.868-1.519l-.483-.063V20.13l4.499-.538h.732l.047 2.975v7.816c0 2.152 1.137 2.943 2.803 2.943 1.712 0 3.067-.934 4.234-1.93v-8.529c0-1.06-.452-1.345-1.868-1.519l-.483-.063V20.13l4.484-.538h.732l.063 2.975v9.383c0 .996.295 1.202 1.619 1.344l.731.095v1.155l-5.091.839h-.421l.125-2.769zm10.65 1.788v5.063c0 1.345.592 1.488 2.351 1.662v.917h-7.629v-.917c1.183-.174 2.351-.317 2.351-1.662V22.71l-2.351-1.029v-.696l4.328-1.392h.981l-.14 2.674c1.292-1.693 3.269-2.706 5.387-2.722 4.344 0 6.617 3.26 6.617 7.279 0 5.395-3.612 8.75-8.049 8.75-1.698 0-3.254-.475-3.846-1.171zm8.999-6.36c0-3.023-1.105-6.298-4.733-6.298-1.729 0-3.674.87-4.266 1.93v6.55c0 2.77 2.009 3.672 4.141 3.672 2.959 0 4.858-2.089 4.858-5.855zm8.61-8.513v.459h-1.245v3.401h-.514v-3.401h-1.261v-.46h3.02zm.452 0h.731l1.059 3.26 1.075-3.26h.716v3.86h-.483v-2.278a2.299 2.299 0 010-.396v-.585l-1.059 3.26h-.498l-1.075-3.26v.554c.011.19.016.332.016.427v2.278h-.482v-3.86z" fill="#F9E9BB"/></g></g><defs><clipPath id="clip0_494_625"><path fill="#fff" transform="translate(0 .035)" d="M0 0h246v44H0z"/></clipPath></defs></svg>