<svg width="306" height="38" fill="none" xmlns="http://www.w3.org/2000/svg"><g clip-path="url(#clip0_494_631)" fill="#F9E9BB"><path d="M0 37.03h18.617s1.526.321 2.7-1.523c.892-1.404-.232-3.358-.232-3.358l-9.346-18.21c-.653 1.282-.762 2.567-.762 3.634 0 1.07.462 2.608 1.307 4.17.846 1.562 4.099 7.592 4.099 7.592s1.686 3.233 1.767 3.846c.155 1.167-.642 1.926-1.303 1.926H4.705c-1.878 0-2.569-1.353-2.613-2.409L.98 35.107 0 37.029z"/><path d="M0 37.03h18.617s1.526.321 2.7-1.523c.892-1.404-.232-3.358-.232-3.358l-9.346-18.21c-.653 1.282-.762 2.567-.762 3.634 0 1.07.462 2.608 1.307 4.17.846 1.562 4.099 7.592 4.099 7.592s1.686 3.233 1.767 3.846c.155 1.167-.642 1.926-1.303 1.926H4.705c-1.878 0-2.569-1.353-2.613-2.409L.98 35.107 0 37.029z"/><path d="M26.078 37.022h-3.912s.945-.735 1.307-1.924c.327-1.07-.346-2.644-.346-2.644L12.631 12.04l1.845-3.5 11.878 22.751s1.433 2.665 1.03 3.804c-.405 1.14-1.305 1.924-1.305 1.924"/><path d="M31.303 37.022h-2.326s1.077-1.682.589-3.1c-.828-2.406-2.141-4.694-2.141-4.694L15.438 6.588 18.584.675l18.584 36.348H31.3m27.933-22.761c.241-.474.442-.474.642 0l3.923 9.493c.2.513.241.793-.64.793h-7.933c-.52 0-.8-.16-.52-.711l4.528-9.574m7.57 16.747c.4 1.063 1.242 2.875 1.242 3.742 0 1.498-2.404 1.104-2.404 2.05 0 .393.642.393.883.393 1.08 0 2.163-.157 3.243-.157 1.644 0 3.286.157 4.928.157.282 0 .561 0 .561-.356 0-.983-2.323-.118-3.526-1.928-.921-1.38-1.4-3.034-2.002-4.493l-8.332-20.294c-.12-.315-.401-1.457-.841-1.457-.52 0-.642.633-3.007 5.597l-9.574 20.094c-1.04 2.247-2.924 1.577-2.924 2.404 0 .237.121.433.36.433 1.042 0 2.123-.157 3.206-.157 1.122 0 2.243.157 3.366.157.52 0 1.081.12 1.081-.59 0-1.026-2.845.156-2.845-2.602 0-.51.161-1.102.281-1.377l2.564-5.515c.4-.828 1.122-.828 1.882-.828h8.814c1.123 0 1.362.59 1.764 1.5l1.28 3.23m19.458-17.81c0-3.43 2.923-2.443 2.923-3.35 0-.472-.239-.55-.76-.55-.6 0-1.563.156-3.846.156-1.962 0-3.205-.155-4.046-.155-.52 0-.801.077-.801.509 0 .792 3.365.515 3.365 2.562v19.979c0 1.851-.08 2.955-1.12 3.428-1.283.63-1.685.552-1.764 1.023 0 .316.24.394.6.394 1.602 0 3.286-.117 4.888-.157 3.044-.078 6.088.157 9.134.157 1.763 0 2.645.079 3.923-1.34.962-1.025 2.002-2.403 2.002-3.821 0-.079-.038-.473-.321-.473-.52 0-1.882 4.058-11.137 4.058-3.364 0-3.043-.944-3.043-3.27v-19.15m26.474 10.442c0-.356-.201-.907 2.885-.907 9.213 0 9.374 5.046 9.374 7.567 0 2.361-1.442 5.83-6.77 5.83-5.69 0-5.489-.826-5.489-3.663v-8.827zm0-10.088c0-2.285-.201-2.954 2.323-2.954 4.047 0 7.693 2.404 7.693 6.658 0 1.853-.322 4.257-6.891 4.257-3.607 0-3.124-.197-3.124-1.457l-.001-6.504zm-3.169 19.074c0 3.073-1.399 3.269-1.841 3.387-.721.237-1.2.354-1.2.749 0 .354.799.433 1.001.433 1.843 0 3.726-.157 5.567-.157 1.364 0 3.768.157 5.21.157 7.812 0 9.734-5.753 9.734-8.352 0-6.543-6.293-6.661-6.293-7.252 0-.275 3.767-1.577 3.767-5.596 0-2.915-1.764-6.696-8.813-6.696-3.206 0-4.809.155-6.411.155-1.602 0-2.404-.155-3.205-.155-.481 0-1.082-.041-1.082.55 0 .784 3.563.395 3.563 3.388V32.63m29.917-19.192c0-2.64-.08-2.482 3.766-2.482 1.601 0 5.768-.237 6.812 1.102.642.908 0 2.799.962 2.799.239 0 .799-.316.799-4.689 0-.474-.079-.865-.4-.865-1.24 0-4.929.155-5.731.155-1.678 0-3.763-.155-11.334-.155-1.162 0-1.404.155-1.404.47 0 .475.884.554 1.202.632 2.164.315 2.164 2.206 2.164 3.979v17.97c0 1.851-.081 2.955-1.122 3.428-1.282.63-1.683.552-1.763 1.023 0 .316.241.394.601.394 1.602 0 3.285-.117 4.888-.157 3.045-.078 6.089.157 9.134.157 1.764 0 2.647.079 3.931-1.34.96-1.025 2.003-2.403 2.003-3.821 0-.079-.04-.473-.322-.473-.52 0-1.881 4.058-11.137 4.058-3.366 0-3.045-.944-3.045-3.27v-7.25c0-.592-.12-1.262.722-1.262h5.93c3.365 0 2.001 3.47 3.245 3.47.28 0 .44-.158.44-.514 0-1.063-.081-2.089-.081-3.114 0-1.26.081-2.598.081-3.98 0-.313-.122-.747-.44-.747-.963 0 .12 3.154-4.047 3.154h-4.328c-1.601 0-1.521 0-1.521-1.34v-7.328m48.575.585c-.163-4.69 3.043-2.996 3.043-4.259 0-.234-.16-.47-.401-.47-.641 0-1.003.156-1.924.156-.199 0-1.481-.156-1.881-.156-.481-.04-.802.905-1.042 1.337l-9.532 18.837c-.644 1.3-1.044 2.128-1.244 2.128-.279 0-.442-.356-.881-1.183L164.661 10.4c-.202-.433-.281-1.101-.842-1.101-.72 0-1.441.155-2.162.155-.762 0-1.483-.155-2.205-.155-.36 0-.681.077-.681.43 0 1.342 3.807-.865 3.807 8.395 0 4.176-.481 8.353-.961 14.777-.282 4.098-2.846 2.482-2.846 3.82 0 .278.121.474.401.474.723 0 1.402-.157 3.487-.157 1.201 0 3.004.157 3.524.157.561 0 1.003-.04 1.003-.433 0-1.42-3.808.316-3.608-4.924l.481-13.831c.04-.396.161-.592.28-.592.16 0 .361.118.482.433l8.532 17.575c.12.276.399 1.142.801 1.142.401 0 1.041-1.614 1.241-1.971l8.293-16.625c.401-.826.76-1.18 1.041-1.18.241 0 .443.55.443 1.535l.399 15.289c.04 2.916-2.484 2.05-2.484 3.23 0 .16.08.356.441.356 1.003 0 2.283-.157 3.527-.157 1.601 0 3.005.157 3.764.157.443 0 .961 0 .961-.394 0-1.378-2.963.08-3.162-3.23l-.56-19.544m20.938.231c.239-.474.441-.474.64 0l3.923 9.493c.202.513.241.793-.639.793h-7.931c-.52 0-.803-.16-.52-.711l4.525-9.574m7.568 16.747c.404 1.063 1.247 2.875 1.247 3.742 0 1.498-2.405 1.104-2.405 2.05 0 .393.641.393.88.393 1.083 0 2.165-.157 3.247-.157 1.642 0 3.285.157 4.929.157.277 0 .557 0 .557-.356 0-.983-2.321-.118-3.523-1.928-.922-1.38-1.404-3.034-2.004-4.493l-8.332-20.294c-.121-.315-.402-1.457-.841-1.457-.522 0-.642.633-3.004 5.597l-9.578 20.094c-1.041 2.247-2.923 1.577-2.923 2.404 0 .237.12.433.361.433 1.041 0 2.123-.157 3.206-.157 1.121 0 2.241.157 3.365.157.518 0 1.08.12 1.08-.59 0-1.026-2.844.156-2.844-2.602 0-.51.159-1.102.281-1.377l2.563-5.515c.403-.828 1.121-.828 1.883-.828h8.815c1.121 0 1.362.59 1.761 1.5l1.279 3.23m27.237-8.082c2.803-1.102 5.048-3.744 5.048-6.816 0-7.604-8.854-6.815-9.494-6.815-2.082 0-4.366.155-6.692.155-2.042 0-1.843-.155-2.564-.155-.481 0-.801.235-.801.47 0 1.342 3.447-.275 3.447 3.507v20.057c0 2.997-2.925 2.444-2.925 3.428 0 .237.159.433.399.433 1.522 0 3.047-.157 4.571-.157 3.323 0 4.242.157 4.606.157.32 0 .681.079.681-.314 0-1.34-4.167-.119-4.167-3.506V25.06c0-.394-.241-1.102 1.044-1.102 4.487 0 3.886-.12 5.328 2.087l4.445 6.896c1.523 2.245 3.085 4.255 6.01 4.255.36 0 2.603 0 2.603-.474 0-.943-1.961.515-4.847-3.82l-6.691-9.97m-7.892-10.875c0-1.537.841-1.457 2.283-1.457 3.922 0 7.651 1.616 7.651 6.424 0 4.884-3.847 5.595-5.568 5.595-1.882 0-4.366.194-4.366-.552v-10.01zm30.046 1.147c0-3.43 2.923-2.443 2.923-3.35 0-.472-.24-.55-.762-.55-.599 0-1.558.156-3.844.156-1.962 0-3.206-.155-4.049-.155-.519 0-.798.077-.798.509 0 .792 3.364.515 3.364 2.562v19.979c0 1.851-.078 2.955-1.119 3.428-1.283.63-1.683.552-1.764 1.023 0 .316.237.394.601.394 1.6 0 3.281-.117 4.887-.157 3.045-.078 6.091.157 9.134.157 1.762 0 2.647.079 3.931-1.34.961-1.025 2.002-2.403 2.002-3.821 0-.079-.042-.473-.321-.473-.522 0-1.882 4.058-11.137 4.058-3.364 0-3.043-.944-3.043-3.27v-19.15m25.54.235c0-2.64-.08-2.482 3.768-2.482 1.6 0 5.766-.237 6.81 1.102.637.908 0 2.799.958 2.799.241 0 .803-.316.803-4.689 0-.474-.08-.865-.402-.865-1.241 0-4.926.155-5.729.155-1.683 0-3.764-.155-11.336-.155-1.162 0-1.404.155-1.404.47 0 .475.884.554 1.202.632 2.166.315 2.166 2.206 2.166 3.979v17.97c0 1.851-.081 2.955-1.123 3.428-1.281.63-1.683.552-1.764 1.023 0 .316.239.394.602.394 1.603 0 3.285-.117 4.888-.157 3.045-.078 6.093.157 9.134.157 1.763 0 2.642.079 3.922-1.34.962-1.025 2.006-2.403 2.006-3.821 0-.079-.042-.473-.324-.473-.517 0-1.88 4.058-11.134 4.058-3.368 0-3.046-.944-3.046-3.27v-7.25c0-.592-.122-1.262.721-1.262h5.93c3.365 0 2.002 3.47 3.244 3.47.281 0 .441-.158.441-.514 0-1.063-.081-2.089-.081-3.114 0-1.26.081-2.598.081-3.98 0-.313-.12-.747-.441-.747-.965 0 .121 3.154-4.047 3.154h-4.325c-1.603 0-1.523 0-1.523-1.34v-7.328"/></g><defs><clipPath id="clip0_494_631"><path fill="#fff" transform="translate(0 .675)" d="M0 0h306v36.72H0z"/></clipPath></defs></svg>