<svg width="202" height="44" fill="none" xmlns="http://www.w3.org/2000/svg"><g clip-path="url(#clip0_494_637)"><mask id="a" style="mask-type:luminance" maskUnits="userSpaceOnUse" x="0" y="0" width="202" height="44"><path d="M202 .219H0v43.286h202V.219z" fill="#fff"/></mask><g mask="url(#a)"><path d="M57.113 33.525H50.02V11.942h7.215c3.967 0 7.454 1.323 7.454 5.411 0 2.765-1.503 4.329-3.848 4.99v.06c2.586.36 4.75 2.104 4.75 5.17 0 4.389-3.547 5.952-8.477 5.952zm-.36-18.096h-2.646v5.411h2.525c2.465 0 3.547-.902 3.547-2.765 0-1.864-1.142-2.646-3.427-2.646zm-.06 8.657h-2.586v5.952h2.405c2.645 0 4.028-.781 4.028-2.886 0-2.044-1.203-3.066-3.848-3.066zm21.702-6.312c-.36-.18-.962-.42-2.164-.42-1.984 0-3.306 1.382-3.968 2.524v-2.164h-4.328v15.811h4.328v-9.98c.36-.721 1.503-2.404 3.427-2.404.902 0 1.383.18 1.683.36l1.022-3.727zm7.695 16.112c-5.53 0-7.935-4.209-7.935-8.237 0-4.027 2.344-8.356 7.875-8.356 5.531 0 7.996 4.148 7.996 8.236.06 4.028-2.404 8.357-7.936 8.357zm-.06-13.347c-2.404 0-3.246 2.044-3.246 4.99s.962 5.11 3.427 5.11 3.366-1.983 3.366-4.99c-.06-2.945-1.082-5.11-3.547-5.11zm18.637 12.986c-.12-.36-.24-1.202-.24-1.683-.722.841-2.225 2.044-4.45 2.044-2.704 0-4.749-1.623-4.749-4.449 0-4.148 4.27-5.591 8.417-5.591h.541v-.902c0-1.383-.541-2.224-2.585-2.224s-3.427 1.082-4.028 1.503l-1.863-2.645c.962-.842 3.005-2.285 6.372-2.285 4.329 0 6.373 1.683 6.373 5.832v5.65c0 2.165.24 3.668.421 4.69l-4.209.06zm-.902-7.034h-.541c-2.525 0-4.268.722-4.268 2.585 0 1.142.962 1.623 1.924 1.623 1.563 0 2.465-.901 2.946-1.382l-.061-2.826zm14.008-9.138c1.924 0 3.066.661 3.667 1.082V10.26h4.329v18.757c0 2.044.241 3.607.481 4.51h-4.268c-.121-.362-.301-1.203-.301-1.744-.962 1.142-2.345 2.164-4.449 2.164-3.968 0-6.493-3.006-6.493-8.296 0-5.05 3.006-8.297 7.034-8.297zm.722 13.106c1.563 0 2.585-1.082 2.945-1.623v-7.094c-.541-.481-1.382-1.022-2.765-1.022-2.224 0-3.427 1.863-3.427 4.99.061 3.006 1.082 4.749 3.247 4.749zm20.981-12.685c-.361-.18-.962-.42-2.164-.42-1.984 0-3.307 1.382-3.968 2.524v-2.164h-4.329v15.811h4.329v-9.98c.361-.721 1.503-2.404 3.427-2.404.902 0 1.383.18 1.683.36l1.022-3.727zm3.848-2.104c1.443 0 2.465-1.143 2.465-2.405 0-1.263-1.082-2.345-2.465-2.345-1.383 0-2.465 1.082-2.465 2.345 0 1.323 1.022 2.405 2.465 2.405zm-2.164 17.855h4.328V17.714h-4.328v15.811zm13.827-16.172c1.924 0 3.066.661 3.667 1.082V10.26h4.329v18.757c0 2.044.24 3.607.481 4.51h-4.269c-.12-.362-.3-1.203-.3-1.744-.962 1.142-2.345 2.164-4.449 2.164-3.968 0-6.493-3.006-6.493-8.296-.06-5.05 2.946-8.297 7.034-8.297zm.661 13.106c1.563 0 2.586-1.082 2.946-1.623v-7.094c-.541-.481-1.383-1.022-2.766-1.022-2.224 0-3.426 1.863-3.426 4.99.06 3.006 1.082 4.749 3.246 4.749zm25.07-13.106v3.186h-2.104c.421.722.601 1.624.601 2.525 0 3.367-2.405 5.712-6.793 5.712-.662 0-1.323-.06-1.864-.18-.241.18-.601.48-.601.961 0 .842.902 1.022 3.186 1.143 3.246.18 7.455.18 7.455 4.87 0 3.366-3.487 5.71-8.658 5.71-4.328 0-6.973-1.382-6.973-4.208 0-1.743 1.082-3.006 2.645-3.848-.902-.54-1.383-1.262-1.383-2.404 0-1.503.842-2.405 1.804-3.006-1.804-1.022-2.826-2.645-2.826-4.75 0-3.426 2.645-5.71 7.034-5.71h8.477zM168.634 36.23c0 1.263.902 2.165 3.066 2.165 2.645 0 4.088-1.022 4.088-2.345 0-1.683-1.503-1.623-3.787-1.803-.722-.06-1.443-.12-2.165-.241-.781.601-1.202 1.323-1.202 2.224zm6.433-13.166c0-1.863-1.082-2.945-2.886-2.945s-2.886 1.082-2.886 2.945c0 1.804 1.082 2.946 2.886 2.946s2.886-1.142 2.886-2.946zm15.09 7.636c2.164 0 3.366-.722 4.148-1.083l1.383 2.766c-1.023.601-2.646 1.503-5.892 1.503-5.29 0-8.297-3.367-8.297-8.357 0-4.99 3.427-8.236 7.816-8.236 4.93 0 7.334 3.427 6.794 9.258h-10.04c.18 2.525 1.442 4.149 4.088 4.149zm1.803-6.974c-.06-1.804-.721-3.247-2.705-3.247-1.804 0-2.826 1.143-3.127 3.247h5.832zm7.816-1.924a2.22 2.22 0 01-2.225-2.224c0-1.263.962-2.225 2.225-2.225A2.22 2.22 0 01202 19.577a2.22 2.22 0 01-2.224 2.225zm0-4.088c-1.082 0-1.864.781-1.864 1.864 0 1.082.782 1.863 1.864 1.863s1.863-.781 1.863-1.863c0-1.083-.781-1.864-1.863-1.864zm.601 3.186l-.601-.902c-.121-.18-.181-.24-.421-.24v1.202h-.361v-2.705h.902c.541 0 .842.36.842.721 0 .421-.241.602-.662.662.121.06.181.18.301.36l.601.842-.601.06zm-.601-2.284h-.361v.781h.241c.3 0 .601-.06.601-.42 0-.181-.121-.361-.481-.361zM0 .219v43.286h39.017V.219H0zm37.334 1.623v20.02H1.624V5.329h.06c.06 0 7.334-.18 12.143 4.449 1.864 1.803 3.187 4.148 3.848 6.974-1.924-2.164-5.47-4.088-11.483-4.088v1.623c11.724 0 12.084 7.455 12.084 7.515h2.525c0-5.17 1.984-8.778 5.892-10.822 2.946-1.503 5.891-1.563 6.252-1.563V6.892c-.42 0-3.907.06-7.394 1.864-2.044 1.082-4.329 2.886-5.772 5.892-.841-2.646-2.224-4.93-4.148-6.794-5.47-5.23-13.166-5.17-13.888-5.17v-.962c-.12.12 35.59.12 35.59.12z" fill="#F9E9BB"/><path d="M37.334 40.92c-.722 0-8.477.12-13.888-5.17-1.923-1.864-3.306-4.089-4.148-6.794-1.443 3.066-3.727 4.87-5.771 5.892-3.487 1.803-6.974 1.863-7.395 1.863v-2.525c.3 0 3.307-.06 6.253-1.563 3.907-2.044 5.891-5.65 5.891-10.821h2.525c0 .06.3 7.515 12.084 7.515v1.623c-6.072 0-9.559-1.924-11.483-4.088.662 2.825 1.984 5.17 3.848 6.974 4.81 4.689 12.084 4.449 12.144 4.449h.06c-.12.18-.12 2.645-.12 2.645z" fill="#0A0E15"/></g></g><defs><clipPath id="clip0_494_637"><path fill="#fff" transform="translate(0 .219)" d="M0 0h202v43.632H0z"/></clipPath></defs></svg>