<svg width="208" height="42" fill="none" xmlns="http://www.w3.org/2000/svg"><g clip-path="url(#clip0_494_645)"><mask id="a" style="mask-type:luminance" maskUnits="userSpaceOnUse" x="0" y="0" width="208" height="42"><path d="M208 .859H0v40.354h208V.86z" fill="#fff"/></mask><g mask="url(#a)"><mask id="b" style="mask-type:luminance" maskUnits="userSpaceOnUse" x="-6" y="-9" width="223" height="55"><path d="M-5.961-8.97h222.076v54.643H-5.961V-8.97z" fill="#fff"/></mask><g mask="url(#b)"><path fill-rule="evenodd" clip-rule="evenodd" d="M74.845 34.524c-1.138.568-3.643 1.191-6.838 1.191-8.356 0-13.448-5.254-13.448-13.27 0-8.654 6.054-13.88 14.097-13.88 3.183 0 5.417.636 6.392 1.164l-1.043 3.832c-1.232-.555-2.992-1.03-5.146-1.03-5.375 0-9.235 3.346-9.235 9.683 0 5.796 3.386 9.466 9.181 9.466 1.937 0 3.968-.38 5.241-.948l.799 3.792zm7.096-7.408c.135 3.453 2.803 4.957 5.89 4.957 2.208 0 3.792-.352 5.255-.88l.704 3.317c-1.625.677-3.887 1.205-6.649 1.205-6.189 0-9.804-3.819-9.804-9.655 0-5.24 3.182-10.21 9.316-10.21 6.189 0 8.193 5.078 8.193 9.249 0 .893-.068 1.611-.163 2.017H81.941zm8.369-3.345c.027-1.76-.745-4.63-3.968-4.63-2.966 0-4.198 2.68-4.415 4.63h8.383zm9.194-16.209h4.808v27.733h-4.808V7.562zm25.581 23.156c0 1.734.081 3.413.284 4.577h-4.333l-.339-2.112h-.108c-1.151 1.503-3.142 2.546-5.606 2.546-3.873 0-6-2.763-6-5.66 0-4.794 4.266-7.218 11.281-7.191v-.312c0-1.26-.488-3.33-3.859-3.317-1.869 0-3.819.595-5.119 1.408l-.948-3.115c1.435-.88 3.9-1.692 6.892-1.692 6.108 0 7.855 3.845 7.855 8.016v6.852zm-4.686-4.726c-3.399-.04-6.649.677-6.649 3.562 0 1.869 1.233 2.749 2.749 2.749 1.923 0 3.304-1.246 3.765-2.64.108-.326.135-.705.135-1.044v-2.627zm10.36-4.049c0-2.193-.068-4.008-.163-5.646h4.212l.23 2.843h.121c.84-1.476 2.898-3.277 6.054-3.277 3.331 0 6.77 2.126 6.77 8.152V35.31h-4.807V24.584c0-2.735-1.015-4.82-3.642-4.82-1.91 0-3.237 1.353-3.738 2.83-.149.392-.217.974-.217 1.516v11.199h-4.82V21.943zm26.162 5.173c.135 3.453 2.803 4.957 5.877 4.957 2.221 0 3.805-.339 5.254-.88l.718 3.317c-1.638.69-3.9 1.205-6.649 1.205-6.189 0-9.804-3.819-9.804-9.641 0-5.255 3.182-10.224 9.303-10.224 6.188 0 8.206 5.091 8.206 9.249 0 .907-.081 1.611-.162 2.017h-12.743zm8.369-3.345c.013-1.76-.745-4.63-3.968-4.63-2.966 0-4.198 2.68-4.414 4.63h8.382zm9.14 7.11c1.07.65 3.142 1.381 4.862 1.381 2.113 0 3.074-.88 3.074-2.126 0-1.286-.799-1.95-3.142-2.776-3.724-1.273-5.268-3.304-5.254-5.552 0-3.345 2.776-5.958 7.218-5.958 2.098 0 3.941.528 5.051 1.137l-.948 3.386c-.799-.46-2.343-1.097-4.035-1.097-1.707 0-2.668.84-2.668 2.004 0 1.219.934 1.8 3.331 2.668 3.467 1.232 5.064 2.992 5.078 5.795 0 3.467-2.708 5.972-7.732 5.972-2.302 0-4.401-.555-5.796-1.34l.961-3.494zm20.597-3.751c.136 3.44 2.803 4.956 5.878 4.956 2.22 0 3.805-.352 5.254-.88l.717 3.304c-1.625.69-3.9 1.205-6.649 1.205-6.188 0-9.804-3.819-9.804-9.641 0-5.241 3.182-10.21 9.303-10.21 6.189 0 8.206 5.077 8.206 9.248 0 .894-.081 1.612-.162 2.018h-12.743zm8.369-3.358c.014-1.76-.745-4.632-3.967-4.632-2.966 0-4.199 2.695-4.415 4.631h8.382z" fill="#F9E9BB"/></g><path d="M.081 20.995c0 1.22.109 2.41.312 3.575C5.999 10.46 23.523 6.018 31.93 4.665A20.052 20.052 0 0020.204.9C9.087.9.081 9.89.081 20.996zM36.035 8.591c-6.04.745-20.706 5.065-23.495 13.312-1.95 5.796 2.884 7.637 11.158 5.335 3.331-.934 6.69-2.288 9.33-3.819v6.744c-.203.176-4.496 3.183-11.673 5.078-4.97 1.3-10.034 1.76-14.056 1.178a20.088 20.088 0 0012.905 4.672c11.118 0 20.123-8.991 20.123-20.096 0-4.685-1.598-8.991-4.292-12.404z" fill="url(#paint0_radial_494_645)"/></g></g><defs><radialGradient id="paint0_radial_494_645" cx="0" cy="0" r="1" gradientUnits="userSpaceOnUse" gradientTransform="translate(15.383 15.498) scale(25.6208)"><stop stop-color="#F9E9BB"/><stop offset=".7" stop-color="#F9E9BB"/><stop offset="1" stop-color="#F9E9BB"/></radialGradient><clipPath id="clip0_494_645"><path fill="#fff" transform="translate(0 .859)" d="M0 0h208v40.352H0z"/></clipPath></defs></svg>