<svg width="236" height="40" fill="none" xmlns="http://www.w3.org/2000/svg"><g clip-path="url(#clip0_494_656)"><mask id="a" style="mask-type:luminance" maskUnits="userSpaceOnUse" x="0" y="0" width="236" height="39"><path d="M236 .92H0v38.064h236V.919z" fill="#fff"/></mask><g mask="url(#a)"><path fill-rule="evenodd" clip-rule="evenodd" d="M9.213 20.557c.295 0 .606.047.901.125.296.093.575.233.824.404.248.17.481.372.668.605.186.249.342.513.466.793.186.497.425.968.715 1.414.29.455.621.87.994 1.242.383.384.797.72 1.243 1.01.445.29.917.529 1.414.715.295.109.56.264.792.466.233.187.45.42.622.668.17.249.295.529.388.824.093.295.124.59.124.9v6.153c0 .404-.077.808-.233 1.181a3.113 3.113 0 01-.668.994c-.295.28-.621.498-.994.653a2.844 2.844 0 01-1.181.218 2.767 2.767 0 01-1.18-.171 2.8 2.8 0 01-1.01-.668 2.657 2.657 0 01-.638-1.01 2.837 2.837 0 01-.17-1.197v-4.91l-7.07 7.085c-.295.28-.621.498-.994.653a3 3 0 01-2.315 0 3.245 3.245 0 01-.994-.653v-.015a3.245 3.245 0 01-.653-.995 3.298 3.298 0 01-.217-1.165c0-.388.077-.792.217-1.15.156-.372.373-.714.653-.994L8 26.648H3.076a3.03 3.03 0 01-1.18-.171 2.86 2.86 0 01-1.01-.637 2.823 2.823 0 01-.653-1.01 2.556 2.556 0 01-.186-1.181 2.798 2.798 0 01.217-1.18c.156-.374.373-.715.653-1.01.28-.28.621-.513.994-.669a3.002 3.002 0 011.165-.233h6.137zm25.744.016c.404 0 .808.078 1.181.233.357.155.7.388.979.668.295.295.513.621.668 1.01.14.373.218.761.218 1.165.015.404-.047.808-.187 1.196a2.84 2.84 0 01-.653.995 2.95 2.95 0 01-1.025.652c-.373.14-.777.187-1.18.156h-4.91l7.084 7.1a3.128 3.128 0 01.87 2.144 3.13 3.13 0 01-.87 2.144c-.295.28-.621.497-.994.652a3.3 3.3 0 01-1.165.218 3.28 3.28 0 01-1.15-.218 3.248 3.248 0 01-.994-.652l-7.085-7.1v4.925c.031.404-.015.808-.155 1.196-.14.373-.358.715-.637 1.01-.28.28-.622.513-1.01.652a2.758 2.758 0 01-1.18.187c-.405 0-.793-.078-1.182-.218a3.072 3.072 0 01-.994-.652 3.031 3.031 0 01-.901-2.175v-6.122c0-.31.031-.621.124-.9.093-.296.218-.576.389-.84.17-.248.372-.466.621-.668.233-.186.497-.342.792-.45.498-.197.969-.44 1.414-.73a7.684 7.684 0 002.237-2.237c.29-.446.529-.917.715-1.415.125-.295.28-.559.466-.792.187-.249.42-.45.668-.622a3.004 3.004 0 011.725-.513h6.121zm65.564-18.147v9.617h6.215v5.08h-6.215v11.234c0 3.293.762 4.21 3.015 4.21.279 0 .554-.005.823-.016.269-.02.539-.046.808-.077s.538-.073.808-.124c.259-.052.523-.114.792-.187v5.283a21.73 21.73 0 01-1.32.295c-.446.083-.896.155-1.352.217a29.12 29.12 0 01-1.336.125c-.456.03-.912.046-1.367.046v-.031c-5.656 0-7.396-2.066-7.396-8.017V17.124h-4.412v-5.08h4.366V4.165l6.571-1.74zM214.653 11.5c1.554.032 3.123.187 4.661.467l-.202 5.189a11.174 11.174 0 00-1.166-.28 19.635 19.635 0 00-1.18-.217 22.838 22.838 0 00-1.181-.125 15.586 15.586 0 00-1.196-.046c-2.564 0-3.807 1.072-3.807 2.625 0 4.149 10.488 2.3 10.488 10.58 0 5.035-4.413 8.437-11.404 8.437l.031-.015c-.446-.01-.896-.026-1.352-.047-.446-.02-.891-.052-1.336-.093a20.736 20.736 0 01-1.352-.14 26.887 26.887 0 01-1.32-.187l.14-5.375c.455.124.906.228 1.351.31.456.094.917.171 1.383.234.456.072.916.124 1.383.155.455.031.916.052 1.382.062 2.517 0 4.164-1.072 4.164-2.719 0-4.52-10.331-1.957-10.331-10.642 0-4.46 3.651-8.173 10.844-8.173zm-54.906-.015c7.442 0 10.736 5.096 10.736 11.404v.745c-.011.25-.026.498-.047.746l-.062.746-.093.746h-15.817c-.062 4.785 2.3 7.084 7.023 7.084.642 0 1.279-.03 1.911-.093a19.016 19.016 0 001.895-.31c.632-.125 1.254-.29 1.865-.498a19.696 19.696 0 001.786-.683l.606 5.096c-.725.269-1.465.507-2.221.714a27.7 27.7 0 01-2.269.529c-.766.134-1.538.238-2.315.31-.776.063-1.553.093-2.33.093-8.11 0-12.631-4.07-12.631-13.066 0-7.814 4.288-13.563 11.963-13.563zM65.145 2.628c.621 0 1.243.02 1.864.062.611.042 1.228.099 1.85.171.61.083 1.216.181 1.817.295.611.114 1.217.254 1.817.42l-.714 6.06a24.886 24.886 0 00-1.725-.467 30.44 30.44 0 00-1.74-.326c-.58-.094-1.165-.16-1.755-.202a20.267 20.267 0 00-1.771-.078c-6.448 0-9.664 4.878-9.664 11.606 0 7.52 3.138 11.823 10.114 11.823.57-.02 1.144-.062 1.725-.124a18.695 18.695 0 003.356-.746 19.353 19.353 0 001.63-.606l.762 5.95c-.715.26-1.44.487-2.175.684-.735.187-1.476.347-2.222.482-.756.124-1.512.223-2.268.295a27.66 27.66 0 01-2.269.093v.016c-12.118 0-15.987-8.048-15.987-16.686 0-11 5.749-18.722 17.355-18.722zm125.395 8.81c5.764 0 7.613 3.697 7.613 8.171v17.945l-6.525.031V21.241c0-2.672-.715-4.288-3.123-4.288-3.34 0-5.966 3.806-5.966 8.265v12.336h-6.572v-25.51h6.215c0 .383-.006.76-.016 1.133a40.329 40.329 0 01-.186 2.269c-.042.373-.093.75-.156 1.134h.047a9.395 9.395 0 011.522-2.19 9.24 9.24 0 012.067-1.663 9.335 9.335 0 015.08-1.29zm-47.122.605v4.677L133.35 31.588c.855-.03 2.797-.046 4.506-.046h5.779v6.012l-18.379.031v-4.66l10.254-15.133c-.917.062-2.766.108-5.05.108h-4.909v-5.857h17.867zm-30.592 0h6.572v25.542h-6.572V12.043zm-34.413 0h6.556v25.558h-6.556V12.043zm81.116 4.257c-2.703 0-4.614 2.005-4.956 5.08h9.384c.093-3.215-1.647-5.08-4.428-5.08zM15.257.92c.404 0 .808.077 1.18.217.374.155.715.372.995.668.28.28.513.621.668.994.155.357.233.761.233 1.165v6.122c0 .31-.03.621-.124.9a3.424 3.424 0 01-.389.84c-.17.248-.372.466-.621.668a2.98 2.98 0 01-.777.45 7.583 7.583 0 00-2.657 1.725c-.383.383-.72.797-1.01 1.243a7.05 7.05 0 00-.714 1.43c-.124.279-.28.543-.466.776-.187.249-.42.45-.668.622a3.1 3.1 0 01-.824.388c-.295.093-.59.124-.9.124H3.044c-.404 0-.792-.078-1.165-.233a3.114 3.114 0 01-.994-.668 3.245 3.245 0 01-.653-.994 3.1 3.1 0 01-.202-1.181 2.766 2.766 0 01.171-1.18c.14-.39.373-.731.653-1.01.295-.28.637-.498 1.01-.638.372-.14.776-.202 1.18-.17H7.97l-7.084-7.1a3.13 3.13 0 01-.87-2.145 3.13 3.13 0 01.87-2.144h.046c.295-.28.622-.497.995-.637a2.981 2.981 0 012.315 0c.372.14.699.357.994.637l7.085 7.1-.063-4.925a2.872 2.872 0 01.171-1.196c.14-.373.358-.715.637-1.01.28-.28.622-.513 1.01-.652.373-.14.777-.202 1.181-.187zm21.875.87c.28.294.498.62.653.993a3.3 3.3 0 01.218 1.166c0 .388-.078.792-.218 1.15a3.068 3.068 0 01-.653.994l-7.084 7.1h4.91c.403-.031.807.016 1.196.155.372.14.714.358 1.01.637.28.28.512.622.652 1.01.155.373.217.777.186 1.181 0 .404-.062.808-.217 1.18a3.068 3.068 0 01-.653.995c-.28.295-.621.513-.994.668a3.078 3.078 0 01-1.18.233H28.85a2.485 2.485 0 01-.9-.124 2.937 2.937 0 01-.84-.389 3.144 3.144 0 01-.668-.621 2.983 2.983 0 01-.45-.777 7.74 7.74 0 00-.73-1.43 8.183 8.183 0 00-.995-1.242 7.275 7.275 0 00-1.243-.994 7.943 7.943 0 00-1.414-.73 3.354 3.354 0 01-.792-.451 3.522 3.522 0 01-.606-.668 3.476 3.476 0 01-.404-.84 3.41 3.41 0 01-.124-.9V3.964c0-.404.078-.808.233-1.18.155-.373.388-.7.668-.995.295-.28.637-.497 1.01-.652a3.38 3.38 0 011.18-.218c.405-.015.809.047 1.181.187.373.14.715.372.995.652.295.295.512.637.637 1.025.14.373.202.777.17 1.181V8.89l7.085-7.1c.28-.28.622-.497.98-.637a3 3 0 012.314 0c.373.14.715.357.994.637zm194.083 9.896l1.072 3.216c.093.249.165.497.217.746l.094.388.062-.28c.02-.082.046-.17.078-.264.02-.093.046-.18.077-.264a2.02 2.02 0 01.078-.264l1.072-3.232h1.072l.839 5.5-.948-.077-.42-2.921c-.093-.513-.124-.87-.155-1.196l-.015-.156-.062.28c-.021.083-.042.17-.063.264-.02.093-.046.181-.077.264a2.018 2.018 0 01-.078.264l-1.072 3.232h-.932l-.979-2.968a1.577 1.577 0 00-.078-.233 2.365 2.365 0 01-.077-.248l-.062-.249-.063-.248-.062-.327c0 .482-.093.901-.14 1.43l-.357 2.843h-.901l.808-5.5h1.072zm-2.02-.031v.746h-1.523v4.754h-.901V12.4h-1.507v-.746h3.931zM116.245 2.24c.497 0 .994.093 1.46.295.45.186.87.466 1.227.823.357.342.637.762.824 1.228.186.45.295.947.295 1.445 0 .497-.109.978-.295 1.445-.187.45-.451.87-.808 1.227a3.797 3.797 0 01-1.196.839c-.451.202-.933.31-1.43.342h-.202A3.817 3.817 0 01112.36 6a3.792 3.792 0 011.165-2.688 3.792 3.792 0 012.72-1.072zm-34.414 0c.497 0 .995.093 1.46.295.451.186.87.466 1.228.823.357.342.637.762.823 1.228.187.45.295.947.295 1.445 0 .512-.108 1.01-.31 1.491a4.034 4.034 0 01-.855 1.243 4.037 4.037 0 01-1.273.839 4.1 4.1 0 01-1.492.28 3.789 3.789 0 01-2.688-1.166A3.854 3.854 0 0177.947 6a3.788 3.788 0 011.165-2.688 3.787 3.787 0 012.72-1.072z" fill="#F9E9BB"/></g></g><defs><clipPath id="clip0_494_656"><path fill="#fff" transform="translate(0 .92)" d="M0 0h236v38.232H0z"/></clipPath></defs></svg>