<svg width="194" height="36" fill="none" xmlns="http://www.w3.org/2000/svg"><path d="M8.944 15.658h-4.11v7.01h4.352c2.417 0 3.868-1.209 3.868-3.626 0-1.934-1.45-3.384-4.11-3.384zm-.725-9.67H4.835v6.044H8.46c2.417 0 3.384-1.209 3.384-3.143 0-1.934-1.45-2.9-3.626-2.9zM0 2.121h8.46c5.077 0 8.461 1.933 8.461 6.285 0 2.659-1.933 4.593-4.35 5.076 3.867.484 5.8 3.143 5.8 6.043 0 4.593-3.625 7.01-8.46 7.01H.241V2.122H0zM62.851 15.9h7.977c-.242-1.934-1.692-3.627-4.11-3.627-2.175-.241-3.625 1.693-3.867 3.627zm12.812 1.933v1.209H62.85a4.333 4.333 0 004.351 4.351c1.692 0 2.66-.725 3.385-1.692l4.11 1.45c-1.451 2.176-3.869 3.868-7.495 3.868-5.076 0-9.186-3.626-9.186-9.427 0-4.835 3.143-9.186 8.945-9.186 5.56.241 8.702 4.593 8.702 9.427zm132.229-3.867c0-1.21-.967-1.934-1.934-1.934-1.209 0-1.692.725-1.692 1.45 0 .967.483 1.692 3.384 2.66 3.626 1.208 5.077 2.9 5.077 5.559 0 3.143-2.418 5.56-6.769 5.56s-6.527-2.417-6.769-5.56h4.352c0 1.45.725 2.417 2.417 2.417 1.208 0 1.934-.725 1.934-1.933 0-1.21-.726-1.934-3.385-2.66-3.142-.966-4.834-2.659-4.834-5.318 0-3.142 2.417-5.076 6.285-5.076 3.868 0 6.044 2.175 6.285 5.318h-4.351v-.483zM185.169 15.9h7.977c-.242-1.934-1.692-3.627-4.109-3.627-2.176-.241-3.627 1.693-3.868 3.627zm12.812 1.933v1.209h-12.812a4.333 4.333 0 004.351 4.351c1.692 0 2.659-.725 3.384-1.692l4.11 1.45c-1.451 2.176-3.626 3.868-7.494 3.868-5.076 0-9.186-3.626-9.186-9.427 0-4.835 3.142-9.186 8.944-9.186 5.56.241 8.703 4.593 8.703 9.427zM161.479.67h4.834v10.878h.242c1.209-1.934 3.143-2.659 5.076-2.659 3.868 0 6.527 2.66 6.527 7.977v9.912h-4.834v-9.67c0-2.659-1.209-3.868-3.143-3.868-2.175 0-3.626 1.45-3.626 4.352v9.186h-4.835L161.479.67zM149.15 22.668c2.418 0 4.351-1.934 4.351-4.835 0-2.9-1.933-4.834-4.351-4.834-2.901 0-4.351 2.417-4.351 4.834 0 2.418 1.209 4.835 4.351 4.835zm8.945 3.384c0 6.527-2.901 9.911-9.186 9.911-4.11 0-7.253-1.934-8.219-5.318l4.351-1.692c.483 1.692 1.692 2.9 4.109 2.9 2.901 0 4.351-1.933 4.351-5.076v-2.175c-1.208 1.45-2.9 2.417-5.559 2.417-4.352 0-8.219-3.384-8.219-9.186 0-5.076 3.626-9.186 8.46-9.186 2.659 0 4.352 1.45 5.318 2.66h.242V9.13h4.593l-.241 16.921zm-20.79.484h-4.834V24.36c-1.451 1.934-3.143 2.66-5.077 2.66-2.901 0-6.285-1.693-6.285-7.495V9.373h4.835v9.669c0 2.417 1.208 3.868 3.142 3.868 2.176 0 3.385-1.45 3.385-4.352V9.373h4.834v17.163zM112.648 16.14h-9.427v10.395h-5.077V1.879h5.077v9.67h9.427v-9.67h5.077v24.657h-5.077V16.14zm-22.965-2.659c-.725 0-1.45-.242-2.417-.242-2.9 0-4.351 1.692-4.351 4.835v8.46H78.08V9.374h4.835v2.659c.967-1.693 2.66-3.143 5.077-3.143.725 0 1.208 0 1.691.242v4.351zm-41.82 6.043l-1.208.967v6.044H41.82V.67h4.835v14.504l5.56-5.801h5.801l-7.01 7.01 7.977 10.153h-5.801l-5.319-7.01zm-18.37 3.386c2.417 0 4.35-1.934 4.35-4.835 0-3.143-1.933-5.076-4.35-5.076-3.143 0-4.352 2.417-4.352 5.076 0 2.417 1.45 4.835 4.352 4.835zm8.944 3.626h-4.593V24.36H33.6c-1.209 1.45-2.9 2.66-5.56 2.66-3.384 0-7.735-2.66-7.735-9.187 0-5.56 3.867-9.186 8.219-9.186 2.659 0 4.35 1.45 5.318 2.66h.242V9.13h4.593l-.242 17.405z" fill="#F9E9BB"/></svg>