<svg width="52" height="53" fill="none" xmlns="http://www.w3.org/2000/svg"><path d="M50.333 26.081L47 21.706l1.108-5.385a.692.692 0 00-.365-.758l-4.903-2.49-1.339-5.334a.692.692 0 00-.657-.522l-5.496-.124-3.523-4.225a.692.692 0 00-.82-.187L26 4.964l-5.005-2.285a.695.695 0 00-.82.188l-3.521 4.225-5.496.121a.692.692 0 00-.657.523l-1.34 5.334-4.903 2.488a.69.69 0 00-.366.756L5 21.703l-3.332 4.379a.693.693 0 000 .838L5 31.297 3.891 36.68a.692.692 0 00.364.758l4.903 2.487 1.339 5.335a.692.692 0 00.657.522l5.497.124 3.523 4.227a.691.691 0 00.819.187L26 48.038l5.005 2.283a.69.69 0 00.819-.187l3.521-4.225 5.496-.12a.695.695 0 00.657-.525l1.34-5.332 4.904-2.49a.69.69 0 00.365-.756L47 31.298l3.333-4.377a.693.693 0 000-.84zm-4.626 4.628a.69.69 0 00-.127.558l1.064 5.179-4.715 2.393a.69.69 0 00-.359.448l-1.287 5.126L35 44.53a.694.694 0 00-.516.25L31.1 48.841l-4.811-2.195a.71.71 0 00-.576 0L20.9 48.841l-3.386-4.062a.687.687 0 00-.517-.249l-5.283-.12-1.287-5.128a.69.69 0 00-.359-.448l-4.713-2.392 1.065-5.175a.693.693 0 00-.127-.56L3.09 26.501l3.202-4.21a.69.69 0 00.127-.558l-1.064-5.178 4.715-2.392a.69.69 0 00.36-.448l1.286-5.128L17 8.47a.694.694 0 00.516-.25l3.385-4.061 4.811 2.197a.71.71 0 00.576 0L31.1 4.161l3.386 4.06a.687.687 0 00.517.25l5.283.118 1.287 5.13a.69.69 0 00.359.447l4.713 2.394-1.064 5.175c-.04.196.006.4.127.56L48.91 26.5l-3.203 4.208z" fill="#A78438"/><path d="M25.554 9.707c-9.258 0-16.792 7.533-16.792 16.793 0 9.26 7.533 16.793 16.792 16.793 9.26 0 16.793-7.533 16.793-16.793 0-9.26-7.534-16.793-16.793-16.793zm0 32.199c-8.495 0-15.406-6.91-15.406-15.406 0-8.495 6.911-15.406 15.406-15.406 8.496 0 15.407 6.91 15.407 15.406 0 8.495-6.911 15.406-15.407 15.406z" fill="#A78438"/><path d="M29.767 21.52l.352-3.058c.064-.56-.01-1.13-.215-1.646-.979-2.462-2.629-2.826-3.495-2.761a1.614 1.614 0 00-1.559 1.799l.28 2.417a1.92 1.92 0 01-.203 1.12l-2.457 4.277a1.613 1.613 0 01-.53.588l-.13.073a.692.692 0 00-.64-.431h-4.915a.694.694 0 00-.693.693v9.544c0 .383.31.694.693.694h4.916a.69.69 0 00.687-.67l.377.22a5.39 5.39 0 002.748.752l7.823-.001a2.32 2.32 0 002.367-2.026 2.373 2.373 0 00-.027-.787 2.33 2.33 0 001.499-1.877 2.335 2.335 0 00-.267-1.418 2.312 2.312 0 001.07-1.959c0-.636-.273-1.201-.695-1.625.103-.105.228-.185.31-.309a2.334 2.334 0 00.32-1.84 2.302 2.302 0 00-2.26-1.77h-5.356zm-9.289 11.922h-3.53v-8.157h3.53v8.157zm15.557-9.835a.967.967 0 01-.127.76.938.938 0 01-.588.395h-4.945a.694.694 0 000 1.387h4.947a.938.938 0 01-.198 1.855h-5.061a.694.694 0 000 1.387h4.804c.277.2.45.522.405.868a.938.938 0 01-1.053.81c-.01-.001-.02.006-.03.005-.02-.002-.037-.012-.058-.012l-4.407-.01h-.002a.693.693 0 00-.002 1.387l4.008.01c.06.147.093.305.072.474-.065.482-.476.908-.974.822h-7.843a4.02 4.02 0 01-2.044-.558l-.713-.42a.92.92 0 00-.363-.1v-6.868a.705.705 0 00.303-.08l.486-.274c.438-.279.798-.67 1.03-1.107l2.457-4.278c.32-.6.447-1.275.369-1.95l-.281-2.417a.231.231 0 01.222-.255c.95.007 1.659.61 2.167 1.89.122.303.165.644.127.977l-.426 3.736a.7.7 0 00.676.866h6.131c.432 0 .815.294.91.7z" fill="#A78438"/></svg>