<svg width="52" height="53" fill="none" xmlns="http://www.w3.org/2000/svg"><path d="M21.499 14.004a.816.816 0 00-1.113.284 6.446 6.446 0 00-.886 3.274c0 3.584 2.917 6.5 6.5 6.5s6.5-2.916 6.5-6.5c0-3.583-2.917-6.5-6.5-6.5-1.04 0-2.015.236-2.909.691a.818.818 0 00-.357 1.097.81.81 0 001.097.35A4.713 4.713 0 0126 12.687a4.879 4.879 0 014.875 4.874A4.879 4.879 0 0126 22.438a4.879 4.879 0 01-4.875-4.875c0-.869.227-1.722.658-2.445a.816.816 0 00-.284-1.113z" fill="#A78438"/><path d="M21.28 31.4a.82.82 0 01.47.381l3.535 6.484a.817.817 0 001.43 0l3.534-6.476a.856.856 0 01.48-.39 14.474 14.474 0 005.695-3.6.802.802 0 00-.016-1.145.809.809 0 00-1.145.016 12.959 12.959 0 01-5.054 3.193 2.441 2.441 0 00-1.381 1.146l-2.82 5.176L23.181 31c-.3-.544-.797-.95-1.382-1.138-5.89-2.014-9.465-7.759-8.685-13.966.723-5.85 5.509-10.58 11.383-11.245 3.77-.415 7.377.723 10.172 3.225a13.02 13.02 0 014.34 9.693 12.93 12.93 0 01-1.845 6.671.815.815 0 00.276 1.113.808.808 0 001.113-.276 14.579 14.579 0 002.072-7.5c0-4.16-1.78-8.133-4.875-10.903-3.144-2.811-7.215-4.095-11.44-3.624-6.614.748-12 6.07-12.813 12.659-.87 6.98 3.144 13.438 9.782 15.705V31.4zm20.97 8.913c-2.413 0-4.412 1.763-4.802 4.062h-6.646c-.39-2.3-2.389-4.063-4.802-4.063s-4.412 1.764-4.802 4.063h-6.646a5.02 5.02 0 00-.748-1.91.812.812 0 00-1.129-.227.807.807 0 00-.228 1.13c.366.552.553 1.178.553 1.828a3.25 3.25 0 11-6.5 0 3.25 3.25 0 013.25-3.25c.13 0 .252 0 .374.024a.813.813 0 00.95-.642.813.813 0 00-.642-.95 3.35 3.35 0 00-.682-.057 4.879 4.879 0 00-4.875 4.875A4.879 4.879 0 009.75 50.07c2.413 0 4.412-1.764 4.802-4.063h6.646c.39 2.3 2.389 4.063 4.802 4.063s4.412-1.764 4.802-4.063h6.646c.39 2.3 2.389 4.063 4.802 4.063.61 0 1.21-.114 1.78-.334a.807.807 0 00.462-1.048.807.807 0 00-1.048-.463c-.382.147-.78.22-1.194.22a3.25 3.25 0 110-6.5 3.25 3.25 0 013.25 3.25c0 .414-.073.812-.22 1.194a.81.81 0 001.512.585 4.879 4.879 0 00-4.542-6.654v-.008zM26 48.437a3.25 3.25 0 110-6.5 3.25 3.25 0 110 6.5z" fill="#A78438"/></svg>