<svg width="52" height="52" fill="none" xmlns="http://www.w3.org/2000/svg"><g clip-path="url(#clip0_132_2334)" fill="#A78438"><path d="M37.753 15.604C34.602 14.45 30.428 13.813 26 13.813s-8.602.636-11.753 1.791c-3.391 1.244-5.259 2.994-5.259 4.928 0 .564.16 1.393.477 2.464a.761.761 0 101.461-.431c-.374-1.267-.414-1.843-.414-2.033 0-2.457 6.36-5.196 15.488-5.196 9.127 0 15.488 2.739 15.488 5.196 0 .623-.37 2.157-1.186 4.271-4.044-1.195-9.088-1.85-14.302-1.85-5.511 0-10.832.731-14.982 2.059a.762.762 0 10.464 1.45c4.004-1.28 9.16-1.985 14.518-1.985 5.358 0 10.514.705 14.518 1.986l.006.001c.034.01.068.019.102.024l.02.003a.74.74 0 00.104.008h.007a.764.764 0 00.108-.009.3.3 0 00.043-.01.588.588 0 00.07-.016l.045-.017c.02-.008.041-.016.061-.026.015-.007.029-.016.043-.024a.398.398 0 00.056-.034l.04-.03a.804.804 0 00.05-.042l.036-.038a.755.755 0 00.131-.197c.005-.01.012-.02.016-.031.974-2.392 1.556-4.445 1.556-5.492 0-1.935-1.868-3.685-5.26-4.929zM10.955 34.06a.76.76 0 00-.889-.137 1.779 1.779 0 01-2.57-1.235 1.782 1.782 0 011.375-2.08 1.794 1.794 0 011.202.168c.291.154.65.091.882-.142a.76.76 0 00-.171-1.207 3.284 3.284 0 00-1.542-.38c-1.02 0-1.97.46-2.612 1.282a3.246 3.246 0 00-.663 1.601 3.29 3.29 0 00.941 2.752 3.279 3.279 0 002.334.966c.546 0 1.072-.131 1.541-.38a.76.76 0 00.172-1.207zm34.137-4.046a3.278 3.278 0 00-2.334-.967c-.546 0-1.072.131-1.541.38a.76.76 0 00-.172 1.207.76.76 0 00.889.138 1.778 1.778 0 11-.007 3.148.753.753 0 00-.882.14.764.764 0 00.191 1.219 3.312 3.312 0 003.542-.32 3.29 3.29 0 001.28-2.611 3.28 3.28 0 00-.966-2.334z"/><path d="M52 26.624c0-2.024-2.13-3.671-4.748-3.671a6.08 6.08 0 00-1.604.213c.272-1.05.41-1.932.41-2.634 0-1.346-.449-3.34-2.59-5.197a11.185 11.185 0 00-1.242-.926 3.804 3.804 0 00-2.376-4.526c-2.336-.857-5.091-1.477-8.056-1.828a.757.757 0 00.046-.259 3.043 3.043 0 00-2.869-3.042 53.56 53.56 0 00-5.942 0 3.043 3.043 0 00-2.869 3.042c0 .091.017.178.046.259-2.965.351-5.72.971-8.056 1.828a3.784 3.784 0 00-2.145 1.974 3.78 3.78 0 00-.233 2.553c-.453.294-.869.604-1.24.925-2.141 1.857-2.59 3.851-2.59 5.197 0 .702.138 1.585.41 2.634a6.077 6.077 0 00-1.604-.213C2.13 22.953 0 24.6 0 26.624c0 1.639 1.374 3.025 3.296 3.498a4.036 4.036 0 00-.401 1.718c0 1.182.595 3.434 1.605 6.089a2.26 2.26 0 00-.59 1.528v1.016a2.288 2.288 0 002.285 2.285h.762v2.285a2.288 2.288 0 002.285 2.285h4.063a2.288 2.288 0 002.285-2.285v-2.285h20.82v2.285a2.288 2.288 0 002.285 2.285h4.063a2.288 2.288 0 002.285-2.285v-2.285h.762a2.288 2.288 0 002.285-2.285v-1.016a2.26 2.26 0 00-.59-1.528c.727-1.91 1.72-4.854 1.592-6.401a4.058 4.058 0 00-.39-1.406C50.626 29.649 52 28.26 52 26.624zM21.684 7.796a1.52 1.52 0 011.43-1.52 52.088 52.088 0 015.773 0 1.52 1.52 0 011.43 1.52c0 .037.003.073.008.108A50.143 50.143 0 0026 7.72c-1.466 0-2.914.063-4.325.185a.77.77 0 00.009-.108zM9.53 16.486c.443-.383.964-.751 1.55-1.093a16.627 16.627 0 012.643-1.22 24.8 24.8 0 011.235-.412.762.762 0 00-.444-1.457c-.456.139-.899.287-1.316.44-.721.264-1.396.554-2.018.866a2.273 2.273 0 01.207-1.112 2.27 2.27 0 011.287-1.185c3.642-1.335 8.375-2.07 13.326-2.07 4.951 0 9.684.735 13.326 2.07a2.288 2.288 0 011.494 2.297 19.564 19.564 0 00-2.019-.867c-3.478-1.275-8.025-1.978-12.801-1.978-2.936 0-5.86.272-8.454.786a.762.762 0 00.296 1.495c2.499-.495 5.32-.757 8.158-.757 4.602 0 8.962.67 12.277 1.885.989.362 1.878.772 2.643 1.219.585.341 1.107.71 1.55 1.094 1.707 1.48 2.065 3.017 2.065 4.046 0 .86-.281 2.161-.814 3.764a37.284 37.284 0 01-.832 2.248l-.01.028-.063-.001h-.053c-2.098 0-4.032.922-5.282 2.495a2.754 2.754 0 00-.309-.02H14.828c-.104 0-.208.008-.312.02a6.679 6.679 0 00-5.395-2.494l-.01-.028a37.44 37.44 0 01-.823-2.22c-.539-1.616-.823-2.927-.823-3.793 0-1.028.358-2.566 2.065-4.045zm24.087 15.608a.762.762 0 00-.761.762v4.316h-1.524v-4.316a.762.762 0 10-1.523 0v4.316h-1.524v-4.316a.762.762 0 10-1.523 0v4.316h-1.524v-4.316a.762.762 0 10-1.523 0v4.316H22.19v-4.316a.762.762 0 10-1.523 0v4.316h-1.523v-4.316a.762.762 0 10-1.524 0v4.316h-4.06V31.84a1.266 1.266 0 011.27-1.27h22.343a1.266 1.266 0 011.27 1.27v5.332H34.38v-4.316a.762.762 0 00-.762-.762zM4.22 28.742c-1.518-.172-2.697-1.073-2.697-2.118 0-1.164 1.477-2.147 3.225-2.147.816 0 1.58.204 2.18.578.19.556.403 1.133.636 1.723-1.326.323-2.49 1.011-3.344 1.964zm.198 3.098c0-.363.095-.746.274-1.108.11-.223.24-.433.387-.633a.763.763 0 00.168-.215c.771-.927 1.929-1.557 3.257-1.737 1.725-.235 3.366.33 4.535 1.55a2.785 2.785 0 00-1.004 2.143v5.332h-5.84c-.115 0-.23.01-.342.027-1.052-2.794-1.435-4.589-1.435-5.36zm9.648 13.203c0 .42-.341.762-.761.762H9.242a.762.762 0 01-.762-.762v-2.285h5.586v2.285zm29.454 0c0 .42-.342.762-.762.762h-4.063a.762.762 0 01-.761-.762v-2.285h5.586v2.285zm3.046-4.57c0 .42-.341.761-.761.761H6.195a.763.763 0 01-.761-.761v-1.016a.76.76 0 01.369-.65.742.742 0 01.392-.112h39.61a.74.74 0 01.392.113c.231.141.37.384.37.649v1.016zm-.42-3.274a2.247 2.247 0 00-.341-.027h-5.84V31.84c0-.85-.383-1.628-1.01-2.148.96-1.011 2.329-1.597 3.808-1.597h.042c1.774.014 3.383.869 4.303 2.288.278.427.43.843.465 1.27.088 1.058-.638 3.445-1.426 5.546zm1.618-8.455a6.6 6.6 0 00-3.327-1.97c.233-.588.446-1.164.635-1.719.6-.374 1.364-.579 2.18-.579 1.748 0 3.225.984 3.225 2.148 0 1.047-1.189 1.952-2.713 2.12z"/></g><defs><clipPath id="clip0_132_2334"><path fill="#fff" d="M0 0h52v52H0z"/></clipPath></defs></svg>