<svg width="52" height="52" fill="none" xmlns="http://www.w3.org/2000/svg"><path d="M48.349 22.67a22.2 22.2 0 00-6.53-15.008A22.225 22.225 0 0026 1.105c-12.065 0-21.923 9.603-22.348 21.566a5.26 5.26 0 00-3.13 4.803v5.9a5.261 5.261 0 005.256 5.255c1.875 0 3.4-1.525 3.4-3.4v-9.611c0-1.76-1.35-3.197-3.067-3.367C6.745 11.829 15.42 3.543 26 3.543c5.323 0 10.33 2.075 14.097 5.843 3.46 3.46 5.484 7.969 5.789 12.866-1.715.172-3.063 1.607-3.063 3.366v9.61c0 1.775 1.371 3.22 3.108 3.37v2.429a4.966 4.966 0 01-4.96 4.96h-3.673a3.654 3.654 0 00-3.467-2.468h-3.786a3.61 3.61 0 00-1.543.337 3.695 3.695 0 00-2.145 3.35c0 .985.384 1.912 1.08 2.605a3.66 3.66 0 002.608 1.082h3.786c1.57 0 2.953-1.015 3.47-2.47h3.67c4.08 0 7.398-3.317 7.398-7.396v-2.863a5.26 5.26 0 003.109-4.792v-5.9a5.26 5.26 0 00-3.13-4.801zm-41.61 2.948v9.61c0 .53-.43.963-.962.963a2.821 2.821 0 01-2.818-2.818v-5.9a2.82 2.82 0 012.818-2.818c.531 0 .963.432.963.963zm28.315 21.849c-.121.573-.637.99-1.224.99h-3.786c-.333 0-.646-.13-.885-.369a1.237 1.237 0 01-.366-.881 1.253 1.253 0 011.25-1.25h3.787c.333 0 .646.13.884.368a1.237 1.237 0 01.34 1.142zM49.04 33.373a2.821 2.821 0 01-2.818 2.818.964.964 0 01-.962-.963v-9.61c0-.53.431-.963.962-.963a2.821 2.821 0 012.818 2.818v5.9z" fill="#A78438"/><path d="M33.892 33.793a5.17 5.17 0 005.164-5.164V18.106a5.13 5.13 0 00-1.514-3.65 5.129 5.129 0 00-3.65-1.514H18.108a5.17 5.17 0 00-5.164 5.164V28.63a5.17 5.17 0 005.164 5.164h.097v2.727a2.526 2.526 0 002.528 2.538c.664 0 1.31-.263 1.784-.753l4.537-4.512h6.838zm-8.2-2.083l-4.908 4.882c-.022.023-.038.04-.085.02-.056-.023-.056-.06-.056-.092v-3.946c0-.672-.545-1.218-1.219-1.218H18.11a2.73 2.73 0 01-2.727-2.727V18.106a2.73 2.73 0 012.727-2.727h15.783c.727 0 1.41.285 1.927.8.517.518.8 1.202.8 1.927V28.63a2.73 2.73 0 01-2.727 2.727h-7.34a1.22 1.22 0 00-.86.354z" fill="#A78438"/><path d="M20.08 21.764a1.8 1.8 0 00-1.799 1.798c0 .99.808 1.798 1.798 1.798.992 0 1.8-.807 1.8-1.798 0-.99-.807-1.798-1.8-1.798zm5.92 0a1.8 1.8 0 00-1.799 1.798c0 .99.808 1.798 1.798 1.798.993 0 1.8-.807 1.8-1.798 0-.99-.807-1.798-1.8-1.798zm5.92 0a1.8 1.8 0 00-1.799 1.798c0 .99.808 1.798 1.798 1.798.992 0 1.8-.807 1.8-1.798 0-.99-.808-1.798-1.8-1.798z" fill="#A78438"/></svg>