<svg width="53" height="50" fill="none" xmlns="http://www.w3.org/2000/svg"><path d="M51.868 43.944c-1.026-.67-2.004-1.019-3.077-1.097a2.894 2.894 0 01-2.51-1.888l-.724-1.991a.768.768 0 10-1.443.525l.724 1.991a4.432 4.432 0 003.841 2.894c.61.045 1.17.204 1.755.504l-8.775 3.193a4.443 4.443 0 011.02-1.514 4.432 4.432 0 001.083-4.685l-3.088-8.482a9.276 9.276 0 001.077-.391l1.068 2.934a.768.768 0 101.443-.526l-1.144-3.144a9.38 9.38 0 003.558-4.29 9.38 9.38 0 00-.197-7.56L40.621 8.033a1.564 1.564 0 00-1.957-.804l-12.19 4.437a1.598 1.598 0 00-.267.126 1.604 1.604 0 00-.265-.126l-3.676-1.338a.768.768 0 10-.525 1.444l3.675 1.337a.035.035 0 01.022.042l-1.428 5.454a6.099 6.099 0 00-2.147-1.338 6.14 6.14 0 00-5.01.389 6.14 6.14 0 00-3.595-3.513 6.102 6.102 0 00-2.49-.352l2.414-5.101a.035.035 0 01.043-.018l4.962 1.806a.768.768 0 00.526-1.443L13.75 7.23a1.564 1.564 0 00-1.956.804L5.935 20.416a9.38 9.38 0 00-.196 7.562 9.381 9.381 0 003.558 4.29l-3.164 8.69a2.894 2.894 0 01-2.51 1.889c-1.072.078-2.05.427-3.076 1.097-.385.251-.591.69-.539 1.147.053.455.353.835.783.992l10.104 3.677a1.195 1.195 0 001.237-.256c.334-.316.458-.785.325-1.225-.356-1.173-.88-2.069-1.652-2.819a2.894 2.894 0 01-.71-3.059l3.165-8.692a9.371 9.371 0 005.483-.998 9.38 9.38 0 004.71-5.92l2.754-10.515 2.755 10.516a9.304 9.304 0 002.93 4.707.768.768 0 001.003-1.162 7.777 7.777 0 01-2.447-3.934l-.649-2.476a6.029 6.029 0 003.047-.296 6.138 6.138 0 003.876-4.482.765.765 0 00.046-.215 4.533 4.533 0 012.9-3.35 4.503 4.503 0 012.772-.116l2.651 5.605c.94 1.985 1 4.29.165 6.321a7.841 7.841 0 01-4.562 4.38 7.765 7.765 0 01-4.75.192.768.768 0 10-.41 1.48 9.31 9.31 0 003.622.267L42.32 42.4a2.894 2.894 0 01-.71 3.06c-.771.75-1.296 1.645-1.651 2.818-.134.44-.01.909.324 1.225a1.196 1.196 0 001.238.256l10.103-3.677c.431-.157.731-.537.783-.992a1.198 1.198 0 00-.538-1.147zM12.732 15.587a4.596 4.596 0 012.809 2.973 4.527 4.527 0 01-4.076.487 4.55 4.55 0 01-2.305-1.855l.813-1.72a4.505 4.505 0 012.76.115zm-4.079 26.29a4.432 4.432 0 001.082 4.684c.439.427.766.91 1.02 1.514l-8.774-3.194a4.442 4.442 0 011.755-.503 4.432 4.432 0 003.84-2.894l3.087-8.481a9.071 9.071 0 001.078.391l-3.088 8.482zm13.314-15.474a7.842 7.842 0 01-3.937 4.948 7.842 7.842 0 01-6.31.422 7.842 7.842 0 01-4.561-4.379 7.843 7.843 0 01.164-6.321l1.095-2.313a6.08 6.08 0 002.524 1.731 6.138 6.138 0 005.85-.942.763.763 0 00.174-.135 4.533 4.533 0 014.374-.702c.905.327 1.66.91 2.198 1.693l-1.57 5.998zm10.35-4.214a4.55 4.55 0 01-2.957.06l-.483-1.84a4.507 4.507 0 012.188-1.686 4.595 4.595 0 014.062.473 4.526 4.526 0 01-2.81 2.993zm6.823-8.047a6.14 6.14 0 00-3.589 3.519 6.14 6.14 0 00-5.011-.38c-.8.29-1.526.746-2.134 1.328l-1.43-5.457a.035.035 0 01.022-.042L39.19 8.673a.035.035 0 01.043.018l2.411 5.095a6.101 6.101 0 00-2.504.356zm10.585 9.633h-.002a.768.768 0 00-.002 1.536l1.082.003h.002a.768.768 0 00.002-1.535l-1.082-.004zm-.463-1.168c.135 0 .27-.035.394-.11l.939-.562a.768.768 0 10-.79-1.317l-.938.562a.768.768 0 00.395 1.427zm-.413 5.294l.935.568a.765.765 0 001.055-.258.768.768 0 00-.258-1.054l-.936-.568a.768.768 0 10-.796 1.312zM1.61 25.316h.003l1.082-.005a.768.768 0 00-.007-1.536l-1.082.005a.768.768 0 00.003 1.535zm.205-3.379l.94.56a.764.764 0 001.053-.266.768.768 0 00-.266-1.053l-.94-.56a.768.768 0 10-.787 1.319zm.958 4.651l-.935.57a.768.768 0 00.8 1.31l.934-.569a.768.768 0 00-.8-1.311z" fill="#A78438"/><path d="M25.213 9.486c.276.276.64.414 1.003.414.365 0 .73-.14 1.006-.417l3.706-3.719a3.384 3.384 0 00-.008-4.78 3.384 3.384 0 00-4.717-.053 3.384 3.384 0 00-4.717.07 3.384 3.384 0 00.008 4.78l3.719 3.705zm-2.639-7.402c.348-.349.81-.542 1.303-.542h.004c.491 0 .953.19 1.302.538l.48.479c.3.299.786.298 1.086-.002l.479-.48a1.847 1.847 0 012.608-.005c.72.718.723 1.888.005 2.609l-3.626 3.637-3.637-3.625a1.832 1.832 0 01-.542-1.304c-.001-.492.19-.956.538-1.305z" fill="#A78438"/></svg>